M48
; DRILL file KiCad 10.0.4 date 2026-09-20T20:21:15
; FORMAT={-:-/ absolute / metric / decimal}
; #@! TF.CreationDate,2026-09-20T20:21:15-04:00
; #@! TF.GenerationSoftware,Kicad,Pcbnew,10.0.4
; #@! TF.FileFunction,MixedPlating,1,4
FMAT,2
METRIC
; #@! TA.AperFunction,Plated,PTH,ViaDrill
T1C0.300
; #@! TA.AperFunction,Plated,PTH,ComponentDrill
T2C0.750
; #@! TA.AperFunction,Plated,PTH,ComponentDrill
T3C0.800
; #@! TA.AperFunction,Plated,PTH,ComponentDrill
T4C0.900
; #@! TA.AperFunction,Plated,PTH,ComponentDrill
T5C0.950
; #@! TA.AperFunction,Plated,PTH,ComponentDrill
T6C1.000
; #@! TA.AperFunction,Plated,PTH,ComponentDrill
T7C1.020
; #@! TA.AperFunction,Plated,PTH,ComponentDrill
T8C1.100
; #@! TA.AperFunction,Plated,PTH,ComponentDrill
T9C1.200
; #@! TA.AperFunction,Plated,PTH,ComponentDrill
T10C1.300
; #@! TA.AperFunction,Plated,PTH,ComponentDrill
T11C1.600
; #@! TA.AperFunction,NonPlated,NPTH,ComponentDrill
T12C1.100
; #@! TA.AperFunction,NonPlated,NPTH,ComponentDrill
T13C1.200
; #@! TA.AperFunction,NonPlated,NPTH,ComponentDrill
T14C2.700
%
G90
G05
T1
X14.986Y-153.543
X15.5Y-151.5
X25.273Y-120.65
X27.5Y-69.5
X32.5Y-70.5
X45.466Y-185.928
X49.403Y-71.12
X49.5Y-68.5
X50.673Y-133.5
X51.5Y-130.5
X52.324Y-211.709
X53.5Y-52.5
X53.5Y-152.5
X54.5Y-96.5
X54.5Y-128.5
X55.245Y-210.329
X58.5Y-128.5
X58.5Y-150.5
X60.071Y-210.185
X60.706Y-134.239
X61.5Y-90.5
X61.5Y-153.5
X64.5Y-96.266
X68.5Y-107.5
X69.5Y-56.5
X70.5Y-110.5
X71.5Y-68.5
X73.5Y-90.5
X73.5Y-150.5
X74.5Y-52.5
X74.676Y-122.555
X74.803Y-144.272
X76.5Y-70.5
X76.5Y-139.5
X77.5Y-90.5
X77.5Y-128.5
X79.375Y-140.716
X81.026Y-212.217
X82.538Y-208.573
X83.693Y-212.725
X84.963Y-182.88
X86.5Y-87.5
X87.503Y-131.953
X89.916Y-155.067
X90.5Y-52.5
X90.805Y-149.225
X91.694Y-157.48
X94.5Y-41.5
X94.5Y-52.5
X94.5Y-54.5
X98.044Y-118.491
X101.092Y-84.836
X101.473Y-211.836
X102.235Y-71.628
X110.49Y-50.927
X110.617Y-47.244
X111.5Y-52.5
X113.5Y-60.5
X114.5Y-52.5
X114.5Y-87.5
X115.5Y-57.5
X118.5Y-56.5
X119.5Y-119.5
X119.507Y-142.875
X120.904Y-136.652
X120.904Y-156.21
X121.285Y-183.134
X121.5Y-81.5
X123.571Y-148.844
X125.222Y-181.737
X125.603Y-81.534
X133.096Y-81.28
X135.763Y-127.635
X135.89Y-192.659
X136.652Y-143.637
X137.541Y-119.507
X138.5Y-83.5
X138.938Y-141.5
X139.5Y-24.5
X139.5Y-120.5
X140.49Y-129.44
X141.5Y-141.5
X142.5Y-41.5
X145.5Y-50.5
X146.5Y-120.5
X148.5Y-141.5
X148.645Y-139.772
X150.5Y-67.5
X154.813Y-194.691
X157.099Y-93.726
X158.345Y-131.572
X159.131Y-211.836
X160.5Y-58.5
X161.5Y-52.5
X162.5Y-55.5
X163.449Y-118.872
X164.5Y-43.053
X164.973Y-153.543
X165.5Y-54.5
X165.735Y-39.243
X168.5Y-22.5
X168.5Y-52.5
X168.5Y-54.5
X168.5Y-65.5
X170.688Y-83.439
X171.5Y-68.5
X172.085Y-84.963
X172.5Y-13.5
X172.593Y-118.745
X173.5Y-151.5
X173.99Y-51.689
X174.117Y-64.77
X175.006Y-121.539
X176.022Y-68.58
X176.155Y-107.5
X176.657Y-86.106
X177.038Y-122.555
X177.673Y-130.175
X179.5Y-107.5
X179.5Y-131.5
X180.213Y-68.326
X181.5Y-134.5
X182.118Y-142.875
X182.626Y-83.82
X185.547Y-195.453
X187.579Y-173.99
X188.341Y-157.353
X188.722Y-161.671
X189.484Y-121.539
X194.564Y-131.064
X194.731Y-130.28
X194.818Y-83.25
X195.5Y-130.5
X196.088Y-174.371
X196.342Y-149.225
X197.993Y-130.25
X199.644Y-128.524
X206.5Y-176.5
X209.169Y-68.75
X213.5Y-128.5
X214.5Y-55.5
X214.503Y-53.467
X214.503Y-58.801
X214.503Y-68.58
X215.053Y-68.75
X217.043Y-39.243
X230.5Y-148.5
X231.902Y-81.75
X234.5Y-82.5
X240.538Y-77.47
X243.085Y-107.5
X246.5Y-107.5
X246.5Y-110.5
X259.715Y-127.508
X272.288Y-79.756
X295.5Y-81.5
T2
X16.76Y-103.978
X18.03Y-103.978
X19.3Y-103.978
X190.5Y-75.791
X191.77Y-75.791
X193.04Y-75.791
X227.762Y-75.791
X229.032Y-75.791
X230.302Y-75.791
T3
X16.075Y-124.834
X16.075Y-146.371
X26.235Y-124.834
X26.235Y-146.371
X32.135Y-102.788
X36.89Y-18.098
X38.385Y-124.834
X38.385Y-146.371
X39.39Y-18.098
X42.295Y-102.788
X48.545Y-124.834
X48.545Y-146.371
X51.54Y-18.098
X54.04Y-18.098
X54.445Y-102.788
X60.695Y-124.834
X60.695Y-146.371
X64.605Y-102.788
X66.19Y-18.098
X68.69Y-18.098
X70.855Y-124.834
X70.855Y-146.371
X76.755Y-102.788
X80.84Y-18.348
X83.005Y-124.834
X83.005Y-146.371
X85.84Y-18.348
X86.915Y-102.788
X93.165Y-124.834
X93.165Y-146.371
X97.99Y-18.098
X99.065Y-102.788
X100.49Y-18.098
X105.315Y-124.834
X105.315Y-146.371
X109.225Y-102.788
X112.64Y-18.098
X115.14Y-18.098
X115.475Y-124.834
X115.475Y-146.371
X121.375Y-102.788
X127.29Y-18.098
X127.625Y-124.834
X127.625Y-146.371
X128.243Y-182.126
X128.243Y-189.746
X129.79Y-18.098
X130.783Y-182.126
X130.783Y-189.746
X131.535Y-102.788
X133.323Y-182.126
X133.323Y-189.746
X135.863Y-182.126
X135.863Y-189.746
X137.785Y-124.834
X137.785Y-146.371
X138.403Y-182.126
X138.403Y-189.746
X140.943Y-182.126
X140.943Y-189.746
X141.94Y-18.098
X143.483Y-182.126
X143.483Y-189.746
X143.685Y-102.788
X144.44Y-18.098
X146.023Y-182.126
X146.023Y-189.746
X149.935Y-146.371
X153.845Y-102.788
X156.59Y-18.098
X159.09Y-18.098
X160.095Y-146.371
X162.379Y-182.126
X162.379Y-189.746
X164.919Y-182.126
X164.919Y-189.746
X165.995Y-102.788
X167.459Y-182.126
X167.459Y-189.746
X169.999Y-182.126
X169.999Y-189.746
X171.24Y-18.098
X172.245Y-146.371
X172.54Y-182.126
X172.54Y-189.746
X173.74Y-18.098
X173.905Y-46.165
X175.079Y-182.126
X175.079Y-189.746
X176.155Y-102.788
X177.619Y-182.126
X177.619Y-189.746
X178.125Y-124.834
X181.525Y-46.165
X182.405Y-146.371
X185.89Y-18.098
X188.285Y-124.834
X188.305Y-102.788
X188.39Y-18.098
X193.976Y-182.126
X193.976Y-189.746
X196.516Y-182.126
X196.516Y-189.746
X198.465Y-102.788
X199.056Y-182.126
X199.056Y-189.746
X200.435Y-124.834
X200.54Y-18.348
X201.596Y-182.126
X201.596Y-189.746
X204.136Y-182.126
X204.136Y-189.746
X205.54Y-18.348
X206.676Y-182.126
X206.676Y-189.746
X209.216Y-182.126
X209.216Y-189.746
X210.595Y-124.834
X210.615Y-102.788
X217.69Y-18.098
X220.19Y-18.098
X220.775Y-102.788
X222.745Y-124.834
X232.34Y-18.348
X232.905Y-124.834
X232.925Y-102.788
X237.34Y-18.348
X243.085Y-102.788
X245.055Y-124.834
X249.49Y-18.348
X254.49Y-18.348
X255.215Y-124.834
X255.235Y-102.788
X265.395Y-102.788
X266.64Y-18.348
X267.365Y-124.834
X271.64Y-18.348
X277.525Y-124.834
X277.545Y-102.788
X283.79Y-18.348
X287.705Y-102.788
X288.79Y-18.348
X289.675Y-124.834
X299.835Y-124.834
X299.855Y-102.788
X310.015Y-102.788
T4
X44.565Y-47.005
X47.105Y-47.005
X193.775Y-47.005
X196.315Y-47.005
X208.665Y-47.005
X211.205Y-47.005
T5
X17.975Y-75.781
X20.475Y-75.781
X22.975Y-75.781
X126.165Y-75.781
X128.665Y-75.781
X131.165Y-75.781
X147.115Y-75.781
X149.615Y-75.781
X152.115Y-75.781
X154.615Y-75.781
T6
X18.04Y-22.098
X23.04Y-22.098
X38.07Y-190.444
X38.07Y-208.224
X40.61Y-190.444
X40.61Y-208.224
X43.15Y-190.444
X43.15Y-208.224
X45.69Y-190.444
X45.69Y-208.224
X48.23Y-190.444
X48.23Y-208.224
X50.77Y-190.444
X50.77Y-208.224
X53.31Y-190.444
X53.31Y-208.224
X55.85Y-190.444
X55.85Y-208.224
X58.39Y-190.444
X58.39Y-208.224
X60.93Y-190.444
X60.93Y-208.224
X63.47Y-190.444
X63.47Y-208.224
X66.01Y-190.444
X66.01Y-208.224
X68.55Y-190.444
X68.55Y-208.224
X71.09Y-190.444
X71.09Y-208.224
X73.63Y-190.444
X73.63Y-208.224
X76.17Y-190.444
X76.17Y-208.224
X78.71Y-190.444
X78.71Y-208.224
X81.25Y-190.444
X81.25Y-208.224
X83.79Y-190.444
X83.79Y-208.224
X86.33Y-190.444
X86.33Y-208.224
X104.216Y-189.914
X106.756Y-189.914
X109.296Y-189.914
X111.837Y-189.914
X210.112Y-162.702
X212.652Y-162.702
X215.192Y-162.702
X217.732Y-162.702
X220.272Y-162.702
X222.812Y-162.702
X225.352Y-162.702
X225.623Y-193.795
X227.892Y-162.702
X228.162Y-193.795
X230.432Y-162.702
X230.702Y-193.795
X232.972Y-162.702
X233.242Y-193.795
T7
X169.365Y-75.781
X171.905Y-75.781
X174.445Y-75.781
X176.985Y-75.781
T8
X59.655Y-46.515
X69.815Y-46.515
X82.565Y-46.515
X92.725Y-46.515
X105.475Y-46.515
X115.635Y-46.515
X128.385Y-46.515
X138.545Y-46.515
X151.295Y-46.515
X161.455Y-46.515
X207.861Y-76.331
X210.401Y-76.331
X212.941Y-76.331
X244.796Y-76.331
X247.336Y-76.331
X249.876Y-76.331
X265.346Y-76.331
X267.886Y-76.331
X270.426Y-76.331
X285.896Y-76.331
X288.436Y-76.331
X290.976Y-76.331
X306.446Y-76.331
X308.986Y-76.331
X311.526Y-76.331
T9
X150.335Y-125.384
X165.575Y-125.384
T10
X16.575Y-47.815
X31.815Y-47.815
T11
X39.015Y-78.251
X44.095Y-78.251
X60.825Y-78.251
X65.905Y-78.251
X82.635Y-78.251
X87.715Y-78.251
X104.445Y-78.251
X109.525Y-78.251
X289.245Y-50.065
X294.325Y-50.065
T12
X174.445Y-73.621
T13
X145.515Y-77.781
T14
X225.355Y-47.695
X241.305Y-47.695
X257.255Y-47.695
X273.205Y-47.695
M30
