%TF.GenerationSoftware,KiCad,Pcbnew,10.0.4*%
%TF.CreationDate,2026-09-20T20:21:15-04:00*%
%TF.ProjectId,pumps,70756d70-732e-46b6-9963-61645f706362,rev?*%
%TF.SameCoordinates,Original*%
%TF.FileFunction,Other,User*%
%FSLAX46Y46*%
G04 Gerber Fmt 4.6, Leading zero omitted, Abs format (unit mm)*
G04 Created by KiCad (PCBNEW 10.0.4) date 2026-09-20 20:21:15*
%MOMM*%
%LPD*%
G01*
G04 APERTURE LIST*
%ADD10C,0.050000*%
G04 APERTURE END LIST*
%TO.C,D9*%
D10*
X207515000Y-44794750D02*
X212355000Y-44794750D01*
X212355000Y-49214750D01*
X207515000Y-49214750D01*
X207515000Y-44794750D01*
%TO.C,R15*%
X142634524Y-101287750D02*
X154894524Y-101287750D01*
X154894524Y-104287750D01*
X142634524Y-104287750D01*
X142634524Y-101287750D01*
%TO.C,R6*%
X104265000Y-144870750D02*
X116525000Y-144870750D01*
X116525000Y-147870750D01*
X104265000Y-147870750D01*
X104265000Y-144870750D01*
%TO.C,C14*%
X96939646Y-16848250D02*
X101539646Y-16848250D01*
X101539646Y-19348250D01*
X96939646Y-19348250D01*
X96939646Y-16848250D01*
%TO.C,R21*%
X254184524Y-101287750D02*
X266444524Y-101287750D01*
X266444524Y-104287750D01*
X254184524Y-104287750D01*
X254184524Y-101287750D01*
%TO.C,C10*%
X35839646Y-16848250D02*
X40439646Y-16848250D01*
X40439646Y-19348250D01*
X35839646Y-19348250D01*
X35839646Y-16848250D01*
%TO.C,R22*%
X276494524Y-101287750D02*
X288754524Y-101287750D01*
X288754524Y-104287750D01*
X276494524Y-104287750D01*
X276494524Y-101287750D01*
%TO.C,R25*%
X15025000Y-123334250D02*
X27285000Y-123334250D01*
X27285000Y-126334250D01*
X15025000Y-126334250D01*
X15025000Y-123334250D01*
%TO.C,C22*%
X184839646Y-16848250D02*
X189439646Y-16848250D01*
X189439646Y-19348250D01*
X184839646Y-19348250D01*
X184839646Y-16848250D01*
%TO.C,C12*%
X65139646Y-16848250D02*
X69739646Y-16848250D01*
X69739646Y-19348250D01*
X65139646Y-19348250D01*
X65139646Y-16848250D01*
%TO.C,Q8*%
X15299762Y-101247750D02*
X15299762Y-105987750D01*
X15299762Y-101247750D02*
X20759762Y-101247750D01*
X20759762Y-105987750D02*
X15299762Y-105987750D01*
X20759762Y-105987750D02*
X20759762Y-101247750D01*
%TO.C,D6*%
X149945000Y-44914750D02*
X162805000Y-44914750D01*
X162805000Y-48114750D01*
X149945000Y-48114750D01*
X149945000Y-44914750D01*
%TO.C,J5*%
X79595000Y-72851250D02*
X91355000Y-72851250D01*
X91355000Y-84101250D01*
X79595000Y-84101250D01*
X79595000Y-72851250D01*
%TO.C,R9*%
X171195000Y-144870750D02*
X183455000Y-144870750D01*
X183455000Y-147870750D01*
X171195000Y-147870750D01*
X171195000Y-144870750D01*
%TO.C,Q2*%
X205150714Y-72931250D02*
X215650714Y-72931250D01*
X215650714Y-77831250D01*
X205150714Y-77831250D01*
X205150714Y-72931250D01*
%TO.C,C1*%
X25789646Y-22098250D02*
G75*
G02*
X15289646Y-22098250I-5250000J0D01*
G01*
X15289646Y-22098250D02*
G75*
G02*
X25789646Y-22098250I5250000J0D01*
G01*
%TO.C,R36*%
X244005000Y-123334250D02*
X256265000Y-123334250D01*
X256265000Y-126334250D01*
X244005000Y-126334250D01*
X244005000Y-123334250D01*
%TO.C,U8*%
X223852500Y-192024800D02*
X235012500Y-192024800D01*
X235012500Y-195564800D01*
X223852500Y-195564800D01*
X223852500Y-192024800D01*
%TO.C,R5*%
X81955000Y-144870750D02*
X94215000Y-144870750D01*
X94215000Y-147870750D01*
X81955000Y-147870750D01*
X81955000Y-144870750D01*
%TO.C,U2*%
X126723000Y-181075750D02*
X147543000Y-181075750D01*
X147543000Y-190805750D01*
X126723000Y-190805750D01*
X126723000Y-181075750D01*
%TO.C,R17*%
X187254524Y-101287750D02*
X199514524Y-101287750D01*
X199514524Y-104287750D01*
X187254524Y-104287750D01*
X187254524Y-101287750D01*
%TO.C,U3*%
X160849500Y-181075750D02*
X179149500Y-181075750D01*
X179149500Y-190805750D01*
X160849500Y-190805750D01*
X160849500Y-181075750D01*
%TO.C,TP1*%
X196783571Y-145650750D02*
G75*
G02*
X194283571Y-145650750I-1250000J0D01*
G01*
X194283571Y-145650750D02*
G75*
G02*
X196783571Y-145650750I1250000J0D01*
G01*
%TO.C,C13*%
X79789646Y-16848250D02*
X86889646Y-16848250D01*
X86889646Y-19848250D01*
X79789646Y-19848250D01*
X79789646Y-16848250D01*
%TO.C,R12*%
X75704524Y-101287750D02*
X87964524Y-101287750D01*
X87964524Y-104287750D01*
X75704524Y-104287750D01*
X75704524Y-101287750D01*
%TO.C,U_PICO1*%
X34900000Y-203833964D02*
X34900000Y-194833964D01*
X36450000Y-194833964D01*
X36450000Y-187793964D01*
X88750000Y-187793964D01*
X88750000Y-210873964D01*
X36450000Y-210873964D01*
X36450000Y-203833964D01*
X34900000Y-203833964D01*
%TO.C,R18*%
X209564524Y-101287750D02*
X221824524Y-101287750D01*
X221824524Y-104287750D01*
X209564524Y-104287750D01*
X209564524Y-101287750D01*
%TO.C,H4*%
X276155000Y-47694750D02*
G75*
G02*
X270255000Y-47694750I-2950000J0D01*
G01*
X270255000Y-47694750D02*
G75*
G02*
X276155000Y-47694750I2950000J0D01*
G01*
%TO.C,C9*%
X282739646Y-16848250D02*
X289839646Y-16848250D01*
X289839646Y-19848250D01*
X282739646Y-19848250D01*
X282739646Y-16848250D01*
%TO.C,Q3*%
X226301667Y-73061250D02*
X226301667Y-77801250D01*
X226301667Y-73061250D02*
X231761667Y-73061250D01*
X231761667Y-77801250D02*
X226301667Y-77801250D01*
X231761667Y-77801250D02*
X231761667Y-73061250D01*
%TO.C,R8*%
X148885000Y-144870750D02*
X161145000Y-144870750D01*
X161145000Y-147870750D01*
X148885000Y-147870750D01*
X148885000Y-144870750D01*
%TO.C,C11*%
X50489646Y-16848250D02*
X55089646Y-16848250D01*
X55089646Y-19348250D01*
X50489646Y-19348250D01*
X50489646Y-16848250D01*
%TO.C,C20*%
X155539646Y-16848250D02*
X160139646Y-16848250D01*
X160139646Y-19348250D01*
X155539646Y-19348250D01*
X155539646Y-16848250D01*
%TO.C,R16*%
X164944524Y-101287750D02*
X177204524Y-101287750D01*
X177204524Y-104287750D01*
X164944524Y-104287750D01*
X164944524Y-101287750D01*
%TO.C,H1*%
X228305000Y-47694750D02*
G75*
G02*
X222405000Y-47694750I-2950000J0D01*
G01*
X222405000Y-47694750D02*
G75*
G02*
X228305000Y-47694750I2950000J0D01*
G01*
%TO.C,Q4*%
X242086429Y-72931250D02*
X252586429Y-72931250D01*
X252586429Y-77831250D01*
X242086429Y-77831250D01*
X242086429Y-72931250D01*
%TO.C,U4*%
X207612143Y-160202500D02*
X235472143Y-160202500D01*
X235472143Y-165202500D01*
X207612143Y-165202500D01*
X207612143Y-160202500D01*
%TO.C,R10*%
X31084524Y-101287750D02*
X43344524Y-101287750D01*
X43344524Y-104287750D01*
X31084524Y-104287750D01*
X31084524Y-101287750D01*
%TO.C,C6*%
X248439646Y-16848250D02*
X255539646Y-16848250D01*
X255539646Y-19848250D01*
X248439646Y-19848250D01*
X248439646Y-16848250D01*
%TO.C,D5*%
X127035000Y-44914750D02*
X139895000Y-44914750D01*
X139895000Y-48114750D01*
X127035000Y-48114750D01*
X127035000Y-44914750D01*
%TO.C,D8*%
X192625000Y-44794750D02*
X197465000Y-44794750D01*
X197465000Y-49214750D01*
X192625000Y-49214750D01*
X192625000Y-44794750D01*
%TO.C,D1*%
X15025000Y-44914750D02*
X33365000Y-44914750D01*
X33365000Y-50714750D01*
X15025000Y-50714750D01*
X15025000Y-44914750D01*
%TO.C,J3*%
X35975000Y-72851250D02*
X47735000Y-72851250D01*
X47735000Y-84101250D01*
X35975000Y-84101250D01*
X35975000Y-72851250D01*
%TO.C,R4*%
X37335000Y-144870750D02*
X49595000Y-144870750D01*
X49595000Y-147870750D01*
X37335000Y-147870750D01*
X37335000Y-144870750D01*
%TO.C,D3*%
X81215000Y-44914750D02*
X94075000Y-44914750D01*
X94075000Y-48114750D01*
X81215000Y-48114750D01*
X81215000Y-44914750D01*
%TO.C,J7*%
X123215000Y-72931250D02*
X134115000Y-72931250D01*
X134115000Y-79681250D01*
X123215000Y-79681250D01*
X123215000Y-72931250D01*
%TO.C,R13*%
X98014524Y-101287750D02*
X110274524Y-101287750D01*
X110274524Y-104287750D01*
X98014524Y-104287750D01*
X98014524Y-101287750D01*
%TO.C,R39*%
X15025000Y-144870750D02*
X27285000Y-144870750D01*
X27285000Y-147870750D01*
X15025000Y-147870750D01*
X15025000Y-144870750D01*
%TO.C,C8*%
X265589646Y-16848250D02*
X272689646Y-16848250D01*
X272689646Y-19848250D01*
X265589646Y-19848250D01*
X265589646Y-16848250D01*
%TO.C,C2*%
X140889646Y-16848250D02*
X145489646Y-16848250D01*
X145489646Y-19348250D01*
X140889646Y-19348250D01*
X140889646Y-16848250D01*
%TO.C,H3*%
X260205000Y-47694750D02*
G75*
G02*
X254305000Y-47694750I-2950000J0D01*
G01*
X254305000Y-47694750D02*
G75*
G02*
X260205000Y-47694750I2950000J0D01*
G01*
%TO.C,R38*%
X288625000Y-123334250D02*
X300885000Y-123334250D01*
X300885000Y-126334250D01*
X288625000Y-126334250D01*
X288625000Y-123334250D01*
%TO.C,J4*%
X57785000Y-72851250D02*
X69545000Y-72851250D01*
X69545000Y-84101250D01*
X57785000Y-84101250D01*
X57785000Y-72851250D01*
%TO.C,D2*%
X58305000Y-44914750D02*
X71165000Y-44914750D01*
X71165000Y-48114750D01*
X58305000Y-48114750D01*
X58305000Y-44914750D01*
%TO.C,D7*%
X172855000Y-44914750D02*
X182575000Y-44914750D01*
X182575000Y-47414750D01*
X172855000Y-47414750D01*
X172855000Y-44914750D01*
%TO.C,R29*%
X81955000Y-123334250D02*
X94215000Y-123334250D01*
X94215000Y-126334250D01*
X81955000Y-126334250D01*
X81955000Y-123334250D01*
%TO.C,C21*%
X170189646Y-16848250D02*
X174789646Y-16848250D01*
X174789646Y-19348250D01*
X170189646Y-19348250D01*
X170189646Y-16848250D01*
%TO.C,R14*%
X120324524Y-101287750D02*
X132584524Y-101287750D01*
X132584524Y-104287750D01*
X120324524Y-104287750D01*
X120324524Y-101287750D01*
%TO.C,R30*%
X104265000Y-123334250D02*
X116525000Y-123334250D01*
X116525000Y-126334250D01*
X104265000Y-126334250D01*
X104265000Y-123334250D01*
%TO.C,Q5*%
X262636429Y-72931250D02*
X273136429Y-72931250D01*
X273136429Y-77831250D01*
X262636429Y-77831250D01*
X262636429Y-72931250D01*
%TO.C,J2*%
X15025000Y-72931250D02*
X25925000Y-72931250D01*
X25925000Y-79681250D01*
X15025000Y-79681250D01*
X15025000Y-72931250D01*
%TO.C,R28*%
X59645000Y-123334250D02*
X71905000Y-123334250D01*
X71905000Y-126334250D01*
X59645000Y-126334250D01*
X59645000Y-123334250D01*
%TO.C,C18*%
X126239646Y-16848250D02*
X130839646Y-16848250D01*
X130839646Y-19348250D01*
X126239646Y-19348250D01*
X126239646Y-16848250D01*
%TO.C,Q7*%
X303736429Y-72931250D02*
X314236429Y-72931250D01*
X314236429Y-77831250D01*
X303736429Y-77831250D01*
X303736429Y-72931250D01*
%TO.C,R20*%
X231874524Y-101287750D02*
X244134524Y-101287750D01*
X244134524Y-104287750D01*
X231874524Y-104287750D01*
X231874524Y-101287750D01*
%TO.C,H2*%
X244255000Y-47694750D02*
G75*
G02*
X238355000Y-47694750I-2950000J0D01*
G01*
X238355000Y-47694750D02*
G75*
G02*
X244255000Y-47694750I2950000J0D01*
G01*
%TO.C,C16*%
X111589646Y-16848250D02*
X116189646Y-16848250D01*
X116189646Y-19348250D01*
X111589646Y-19348250D01*
X111589646Y-16848250D01*
%TO.C,Q1*%
X189039762Y-73061250D02*
X189039762Y-77801250D01*
X189039762Y-73061250D02*
X194499762Y-73061250D01*
X194499762Y-77801250D02*
X189039762Y-77801250D01*
X194499762Y-77801250D02*
X194499762Y-73061250D01*
%TO.C,D10*%
X43415000Y-44794750D02*
X48255000Y-44794750D01*
X48255000Y-49214750D01*
X43415000Y-49214750D01*
X43415000Y-44794750D01*
%TO.C,R35*%
X221695000Y-123334250D02*
X233955000Y-123334250D01*
X233955000Y-126334250D01*
X221695000Y-126334250D01*
X221695000Y-123334250D01*
%TO.C,J9*%
X167615000Y-79581250D02*
X167615000Y-72581250D01*
X167615000Y-79581250D02*
X178715000Y-79581250D01*
X178715000Y-72581250D02*
X167615000Y-72581250D01*
X178715000Y-72581250D02*
X178715000Y-79581250D01*
%TO.C,R7*%
X126575000Y-144870750D02*
X138835000Y-144870750D01*
X138835000Y-147870750D01*
X126575000Y-147870750D01*
X126575000Y-144870750D01*
%TO.C,R11*%
X53394524Y-101287750D02*
X65654524Y-101287750D01*
X65654524Y-104287750D01*
X53394524Y-104287750D01*
X53394524Y-101287750D01*
%TO.C,R32*%
X148885000Y-123334250D02*
X167025000Y-123334250D01*
X167025000Y-127434250D01*
X148885000Y-127434250D01*
X148885000Y-123334250D01*
%TO.C,R26*%
X37335000Y-123334250D02*
X49595000Y-123334250D01*
X49595000Y-126334250D01*
X37335000Y-126334250D01*
X37335000Y-123334250D01*
%TO.C,R34*%
X199385000Y-123334250D02*
X211645000Y-123334250D01*
X211645000Y-126334250D01*
X199385000Y-126334250D01*
X199385000Y-123334250D01*
%TO.C,R33*%
X177075000Y-123334250D02*
X189335000Y-123334250D01*
X189335000Y-126334250D01*
X177075000Y-126334250D01*
X177075000Y-123334250D01*
%TO.C,R40*%
X59645000Y-144870750D02*
X71905000Y-144870750D01*
X71905000Y-147870750D01*
X59645000Y-147870750D01*
X59645000Y-144870750D01*
%TO.C,Q6*%
X283186429Y-72931250D02*
X293686429Y-72931250D01*
X293686429Y-77831250D01*
X283186429Y-77831250D01*
X283186429Y-72931250D01*
%TO.C,R37*%
X266315000Y-123334250D02*
X278575000Y-123334250D01*
X278575000Y-126334250D01*
X266315000Y-126334250D01*
X266315000Y-123334250D01*
%TO.C,U9*%
X192446000Y-181075750D02*
X210746000Y-181075750D01*
X210746000Y-190805750D01*
X192446000Y-190805750D01*
X192446000Y-181075750D01*
%TO.C,R24*%
X298804524Y-101287750D02*
X311064524Y-101287750D01*
X311064524Y-104287750D01*
X298804524Y-104287750D01*
X298804524Y-101287750D01*
%TO.C,J8*%
X144165000Y-72931250D02*
X157565000Y-72931250D01*
X157565000Y-79681250D01*
X144165000Y-79681250D01*
X144165000Y-72931250D01*
%TO.C,C3*%
X199489646Y-16848250D02*
X206589646Y-16848250D01*
X206589646Y-19848250D01*
X199489646Y-19848250D01*
X199489646Y-16848250D01*
%TO.C,J6*%
X101405000Y-72851250D02*
X113165000Y-72851250D01*
X113165000Y-84101250D01*
X101405000Y-84101250D01*
X101405000Y-72851250D01*
%TO.C,J1*%
X286205000Y-44664750D02*
X297965000Y-44664750D01*
X297965000Y-55914750D01*
X286205000Y-55914750D01*
X286205000Y-44664750D01*
%TO.C,R31*%
X126575000Y-123334250D02*
X138835000Y-123334250D01*
X138835000Y-126334250D01*
X126575000Y-126334250D01*
X126575000Y-123334250D01*
%TO.C,C5*%
X231289646Y-16848250D02*
X238389646Y-16848250D01*
X238389646Y-19848250D01*
X231289646Y-19848250D01*
X231289646Y-16848250D01*
%TO.C,U1*%
X102446500Y-188143846D02*
X113606500Y-188143846D01*
X113606500Y-191683846D01*
X102446500Y-191683846D01*
X102446500Y-188143846D01*
%TO.C,D4*%
X104125000Y-44914750D02*
X116985000Y-44914750D01*
X116985000Y-48114750D01*
X104125000Y-48114750D01*
X104125000Y-44914750D01*
%TO.C,C4*%
X216639646Y-16848250D02*
X221239646Y-16848250D01*
X221239646Y-19348250D01*
X216639646Y-19348250D01*
X216639646Y-16848250D01*
%TD*%
M02*
