ISO-10303-21;
HEADER;
/* Generated by software containing ST-Developer
 * from STEP Tools, Inc. (www.steptools.com) 
 */
/* OPTION: using custom renumber hook */

FILE_DESCRIPTION(
/* description */ ('STEP AP214',
'CAx-IF Rec.Pracs.---User Defined Attributes---1.5---2016-08-15'),
/* implementation_level */ '2;1');

FILE_NAME(
/* name */ '6aa1df93a9afc4404b11f2e8',
/* time_stamp */ '2026-09-09T22:37:08Z',
/* author */ (''),
/* organization */ (''),
/* preprocessor_version */ 'ST-DEVELOPER v20',
/* originating_system */ 'ONSHAPE BY PTC INC, 1.220',
/* authorisation */ '  ');

FILE_SCHEMA (('AUTOMOTIVE_DESIGN {1 0 10303 214 3 1 1}'));
ENDSEC;

DATA;
#10=PROPERTY_DEFINITION_REPRESENTATION(#14,#12);
#11=PROPERTY_DEFINITION_REPRESENTATION(#15,#13);
#12=REPRESENTATION('',(#16),#759);
#13=REPRESENTATION('',(#17),#759);
#14=PROPERTY_DEFINITION('pmi validation property','',#764);
#15=PROPERTY_DEFINITION('pmi validation property','',#764);
#16=VALUE_REPRESENTATION_ITEM('number of annotations',COUNT_MEASURE(0.));
#17=VALUE_REPRESENTATION_ITEM('number of views',COUNT_MEASURE(0.));
#18=SHAPE_REPRESENTATION_RELATIONSHIP('','',#429,#19);
#19=ADVANCED_BREP_SHAPE_REPRESENTATION('',(#427),#759);
#20=PLANE('',#449);
#21=PLANE('',#457);
#22=PLANE('',#473);
#23=CIRCLE('',#432,0.093);
#24=CIRCLE('',#433,0.093);
#25=CIRCLE('',#435,0.093);
#26=CIRCLE('',#436,0.093);
#27=CIRCLE('',#438,0.093);
#28=CIRCLE('',#439,0.093);
#29=CIRCLE('',#441,0.095);
#30=CIRCLE('',#442,0.095);
#31=CIRCLE('',#444,0.095);
#32=CIRCLE('',#445,0.095);
#33=CIRCLE('',#447,0.095);
#34=CIRCLE('',#448,0.095);
#35=CIRCLE('',#450,0.008);
#36=CIRCLE('',#451,0.008);
#37=CIRCLE('',#452,0.093);
#38=CIRCLE('',#453,0.008);
#39=CIRCLE('',#454,0.008);
#40=CIRCLE('',#456,0.093);
#41=CIRCLE('',#458,0.00325);
#42=CIRCLE('',#459,0.00325);
#43=CIRCLE('',#460,0.00325);
#44=CIRCLE('',#461,0.00325);
#45=CIRCLE('',#462,0.008);
#46=CIRCLE('',#463,0.008);
#47=CIRCLE('',#464,0.008);
#48=CIRCLE('',#465,0.008);
#49=CIRCLE('',#466,0.008);
#50=CIRCLE('',#467,0.008);
#51=CIRCLE('',#468,0.008);
#52=CIRCLE('',#469,0.095);
#53=CIRCLE('',#470,0.008);
#54=CIRCLE('',#472,0.095);
#55=CIRCLE('',#474,0.00325);
#56=CIRCLE('',#475,0.00325);
#57=CIRCLE('',#476,0.00325);
#58=CIRCLE('',#477,0.00325);
#59=CIRCLE('',#478,0.008);
#60=CIRCLE('',#479,0.008);
#61=CIRCLE('',#480,0.008);
#62=CIRCLE('',#481,0.008);
#63=ORIENTED_EDGE('',*,*,#175,.F.);
#64=ORIENTED_EDGE('',*,*,#176,.T.);
#65=ORIENTED_EDGE('',*,*,#177,.F.);
#66=ORIENTED_EDGE('',*,*,#178,.F.);
#67=ORIENTED_EDGE('',*,*,#179,.F.);
#68=ORIENTED_EDGE('',*,*,#180,.F.);
#69=ORIENTED_EDGE('',*,*,#181,.F.);
#70=ORIENTED_EDGE('',*,*,#182,.T.);
#71=ORIENTED_EDGE('',*,*,#183,.F.);
#72=ORIENTED_EDGE('',*,*,#184,.F.);
#73=ORIENTED_EDGE('',*,*,#185,.F.);
#74=ORIENTED_EDGE('',*,*,#186,.T.);
#75=ORIENTED_EDGE('',*,*,#187,.F.);
#76=ORIENTED_EDGE('',*,*,#188,.T.);
#77=ORIENTED_EDGE('',*,*,#189,.F.);
#78=ORIENTED_EDGE('',*,*,#190,.F.);
#79=ORIENTED_EDGE('',*,*,#191,.F.);
#80=ORIENTED_EDGE('',*,*,#192,.F.);
#81=ORIENTED_EDGE('',*,*,#193,.F.);
#82=ORIENTED_EDGE('',*,*,#194,.T.);
#83=ORIENTED_EDGE('',*,*,#195,.F.);
#84=ORIENTED_EDGE('',*,*,#196,.F.);
#85=ORIENTED_EDGE('',*,*,#197,.F.);
#86=ORIENTED_EDGE('',*,*,#198,.T.);
#87=ORIENTED_EDGE('',*,*,#199,.F.);
#88=ORIENTED_EDGE('',*,*,#178,.T.);
#89=ORIENTED_EDGE('',*,*,#200,.F.);
#90=ORIENTED_EDGE('',*,*,#201,.T.);
#91=ORIENTED_EDGE('',*,*,#202,.F.);
#92=ORIENTED_EDGE('',*,*,#184,.T.);
#93=ORIENTED_EDGE('',*,*,#203,.F.);
#94=ORIENTED_EDGE('',*,*,#180,.T.);
#95=ORIENTED_EDGE('',*,*,#204,.F.);
#96=ORIENTED_EDGE('',*,*,#201,.F.);
#97=ORIENTED_EDGE('',*,*,#205,.F.);
#98=ORIENTED_EDGE('',*,*,#206,.T.);
#99=ORIENTED_EDGE('',*,*,#207,.F.);
#100=ORIENTED_EDGE('',*,*,#208,.F.);
#101=ORIENTED_EDGE('',*,*,#209,.F.);
#102=ORIENTED_EDGE('',*,*,#210,.F.);
#103=ORIENTED_EDGE('',*,*,#176,.F.);
#104=ORIENTED_EDGE('',*,*,#211,.T.);
#105=ORIENTED_EDGE('',*,*,#182,.F.);
#106=ORIENTED_EDGE('',*,*,#212,.T.);
#107=ORIENTED_EDGE('',*,*,#186,.F.);
#108=ORIENTED_EDGE('',*,*,#213,.T.);
#109=ORIENTED_EDGE('',*,*,#206,.F.);
#110=ORIENTED_EDGE('',*,*,#214,.T.);
#111=ORIENTED_EDGE('',*,*,#196,.T.);
#112=ORIENTED_EDGE('',*,*,#215,.T.);
#113=ORIENTED_EDGE('',*,*,#192,.T.);
#114=ORIENTED_EDGE('',*,*,#216,.T.);
#115=ORIENTED_EDGE('',*,*,#190,.T.);
#116=ORIENTED_EDGE('',*,*,#217,.T.);
#117=ORIENTED_EDGE('',*,*,#218,.T.);
#118=ORIENTED_EDGE('',*,*,#219,.T.);
#119=ORIENTED_EDGE('',*,*,#220,.F.);
#120=ORIENTED_EDGE('',*,*,#218,.F.);
#121=ORIENTED_EDGE('',*,*,#221,.F.);
#122=ORIENTED_EDGE('',*,*,#222,.T.);
#123=ORIENTED_EDGE('',*,*,#223,.F.);
#124=ORIENTED_EDGE('',*,*,#224,.F.);
#125=ORIENTED_EDGE('',*,*,#225,.F.);
#126=ORIENTED_EDGE('',*,*,#226,.F.);
#127=ORIENTED_EDGE('',*,*,#222,.F.);
#128=ORIENTED_EDGE('',*,*,#227,.F.);
#129=ORIENTED_EDGE('',*,*,#188,.F.);
#130=ORIENTED_EDGE('',*,*,#228,.F.);
#131=ORIENTED_EDGE('',*,*,#194,.F.);
#132=ORIENTED_EDGE('',*,*,#229,.F.);
#133=ORIENTED_EDGE('',*,*,#198,.F.);
#134=ORIENTED_EDGE('',*,*,#230,.F.);
#135=ORIENTED_EDGE('',*,*,#227,.T.);
#136=ORIENTED_EDGE('',*,*,#221,.T.);
#137=ORIENTED_EDGE('',*,*,#217,.F.);
#138=ORIENTED_EDGE('',*,*,#189,.T.);
#139=ORIENTED_EDGE('',*,*,#230,.T.);
#140=ORIENTED_EDGE('',*,*,#197,.T.);
#141=ORIENTED_EDGE('',*,*,#219,.F.);
#142=ORIENTED_EDGE('',*,*,#220,.T.);
#143=ORIENTED_EDGE('',*,*,#229,.T.);
#144=ORIENTED_EDGE('',*,*,#193,.T.);
#145=ORIENTED_EDGE('',*,*,#215,.F.);
#146=ORIENTED_EDGE('',*,*,#195,.T.);
#147=ORIENTED_EDGE('',*,*,#228,.T.);
#148=ORIENTED_EDGE('',*,*,#187,.T.);
#149=ORIENTED_EDGE('',*,*,#216,.F.);
#150=ORIENTED_EDGE('',*,*,#191,.T.);
#151=ORIENTED_EDGE('',*,*,#214,.F.);
#152=ORIENTED_EDGE('',*,*,#205,.T.);
#153=ORIENTED_EDGE('',*,*,#200,.T.);
#154=ORIENTED_EDGE('',*,*,#177,.T.);
#155=ORIENTED_EDGE('',*,*,#213,.F.);
#156=ORIENTED_EDGE('',*,*,#185,.T.);
#157=ORIENTED_EDGE('',*,*,#202,.T.);
#158=ORIENTED_EDGE('',*,*,#204,.T.);
#159=ORIENTED_EDGE('',*,*,#212,.F.);
#160=ORIENTED_EDGE('',*,*,#181,.T.);
#161=ORIENTED_EDGE('',*,*,#203,.T.);
#162=ORIENTED_EDGE('',*,*,#183,.T.);
#163=ORIENTED_EDGE('',*,*,#211,.F.);
#164=ORIENTED_EDGE('',*,*,#175,.T.);
#165=ORIENTED_EDGE('',*,*,#199,.T.);
#166=ORIENTED_EDGE('',*,*,#179,.T.);
#167=ORIENTED_EDGE('',*,*,#226,.T.);
#168=ORIENTED_EDGE('',*,*,#210,.T.);
#169=ORIENTED_EDGE('',*,*,#225,.T.);
#170=ORIENTED_EDGE('',*,*,#209,.T.);
#171=ORIENTED_EDGE('',*,*,#224,.T.);
#172=ORIENTED_EDGE('',*,*,#208,.T.);
#173=ORIENTED_EDGE('',*,*,#223,.T.);
#174=ORIENTED_EDGE('',*,*,#207,.T.);
#175=EDGE_CURVE('',#231,#232,#271,.F.);
#176=EDGE_CURVE('',#231,#233,#23,.T.);
#177=EDGE_CURVE('',#234,#233,#272,.T.);
#178=EDGE_CURVE('',#232,#234,#24,.T.);
#179=EDGE_CURVE('',#235,#236,#273,.T.);
#180=EDGE_CURVE('',#237,#235,#25,.T.);
#181=EDGE_CURVE('',#238,#237,#274,.F.);
#182=EDGE_CURVE('',#238,#236,#26,.T.);
#183=EDGE_CURVE('',#239,#240,#275,.T.);
#184=EDGE_CURVE('',#241,#239,#27,.T.);
#185=EDGE_CURVE('',#242,#241,#276,.F.);
#186=EDGE_CURVE('',#242,#240,#28,.T.);
#187=EDGE_CURVE('',#243,#244,#277,.T.);
#188=EDGE_CURVE('',#243,#245,#29,.T.);
#189=EDGE_CURVE('',#246,#245,#278,.F.);
#190=EDGE_CURVE('',#244,#246,#30,.T.);
#191=EDGE_CURVE('',#247,#248,#279,.F.);
#192=EDGE_CURVE('',#249,#247,#31,.T.);
#193=EDGE_CURVE('',#250,#249,#280,.T.);
#194=EDGE_CURVE('',#250,#248,#32,.T.);
#195=EDGE_CURVE('',#251,#252,#281,.F.);
#196=EDGE_CURVE('',#253,#251,#33,.T.);
#197=EDGE_CURVE('',#254,#253,#282,.T.);
#198=EDGE_CURVE('',#254,#252,#34,.T.);
#199=EDGE_CURVE('',#232,#235,#35,.T.);
#200=EDGE_CURVE('',#255,#234,#36,.T.);
#201=EDGE_CURVE('',#255,#256,#37,.T.);
#202=EDGE_CURVE('',#241,#256,#38,.T.);
#203=EDGE_CURVE('',#237,#239,#39,.T.);
#204=EDGE_CURVE('',#256,#257,#283,.T.);
#205=EDGE_CURVE('',#258,#255,#284,.F.);
#206=EDGE_CURVE('',#258,#257,#40,.T.);
#207=EDGE_CURVE('',#259,#259,#41,.T.);
#208=EDGE_CURVE('',#260,#260,#42,.T.);
#209=EDGE_CURVE('',#261,#261,#43,.T.);
#210=EDGE_CURVE('',#262,#262,#44,.T.);
#211=EDGE_CURVE('',#231,#236,#45,.T.);
#212=EDGE_CURVE('',#238,#240,#46,.T.);
#213=EDGE_CURVE('',#242,#257,#47,.T.);
#214=EDGE_CURVE('',#258,#233,#48,.T.);
#215=EDGE_CURVE('',#251,#249,#49,.T.);
#216=EDGE_CURVE('',#247,#244,#50,.T.);
#217=EDGE_CURVE('',#246,#263,#51,.T.);
#218=EDGE_CURVE('',#263,#264,#52,.T.);
#219=EDGE_CURVE('',#264,#253,#53,.T.);
#220=EDGE_CURVE('',#264,#265,#285,.F.);
#221=EDGE_CURVE('',#266,#263,#286,.T.);
#222=EDGE_CURVE('',#266,#265,#54,.T.);
#223=EDGE_CURVE('',#267,#267,#55,.T.);
#224=EDGE_CURVE('',#268,#268,#56,.T.);
#225=EDGE_CURVE('',#269,#269,#57,.T.);
#226=EDGE_CURVE('',#270,#270,#58,.T.);
#227=EDGE_CURVE('',#245,#266,#59,.T.);
#228=EDGE_CURVE('',#248,#243,#60,.T.);
#229=EDGE_CURVE('',#252,#250,#61,.T.);
#230=EDGE_CURVE('',#265,#254,#62,.T.);
#231=VERTEX_POINT('',#641);
#232=VERTEX_POINT('',#642);
#233=VERTEX_POINT('',#644);
#234=VERTEX_POINT('',#646);
#235=VERTEX_POINT('',#650);
#236=VERTEX_POINT('',#651);
#237=VERTEX_POINT('',#653);
#238=VERTEX_POINT('',#655);
#239=VERTEX_POINT('',#659);
#240=VERTEX_POINT('',#660);
#241=VERTEX_POINT('',#662);
#242=VERTEX_POINT('',#664);
#243=VERTEX_POINT('',#668);
#244=VERTEX_POINT('',#669);
#245=VERTEX_POINT('',#671);
#246=VERTEX_POINT('',#673);
#247=VERTEX_POINT('',#677);
#248=VERTEX_POINT('',#678);
#249=VERTEX_POINT('',#680);
#250=VERTEX_POINT('',#682);
#251=VERTEX_POINT('',#686);
#252=VERTEX_POINT('',#687);
#253=VERTEX_POINT('',#689);
#254=VERTEX_POINT('',#691);
#255=VERTEX_POINT('',#696);
#256=VERTEX_POINT('',#698);
#257=VERTEX_POINT('',#703);
#258=VERTEX_POINT('',#705);
#259=VERTEX_POINT('',#709);
#260=VERTEX_POINT('',#711);
#261=VERTEX_POINT('',#713);
#262=VERTEX_POINT('',#715);
#263=VERTEX_POINT('',#723);
#264=VERTEX_POINT('',#725);
#265=VERTEX_POINT('',#729);
#266=VERTEX_POINT('',#731);
#267=VERTEX_POINT('',#735);
#268=VERTEX_POINT('',#737);
#269=VERTEX_POINT('',#739);
#270=VERTEX_POINT('',#741);
#271=LINE('',#640,#287);
#272=LINE('',#645,#288);
#273=LINE('',#649,#289);
#274=LINE('',#654,#290);
#275=LINE('',#658,#291);
#276=LINE('',#663,#292);
#277=LINE('',#667,#293);
#278=LINE('',#672,#294);
#279=LINE('',#676,#295);
#280=LINE('',#681,#296);
#281=LINE('',#685,#297);
#282=LINE('',#690,#298);
#283=LINE('',#702,#299);
#284=LINE('',#704,#300);
#285=LINE('',#728,#301);
#286=LINE('',#730,#302);
#287=VECTOR('',#498,1.);
#288=VECTOR('',#501,1.);
#289=VECTOR('',#506,1.);
#290=VECTOR('',#509,1.);
#291=VECTOR('',#514,1.);
#292=VECTOR('',#517,1.);
#293=VECTOR('',#522,1.);
#294=VECTOR('',#525,1.);
#295=VECTOR('',#530,1.);
#296=VECTOR('',#533,1.);
#297=VECTOR('',#538,1.);
#298=VECTOR('',#541,1.);
#299=VECTOR('',#558,1.);
#300=VECTOR('',#559,1.);
#301=VECTOR('',#592,1.);
#302=VECTOR('',#593,1.);
#303=EDGE_LOOP('',(#63,#64,#65,#66));
#304=EDGE_LOOP('',(#67,#68,#69,#70));
#305=EDGE_LOOP('',(#71,#72,#73,#74));
#306=EDGE_LOOP('',(#75,#76,#77,#78));
#307=EDGE_LOOP('',(#79,#80,#81,#82));
#308=EDGE_LOOP('',(#83,#84,#85,#86));
#309=EDGE_LOOP('',(#87,#88,#89,#90,#91,#92,#93,#94));
#310=EDGE_LOOP('',(#95,#96,#97,#98));
#311=EDGE_LOOP('',(#99));
#312=EDGE_LOOP('',(#100));
#313=EDGE_LOOP('',(#101));
#314=EDGE_LOOP('',(#102));
#315=EDGE_LOOP('',(#103,#104,#105,#106,#107,#108,#109,#110));
#316=EDGE_LOOP('',(#111,#112,#113,#114,#115,#116,#117,#118));
#317=EDGE_LOOP('',(#119,#120,#121,#122));
#318=EDGE_LOOP('',(#123));
#319=EDGE_LOOP('',(#124));
#320=EDGE_LOOP('',(#125));
#321=EDGE_LOOP('',(#126));
#322=EDGE_LOOP('',(#127,#128,#129,#130,#131,#132,#133,#134));
#323=EDGE_LOOP('',(#135,#136,#137,#138));
#324=EDGE_LOOP('',(#139,#140,#141,#142));
#325=EDGE_LOOP('',(#143,#144,#145,#146));
#326=EDGE_LOOP('',(#147,#148,#149,#150));
#327=EDGE_LOOP('',(#151,#152,#153,#154));
#328=EDGE_LOOP('',(#155,#156,#157,#158));
#329=EDGE_LOOP('',(#159,#160,#161,#162));
#330=EDGE_LOOP('',(#163,#164,#165,#166));
#331=EDGE_LOOP('',(#167));
#332=EDGE_LOOP('',(#168));
#333=EDGE_LOOP('',(#169));
#334=EDGE_LOOP('',(#170));
#335=EDGE_LOOP('',(#171));
#336=EDGE_LOOP('',(#172));
#337=EDGE_LOOP('',(#173));
#338=EDGE_LOOP('',(#174));
#339=FACE_BOUND('',#303,.T.);
#340=FACE_BOUND('',#304,.T.);
#341=FACE_BOUND('',#305,.T.);
#342=FACE_BOUND('',#306,.T.);
#343=FACE_BOUND('',#307,.T.);
#344=FACE_BOUND('',#308,.T.);
#345=FACE_BOUND('',#309,.T.);
#346=FACE_BOUND('',#310,.T.);
#347=FACE_BOUND('',#311,.T.);
#348=FACE_BOUND('',#312,.T.);
#349=FACE_BOUND('',#313,.T.);
#350=FACE_BOUND('',#314,.T.);
#351=FACE_BOUND('',#315,.T.);
#352=FACE_BOUND('',#316,.T.);
#353=FACE_BOUND('',#317,.T.);
#354=FACE_BOUND('',#318,.T.);
#355=FACE_BOUND('',#319,.T.);
#356=FACE_BOUND('',#320,.T.);
#357=FACE_BOUND('',#321,.T.);
#358=FACE_BOUND('',#322,.T.);
#359=FACE_BOUND('',#323,.T.);
#360=FACE_BOUND('',#324,.T.);
#361=FACE_BOUND('',#325,.T.);
#362=FACE_BOUND('',#326,.T.);
#363=FACE_BOUND('',#327,.T.);
#364=FACE_BOUND('',#328,.T.);
#365=FACE_BOUND('',#329,.T.);
#366=FACE_BOUND('',#330,.T.);
#367=FACE_BOUND('',#331,.T.);
#368=FACE_BOUND('',#332,.T.);
#369=FACE_BOUND('',#333,.T.);
#370=FACE_BOUND('',#334,.T.);
#371=FACE_BOUND('',#335,.T.);
#372=FACE_BOUND('',#336,.T.);
#373=FACE_BOUND('',#337,.T.);
#374=FACE_BOUND('',#338,.T.);
#375=CYLINDRICAL_SURFACE('',#431,0.093);
#376=CYLINDRICAL_SURFACE('',#434,0.093);
#377=CYLINDRICAL_SURFACE('',#437,0.093);
#378=CYLINDRICAL_SURFACE('',#440,0.095);
#379=CYLINDRICAL_SURFACE('',#443,0.095);
#380=CYLINDRICAL_SURFACE('',#446,0.095);
#381=CYLINDRICAL_SURFACE('',#455,0.093);
#382=CYLINDRICAL_SURFACE('',#471,0.095);
#383=CYLINDRICAL_SURFACE('',#482,0.008);
#384=CYLINDRICAL_SURFACE('',#483,0.008);
#385=CYLINDRICAL_SURFACE('',#484,0.008);
#386=CYLINDRICAL_SURFACE('',#485,0.008);
#387=CYLINDRICAL_SURFACE('',#486,0.008);
#388=CYLINDRICAL_SURFACE('',#487,0.008);
#389=CYLINDRICAL_SURFACE('',#488,0.008);
#390=CYLINDRICAL_SURFACE('',#489,0.008);
#391=CYLINDRICAL_SURFACE('',#490,0.00325);
#392=CYLINDRICAL_SURFACE('',#491,0.00325);
#393=CYLINDRICAL_SURFACE('',#492,0.00325);
#394=CYLINDRICAL_SURFACE('',#493,0.00325);
#395=ADVANCED_FACE('',(#339),#375,.F.);
#396=ADVANCED_FACE('',(#340),#376,.F.);
#397=ADVANCED_FACE('',(#341),#377,.F.);
#398=ADVANCED_FACE('',(#342),#378,.T.);
#399=ADVANCED_FACE('',(#343),#379,.T.);
#400=ADVANCED_FACE('',(#344),#380,.T.);
#401=ADVANCED_FACE('',(#345),#20,.T.);
#402=ADVANCED_FACE('',(#346),#381,.F.);
#403=ADVANCED_FACE('',(#347,#348,#349,#350,#351,#352),#21,.T.);
#404=ADVANCED_FACE('',(#353),#382,.T.);
#405=ADVANCED_FACE('',(#354,#355,#356,#357,#358),#22,.T.);
#406=ADVANCED_FACE('',(#359),#383,.T.);
#407=ADVANCED_FACE('',(#360),#384,.T.);
#408=ADVANCED_FACE('',(#361),#385,.T.);
#409=ADVANCED_FACE('',(#362),#386,.T.);
#410=ADVANCED_FACE('',(#363),#387,.T.);
#411=ADVANCED_FACE('',(#364),#388,.T.);
#412=ADVANCED_FACE('',(#365),#389,.T.);
#413=ADVANCED_FACE('',(#366),#390,.T.);
#414=ADVANCED_FACE('',(#367,#368),#391,.F.);
#415=ADVANCED_FACE('',(#369,#370),#392,.F.);
#416=ADVANCED_FACE('',(#371,#372),#393,.F.);
#417=ADVANCED_FACE('',(#373,#374),#394,.F.);
#418=CLOSED_SHELL('',(#395,#396,#397,#398,#399,#400,#401,#402,#403,#404,
#405,#406,#407,#408,#409,#410,#411,#412,#413,#414,#415,#416,#417));
#419=STYLED_ITEM('',(#420),#427);
#420=PRESENTATION_STYLE_ASSIGNMENT((#421));
#421=SURFACE_STYLE_USAGE(.BOTH.,#422);
#422=SURFACE_SIDE_STYLE('',(#423));
#423=SURFACE_STYLE_FILL_AREA(#424);
#424=FILL_AREA_STYLE('',(#425));
#425=FILL_AREA_STYLE_COLOUR('',#426);
#426=COLOUR_RGB('',0.615686274509804,0.811764705882353,0.929411764705882);
#427=MANIFOLD_SOLID_BREP('Part 1',#418);
#428=SHAPE_DEFINITION_REPRESENTATION(#764,#429);
#429=SHAPE_REPRESENTATION('Part 1',(#430),#759);
#430=AXIS2_PLACEMENT_3D('',#638,#494,#495);
#431=AXIS2_PLACEMENT_3D('',#639,#496,#497);
#432=AXIS2_PLACEMENT_3D('',#643,#499,#500);
#433=AXIS2_PLACEMENT_3D('',#647,#502,#503);
#434=AXIS2_PLACEMENT_3D('',#648,#504,#505);
#435=AXIS2_PLACEMENT_3D('',#652,#507,#508);
#436=AXIS2_PLACEMENT_3D('',#656,#510,#511);
#437=AXIS2_PLACEMENT_3D('',#657,#512,#513);
#438=AXIS2_PLACEMENT_3D('',#661,#515,#516);
#439=AXIS2_PLACEMENT_3D('',#665,#518,#519);
#440=AXIS2_PLACEMENT_3D('',#666,#520,#521);
#441=AXIS2_PLACEMENT_3D('',#670,#523,#524);
#442=AXIS2_PLACEMENT_3D('',#674,#526,#527);
#443=AXIS2_PLACEMENT_3D('',#675,#528,#529);
#444=AXIS2_PLACEMENT_3D('',#679,#531,#532);
#445=AXIS2_PLACEMENT_3D('',#683,#534,#535);
#446=AXIS2_PLACEMENT_3D('',#684,#536,#537);
#447=AXIS2_PLACEMENT_3D('',#688,#539,#540);
#448=AXIS2_PLACEMENT_3D('',#692,#542,#543);
#449=AXIS2_PLACEMENT_3D('',#693,#544,#545);
#450=AXIS2_PLACEMENT_3D('',#694,#546,#547);
#451=AXIS2_PLACEMENT_3D('',#695,#548,#549);
#452=AXIS2_PLACEMENT_3D('',#697,#550,#551);
#453=AXIS2_PLACEMENT_3D('',#699,#552,#553);
#454=AXIS2_PLACEMENT_3D('',#700,#554,#555);
#455=AXIS2_PLACEMENT_3D('',#701,#556,#557);
#456=AXIS2_PLACEMENT_3D('',#706,#560,#561);
#457=AXIS2_PLACEMENT_3D('',#707,#562,#563);
#458=AXIS2_PLACEMENT_3D('',#708,#564,#565);
#459=AXIS2_PLACEMENT_3D('',#710,#566,#567);
#460=AXIS2_PLACEMENT_3D('',#712,#568,#569);
#461=AXIS2_PLACEMENT_3D('',#714,#570,#571);
#462=AXIS2_PLACEMENT_3D('',#716,#572,#573);
#463=AXIS2_PLACEMENT_3D('',#717,#574,#575);
#464=AXIS2_PLACEMENT_3D('',#718,#576,#577);
#465=AXIS2_PLACEMENT_3D('',#719,#578,#579);
#466=AXIS2_PLACEMENT_3D('',#720,#580,#581);
#467=AXIS2_PLACEMENT_3D('',#721,#582,#583);
#468=AXIS2_PLACEMENT_3D('',#722,#584,#585);
#469=AXIS2_PLACEMENT_3D('',#724,#586,#587);
#470=AXIS2_PLACEMENT_3D('',#726,#588,#589);
#471=AXIS2_PLACEMENT_3D('',#727,#590,#591);
#472=AXIS2_PLACEMENT_3D('',#732,#594,#595);
#473=AXIS2_PLACEMENT_3D('',#733,#596,#597);
#474=AXIS2_PLACEMENT_3D('',#734,#598,#599);
#475=AXIS2_PLACEMENT_3D('',#736,#600,#601);
#476=AXIS2_PLACEMENT_3D('',#738,#602,#603);
#477=AXIS2_PLACEMENT_3D('',#740,#604,#605);
#478=AXIS2_PLACEMENT_3D('',#742,#606,#607);
#479=AXIS2_PLACEMENT_3D('',#743,#608,#609);
#480=AXIS2_PLACEMENT_3D('',#744,#610,#611);
#481=AXIS2_PLACEMENT_3D('',#745,#612,#613);
#482=AXIS2_PLACEMENT_3D('',#746,#614,#615);
#483=AXIS2_PLACEMENT_3D('',#747,#616,#617);
#484=AXIS2_PLACEMENT_3D('',#748,#618,#619);
#485=AXIS2_PLACEMENT_3D('',#749,#620,#621);
#486=AXIS2_PLACEMENT_3D('',#750,#622,#623);
#487=AXIS2_PLACEMENT_3D('',#751,#624,#625);
#488=AXIS2_PLACEMENT_3D('',#752,#626,#627);
#489=AXIS2_PLACEMENT_3D('',#753,#628,#629);
#490=AXIS2_PLACEMENT_3D('',#754,#630,#631);
#491=AXIS2_PLACEMENT_3D('',#755,#632,#633);
#492=AXIS2_PLACEMENT_3D('',#756,#634,#635);
#493=AXIS2_PLACEMENT_3D('',#757,#636,#637);
#494=DIRECTION('',(0.,0.,1.));
#495=DIRECTION('',(1.,0.,0.));
#496=DIRECTION('',(0.,-1.,0.));
#497=DIRECTION('',(0.,0.,-1.));
#498=DIRECTION('',(0.,-1.,0.));
#499=DIRECTION('',(0.,-1.,0.));
#500=DIRECTION('',(0.,0.,-1.));
#501=DIRECTION('',(0.,-1.,0.));
#502=DIRECTION('',(0.,-1.,0.));
#503=DIRECTION('',(0.,0.,-1.));
#504=DIRECTION('',(0.,-1.,0.));
#505=DIRECTION('',(0.,0.,-1.));
#506=DIRECTION('',(0.,-1.,0.));
#507=DIRECTION('',(0.,-1.,0.));
#508=DIRECTION('',(0.,0.,-1.));
#509=DIRECTION('',(0.,-1.,0.));
#510=DIRECTION('',(0.,-1.,0.));
#511=DIRECTION('',(0.,0.,-1.));
#512=DIRECTION('',(0.,-1.,0.));
#513=DIRECTION('',(0.,0.,-1.));
#514=DIRECTION('',(0.,-1.,0.));
#515=DIRECTION('',(0.,-1.,0.));
#516=DIRECTION('',(0.,0.,-1.));
#517=DIRECTION('',(0.,-1.,0.));
#518=DIRECTION('',(0.,-1.,0.));
#519=DIRECTION('',(0.,0.,-1.));
#520=DIRECTION('',(0.,-1.,0.));
#521=DIRECTION('',(0.,0.,-1.));
#522=DIRECTION('',(0.,-1.,0.));
#523=DIRECTION('',(0.,-1.,0.));
#524=DIRECTION('',(0.,0.,-1.));
#525=DIRECTION('',(0.,-1.,0.));
#526=DIRECTION('',(0.,-1.,0.));
#527=DIRECTION('',(0.,0.,-1.));
#528=DIRECTION('',(0.,-1.,0.));
#529=DIRECTION('',(0.,0.,-1.));
#530=DIRECTION('',(0.,-1.,0.));
#531=DIRECTION('',(0.,-1.,0.));
#532=DIRECTION('',(0.,0.,-1.));
#533=DIRECTION('',(0.,-1.,0.));
#534=DIRECTION('',(0.,-1.,0.));
#535=DIRECTION('',(0.,0.,-1.));
#536=DIRECTION('',(0.,-1.,0.));
#537=DIRECTION('',(0.,0.,-1.));
#538=DIRECTION('',(0.,-1.,0.));
#539=DIRECTION('',(0.,-1.,0.));
#540=DIRECTION('',(0.,0.,-1.));
#541=DIRECTION('',(0.,-1.,0.));
#542=DIRECTION('',(0.,-1.,0.));
#543=DIRECTION('',(0.,0.,-1.));
#544=DIRECTION('',(0.,-1.,0.));
#545=DIRECTION('',(0.,0.,-1.));
#546=DIRECTION('',(0.,-1.,0.));
#547=DIRECTION('',(0.,0.,-1.));
#548=DIRECTION('',(0.,-1.,0.));
#549=DIRECTION('',(0.,0.,-1.));
#550=DIRECTION('',(0.,-1.,0.));
#551=DIRECTION('',(0.,0.,-1.));
#552=DIRECTION('',(0.,-1.,0.));
#553=DIRECTION('',(0.,0.,-1.));
#554=DIRECTION('',(0.,-1.,0.));
#555=DIRECTION('',(0.,0.,-1.));
#556=DIRECTION('',(0.,-1.,0.));
#557=DIRECTION('',(0.,0.,-1.));
#558=DIRECTION('',(0.,-1.,0.));
#559=DIRECTION('',(0.,-1.,0.));
#560=DIRECTION('',(0.,-1.,0.));
#561=DIRECTION('',(0.,0.,-1.));
#562=DIRECTION('',(0.,-1.,0.));
#563=DIRECTION('',(0.,0.,-1.));
#564=DIRECTION('',(0.,-1.,0.));
#565=DIRECTION('',(0.,0.,-1.));
#566=DIRECTION('',(0.,-1.,0.));
#567=DIRECTION('',(0.,0.,-1.));
#568=DIRECTION('',(0.,-1.,0.));
#569=DIRECTION('',(0.,0.,-1.));
#570=DIRECTION('',(0.,-1.,0.));
#571=DIRECTION('',(0.,0.,-1.));
#572=DIRECTION('',(0.,-1.,0.));
#573=DIRECTION('',(0.,0.,-1.));
#574=DIRECTION('',(0.,-1.,0.));
#575=DIRECTION('',(0.,0.,-1.));
#576=DIRECTION('',(0.,-1.,0.));
#577=DIRECTION('',(0.,0.,-1.));
#578=DIRECTION('',(0.,-1.,0.));
#579=DIRECTION('',(0.,0.,-1.));
#580=DIRECTION('',(0.,-1.,0.));
#581=DIRECTION('',(0.,0.,-1.));
#582=DIRECTION('',(0.,-1.,0.));
#583=DIRECTION('',(0.,0.,-1.));
#584=DIRECTION('',(0.,-1.,0.));
#585=DIRECTION('',(0.,0.,-1.));
#586=DIRECTION('',(0.,-1.,0.));
#587=DIRECTION('',(0.,0.,-1.));
#588=DIRECTION('',(0.,-1.,0.));
#589=DIRECTION('',(0.,0.,-1.));
#590=DIRECTION('',(0.,-1.,0.));
#591=DIRECTION('',(0.,0.,-1.));
#592=DIRECTION('',(0.,-1.,0.));
#593=DIRECTION('',(0.,-1.,0.));
#594=DIRECTION('',(0.,-1.,0.));
#595=DIRECTION('',(0.,0.,-1.));
#596=DIRECTION('',(0.,1.,0.));
#597=DIRECTION('',(0.,0.,1.));
#598=DIRECTION('',(0.,1.,0.));
#599=DIRECTION('',(0.,0.,1.));
#600=DIRECTION('',(0.,1.,0.));
#601=DIRECTION('',(0.,0.,1.));
#602=DIRECTION('',(0.,1.,0.));
#603=DIRECTION('',(0.,0.,1.));
#604=DIRECTION('',(0.,1.,0.));
#605=DIRECTION('',(0.,0.,1.));
#606=DIRECTION('',(0.,-1.,0.));
#607=DIRECTION('',(0.,0.,-1.));
#608=DIRECTION('',(0.,-1.,0.));
#609=DIRECTION('',(0.,0.,-1.));
#610=DIRECTION('',(0.,-1.,0.));
#611=DIRECTION('',(0.,0.,-1.));
#612=DIRECTION('',(0.,-1.,0.));
#613=DIRECTION('',(0.,0.,-1.));
#614=DIRECTION('',(0.,-1.,0.));
#615=DIRECTION('',(0.,0.,-1.));
#616=DIRECTION('',(0.,-1.,0.));
#617=DIRECTION('',(0.,0.,-1.));
#618=DIRECTION('',(0.,-1.,0.));
#619=DIRECTION('',(0.,0.,-1.));
#620=DIRECTION('',(0.,-1.,0.));
#621=DIRECTION('',(0.,0.,-1.));
#622=DIRECTION('',(0.,-1.,0.));
#623=DIRECTION('',(0.,0.,-1.));
#624=DIRECTION('',(0.,-1.,0.));
#625=DIRECTION('',(0.,0.,-1.));
#626=DIRECTION('',(0.,-1.,0.));
#627=DIRECTION('',(0.,0.,-1.));
#628=DIRECTION('',(0.,-1.,0.));
#629=DIRECTION('',(0.,0.,-1.));
#630=DIRECTION('',(0.,-1.,0.));
#631=DIRECTION('',(0.,0.,-1.));
#632=DIRECTION('',(0.,-1.,0.));
#633=DIRECTION('',(0.,0.,-1.));
#634=DIRECTION('',(0.,-1.,0.));
#635=DIRECTION('',(0.,0.,-1.));
#636=DIRECTION('',(0.,-1.,0.));
#637=DIRECTION('',(0.,0.,-1.));
#638=CARTESIAN_POINT('',(0.,0.,0.));
#639=CARTESIAN_POINT('',(0.,0.025,0.));
#640=CARTESIAN_POINT('',(0.0692860586701662,0.0075,-0.0620358128338324));
#641=CARTESIAN_POINT('',(0.0692860586701662,0.,-0.0620358128338324));
#642=CARTESIAN_POINT('',(0.0692860586701662,0.013,-0.0620358128338324));
#643=CARTESIAN_POINT('',(0.,0.,0.));
#644=CARTESIAN_POINT('',(0.0692860586701663,0.,0.0620358128338324));
#645=CARTESIAN_POINT('',(0.0692860586701663,0.0075,0.0620358128338324));
#646=CARTESIAN_POINT('',(0.0692860586701662,0.013,0.0620358128338324));
#647=CARTESIAN_POINT('',(0.,0.013,0.));
#648=CARTESIAN_POINT('',(0.,0.025,0.));
#649=CARTESIAN_POINT('',(0.0620358128338324,0.0075,-0.0692860586701663));
#650=CARTESIAN_POINT('',(0.0620358128338324,0.013,-0.0692860586701663));
#651=CARTESIAN_POINT('',(0.0620358128338324,0.,-0.0692860586701663));
#652=CARTESIAN_POINT('',(0.,0.013,0.));
#653=CARTESIAN_POINT('',(-0.0620358128338324,0.013,-0.0692860586701662));
#654=CARTESIAN_POINT('',(-0.0620358128338324,0.0075,-0.0692860586701662));
#655=CARTESIAN_POINT('',(-0.0620358128338324,0.,-0.0692860586701662));
#656=CARTESIAN_POINT('',(0.,0.,0.));
#657=CARTESIAN_POINT('',(0.,0.025,0.));
#658=CARTESIAN_POINT('',(-0.0692860586701663,0.0075,-0.0620358128338324));
#659=CARTESIAN_POINT('',(-0.0692860586701663,0.013,-0.0620358128338323));
#660=CARTESIAN_POINT('',(-0.0692860586701663,0.,-0.0620358128338324));
#661=CARTESIAN_POINT('',(0.,0.013,0.));
#662=CARTESIAN_POINT('',(-0.0692860586701662,0.013,0.0620358128338324));
#663=CARTESIAN_POINT('',(-0.0692860586701662,0.0075,0.0620358128338324));
#664=CARTESIAN_POINT('',(-0.0692860586701662,0.,0.0620358128338324));
#665=CARTESIAN_POINT('',(0.,0.,0.));
#666=CARTESIAN_POINT('',(0.,0.025,0.));
#667=CARTESIAN_POINT('',(0.0717996516459825,0.0075,-0.0622077971279771));
#668=CARTESIAN_POINT('',(0.0717996516459825,0.015,-0.0622077971279772));
#669=CARTESIAN_POINT('',(0.0717996516459826,0.,-0.0622077971279771));
#670=CARTESIAN_POINT('',(0.,0.015,0.));
#671=CARTESIAN_POINT('',(0.0717996516459825,0.015,0.0622077971279771));
#672=CARTESIAN_POINT('',(0.0717996516459825,0.0075,0.0622077971279771));
#673=CARTESIAN_POINT('',(0.0717996516459826,0.,0.0622077971279771));
#674=CARTESIAN_POINT('',(0.,0.,0.));
#675=CARTESIAN_POINT('',(0.,0.025,0.));
#676=CARTESIAN_POINT('',(0.0622077971279771,0.0075,-0.0717996516459826));
#677=CARTESIAN_POINT('',(0.0622077971279771,0.,-0.0717996516459826));
#678=CARTESIAN_POINT('',(0.0622077971279771,0.015,-0.0717996516459826));
#679=CARTESIAN_POINT('',(0.,0.,0.));
#680=CARTESIAN_POINT('',(-0.0622077971279771,0.,-0.0717996516459825));
#681=CARTESIAN_POINT('',(-0.0622077971279771,0.0075,-0.0717996516459825));
#682=CARTESIAN_POINT('',(-0.0622077971279771,0.015,-0.0717996516459825));
#683=CARTESIAN_POINT('',(0.,0.015,0.));
#684=CARTESIAN_POINT('',(0.,0.025,0.));
#685=CARTESIAN_POINT('',(-0.0717996516459825,0.0075,-0.0622077971279771));
#686=CARTESIAN_POINT('',(-0.0717996516459826,0.,-0.0622077971279771));
#687=CARTESIAN_POINT('',(-0.0717996516459825,0.015,-0.0622077971279771));
#688=CARTESIAN_POINT('',(0.,0.,0.));
#689=CARTESIAN_POINT('',(-0.0717996516459826,0.,0.0622077971279771));
#690=CARTESIAN_POINT('',(-0.0717996516459825,0.0075,0.0622077971279771));
#691=CARTESIAN_POINT('',(-0.0717996516459825,0.015,0.0622077971279771));
#692=CARTESIAN_POINT('',(0.,0.015,0.));
#693=CARTESIAN_POINT('',(0.0465,0.013,0.));
#694=CARTESIAN_POINT('',(0.0700035713374682,0.013,-0.0700035713374682));
#695=CARTESIAN_POINT('',(0.0700035713374682,0.013,0.0700035713374682));
#696=CARTESIAN_POINT('',(0.0620358128338324,0.013,0.0692860586701662));
#697=CARTESIAN_POINT('',(0.,0.013,0.));
#698=CARTESIAN_POINT('',(-0.0620358128338323,0.013,0.0692860586701663));
#699=CARTESIAN_POINT('',(-0.0700035713374682,0.013,0.0700035713374682));
#700=CARTESIAN_POINT('',(-0.0700035713374682,0.013,-0.0700035713374682));
#701=CARTESIAN_POINT('',(0.,0.025,0.));
#702=CARTESIAN_POINT('',(-0.0620358128338324,0.0075,0.0692860586701663));
#703=CARTESIAN_POINT('',(-0.0620358128338324,0.,0.0692860586701663));
#704=CARTESIAN_POINT('',(0.0620358128338324,0.0075,0.0692860586701663));
#705=CARTESIAN_POINT('',(0.0620358128338324,0.,0.0692860586701663));
#706=CARTESIAN_POINT('',(0.,0.,0.));
#707=CARTESIAN_POINT('',(0.094,0.,0.));
#708=CARTESIAN_POINT('',(0.0700035713374682,0.,-0.0700035713374682));
#709=CARTESIAN_POINT('',(0.0700035713374682,0.,-0.0732535713374682));
#710=CARTESIAN_POINT('',(-0.0700035713374682,0.,-0.0700035713374682));
#711=CARTESIAN_POINT('',(-0.0700035713374682,0.,-0.0732535713374682));
#712=CARTESIAN_POINT('',(-0.0700035713374682,0.,0.0700035713374682));
#713=CARTESIAN_POINT('',(-0.0700035713374682,0.,0.0667535713374682));
#714=CARTESIAN_POINT('',(0.0700035713374682,0.,0.0700035713374682));
#715=CARTESIAN_POINT('',(0.0700035713374682,0.,0.0667535713374682));
#716=CARTESIAN_POINT('',(0.0700035713374682,0.,-0.0700035713374682));
#717=CARTESIAN_POINT('',(-0.0700035713374682,0.,-0.0700035713374682));
#718=CARTESIAN_POINT('',(-0.0700035713374682,0.,0.0700035713374682));
#719=CARTESIAN_POINT('',(0.0700035713374682,0.,0.0700035713374682));
#720=CARTESIAN_POINT('',(-0.0700035713374682,0.,-0.0700035713374682));
#721=CARTESIAN_POINT('',(0.0700035713374682,0.,-0.0700035713374682));
#722=CARTESIAN_POINT('',(0.0700035713374682,0.,0.0700035713374682));
#723=CARTESIAN_POINT('',(0.0622077971279771,0.,0.0717996516459826));
#724=CARTESIAN_POINT('',(0.,0.,0.));
#725=CARTESIAN_POINT('',(-0.0622077971279771,0.,0.0717996516459826));
#726=CARTESIAN_POINT('',(-0.0700035713374682,0.,0.0700035713374682));
#727=CARTESIAN_POINT('',(0.,0.025,0.));
#728=CARTESIAN_POINT('',(-0.0622077971279771,0.0075,0.0717996516459825));
#729=CARTESIAN_POINT('',(-0.0622077971279771,0.015,0.0717996516459825));
#730=CARTESIAN_POINT('',(0.0622077971279771,0.0075,0.0717996516459825));
#731=CARTESIAN_POINT('',(0.0622077971279771,0.015,0.0717996516459825));
#732=CARTESIAN_POINT('',(0.,0.015,0.));
#733=CARTESIAN_POINT('',(0.0475,0.015,0.));
#734=CARTESIAN_POINT('',(0.0700035713374682,0.015,-0.0700035713374682));
#735=CARTESIAN_POINT('',(0.0700035713374682,0.015,-0.0667535713374682));
#736=CARTESIAN_POINT('',(-0.0700035713374682,0.015,-0.0700035713374682));
#737=CARTESIAN_POINT('',(-0.0700035713374682,0.015,-0.0667535713374682));
#738=CARTESIAN_POINT('',(-0.0700035713374682,0.015,0.0700035713374682));
#739=CARTESIAN_POINT('',(-0.0700035713374682,0.015,0.0732535713374682));
#740=CARTESIAN_POINT('',(0.0700035713374682,0.015,0.0700035713374682));
#741=CARTESIAN_POINT('',(0.0700035713374682,0.015,0.0732535713374682));
#742=CARTESIAN_POINT('',(0.0700035713374682,0.015,0.0700035713374682));
#743=CARTESIAN_POINT('',(0.0700035713374682,0.015,-0.0700035713374682));
#744=CARTESIAN_POINT('',(-0.0700035713374682,0.015,-0.0700035713374682));
#745=CARTESIAN_POINT('',(-0.0700035713374682,0.015,0.0700035713374682));
#746=CARTESIAN_POINT('',(0.0700035713374682,0.015,0.0700035713374682));
#747=CARTESIAN_POINT('',(-0.0700035713374682,0.015,0.0700035713374682));
#748=CARTESIAN_POINT('',(-0.0700035713374682,0.015,-0.0700035713374682));
#749=CARTESIAN_POINT('',(0.0700035713374682,0.015,-0.0700035713374682));
#750=CARTESIAN_POINT('',(0.0700035713374682,0.015,0.0700035713374682));
#751=CARTESIAN_POINT('',(-0.0700035713374682,0.015,0.0700035713374682));
#752=CARTESIAN_POINT('',(-0.0700035713374682,0.015,-0.0700035713374682));
#753=CARTESIAN_POINT('',(0.0700035713374682,0.015,-0.0700035713374682));
#754=CARTESIAN_POINT('',(0.0700035713374682,0.269128932815958,0.0700035713374682));
#755=CARTESIAN_POINT('',(-0.0700035713374682,0.269128932815958,0.0700035713374682));
#756=CARTESIAN_POINT('',(-0.0700035713374682,0.269128932815958,-0.0700035713374682));
#757=CARTESIAN_POINT('',(0.0700035713374682,0.269128932815958,-0.0700035713374682));
#758=MECHANICAL_DESIGN_GEOMETRIC_PRESENTATION_REPRESENTATION('',(#419),
#759);
#759=(
GEOMETRIC_REPRESENTATION_CONTEXT(3)
GLOBAL_UNCERTAINTY_ASSIGNED_CONTEXT((#760))
GLOBAL_UNIT_ASSIGNED_CONTEXT((#763,#762,#761))
REPRESENTATION_CONTEXT('Part 1','TOP_LEVEL_ASSEMBLY_PART')
);
#760=UNCERTAINTY_MEASURE_WITH_UNIT(LENGTH_MEASURE(1.E-8),#763,
'DISTANCE_ACCURACY_VALUE','Maximum Tolerance applied to model');
#761=(
NAMED_UNIT(*)
SI_UNIT($,.STERADIAN.)
SOLID_ANGLE_UNIT()
);
#762=(
NAMED_UNIT(*)
PLANE_ANGLE_UNIT()
SI_UNIT($,.RADIAN.)
);
#763=(
LENGTH_UNIT()
NAMED_UNIT(*)
SI_UNIT($,.METRE.)
);
#764=PRODUCT_DEFINITION_SHAPE('','',#765);
#765=PRODUCT_DEFINITION('','',#767,#766);
#766=PRODUCT_DEFINITION_CONTEXT('',#773,'design');
#767=PRODUCT_DEFINITION_FORMATION_WITH_SPECIFIED_SOURCE('','',#769,
 .NOT_KNOWN.);
#768=PRODUCT_RELATED_PRODUCT_CATEGORY('','',(#769));
#769=PRODUCT('Part 1','Part 1','Part 1',(#771));
#770=PRODUCT_CATEGORY('','');
#771=PRODUCT_CONTEXT('',#773,'mechanical');
#772=APPLICATION_PROTOCOL_DEFINITION('international standard',
'automotive_design',2010,#773);
#773=APPLICATION_CONTEXT(
'core data for automotive mechanical design processes');
ENDSEC;
END-ISO-10303-21;
