ISO-10303-21;
HEADER;
/* Generated by software containing ST-Developer
 * from STEP Tools, Inc. (www.steptools.com) 
 */
/* OPTION: using custom renumber hook */

FILE_DESCRIPTION(
/* description */ ('STEP AP214',
'CAx-IF Rec.Pracs.---User Defined Attributes---1.5---2016-08-15'),
/* implementation_level */ '2;1');

FILE_NAME(
/* name */ '6aa219256107b780bddea2ba',
/* time_stamp */ '2026-09-10T02:42:45Z',
/* author */ (''),
/* organization */ (''),
/* preprocessor_version */ 'ST-DEVELOPER v20',
/* originating_system */ 'ONSHAPE BY PTC INC, 1.220',
/* authorisation */ '  ');

FILE_SCHEMA (('AUTOMOTIVE_DESIGN {1 0 10303 214 3 1 1}'));
ENDSEC;

DATA;
#10=PROPERTY_DEFINITION_REPRESENTATION(#14,#12);
#11=PROPERTY_DEFINITION_REPRESENTATION(#15,#13);
#12=REPRESENTATION('',(#16),#1269);
#13=REPRESENTATION('',(#17),#1269);
#14=PROPERTY_DEFINITION('pmi validation property','',#1274);
#15=PROPERTY_DEFINITION('pmi validation property','',#1274);
#16=VALUE_REPRESENTATION_ITEM('number of annotations',COUNT_MEASURE(0.));
#17=VALUE_REPRESENTATION_ITEM('number of views',COUNT_MEASURE(0.));
#18=SHAPE_REPRESENTATION_RELATIONSHIP('','',#738,#19);
#19=ADVANCED_BREP_SHAPE_REPRESENTATION('',(#736),#1269);
#20=PLANE('',#763);
#21=PLANE('',#777);
#22=PLANE('',#784);
#23=PLANE('',#788);
#24=PLANE('',#802);
#25=PLANE('',#803);
#26=PLANE('',#804);
#27=PLANE('',#805);
#28=PLANE('',#806);
#29=PLANE('',#807);
#30=PLANE('',#808);
#31=PLANE('',#809);
#32=PLANE('',#818);
#33=PLANE('',#819);
#34=PLANE('',#822);
#35=PLANE('',#823);
#36=B_SPLINE_CURVE_WITH_KNOTS('',3,(#1045,#1046,#1047,#1048),
 .UNSPECIFIED.,.F.,.F.,(4,4),(2.8307694242474E-7,0.00141568145020116),
 .UNSPECIFIED.);
#37=B_SPLINE_CURVE_WITH_KNOTS('',3,(#1052,#1053,#1054,#1055),
 .UNSPECIFIED.,.F.,.F.,(4,4),(2.82928850406221E-7,0.00141492222409731),
 .UNSPECIFIED.);
#38=B_SPLINE_CURVE_WITH_KNOTS('',3,(#1084,#1085,#1086,#1087),
 .UNSPECIFIED.,.F.,.F.,(4,4),(2.83082438758726E-7,0.00141568145569749),
 .UNSPECIFIED.);
#39=B_SPLINE_CURVE_WITH_KNOTS('',3,(#1089,#1090,#1091,#1092),
 .UNSPECIFIED.,.F.,.F.,(4,4),(2.82926879096075E-7,0.00141492222212605),
 .UNSPECIFIED.);
#40=B_SPLINE_CURVE_WITH_KNOTS('',3,(#1096,#1097,#1098,#1099),
 .UNSPECIFIED.,.F.,.F.,(4,4),(2.82928850352706E-7,0.00141492222409731),
 .UNSPECIFIED.);
#41=B_SPLINE_CURVE_WITH_KNOTS('',3,(#1101,#1102,#1103,#1104),
 .UNSPECIFIED.,.F.,.F.,(4,4),(2.82926879096075E-7,0.00141492222212605),
 .UNSPECIFIED.);
#42=B_SPLINE_CURVE_WITH_KNOTS('',3,(#1108,#1109,#1110,#1111),
 .UNSPECIFIED.,.F.,.F.,(4,4),(2.82928850352706E-7,0.00141492222409731),
 .UNSPECIFIED.);
#43=B_SPLINE_CURVE_WITH_KNOTS('',3,(#1113,#1114,#1115,#1116),
 .UNSPECIFIED.,.F.,.F.,(4,4),(2.82926879050727E-7,0.00141492222212605),
 .UNSPECIFIED.);
#44=B_SPLINE_CURVE_WITH_KNOTS('',3,(#1219,#1220,#1221,#1222),
 .UNSPECIFIED.,.F.,.F.,(4,4),(2.82928850406221E-7,0.00141492222409731),
 .UNSPECIFIED.);
#45=B_SPLINE_CURVE_WITH_KNOTS('',3,(#1223,#1224,#1225,#1226),
 .UNSPECIFIED.,.F.,.F.,(4,4),(2.82926879096075E-7,0.00141492222212605),
 .UNSPECIFIED.);
#46=CONICAL_SURFACE('',#743,0.087,0.785398163397449);
#47=CONICAL_SURFACE('',#754,0.087,0.785398163397449);
#48=CONICAL_SURFACE('',#756,0.087,0.785398163397449);
#49=CONICAL_SURFACE('',#758,0.087,0.785398163397449);
#50=CONICAL_SURFACE('',#796,0.087,0.785398163397449);
#51=CIRCLE('',#741,0.086);
#52=CIRCLE('',#742,0.086);
#53=CIRCLE('',#744,0.087);
#54=CIRCLE('',#746,0.086);
#55=CIRCLE('',#747,0.086);
#56=CIRCLE('',#749,0.086);
#57=CIRCLE('',#750,0.086);
#58=CIRCLE('',#752,0.086);
#59=CIRCLE('',#753,0.086);
#60=CIRCLE('',#755,0.087);
#61=CIRCLE('',#757,0.087);
#62=CIRCLE('',#759,0.087);
#63=CIRCLE('',#761,0.086);
#64=CIRCLE('',#762,0.086);
#65=CIRCLE('',#764,0.0135);
#66=CIRCLE('',#765,0.0155);
#67=CIRCLE('',#766,0.006);
#68=CIRCLE('',#767,0.008);
#69=CIRCLE('',#768,0.004);
#70=CIRCLE('',#769,0.0155);
#71=CIRCLE('',#770,0.0155);
#72=CIRCLE('',#771,0.0155);
#73=CIRCLE('',#772,0.1175);
#74=CIRCLE('',#773,0.0115);
#75=CIRCLE('',#774,0.0113);
#76=CIRCLE('',#776,0.1175);
#77=CIRCLE('',#778,0.0935);
#78=CIRCLE('',#779,0.006);
#79=CIRCLE('',#780,0.008);
#80=CIRCLE('',#781,0.004);
#81=CIRCLE('',#783,0.0935);
#82=CIRCLE('',#785,0.092);
#83=CIRCLE('',#787,0.092);
#84=CIRCLE('',#789,0.0135);
#85=CIRCLE('',#790,0.0155);
#86=CIRCLE('',#791,0.0155);
#87=CIRCLE('',#792,0.0155);
#88=CIRCLE('',#793,0.087);
#89=CIRCLE('',#794,0.0155);
#90=CIRCLE('',#795,0.0115);
#91=CIRCLE('',#814,0.01);
#92=CIRCLE('',#815,0.01);
#93=CIRCLE('',#817,0.0135);
#94=CIRCLE('',#820,0.0113);
#95=ORIENTED_EDGE('',*,*,#283,.F.);
#96=ORIENTED_EDGE('',*,*,#284,.F.);
#97=ORIENTED_EDGE('',*,*,#285,.F.);
#98=ORIENTED_EDGE('',*,*,#286,.T.);
#99=ORIENTED_EDGE('',*,*,#287,.F.);
#100=ORIENTED_EDGE('',*,*,#288,.F.);
#101=ORIENTED_EDGE('',*,*,#289,.F.);
#102=ORIENTED_EDGE('',*,*,#284,.T.);
#103=ORIENTED_EDGE('',*,*,#290,.F.);
#104=ORIENTED_EDGE('',*,*,#291,.T.);
#105=ORIENTED_EDGE('',*,*,#292,.F.);
#106=ORIENTED_EDGE('',*,*,#293,.F.);
#107=ORIENTED_EDGE('',*,*,#294,.F.);
#108=ORIENTED_EDGE('',*,*,#295,.T.);
#109=ORIENTED_EDGE('',*,*,#296,.F.);
#110=ORIENTED_EDGE('',*,*,#297,.F.);
#111=ORIENTED_EDGE('',*,*,#298,.F.);
#112=ORIENTED_EDGE('',*,*,#299,.T.);
#113=ORIENTED_EDGE('',*,*,#300,.F.);
#114=ORIENTED_EDGE('',*,*,#301,.F.);
#115=ORIENTED_EDGE('',*,*,#302,.F.);
#116=ORIENTED_EDGE('',*,*,#293,.T.);
#117=ORIENTED_EDGE('',*,*,#303,.F.);
#118=ORIENTED_EDGE('',*,*,#304,.F.);
#119=ORIENTED_EDGE('',*,*,#305,.F.);
#120=ORIENTED_EDGE('',*,*,#297,.T.);
#121=ORIENTED_EDGE('',*,*,#306,.F.);
#122=ORIENTED_EDGE('',*,*,#307,.F.);
#123=ORIENTED_EDGE('',*,*,#308,.F.);
#124=ORIENTED_EDGE('',*,*,#301,.T.);
#125=ORIENTED_EDGE('',*,*,#309,.F.);
#126=ORIENTED_EDGE('',*,*,#310,.F.);
#127=ORIENTED_EDGE('',*,*,#311,.F.);
#128=ORIENTED_EDGE('',*,*,#312,.T.);
#129=ORIENTED_EDGE('',*,*,#313,.F.);
#130=ORIENTED_EDGE('',*,*,#314,.F.);
#131=ORIENTED_EDGE('',*,*,#291,.F.);
#132=ORIENTED_EDGE('',*,*,#315,.T.);
#133=ORIENTED_EDGE('',*,*,#316,.T.);
#134=ORIENTED_EDGE('',*,*,#317,.T.);
#135=ORIENTED_EDGE('',*,*,#286,.F.);
#136=ORIENTED_EDGE('',*,*,#318,.T.);
#137=ORIENTED_EDGE('',*,*,#319,.T.);
#138=ORIENTED_EDGE('',*,*,#320,.T.);
#139=ORIENTED_EDGE('',*,*,#321,.F.);
#140=ORIENTED_EDGE('',*,*,#322,.F.);
#141=ORIENTED_EDGE('',*,*,#323,.F.);
#142=ORIENTED_EDGE('',*,*,#295,.F.);
#143=ORIENTED_EDGE('',*,*,#324,.T.);
#144=ORIENTED_EDGE('',*,*,#325,.T.);
#145=ORIENTED_EDGE('',*,*,#326,.T.);
#146=ORIENTED_EDGE('',*,*,#299,.F.);
#147=ORIENTED_EDGE('',*,*,#327,.T.);
#148=ORIENTED_EDGE('',*,*,#328,.T.);
#149=ORIENTED_EDGE('',*,*,#329,.T.);
#150=ORIENTED_EDGE('',*,*,#330,.T.);
#151=ORIENTED_EDGE('',*,*,#312,.F.);
#152=ORIENTED_EDGE('',*,*,#331,.T.);
#153=ORIENTED_EDGE('',*,*,#332,.T.);
#154=ORIENTED_EDGE('',*,*,#333,.T.);
#155=ORIENTED_EDGE('',*,*,#334,.F.);
#156=ORIENTED_EDGE('',*,*,#335,.F.);
#157=ORIENTED_EDGE('',*,*,#336,.T.);
#158=ORIENTED_EDGE('',*,*,#333,.F.);
#159=ORIENTED_EDGE('',*,*,#337,.T.);
#160=ORIENTED_EDGE('',*,*,#338,.F.);
#161=ORIENTED_EDGE('',*,*,#339,.F.);
#162=ORIENTED_EDGE('',*,*,#340,.F.);
#163=ORIENTED_EDGE('',*,*,#336,.F.);
#164=ORIENTED_EDGE('',*,*,#341,.T.);
#165=ORIENTED_EDGE('',*,*,#337,.F.);
#166=ORIENTED_EDGE('',*,*,#342,.T.);
#167=ORIENTED_EDGE('',*,*,#341,.F.);
#168=ORIENTED_EDGE('',*,*,#343,.T.);
#169=ORIENTED_EDGE('',*,*,#342,.F.);
#170=ORIENTED_EDGE('',*,*,#288,.T.);
#171=ORIENTED_EDGE('',*,*,#344,.F.);
#172=ORIENTED_EDGE('',*,*,#345,.F.);
#173=ORIENTED_EDGE('',*,*,#346,.F.);
#174=ORIENTED_EDGE('',*,*,#304,.T.);
#175=ORIENTED_EDGE('',*,*,#347,.F.);
#176=ORIENTED_EDGE('',*,*,#348,.F.);
#177=ORIENTED_EDGE('',*,*,#349,.F.);
#178=ORIENTED_EDGE('',*,*,#343,.F.);
#179=ORIENTED_EDGE('',*,*,#350,.F.);
#180=ORIENTED_EDGE('',*,*,#307,.T.);
#181=ORIENTED_EDGE('',*,*,#351,.F.);
#182=ORIENTED_EDGE('',*,*,#352,.F.);
#183=ORIENTED_EDGE('',*,*,#353,.F.);
#184=ORIENTED_EDGE('',*,*,#310,.T.);
#185=ORIENTED_EDGE('',*,*,#354,.F.);
#186=ORIENTED_EDGE('',*,*,#355,.F.);
#187=ORIENTED_EDGE('',*,*,#356,.T.);
#188=ORIENTED_EDGE('',*,*,#357,.F.);
#189=ORIENTED_EDGE('',*,*,#358,.F.);
#190=ORIENTED_EDGE('',*,*,#359,.F.);
#191=ORIENTED_EDGE('',*,*,#360,.T.);
#192=ORIENTED_EDGE('',*,*,#361,.F.);
#193=ORIENTED_EDGE('',*,*,#314,.T.);
#194=ORIENTED_EDGE('',*,*,#362,.F.);
#195=ORIENTED_EDGE('',*,*,#356,.F.);
#196=ORIENTED_EDGE('',*,*,#363,.F.);
#197=ORIENTED_EDGE('',*,*,#332,.F.);
#198=ORIENTED_EDGE('',*,*,#364,.F.);
#199=ORIENTED_EDGE('',*,*,#358,.T.);
#200=ORIENTED_EDGE('',*,*,#365,.F.);
#201=ORIENTED_EDGE('',*,*,#328,.F.);
#202=ORIENTED_EDGE('',*,*,#366,.F.);
#203=ORIENTED_EDGE('',*,*,#355,.T.);
#204=ORIENTED_EDGE('',*,*,#367,.F.);
#205=ORIENTED_EDGE('',*,*,#325,.F.);
#206=ORIENTED_EDGE('',*,*,#368,.F.);
#207=ORIENTED_EDGE('',*,*,#352,.T.);
#208=ORIENTED_EDGE('',*,*,#334,.T.);
#209=ORIENTED_EDGE('',*,*,#360,.F.);
#210=ORIENTED_EDGE('',*,*,#369,.F.);
#211=ORIENTED_EDGE('',*,*,#348,.T.);
#212=ORIENTED_EDGE('',*,*,#370,.F.);
#213=ORIENTED_EDGE('',*,*,#319,.F.);
#214=ORIENTED_EDGE('',*,*,#303,.T.);
#215=ORIENTED_EDGE('',*,*,#292,.T.);
#216=ORIENTED_EDGE('',*,*,#320,.F.);
#217=ORIENTED_EDGE('',*,*,#370,.T.);
#218=ORIENTED_EDGE('',*,*,#347,.T.);
#219=ORIENTED_EDGE('',*,*,#324,.F.);
#220=ORIENTED_EDGE('',*,*,#294,.T.);
#221=ORIENTED_EDGE('',*,*,#305,.T.);
#222=ORIENTED_EDGE('',*,*,#350,.T.);
#223=ORIENTED_EDGE('',*,*,#368,.T.);
#224=ORIENTED_EDGE('',*,*,#306,.T.);
#225=ORIENTED_EDGE('',*,*,#296,.T.);
#226=ORIENTED_EDGE('',*,*,#326,.F.);
#227=ORIENTED_EDGE('',*,*,#367,.T.);
#228=ORIENTED_EDGE('',*,*,#351,.T.);
#229=ORIENTED_EDGE('',*,*,#327,.F.);
#230=ORIENTED_EDGE('',*,*,#298,.T.);
#231=ORIENTED_EDGE('',*,*,#308,.T.);
#232=ORIENTED_EDGE('',*,*,#353,.T.);
#233=ORIENTED_EDGE('',*,*,#366,.T.);
#234=ORIENTED_EDGE('',*,*,#309,.T.);
#235=ORIENTED_EDGE('',*,*,#300,.T.);
#236=ORIENTED_EDGE('',*,*,#329,.F.);
#237=ORIENTED_EDGE('',*,*,#365,.T.);
#238=ORIENTED_EDGE('',*,*,#354,.T.);
#239=ORIENTED_EDGE('',*,*,#331,.F.);
#240=ORIENTED_EDGE('',*,*,#311,.T.);
#241=ORIENTED_EDGE('',*,*,#361,.T.);
#242=ORIENTED_EDGE('',*,*,#359,.T.);
#243=ORIENTED_EDGE('',*,*,#364,.T.);
#244=ORIENTED_EDGE('',*,*,#362,.T.);
#245=ORIENTED_EDGE('',*,*,#313,.T.);
#246=ORIENTED_EDGE('',*,*,#330,.F.);
#247=ORIENTED_EDGE('',*,*,#363,.T.);
#248=ORIENTED_EDGE('',*,*,#357,.T.);
#249=ORIENTED_EDGE('',*,*,#318,.F.);
#250=ORIENTED_EDGE('',*,*,#285,.T.);
#251=ORIENTED_EDGE('',*,*,#289,.T.);
#252=ORIENTED_EDGE('',*,*,#349,.T.);
#253=ORIENTED_EDGE('',*,*,#369,.T.);
#254=ORIENTED_EDGE('',*,*,#340,.T.);
#255=ORIENTED_EDGE('',*,*,#323,.T.);
#256=ORIENTED_EDGE('',*,*,#339,.T.);
#257=ORIENTED_EDGE('',*,*,#322,.T.);
#258=ORIENTED_EDGE('',*,*,#338,.T.);
#259=ORIENTED_EDGE('',*,*,#321,.T.);
#260=ORIENTED_EDGE('',*,*,#371,.F.);
#261=ORIENTED_EDGE('',*,*,#372,.F.);
#262=ORIENTED_EDGE('',*,*,#373,.F.);
#263=ORIENTED_EDGE('',*,*,#316,.F.);
#264=ORIENTED_EDGE('',*,*,#374,.F.);
#265=ORIENTED_EDGE('',*,*,#345,.T.);
#266=ORIENTED_EDGE('',*,*,#375,.T.);
#267=ORIENTED_EDGE('',*,*,#371,.T.);
#268=ORIENTED_EDGE('',*,*,#375,.F.);
#269=ORIENTED_EDGE('',*,*,#376,.T.);
#270=ORIENTED_EDGE('',*,*,#372,.T.);
#271=ORIENTED_EDGE('',*,*,#376,.F.);
#272=ORIENTED_EDGE('',*,*,#335,.T.);
#273=ORIENTED_EDGE('',*,*,#287,.T.);
#274=ORIENTED_EDGE('',*,*,#283,.T.);
#275=ORIENTED_EDGE('',*,*,#317,.F.);
#276=ORIENTED_EDGE('',*,*,#373,.T.);
#277=ORIENTED_EDGE('',*,*,#344,.T.);
#278=ORIENTED_EDGE('',*,*,#315,.F.);
#279=ORIENTED_EDGE('',*,*,#290,.T.);
#280=ORIENTED_EDGE('',*,*,#302,.T.);
#281=ORIENTED_EDGE('',*,*,#346,.T.);
#282=ORIENTED_EDGE('',*,*,#374,.T.);
#283=EDGE_CURVE('',#377,#378,#446,.T.);
#284=EDGE_CURVE('',#379,#377,#51,.T.);
#285=EDGE_CURVE('',#380,#379,#447,.F.);
#286=EDGE_CURVE('',#380,#378,#52,.T.);
#287=EDGE_CURVE('',#381,#377,#36,.T.);
#288=EDGE_CURVE('',#382,#381,#53,.T.);
#289=EDGE_CURVE('',#379,#382,#37,.T.);
#290=EDGE_CURVE('',#383,#384,#448,.F.);
#291=EDGE_CURVE('',#383,#385,#54,.T.);
#292=EDGE_CURVE('',#386,#385,#449,.T.);
#293=EDGE_CURVE('',#384,#386,#55,.T.);
#294=EDGE_CURVE('',#387,#388,#450,.F.);
#295=EDGE_CURVE('',#387,#389,#56,.T.);
#296=EDGE_CURVE('',#390,#389,#451,.T.);
#297=EDGE_CURVE('',#388,#390,#57,.T.);
#298=EDGE_CURVE('',#391,#392,#452,.F.);
#299=EDGE_CURVE('',#391,#393,#58,.T.);
#300=EDGE_CURVE('',#394,#393,#453,.T.);
#301=EDGE_CURVE('',#392,#394,#59,.T.);
#302=EDGE_CURVE('',#384,#395,#38,.T.);
#303=EDGE_CURVE('',#396,#386,#39,.T.);
#304=EDGE_CURVE('',#395,#396,#60,.T.);
#305=EDGE_CURVE('',#388,#397,#40,.T.);
#306=EDGE_CURVE('',#398,#390,#41,.T.);
#307=EDGE_CURVE('',#397,#398,#61,.T.);
#308=EDGE_CURVE('',#392,#399,#42,.T.);
#309=EDGE_CURVE('',#400,#394,#43,.T.);
#310=EDGE_CURVE('',#399,#400,#62,.T.);
#311=EDGE_CURVE('',#401,#402,#454,.F.);
#312=EDGE_CURVE('',#401,#403,#63,.T.);
#313=EDGE_CURVE('',#404,#403,#455,.T.);
#314=EDGE_CURVE('',#402,#404,#64,.T.);
#315=EDGE_CURVE('',#383,#405,#456,.T.);
#316=EDGE_CURVE('',#405,#406,#65,.T.);
#317=EDGE_CURVE('',#406,#378,#457,.T.);
#318=EDGE_CURVE('',#380,#407,#458,.T.);
#319=EDGE_CURVE('',#407,#408,#66,.T.);
#320=EDGE_CURVE('',#408,#385,#459,.T.);
#321=EDGE_CURVE('',#409,#409,#67,.T.);
#322=EDGE_CURVE('',#410,#410,#68,.T.);
#323=EDGE_CURVE('',#411,#411,#69,.T.);
#324=EDGE_CURVE('',#387,#412,#460,.T.);
#325=EDGE_CURVE('',#412,#413,#70,.T.);
#326=EDGE_CURVE('',#413,#389,#461,.T.);
#327=EDGE_CURVE('',#391,#414,#462,.T.);
#328=EDGE_CURVE('',#414,#415,#71,.T.);
#329=EDGE_CURVE('',#415,#393,#463,.T.);
#330=EDGE_CURVE('',#416,#403,#464,.T.);
#331=EDGE_CURVE('',#401,#417,#465,.T.);
#332=EDGE_CURVE('',#417,#416,#72,.T.);
#333=EDGE_CURVE('',#418,#418,#73,.T.);
#334=EDGE_CURVE('',#419,#419,#74,.T.);
#335=EDGE_CURVE('',#420,#420,#75,.T.);
#336=EDGE_CURVE('',#421,#421,#76,.T.);
#337=EDGE_CURVE('',#422,#422,#77,.T.);
#338=EDGE_CURVE('',#423,#423,#78,.T.);
#339=EDGE_CURVE('',#424,#424,#79,.T.);
#340=EDGE_CURVE('',#425,#425,#80,.T.);
#341=EDGE_CURVE('',#426,#426,#81,.T.);
#342=EDGE_CURVE('',#427,#427,#82,.T.);
#343=EDGE_CURVE('',#428,#428,#83,.T.);
#344=EDGE_CURVE('',#429,#381,#466,.T.);
#345=EDGE_CURVE('',#430,#429,#84,.F.);
#346=EDGE_CURVE('',#395,#430,#467,.T.);
#347=EDGE_CURVE('',#431,#396,#468,.T.);
#348=EDGE_CURVE('',#432,#431,#85,.T.);
#349=EDGE_CURVE('',#382,#432,#469,.T.);
#350=EDGE_CURVE('',#397,#433,#470,.T.);
#351=EDGE_CURVE('',#434,#398,#471,.T.);
#352=EDGE_CURVE('',#433,#434,#86,.T.);
#353=EDGE_CURVE('',#399,#435,#472,.T.);
#354=EDGE_CURVE('',#436,#400,#473,.T.);
#355=EDGE_CURVE('',#435,#436,#87,.T.);
#356=EDGE_CURVE('',#437,#438,#88,.T.);
#357=EDGE_CURVE('',#439,#438,#474,.T.);
#358=EDGE_CURVE('',#440,#439,#89,.T.);
#359=EDGE_CURVE('',#437,#440,#475,.T.);
#360=EDGE_CURVE('',#441,#441,#90,.T.);
#361=EDGE_CURVE('',#402,#437,#44,.T.);
#362=EDGE_CURVE('',#438,#404,#45,.T.);
#363=EDGE_CURVE('',#416,#439,#476,.F.);
#364=EDGE_CURVE('',#440,#417,#477,.T.);
#365=EDGE_CURVE('',#415,#436,#478,.F.);
#366=EDGE_CURVE('',#435,#414,#479,.T.);
#367=EDGE_CURVE('',#413,#434,#480,.F.);
#368=EDGE_CURVE('',#433,#412,#481,.T.);
#369=EDGE_CURVE('',#432,#407,#482,.T.);
#370=EDGE_CURVE('',#408,#431,#483,.F.);
#371=EDGE_CURVE('',#442,#442,#91,.T.);
#372=EDGE_CURVE('',#443,#443,#92,.F.);
#373=EDGE_CURVE('',#406,#429,#484,.F.);
#374=EDGE_CURVE('',#430,#405,#485,.T.);
#375=EDGE_CURVE('',#444,#444,#93,.T.);
#376=EDGE_CURVE('',#445,#445,#94,.T.);
#377=VERTEX_POINT('',#1037);
#378=VERTEX_POINT('',#1038);
#379=VERTEX_POINT('',#1040);
#380=VERTEX_POINT('',#1042);
#381=VERTEX_POINT('',#1049);
#382=VERTEX_POINT('',#1051);
#383=VERTEX_POINT('',#1058);
#384=VERTEX_POINT('',#1059);
#385=VERTEX_POINT('',#1061);
#386=VERTEX_POINT('',#1063);
#387=VERTEX_POINT('',#1067);
#388=VERTEX_POINT('',#1068);
#389=VERTEX_POINT('',#1070);
#390=VERTEX_POINT('',#1072);
#391=VERTEX_POINT('',#1076);
#392=VERTEX_POINT('',#1077);
#393=VERTEX_POINT('',#1079);
#394=VERTEX_POINT('',#1081);
#395=VERTEX_POINT('',#1088);
#396=VERTEX_POINT('',#1093);
#397=VERTEX_POINT('',#1100);
#398=VERTEX_POINT('',#1105);
#399=VERTEX_POINT('',#1112);
#400=VERTEX_POINT('',#1117);
#401=VERTEX_POINT('',#1121);
#402=VERTEX_POINT('',#1122);
#403=VERTEX_POINT('',#1124);
#404=VERTEX_POINT('',#1126);
#405=VERTEX_POINT('',#1130);
#406=VERTEX_POINT('',#1132);
#407=VERTEX_POINT('',#1135);
#408=VERTEX_POINT('',#1137);
#409=VERTEX_POINT('',#1140);
#410=VERTEX_POINT('',#1142);
#411=VERTEX_POINT('',#1144);
#412=VERTEX_POINT('',#1146);
#413=VERTEX_POINT('',#1148);
#414=VERTEX_POINT('',#1151);
#415=VERTEX_POINT('',#1153);
#416=VERTEX_POINT('',#1156);
#417=VERTEX_POINT('',#1158);
#418=VERTEX_POINT('',#1161);
#419=VERTEX_POINT('',#1163);
#420=VERTEX_POINT('',#1165);
#421=VERTEX_POINT('',#1168);
#422=VERTEX_POINT('',#1171);
#423=VERTEX_POINT('',#1173);
#424=VERTEX_POINT('',#1175);
#425=VERTEX_POINT('',#1177);
#426=VERTEX_POINT('',#1180);
#427=VERTEX_POINT('',#1183);
#428=VERTEX_POINT('',#1186);
#429=VERTEX_POINT('',#1189);
#430=VERTEX_POINT('',#1191);
#431=VERTEX_POINT('',#1194);
#432=VERTEX_POINT('',#1196);
#433=VERTEX_POINT('',#1199);
#434=VERTEX_POINT('',#1201);
#435=VERTEX_POINT('',#1204);
#436=VERTEX_POINT('',#1206);
#437=VERTEX_POINT('',#1209);
#438=VERTEX_POINT('',#1210);
#439=VERTEX_POINT('',#1212);
#440=VERTEX_POINT('',#1214);
#441=VERTEX_POINT('',#1217);
#442=VERTEX_POINT('',#1253);
#443=VERTEX_POINT('',#1255);
#444=VERTEX_POINT('',#1260);
#445=VERTEX_POINT('',#1264);
#446=LINE('',#1036,#486);
#447=LINE('',#1041,#487);
#448=LINE('',#1057,#488);
#449=LINE('',#1062,#489);
#450=LINE('',#1066,#490);
#451=LINE('',#1071,#491);
#452=LINE('',#1075,#492);
#453=LINE('',#1080,#493);
#454=LINE('',#1120,#494);
#455=LINE('',#1125,#495);
#456=LINE('',#1129,#496);
#457=LINE('',#1133,#497);
#458=LINE('',#1134,#498);
#459=LINE('',#1138,#499);
#460=LINE('',#1145,#500);
#461=LINE('',#1149,#501);
#462=LINE('',#1150,#502);
#463=LINE('',#1154,#503);
#464=LINE('',#1155,#504);
#465=LINE('',#1157,#505);
#466=LINE('',#1188,#506);
#467=LINE('',#1192,#507);
#468=LINE('',#1193,#508);
#469=LINE('',#1197,#509);
#470=LINE('',#1198,#510);
#471=LINE('',#1200,#511);
#472=LINE('',#1203,#512);
#473=LINE('',#1205,#513);
#474=LINE('',#1211,#514);
#475=LINE('',#1215,#515);
#476=LINE('',#1228,#516);
#477=LINE('',#1229,#517);
#478=LINE('',#1231,#518);
#479=LINE('',#1232,#519);
#480=LINE('',#1234,#520);
#481=LINE('',#1235,#521);
#482=LINE('',#1238,#522);
#483=LINE('',#1239,#523);
#484=LINE('',#1257,#524);
#485=LINE('',#1258,#525);
#486=VECTOR('',#828,1.);
#487=VECTOR('',#831,1.);
#488=VECTOR('',#840,1.);
#489=VECTOR('',#843,1.);
#490=VECTOR('',#848,1.);
#491=VECTOR('',#851,1.);
#492=VECTOR('',#856,1.);
#493=VECTOR('',#859,1.);
#494=VECTOR('',#876,1.);
#495=VECTOR('',#879,1.);
#496=VECTOR('',#884,1.);
#497=VECTOR('',#887,1.);
#498=VECTOR('',#888,1.);
#499=VECTOR('',#891,1.);
#500=VECTOR('',#898,1.);
#501=VECTOR('',#901,1.);
#502=VECTOR('',#902,1.);
#503=VECTOR('',#905,1.);
#504=VECTOR('',#906,1.);
#505=VECTOR('',#907,1.);
#506=VECTOR('',#944,1.);
#507=VECTOR('',#947,1.);
#508=VECTOR('',#948,1.);
#509=VECTOR('',#951,1.);
#510=VECTOR('',#952,1.);
#511=VECTOR('',#953,1.);
#512=VECTOR('',#956,1.);
#513=VECTOR('',#957,1.);
#514=VECTOR('',#962,1.);
#515=VECTOR('',#965,1.);
#516=VECTOR('',#972,1.);
#517=VECTOR('',#973,1.);
#518=VECTOR('',#976,1.);
#519=VECTOR('',#977,1.);
#520=VECTOR('',#980,1.);
#521=VECTOR('',#981,1.);
#522=VECTOR('',#986,1.);
#523=VECTOR('',#987,1.);
#524=VECTOR('',#1018,1.);
#525=VECTOR('',#1019,1.);
#526=EDGE_LOOP('',(#95,#96,#97,#98));
#527=EDGE_LOOP('',(#99,#100,#101,#102));
#528=EDGE_LOOP('',(#103,#104,#105,#106));
#529=EDGE_LOOP('',(#107,#108,#109,#110));
#530=EDGE_LOOP('',(#111,#112,#113,#114));
#531=EDGE_LOOP('',(#115,#116,#117,#118));
#532=EDGE_LOOP('',(#119,#120,#121,#122));
#533=EDGE_LOOP('',(#123,#124,#125,#126));
#534=EDGE_LOOP('',(#127,#128,#129,#130));
#535=EDGE_LOOP('',(#131,#132,#133,#134,#135,#136,#137,#138));
#536=EDGE_LOOP('',(#139));
#537=EDGE_LOOP('',(#140));
#538=EDGE_LOOP('',(#141));
#539=EDGE_LOOP('',(#142,#143,#144,#145));
#540=EDGE_LOOP('',(#146,#147,#148,#149));
#541=EDGE_LOOP('',(#150,#151,#152,#153));
#542=EDGE_LOOP('',(#154));
#543=EDGE_LOOP('',(#155));
#544=EDGE_LOOP('',(#156));
#545=EDGE_LOOP('',(#157));
#546=EDGE_LOOP('',(#158));
#547=EDGE_LOOP('',(#159));
#548=EDGE_LOOP('',(#160));
#549=EDGE_LOOP('',(#161));
#550=EDGE_LOOP('',(#162));
#551=EDGE_LOOP('',(#163));
#552=EDGE_LOOP('',(#164));
#553=EDGE_LOOP('',(#165));
#554=EDGE_LOOP('',(#166));
#555=EDGE_LOOP('',(#167));
#556=EDGE_LOOP('',(#168));
#557=EDGE_LOOP('',(#169));
#558=EDGE_LOOP('',(#170,#171,#172,#173,#174,#175,#176,#177));
#559=EDGE_LOOP('',(#178));
#560=EDGE_LOOP('',(#179,#180,#181,#182));
#561=EDGE_LOOP('',(#183,#184,#185,#186));
#562=EDGE_LOOP('',(#187,#188,#189,#190));
#563=EDGE_LOOP('',(#191));
#564=EDGE_LOOP('',(#192,#193,#194,#195));
#565=EDGE_LOOP('',(#196,#197,#198,#199));
#566=EDGE_LOOP('',(#200,#201,#202,#203));
#567=EDGE_LOOP('',(#204,#205,#206,#207));
#568=EDGE_LOOP('',(#208));
#569=EDGE_LOOP('',(#209));
#570=EDGE_LOOP('',(#210,#211,#212,#213));
#571=EDGE_LOOP('',(#214,#215,#216,#217,#218));
#572=EDGE_LOOP('',(#219,#220,#221,#222,#223));
#573=EDGE_LOOP('',(#224,#225,#226,#227,#228));
#574=EDGE_LOOP('',(#229,#230,#231,#232,#233));
#575=EDGE_LOOP('',(#234,#235,#236,#237,#238));
#576=EDGE_LOOP('',(#239,#240,#241,#242,#243));
#577=EDGE_LOOP('',(#244,#245,#246,#247,#248));
#578=EDGE_LOOP('',(#249,#250,#251,#252,#253));
#579=EDGE_LOOP('',(#254));
#580=EDGE_LOOP('',(#255));
#581=EDGE_LOOP('',(#256));
#582=EDGE_LOOP('',(#257));
#583=EDGE_LOOP('',(#258));
#584=EDGE_LOOP('',(#259));
#585=EDGE_LOOP('',(#260));
#586=EDGE_LOOP('',(#261));
#587=EDGE_LOOP('',(#262,#263,#264,#265));
#588=EDGE_LOOP('',(#266));
#589=EDGE_LOOP('',(#267));
#590=EDGE_LOOP('',(#268));
#591=EDGE_LOOP('',(#269));
#592=EDGE_LOOP('',(#270));
#593=EDGE_LOOP('',(#271));
#594=EDGE_LOOP('',(#272));
#595=EDGE_LOOP('',(#273,#274,#275,#276,#277));
#596=EDGE_LOOP('',(#278,#279,#280,#281,#282));
#597=FACE_BOUND('',#526,.T.);
#598=FACE_BOUND('',#527,.T.);
#599=FACE_BOUND('',#528,.T.);
#600=FACE_BOUND('',#529,.T.);
#601=FACE_BOUND('',#530,.T.);
#602=FACE_BOUND('',#531,.T.);
#603=FACE_BOUND('',#532,.T.);
#604=FACE_BOUND('',#533,.T.);
#605=FACE_BOUND('',#534,.T.);
#606=FACE_BOUND('',#535,.T.);
#607=FACE_BOUND('',#536,.T.);
#608=FACE_BOUND('',#537,.T.);
#609=FACE_BOUND('',#538,.T.);
#610=FACE_BOUND('',#539,.T.);
#611=FACE_BOUND('',#540,.T.);
#612=FACE_BOUND('',#541,.T.);
#613=FACE_BOUND('',#542,.T.);
#614=FACE_BOUND('',#543,.T.);
#615=FACE_BOUND('',#544,.T.);
#616=FACE_BOUND('',#545,.T.);
#617=FACE_BOUND('',#546,.T.);
#618=FACE_BOUND('',#547,.T.);
#619=FACE_BOUND('',#548,.T.);
#620=FACE_BOUND('',#549,.T.);
#621=FACE_BOUND('',#550,.T.);
#622=FACE_BOUND('',#551,.T.);
#623=FACE_BOUND('',#552,.T.);
#624=FACE_BOUND('',#553,.T.);
#625=FACE_BOUND('',#554,.T.);
#626=FACE_BOUND('',#555,.T.);
#627=FACE_BOUND('',#556,.T.);
#628=FACE_BOUND('',#557,.T.);
#629=FACE_BOUND('',#558,.T.);
#630=FACE_BOUND('',#559,.T.);
#631=FACE_BOUND('',#560,.T.);
#632=FACE_BOUND('',#561,.T.);
#633=FACE_BOUND('',#562,.T.);
#634=FACE_BOUND('',#563,.T.);
#635=FACE_BOUND('',#564,.T.);
#636=FACE_BOUND('',#565,.T.);
#637=FACE_BOUND('',#566,.T.);
#638=FACE_BOUND('',#567,.T.);
#639=FACE_BOUND('',#568,.T.);
#640=FACE_BOUND('',#569,.T.);
#641=FACE_BOUND('',#570,.T.);
#642=FACE_BOUND('',#571,.T.);
#643=FACE_BOUND('',#572,.T.);
#644=FACE_BOUND('',#573,.T.);
#645=FACE_BOUND('',#574,.T.);
#646=FACE_BOUND('',#575,.T.);
#647=FACE_BOUND('',#576,.T.);
#648=FACE_BOUND('',#577,.T.);
#649=FACE_BOUND('',#578,.T.);
#650=FACE_BOUND('',#579,.T.);
#651=FACE_BOUND('',#580,.T.);
#652=FACE_BOUND('',#581,.T.);
#653=FACE_BOUND('',#582,.T.);
#654=FACE_BOUND('',#583,.T.);
#655=FACE_BOUND('',#584,.T.);
#656=FACE_BOUND('',#585,.T.);
#657=FACE_BOUND('',#586,.T.);
#658=FACE_BOUND('',#587,.T.);
#659=FACE_BOUND('',#588,.T.);
#660=FACE_BOUND('',#589,.T.);
#661=FACE_BOUND('',#590,.T.);
#662=FACE_BOUND('',#591,.T.);
#663=FACE_BOUND('',#592,.T.);
#664=FACE_BOUND('',#593,.T.);
#665=FACE_BOUND('',#594,.T.);
#666=FACE_BOUND('',#595,.T.);
#667=FACE_BOUND('',#596,.T.);
#668=CYLINDRICAL_SURFACE('',#740,0.086);
#669=CYLINDRICAL_SURFACE('',#745,0.086);
#670=CYLINDRICAL_SURFACE('',#748,0.086);
#671=CYLINDRICAL_SURFACE('',#751,0.086);
#672=CYLINDRICAL_SURFACE('',#760,0.086);
#673=CYLINDRICAL_SURFACE('',#775,0.1175);
#674=CYLINDRICAL_SURFACE('',#782,0.0935);
#675=CYLINDRICAL_SURFACE('',#786,0.092);
#676=CYLINDRICAL_SURFACE('',#797,0.0155);
#677=CYLINDRICAL_SURFACE('',#798,0.0155);
#678=CYLINDRICAL_SURFACE('',#799,0.0155);
#679=CYLINDRICAL_SURFACE('',#800,0.0115);
#680=CYLINDRICAL_SURFACE('',#801,0.0155);
#681=CYLINDRICAL_SURFACE('',#810,0.004);
#682=CYLINDRICAL_SURFACE('',#811,0.008);
#683=CYLINDRICAL_SURFACE('',#812,0.006);
#684=CYLINDRICAL_SURFACE('',#813,0.01);
#685=CYLINDRICAL_SURFACE('',#816,0.0135);
#686=CYLINDRICAL_SURFACE('',#821,0.0113);
#687=ADVANCED_FACE('',(#597),#668,.F.);
#688=ADVANCED_FACE('',(#598),#46,.F.);
#689=ADVANCED_FACE('',(#599),#669,.F.);
#690=ADVANCED_FACE('',(#600),#670,.F.);
#691=ADVANCED_FACE('',(#601),#671,.F.);
#692=ADVANCED_FACE('',(#602),#47,.F.);
#693=ADVANCED_FACE('',(#603),#48,.F.);
#694=ADVANCED_FACE('',(#604),#49,.F.);
#695=ADVANCED_FACE('',(#605),#672,.F.);
#696=ADVANCED_FACE('',(#606,#607,#608,#609,#610,#611,#612,#613,#614,#615),
#20,.T.);
#697=ADVANCED_FACE('',(#616,#617),#673,.T.);
#698=ADVANCED_FACE('',(#618,#619,#620,#621,#622),#21,.T.);
#699=ADVANCED_FACE('',(#623,#624),#674,.T.);
#700=ADVANCED_FACE('',(#625,#626),#22,.T.);
#701=ADVANCED_FACE('',(#627,#628),#675,.F.);
#702=ADVANCED_FACE('',(#629,#630,#631,#632,#633,#634),#23,.T.);
#703=ADVANCED_FACE('',(#635),#50,.F.);
#704=ADVANCED_FACE('',(#636),#676,.T.);
#705=ADVANCED_FACE('',(#637),#677,.T.);
#706=ADVANCED_FACE('',(#638),#678,.T.);
#707=ADVANCED_FACE('',(#639,#640),#679,.F.);
#708=ADVANCED_FACE('',(#641),#680,.T.);
#709=ADVANCED_FACE('',(#642),#24,.T.);
#710=ADVANCED_FACE('',(#643),#25,.T.);
#711=ADVANCED_FACE('',(#644),#26,.T.);
#712=ADVANCED_FACE('',(#645),#27,.T.);
#713=ADVANCED_FACE('',(#646),#28,.T.);
#714=ADVANCED_FACE('',(#647),#29,.T.);
#715=ADVANCED_FACE('',(#648),#30,.T.);
#716=ADVANCED_FACE('',(#649),#31,.T.);
#717=ADVANCED_FACE('',(#650,#651),#681,.F.);
#718=ADVANCED_FACE('',(#652,#653),#682,.F.);
#719=ADVANCED_FACE('',(#654,#655),#683,.F.);
#720=ADVANCED_FACE('',(#656,#657),#684,.F.);
#721=ADVANCED_FACE('',(#658,#659),#685,.T.);
#722=ADVANCED_FACE('',(#660,#661),#32,.F.);
#723=ADVANCED_FACE('',(#662,#663),#33,.T.);
#724=ADVANCED_FACE('',(#664,#665),#686,.F.);
#725=ADVANCED_FACE('',(#666),#34,.T.);
#726=ADVANCED_FACE('',(#667),#35,.T.);
#727=CLOSED_SHELL('',(#687,#688,#689,#690,#691,#692,#693,#694,#695,#696,
#697,#698,#699,#700,#701,#702,#703,#704,#705,#706,#707,#708,#709,#710,#711,
#712,#713,#714,#715,#716,#717,#718,#719,#720,#721,#722,#723,#724,#725,#726));
#728=STYLED_ITEM('',(#729),#736);
#729=PRESENTATION_STYLE_ASSIGNMENT((#730));
#730=SURFACE_STYLE_USAGE(.BOTH.,#731);
#731=SURFACE_SIDE_STYLE('',(#732));
#732=SURFACE_STYLE_FILL_AREA(#733);
#733=FILL_AREA_STYLE('',(#734));
#734=FILL_AREA_STYLE_COLOUR('',#735);
#735=COLOUR_RGB('',0.615686274509804,0.811764705882353,0.929411764705882);
#736=MANIFOLD_SOLID_BREP('Part 1',#727);
#737=SHAPE_DEFINITION_REPRESENTATION(#1274,#738);
#738=SHAPE_REPRESENTATION('Part 1',(#739),#1269);
#739=AXIS2_PLACEMENT_3D('',#1034,#824,#825);
#740=AXIS2_PLACEMENT_3D('',#1035,#826,#827);
#741=AXIS2_PLACEMENT_3D('',#1039,#829,#830);
#742=AXIS2_PLACEMENT_3D('',#1043,#832,#833);
#743=AXIS2_PLACEMENT_3D('',#1044,#834,#835);
#744=AXIS2_PLACEMENT_3D('',#1050,#836,#837);
#745=AXIS2_PLACEMENT_3D('',#1056,#838,#839);
#746=AXIS2_PLACEMENT_3D('',#1060,#841,#842);
#747=AXIS2_PLACEMENT_3D('',#1064,#844,#845);
#748=AXIS2_PLACEMENT_3D('',#1065,#846,#847);
#749=AXIS2_PLACEMENT_3D('',#1069,#849,#850);
#750=AXIS2_PLACEMENT_3D('',#1073,#852,#853);
#751=AXIS2_PLACEMENT_3D('',#1074,#854,#855);
#752=AXIS2_PLACEMENT_3D('',#1078,#857,#858);
#753=AXIS2_PLACEMENT_3D('',#1082,#860,#861);
#754=AXIS2_PLACEMENT_3D('',#1083,#862,#863);
#755=AXIS2_PLACEMENT_3D('',#1094,#864,#865);
#756=AXIS2_PLACEMENT_3D('',#1095,#866,#867);
#757=AXIS2_PLACEMENT_3D('',#1106,#868,#869);
#758=AXIS2_PLACEMENT_3D('',#1107,#870,#871);
#759=AXIS2_PLACEMENT_3D('',#1118,#872,#873);
#760=AXIS2_PLACEMENT_3D('',#1119,#874,#875);
#761=AXIS2_PLACEMENT_3D('',#1123,#877,#878);
#762=AXIS2_PLACEMENT_3D('',#1127,#880,#881);
#763=AXIS2_PLACEMENT_3D('',#1128,#882,#883);
#764=AXIS2_PLACEMENT_3D('',#1131,#885,#886);
#765=AXIS2_PLACEMENT_3D('',#1136,#889,#890);
#766=AXIS2_PLACEMENT_3D('',#1139,#892,#893);
#767=AXIS2_PLACEMENT_3D('',#1141,#894,#895);
#768=AXIS2_PLACEMENT_3D('',#1143,#896,#897);
#769=AXIS2_PLACEMENT_3D('',#1147,#899,#900);
#770=AXIS2_PLACEMENT_3D('',#1152,#903,#904);
#771=AXIS2_PLACEMENT_3D('',#1159,#908,#909);
#772=AXIS2_PLACEMENT_3D('',#1160,#910,#911);
#773=AXIS2_PLACEMENT_3D('',#1162,#912,#913);
#774=AXIS2_PLACEMENT_3D('',#1164,#914,#915);
#775=AXIS2_PLACEMENT_3D('',#1166,#916,#917);
#776=AXIS2_PLACEMENT_3D('',#1167,#918,#919);
#777=AXIS2_PLACEMENT_3D('',#1169,#920,#921);
#778=AXIS2_PLACEMENT_3D('',#1170,#922,#923);
#779=AXIS2_PLACEMENT_3D('',#1172,#924,#925);
#780=AXIS2_PLACEMENT_3D('',#1174,#926,#927);
#781=AXIS2_PLACEMENT_3D('',#1176,#928,#929);
#782=AXIS2_PLACEMENT_3D('',#1178,#930,#931);
#783=AXIS2_PLACEMENT_3D('',#1179,#932,#933);
#784=AXIS2_PLACEMENT_3D('',#1181,#934,#935);
#785=AXIS2_PLACEMENT_3D('',#1182,#936,#937);
#786=AXIS2_PLACEMENT_3D('',#1184,#938,#939);
#787=AXIS2_PLACEMENT_3D('',#1185,#940,#941);
#788=AXIS2_PLACEMENT_3D('',#1187,#942,#943);
#789=AXIS2_PLACEMENT_3D('',#1190,#945,#946);
#790=AXIS2_PLACEMENT_3D('',#1195,#949,#950);
#791=AXIS2_PLACEMENT_3D('',#1202,#954,#955);
#792=AXIS2_PLACEMENT_3D('',#1207,#958,#959);
#793=AXIS2_PLACEMENT_3D('',#1208,#960,#961);
#794=AXIS2_PLACEMENT_3D('',#1213,#963,#964);
#795=AXIS2_PLACEMENT_3D('',#1216,#966,#967);
#796=AXIS2_PLACEMENT_3D('',#1218,#968,#969);
#797=AXIS2_PLACEMENT_3D('',#1227,#970,#971);
#798=AXIS2_PLACEMENT_3D('',#1230,#974,#975);
#799=AXIS2_PLACEMENT_3D('',#1233,#978,#979);
#800=AXIS2_PLACEMENT_3D('',#1236,#982,#983);
#801=AXIS2_PLACEMENT_3D('',#1237,#984,#985);
#802=AXIS2_PLACEMENT_3D('',#1240,#988,#989);
#803=AXIS2_PLACEMENT_3D('',#1241,#990,#991);
#804=AXIS2_PLACEMENT_3D('',#1242,#992,#993);
#805=AXIS2_PLACEMENT_3D('',#1243,#994,#995);
#806=AXIS2_PLACEMENT_3D('',#1244,#996,#997);
#807=AXIS2_PLACEMENT_3D('',#1245,#998,#999);
#808=AXIS2_PLACEMENT_3D('',#1246,#1000,#1001);
#809=AXIS2_PLACEMENT_3D('',#1247,#1002,#1003);
#810=AXIS2_PLACEMENT_3D('',#1248,#1004,#1005);
#811=AXIS2_PLACEMENT_3D('',#1249,#1006,#1007);
#812=AXIS2_PLACEMENT_3D('',#1250,#1008,#1009);
#813=AXIS2_PLACEMENT_3D('',#1251,#1010,#1011);
#814=AXIS2_PLACEMENT_3D('',#1252,#1012,#1013);
#815=AXIS2_PLACEMENT_3D('',#1254,#1014,#1015);
#816=AXIS2_PLACEMENT_3D('',#1256,#1016,#1017);
#817=AXIS2_PLACEMENT_3D('',#1259,#1020,#1021);
#818=AXIS2_PLACEMENT_3D('',#1261,#1022,#1023);
#819=AXIS2_PLACEMENT_3D('',#1262,#1024,#1025);
#820=AXIS2_PLACEMENT_3D('',#1263,#1026,#1027);
#821=AXIS2_PLACEMENT_3D('',#1265,#1028,#1029);
#822=AXIS2_PLACEMENT_3D('',#1266,#1030,#1031);
#823=AXIS2_PLACEMENT_3D('',#1267,#1032,#1033);
#824=DIRECTION('',(0.,0.,1.));
#825=DIRECTION('',(1.,0.,0.));
#826=DIRECTION('',(0.,-1.,0.));
#827=DIRECTION('',(0.,0.,-1.));
#828=DIRECTION('',(0.,-1.,0.));
#829=DIRECTION('',(0.,-1.,0.));
#830=DIRECTION('',(0.,0.,-1.));
#831=DIRECTION('',(0.,-1.,0.));
#832=DIRECTION('',(0.,-1.,0.));
#833=DIRECTION('',(0.,0.,-1.));
#834=DIRECTION('',(0.,1.,0.));
#835=DIRECTION('',(0.,0.,1.));
#836=DIRECTION('',(0.,-1.,0.));
#837=DIRECTION('',(0.,0.,-1.));
#838=DIRECTION('',(0.,-1.,0.));
#839=DIRECTION('',(0.,0.,-1.));
#840=DIRECTION('',(0.,-1.,0.));
#841=DIRECTION('',(0.,-1.,0.));
#842=DIRECTION('',(0.,0.,-1.));
#843=DIRECTION('',(0.,-1.,0.));
#844=DIRECTION('',(0.,-1.,0.));
#845=DIRECTION('',(0.,0.,-1.));
#846=DIRECTION('',(0.,-1.,0.));
#847=DIRECTION('',(0.,0.,-1.));
#848=DIRECTION('',(0.,-1.,0.));
#849=DIRECTION('',(0.,-1.,0.));
#850=DIRECTION('',(0.,0.,-1.));
#851=DIRECTION('',(0.,-1.,0.));
#852=DIRECTION('',(0.,-1.,0.));
#853=DIRECTION('',(0.,0.,-1.));
#854=DIRECTION('',(0.,-1.,0.));
#855=DIRECTION('',(0.,0.,-1.));
#856=DIRECTION('',(0.,-1.,0.));
#857=DIRECTION('',(0.,-1.,0.));
#858=DIRECTION('',(0.,0.,-1.));
#859=DIRECTION('',(0.,-1.,0.));
#860=DIRECTION('',(0.,-1.,0.));
#861=DIRECTION('',(0.,0.,-1.));
#862=DIRECTION('',(0.,1.,0.));
#863=DIRECTION('',(0.,0.,1.));
#864=DIRECTION('',(0.,-1.,0.));
#865=DIRECTION('',(0.,0.,-1.));
#866=DIRECTION('',(0.,1.,0.));
#867=DIRECTION('',(0.,0.,1.));
#868=DIRECTION('',(0.,-1.,0.));
#869=DIRECTION('',(0.,0.,-1.));
#870=DIRECTION('',(0.,1.,0.));
#871=DIRECTION('',(0.,0.,1.));
#872=DIRECTION('',(0.,-1.,0.));
#873=DIRECTION('',(0.,0.,-1.));
#874=DIRECTION('',(0.,-1.,0.));
#875=DIRECTION('',(0.,0.,-1.));
#876=DIRECTION('',(0.,-1.,0.));
#877=DIRECTION('',(0.,-1.,0.));
#878=DIRECTION('',(0.,0.,-1.));
#879=DIRECTION('',(0.,-1.,0.));
#880=DIRECTION('',(0.,-1.,0.));
#881=DIRECTION('',(0.,0.,-1.));
#882=DIRECTION('',(0.,-1.,0.));
#883=DIRECTION('',(0.,0.,-1.));
#884=DIRECTION('',(-0.923879532511287,0.,-0.38268343236509));
#885=DIRECTION('',(0.,-1.,0.));
#886=DIRECTION('',(0.,0.,-1.));
#887=DIRECTION('',(0.923879532511287,0.,0.38268343236509));
#888=DIRECTION('',(-0.707106781186548,0.,0.707106781186548));
#889=DIRECTION('',(0.,-1.,0.));
#890=DIRECTION('',(0.,0.,-1.));
#891=DIRECTION('',(0.707106781186548,0.,0.707106781186548));
#892=DIRECTION('',(0.,-1.,0.));
#893=DIRECTION('',(0.,0.,-1.));
#894=DIRECTION('',(0.,-1.,0.));
#895=DIRECTION('',(0.,0.,-1.));
#896=DIRECTION('',(0.,-1.,0.));
#897=DIRECTION('',(0.,0.,-1.));
#898=DIRECTION('',(-0.707106781186548,0.,-0.707106781186548));
#899=DIRECTION('',(0.,-1.,0.));
#900=DIRECTION('',(0.,0.,-1.));
#901=DIRECTION('',(-0.707106781186548,0.,0.707106781186548));
#902=DIRECTION('',(0.707106781186548,0.,-0.707106781186548));
#903=DIRECTION('',(0.,-1.,0.));
#904=DIRECTION('',(0.,0.,-1.));
#905=DIRECTION('',(-0.707106781186548,0.,-0.707106781186548));
#906=DIRECTION('',(0.707106781186548,0.,-0.707106781186548));
#907=DIRECTION('',(0.707106781186548,0.,0.707106781186548));
#908=DIRECTION('',(0.,-1.,0.));
#909=DIRECTION('',(0.,0.,-1.));
#910=DIRECTION('',(0.,-1.,0.));
#911=DIRECTION('',(0.,0.,-1.));
#912=DIRECTION('',(0.,-1.,0.));
#913=DIRECTION('',(0.,0.,-1.));
#914=DIRECTION('',(0.,-1.,0.));
#915=DIRECTION('',(0.,0.,-1.));
#916=DIRECTION('',(0.,-1.,0.));
#917=DIRECTION('',(0.,0.,-1.));
#918=DIRECTION('',(0.,-1.,0.));
#919=DIRECTION('',(0.,0.,-1.));
#920=DIRECTION('',(0.,1.,0.));
#921=DIRECTION('',(0.,0.,1.));
#922=DIRECTION('',(0.,-1.,0.));
#923=DIRECTION('',(0.,0.,-1.));
#924=DIRECTION('',(0.,1.,0.));
#925=DIRECTION('',(0.,0.,1.));
#926=DIRECTION('',(0.,1.,0.));
#927=DIRECTION('',(0.,0.,1.));
#928=DIRECTION('',(0.,1.,0.));
#929=DIRECTION('',(0.,0.,1.));
#930=DIRECTION('',(0.,-1.,0.));
#931=DIRECTION('',(0.,0.,-1.));
#932=DIRECTION('',(0.,-1.,0.));
#933=DIRECTION('',(0.,0.,-1.));
#934=DIRECTION('',(0.,1.,0.));
#935=DIRECTION('',(0.,0.,1.));
#936=DIRECTION('',(0.,-1.,0.));
#937=DIRECTION('',(0.,0.,-1.));
#938=DIRECTION('',(0.,-1.,0.));
#939=DIRECTION('',(0.,0.,-1.));
#940=DIRECTION('',(0.,-1.,0.));
#941=DIRECTION('',(0.,0.,-1.));
#942=DIRECTION('',(0.,1.,0.));
#943=DIRECTION('',(0.,0.,1.));
#944=DIRECTION('',(0.923879532511287,0.,0.38268343236509));
#945=DIRECTION('',(0.,-1.,0.));
#946=DIRECTION('',(0.,0.,-1.));
#947=DIRECTION('',(-0.923879532511287,0.,-0.38268343236509));
#948=DIRECTION('',(0.707106781186548,0.,0.707106781186548));
#949=DIRECTION('',(0.,-1.,0.));
#950=DIRECTION('',(0.,0.,-1.));
#951=DIRECTION('',(-0.707106781186548,0.,0.707106781186548));
#952=DIRECTION('',(-0.707106781186548,0.,-0.707106781186548));
#953=DIRECTION('',(-0.707106781186548,0.,0.707106781186548));
#954=DIRECTION('',(0.,-1.,0.));
#955=DIRECTION('',(0.,0.,-1.));
#956=DIRECTION('',(0.707106781186548,0.,-0.707106781186548));
#957=DIRECTION('',(-0.707106781186548,0.,-0.707106781186548));
#958=DIRECTION('',(0.,-1.,0.));
#959=DIRECTION('',(0.,0.,-1.));
#960=DIRECTION('',(0.,-1.,0.));
#961=DIRECTION('',(0.,0.,-1.));
#962=DIRECTION('',(0.707106781186548,0.,-0.707106781186548));
#963=DIRECTION('',(0.,-1.,0.));
#964=DIRECTION('',(0.,0.,-1.));
#965=DIRECTION('',(0.707106781186548,0.,0.707106781186548));
#966=DIRECTION('',(0.,-1.,0.));
#967=DIRECTION('',(0.,0.,-1.));
#968=DIRECTION('',(0.,1.,0.));
#969=DIRECTION('',(0.,0.,1.));
#970=DIRECTION('',(0.,-1.,0.));
#971=DIRECTION('',(0.,0.,-1.));
#972=DIRECTION('',(0.,-1.,0.));
#973=DIRECTION('',(0.,-1.,0.));
#974=DIRECTION('',(0.,-1.,0.));
#975=DIRECTION('',(0.,0.,-1.));
#976=DIRECTION('',(0.,-1.,0.));
#977=DIRECTION('',(0.,-1.,0.));
#978=DIRECTION('',(0.,-1.,0.));
#979=DIRECTION('',(0.,0.,-1.));
#980=DIRECTION('',(0.,-1.,0.));
#981=DIRECTION('',(0.,-1.,0.));
#982=DIRECTION('',(0.,-1.,0.));
#983=DIRECTION('',(0.,0.,-1.));
#984=DIRECTION('',(0.,-1.,0.));
#985=DIRECTION('',(0.,0.,-1.));
#986=DIRECTION('',(0.,-1.,0.));
#987=DIRECTION('',(0.,-1.,0.));
#988=DIRECTION('',(0.707106781186548,0.,-0.707106781186548));
#989=DIRECTION('',(-0.707106781186548,0.,-0.707106781186548));
#990=DIRECTION('',(-0.707106781186548,0.,0.707106781186548));
#991=DIRECTION('',(0.707106781186548,0.,0.707106781186548));
#992=DIRECTION('',(0.707106781186548,0.,0.707106781186548));
#993=DIRECTION('',(0.707106781186548,0.,-0.707106781186548));
#994=DIRECTION('',(-0.707106781186548,0.,-0.707106781186548));
#995=DIRECTION('',(-0.707106781186548,0.,0.707106781186548));
#996=DIRECTION('',(-0.707106781186547,0.,0.707106781186548));
#997=DIRECTION('',(0.707106781186548,0.,0.707106781186548));
#998=DIRECTION('',(0.707106781186547,0.,-0.707106781186548));
#999=DIRECTION('',(-0.707106781186548,0.,-0.707106781186548));
#1000=DIRECTION('',(-0.707106781186548,0.,-0.707106781186547));
#1001=DIRECTION('',(-0.707106781186548,0.,0.707106781186548));
#1002=DIRECTION('',(0.707106781186548,0.,0.707106781186547));
#1003=DIRECTION('',(0.707106781186548,0.,-0.707106781186548));
#1004=DIRECTION('',(0.,-1.,0.));
#1005=DIRECTION('',(0.,0.,-1.));
#1006=DIRECTION('',(0.,-1.,0.));
#1007=DIRECTION('',(0.,0.,-1.));
#1008=DIRECTION('',(0.,-1.,0.));
#1009=DIRECTION('',(0.,0.,-1.));
#1010=DIRECTION('',(0.,-1.,0.));
#1011=DIRECTION('',(0.,0.,-1.));
#1012=DIRECTION('',(0.,-1.,0.));
#1013=DIRECTION('',(0.,0.,-1.));
#1014=DIRECTION('',(0.,-1.,0.));
#1015=DIRECTION('',(0.,0.,-1.));
#1016=DIRECTION('',(0.,-1.,0.));
#1017=DIRECTION('',(0.,0.,-1.));
#1018=DIRECTION('',(0.,-1.,0.));
#1019=DIRECTION('',(0.,-1.,0.));
#1020=DIRECTION('',(0.,-1.,0.));
#1021=DIRECTION('',(0.,0.,-1.));
#1022=DIRECTION('',(0.,-1.,0.));
#1023=DIRECTION('',(1.,0.,0.));
#1024=DIRECTION('',(0.,-1.,0.));
#1025=DIRECTION('',(1.,0.,0.));
#1026=DIRECTION('',(0.,-1.,0.));
#1027=DIRECTION('',(0.,0.,-1.));
#1028=DIRECTION('',(0.,-1.,0.));
#1029=DIRECTION('',(0.,0.,-1.));
#1030=DIRECTION('',(0.38268343236509,0.,-0.923879532511287));
#1031=DIRECTION('',(-0.923879532511287,0.,-0.38268343236509));
#1032=DIRECTION('',(-0.38268343236509,0.,0.923879532511287));
#1033=DIRECTION('',(0.923879532511287,0.,0.38268343236509));
#1034=CARTESIAN_POINT('',(0.,0.,0.));
#1035=CARTESIAN_POINT('',(0.,0.005,0.));
#1036=CARTESIAN_POINT('',(0.0812326584722605,0.005,0.0282357078453701));
#1037=CARTESIAN_POINT('',(0.0812326584722605,0.005,0.0282357078453701));
#1038=CARTESIAN_POINT('',(0.0812326584722605,0.,0.0282357078453701));
#1039=CARTESIAN_POINT('',(0.,0.005,0.));
#1040=CARTESIAN_POINT('',(0.0628954924892993,0.005,-0.0586528518021801));
#1041=CARTESIAN_POINT('',(0.0628954924892993,0.005,-0.05865285180218));
#1042=CARTESIAN_POINT('',(0.0628954924892993,0.,-0.0586528518021801));
#1043=CARTESIAN_POINT('',(0.,0.,0.));
#1044=CARTESIAN_POINT('',(0.,0.006,0.));
#1045=CARTESIAN_POINT('',(0.0821580853874195,0.00600000000000003,0.028619032224614));
#1046=CARTESIAN_POINT('',(0.0818496127158175,0.00566666345006408,0.0284912586604149));
#1047=CARTESIAN_POINT('',(0.0815411371119867,0.00533333007926543,0.028363483881647));
#1048=CARTESIAN_POINT('',(0.0812326584722605,0.00500000000000003,0.02823570784537));
#1049=CARTESIAN_POINT('',(0.0821580853874195,0.006,0.028619032224614));
#1050=CARTESIAN_POINT('',(0.,0.006,0.));
#1051=CARTESIAN_POINT('',(0.0636030249393172,0.006,-0.059360384252198));
#1052=CARTESIAN_POINT('',(0.0628954924892993,0.00500000000000003,-0.0586528518021801));
#1053=CARTESIAN_POINT('',(0.0631313374644959,0.00533333216563506,-0.0588886967773766));
#1054=CARTESIAN_POINT('',(0.0633671816050113,0.00566666551239823,-0.059124540917892));
#1055=CARTESIAN_POINT('',(0.0636030249393172,0.00600000000000001,-0.059360384252198));
#1056=CARTESIAN_POINT('',(0.,0.005,0.));
#1057=CARTESIAN_POINT('',(0.0774058241486096,0.005,0.0374745031704829));
#1058=CARTESIAN_POINT('',(0.0774058241486096,0.,0.0374745031704829));
#1059=CARTESIAN_POINT('',(0.0774058241486096,0.005,0.0374745031704829));
#1060=CARTESIAN_POINT('',(0.,0.,0.));
#1061=CARTESIAN_POINT('',(0.0628954924892993,0.,0.05865285180218));
#1062=CARTESIAN_POINT('',(0.0628954924892993,0.005,0.05865285180218));
#1063=CARTESIAN_POINT('',(0.0628954924892993,0.005,0.05865285180218));
#1064=CARTESIAN_POINT('',(0.,0.005,0.));
#1065=CARTESIAN_POINT('',(0.,0.005,0.));
#1066=CARTESIAN_POINT('',(0.05865285180218,0.005,0.0628954924892993));
#1067=CARTESIAN_POINT('',(0.05865285180218,0.,0.0628954924892993));
#1068=CARTESIAN_POINT('',(0.05865285180218,0.005,0.0628954924892993));
#1069=CARTESIAN_POINT('',(0.,0.,0.));
#1070=CARTESIAN_POINT('',(-0.05865285180218,0.,0.0628954924892993));
#1071=CARTESIAN_POINT('',(-0.05865285180218,0.005,0.0628954924892993));
#1072=CARTESIAN_POINT('',(-0.05865285180218,0.005,0.0628954924892993));
#1073=CARTESIAN_POINT('',(0.,0.005,0.));
#1074=CARTESIAN_POINT('',(0.,0.005,0.));
#1075=CARTESIAN_POINT('',(-0.0628954924892993,0.005,0.05865285180218));
#1076=CARTESIAN_POINT('',(-0.0628954924892993,0.,0.05865285180218));
#1077=CARTESIAN_POINT('',(-0.0628954924892993,0.005,0.05865285180218));
#1078=CARTESIAN_POINT('',(0.,0.,0.));
#1079=CARTESIAN_POINT('',(-0.0628954924892993,0.,-0.05865285180218));
#1080=CARTESIAN_POINT('',(-0.0628954924892993,0.005,-0.05865285180218));
#1081=CARTESIAN_POINT('',(-0.0628954924892993,0.005,-0.05865285180218));
#1082=CARTESIAN_POINT('',(0.,0.005,0.));
#1083=CARTESIAN_POINT('',(0.,0.006,0.));
#1084=CARTESIAN_POINT('',(0.0774058241486096,0.00500000000000002,0.0374745031704829));
#1085=CARTESIAN_POINT('',(0.0777143027883358,0.00533333007926542,0.0376022792067599));
#1086=CARTESIAN_POINT('',(0.0780227783921666,0.00566666345006407,0.0377300539855278));
#1087=CARTESIAN_POINT('',(0.0783312510637686,0.00600000000000003,0.0378578275497268));
#1088=CARTESIAN_POINT('',(0.0783312510637686,0.006,0.0378578275497269));
#1089=CARTESIAN_POINT('',(0.0636030249393172,0.00600000000000001,0.059360384252198));
#1090=CARTESIAN_POINT('',(0.0633671816050113,0.00566666551239822,0.059124540917892));
#1091=CARTESIAN_POINT('',(0.0631313374644959,0.00533333216563503,0.0588886967773766));
#1092=CARTESIAN_POINT('',(0.0628954924892993,0.005,0.05865285180218));
#1093=CARTESIAN_POINT('',(0.0636030249393172,0.006,0.059360384252198));
#1094=CARTESIAN_POINT('',(0.,0.006,0.));
#1095=CARTESIAN_POINT('',(0.,0.006,0.));
#1096=CARTESIAN_POINT('',(0.05865285180218,0.005,0.0628954924892993));
#1097=CARTESIAN_POINT('',(0.0588886967773766,0.00533333216563503,0.0631313374644959));
#1098=CARTESIAN_POINT('',(0.059124540917892,0.00566666551239822,0.0633671816050113));
#1099=CARTESIAN_POINT('',(0.0593603842521979,0.00600000000000001,0.0636030249393173));
#1100=CARTESIAN_POINT('',(0.059360384252198,0.006,0.0636030249393172));
#1101=CARTESIAN_POINT('',(-0.0593603842521979,0.00600000000000001,0.0636030249393173));
#1102=CARTESIAN_POINT('',(-0.059124540917892,0.00566666551239822,0.0633671816050113));
#1103=CARTESIAN_POINT('',(-0.0588886967773766,0.00533333216563503,0.0631313374644959));
#1104=CARTESIAN_POINT('',(-0.05865285180218,0.005,0.0628954924892993));
#1105=CARTESIAN_POINT('',(-0.059360384252198,0.006,0.0636030249393172));
#1106=CARTESIAN_POINT('',(0.,0.006,0.));
#1107=CARTESIAN_POINT('',(0.,0.006,0.));
#1108=CARTESIAN_POINT('',(-0.0628954924892993,0.005,0.05865285180218));
#1109=CARTESIAN_POINT('',(-0.0631313374644959,0.00533333216563503,0.0588886967773766));
#1110=CARTESIAN_POINT('',(-0.0633671816050113,0.00566666551239822,0.059124540917892));
#1111=CARTESIAN_POINT('',(-0.0636030249393173,0.00600000000000001,0.0593603842521979));
#1112=CARTESIAN_POINT('',(-0.0636030249393172,0.006,0.059360384252198));
#1113=CARTESIAN_POINT('',(-0.0636030249393173,0.00600000000000004,-0.059360384252198));
#1114=CARTESIAN_POINT('',(-0.0633671816050113,0.00566666551239824,-0.059124540917892));
#1115=CARTESIAN_POINT('',(-0.0631313374644959,0.00533333216563505,-0.0588886967773766));
#1116=CARTESIAN_POINT('',(-0.0628954924892993,0.005,-0.05865285180218));
#1117=CARTESIAN_POINT('',(-0.0636030249393173,0.006,-0.059360384252198));
#1118=CARTESIAN_POINT('',(0.,0.006,0.));
#1119=CARTESIAN_POINT('',(0.,0.005,0.));
#1120=CARTESIAN_POINT('',(-0.05865285180218,0.005,-0.0628954924892993));
#1121=CARTESIAN_POINT('',(-0.0586528518021801,0.,-0.0628954924892993));
#1122=CARTESIAN_POINT('',(-0.0586528518021801,0.005,-0.0628954924892993));
#1123=CARTESIAN_POINT('',(0.,0.,0.));
#1124=CARTESIAN_POINT('',(0.05865285180218,0.,-0.0628954924892993));
#1125=CARTESIAN_POINT('',(0.05865285180218,0.005,-0.0628954924892993));
#1126=CARTESIAN_POINT('',(0.05865285180218,0.005,-0.0628954924892993));
#1127=CARTESIAN_POINT('',(0.,0.005,0.));
#1128=CARTESIAN_POINT('',(0.10175,0.,0.));
#1129=CARTESIAN_POINT('',(0.0706111261403106,0.,0.034660047103216));
#1130=CARTESIAN_POINT('',(0.0558659498615974,0.,0.0285523951089909));
#1131=CARTESIAN_POINT('',(0.0461939766255643,0.,0.0191341716182545));
#1132=CARTESIAN_POINT('',(0.0596927841852483,0.,0.0193135997838781));
#1133=CARTESIAN_POINT('',(0.0744379604639615,0.,0.0254212517781031));
#1134=CARTESIAN_POINT('',(0.0404818632229299,0.,-0.0362392225358106));
#1135=CARTESIAN_POINT('',(0.0128742269273629,0.,-0.00863158624024364));
#1136=CARTESIAN_POINT('',(0.,0.,0.));
#1137=CARTESIAN_POINT('',(0.0128742269273629,0.,0.00863158624024364));
#1138=CARTESIAN_POINT('',(0.0404818632229299,0.,0.0362392225358106));
#1139=CARTESIAN_POINT('',(0.105,0.,3.67394039744206E-19));
#1140=CARTESIAN_POINT('',(0.105,0.,-0.006));
#1141=CARTESIAN_POINT('',(6.93889390390723E-18,0.,0.105));
#1142=CARTESIAN_POINT('',(6.93889390390723E-18,0.,0.097));
#1143=CARTESIAN_POINT('',(-0.105,0.,1.31037207508767E-17));
#1144=CARTESIAN_POINT('',(-0.105,0.,-0.00399999999999999));
#1145=CARTESIAN_POINT('',(0.0362392225358106,0.,0.0404818632229299));
#1146=CARTESIAN_POINT('',(0.00863158624024364,0.,0.0128742269273629));
#1147=CARTESIAN_POINT('',(0.,0.,0.));
#1148=CARTESIAN_POINT('',(-0.00863158624024364,0.,0.0128742269273629));
#1149=CARTESIAN_POINT('',(-0.0362392225358106,0.,0.0404818632229299));
#1150=CARTESIAN_POINT('',(-0.0404818632229299,0.,0.0362392225358106));
#1151=CARTESIAN_POINT('',(-0.0128742269273629,0.,0.00863158624024365));
#1152=CARTESIAN_POINT('',(0.,0.,0.));
#1153=CARTESIAN_POINT('',(-0.0128742269273629,0.,-0.00863158624024364));
#1154=CARTESIAN_POINT('',(-0.0404818632229299,0.,-0.0362392225358106));
#1155=CARTESIAN_POINT('',(0.0362392225358106,0.,-0.0404818632229299));
#1156=CARTESIAN_POINT('',(0.00863158624024364,0.,-0.0128742269273629));
#1157=CARTESIAN_POINT('',(-0.0362392225358106,0.,-0.0404818632229299));
#1158=CARTESIAN_POINT('',(-0.00863158624024364,0.,-0.0128742269273629));
#1159=CARTESIAN_POINT('',(0.,0.,0.));
#1160=CARTESIAN_POINT('',(0.,0.,0.));
#1161=CARTESIAN_POINT('',(0.,0.,-0.1175));
#1162=CARTESIAN_POINT('',(0.,0.,0.));
#1163=CARTESIAN_POINT('',(0.,0.,-0.0115));
#1164=CARTESIAN_POINT('',(0.0461939766255643,0.,0.0191341716182545));
#1165=CARTESIAN_POINT('',(0.0461939766255643,0.,0.0078341716182545));
#1166=CARTESIAN_POINT('',(0.,0.005,0.));
#1167=CARTESIAN_POINT('',(0.,0.006,0.));
#1168=CARTESIAN_POINT('',(0.,0.006,-0.1175));
#1169=CARTESIAN_POINT('',(0.1055,0.006,0.));
#1170=CARTESIAN_POINT('',(0.,0.006,0.));
#1171=CARTESIAN_POINT('',(0.,0.006,-0.0935));
#1172=CARTESIAN_POINT('',(0.105,0.006,3.67394039744206E-19));
#1173=CARTESIAN_POINT('',(0.105,0.006,0.006));
#1174=CARTESIAN_POINT('',(6.93889390390723E-18,0.006,0.105));
#1175=CARTESIAN_POINT('',(6.93889390390723E-18,0.006,0.113));
#1176=CARTESIAN_POINT('',(-0.105,0.006,1.31037207508767E-17));
#1177=CARTESIAN_POINT('',(-0.105,0.006,0.00400000000000001));
#1178=CARTESIAN_POINT('',(0.,0.005,0.));
#1179=CARTESIAN_POINT('',(0.,0.0082,0.));
#1180=CARTESIAN_POINT('',(0.,0.0082,-0.0935));
#1181=CARTESIAN_POINT('',(0.09275,0.0082,0.));
#1182=CARTESIAN_POINT('',(0.,0.0082,0.));
#1183=CARTESIAN_POINT('',(0.,0.0082,-0.092));
#1184=CARTESIAN_POINT('',(0.,0.005,0.));
#1185=CARTESIAN_POINT('',(0.,0.006,0.));
#1186=CARTESIAN_POINT('',(0.,0.006,-0.092));
#1187=CARTESIAN_POINT('',(0.0895,0.006,0.));
#1188=CARTESIAN_POINT('',(0.0744379604639615,0.006,0.0254212517781031));
#1189=CARTESIAN_POINT('',(0.0596927841852483,0.006,0.0193135997838781));
#1190=CARTESIAN_POINT('',(0.0461939766255643,0.006,0.0191341716182545));
#1191=CARTESIAN_POINT('',(0.0558659498615974,0.006,0.0285523951089909));
#1192=CARTESIAN_POINT('',(0.0706111261403106,0.006,0.034660047103216));
#1193=CARTESIAN_POINT('',(0.0404818632229299,0.006,0.0362392225358106));
#1194=CARTESIAN_POINT('',(0.0128742269273629,0.006,0.00863158624024364));
#1195=CARTESIAN_POINT('',(0.,0.006,0.));
#1196=CARTESIAN_POINT('',(0.0128742269273629,0.006,-0.00863158624024365));
#1197=CARTESIAN_POINT('',(0.0404818632229299,0.006,-0.0362392225358106));
#1198=CARTESIAN_POINT('',(0.0362392225358106,0.006,0.0404818632229299));
#1199=CARTESIAN_POINT('',(0.00863158624024365,0.006,0.0128742269273629));
#1200=CARTESIAN_POINT('',(-0.0362392225358106,0.006,0.0404818632229299));
#1201=CARTESIAN_POINT('',(-0.00863158624024364,0.006,0.0128742269273629));
#1202=CARTESIAN_POINT('',(0.,0.006,0.));
#1203=CARTESIAN_POINT('',(-0.0404818632229299,0.006,0.0362392225358106));
#1204=CARTESIAN_POINT('',(-0.0128742269273629,0.006,0.00863158624024365));
#1205=CARTESIAN_POINT('',(-0.0404818632229299,0.006,-0.0362392225358106));
#1206=CARTESIAN_POINT('',(-0.0128742269273629,0.006,-0.00863158624024364));
#1207=CARTESIAN_POINT('',(0.,0.006,0.));
#1208=CARTESIAN_POINT('',(0.,0.006,0.));
#1209=CARTESIAN_POINT('',(-0.059360384252198,0.006,-0.0636030249393172));
#1210=CARTESIAN_POINT('',(0.059360384252198,0.006,-0.0636030249393172));
#1211=CARTESIAN_POINT('',(0.0362392225358106,0.006,-0.0404818632229299));
#1212=CARTESIAN_POINT('',(0.00863158624024364,0.006,-0.0128742269273629));
#1213=CARTESIAN_POINT('',(0.,0.006,0.));
#1214=CARTESIAN_POINT('',(-0.00863158624024365,0.006,-0.0128742269273629));
#1215=CARTESIAN_POINT('',(-0.0362392225358106,0.006,-0.0404818632229299));
#1216=CARTESIAN_POINT('',(0.,0.006,0.));
#1217=CARTESIAN_POINT('',(0.,0.006,-0.0115));
#1218=CARTESIAN_POINT('',(0.,0.006,0.));
#1219=CARTESIAN_POINT('',(-0.0586528518021801,0.00500000000000003,-0.0628954924892993));
#1220=CARTESIAN_POINT('',(-0.0588886967773766,0.00533333216563506,-0.0631313374644959));
#1221=CARTESIAN_POINT('',(-0.059124540917892,0.00566666551239823,-0.0633671816050113));
#1222=CARTESIAN_POINT('',(-0.059360384252198,0.00600000000000001,-0.0636030249393172));
#1223=CARTESIAN_POINT('',(0.0593603842521979,0.00600000000000001,-0.0636030249393173));
#1224=CARTESIAN_POINT('',(0.059124540917892,0.00566666551239822,-0.0633671816050113));
#1225=CARTESIAN_POINT('',(0.0588886967773766,0.00533333216563503,-0.0631313374644959));
#1226=CARTESIAN_POINT('',(0.05865285180218,0.005,-0.0628954924892993));
#1227=CARTESIAN_POINT('',(0.,0.005,0.));
#1228=CARTESIAN_POINT('',(0.00863158624024364,0.005,-0.0128742269273629));
#1229=CARTESIAN_POINT('',(-0.00863158624024365,0.005,-0.0128742269273629));
#1230=CARTESIAN_POINT('',(0.,0.005,0.));
#1231=CARTESIAN_POINT('',(-0.0128742269273629,0.005,-0.00863158624024364));
#1232=CARTESIAN_POINT('',(-0.0128742269273629,0.005,0.00863158624024365));
#1233=CARTESIAN_POINT('',(0.,0.005,0.));
#1234=CARTESIAN_POINT('',(-0.00863158624024364,0.005,0.0128742269273629));
#1235=CARTESIAN_POINT('',(0.00863158624024364,0.005,0.0128742269273629));
#1236=CARTESIAN_POINT('',(0.,0.005,0.));
#1237=CARTESIAN_POINT('',(0.,0.005,0.));
#1238=CARTESIAN_POINT('',(0.0128742269273629,0.005,-0.00863158624024365));
#1239=CARTESIAN_POINT('',(0.0128742269273629,0.005,0.00863158624024364));
#1240=CARTESIAN_POINT('',(0.0404818632229299,0.006,0.0362392225358106));
#1241=CARTESIAN_POINT('',(0.0362392225358106,0.006,0.0404818632229299));
#1242=CARTESIAN_POINT('',(-0.0362392225358106,0.006,0.0404818632229299));
#1243=CARTESIAN_POINT('',(-0.0404818632229299,0.006,0.0362392225358106));
#1244=CARTESIAN_POINT('',(-0.0404818632229299,0.006,-0.0362392225358106));
#1245=CARTESIAN_POINT('',(-0.0362392225358106,0.006,-0.0404818632229299));
#1246=CARTESIAN_POINT('',(0.0362392225358106,0.006,-0.0404818632229299));
#1247=CARTESIAN_POINT('',(0.0404818632229299,0.006,-0.0362392225358106));
#1248=CARTESIAN_POINT('',(-0.105,0.332451333170231,1.31037207508767E-17));
#1249=CARTESIAN_POINT('',(6.93889390390723E-18,0.332451333170231,0.105));
#1250=CARTESIAN_POINT('',(0.105,0.332451333170231,3.67394039744206E-19));
#1251=CARTESIAN_POINT('',(0.0461939766255643,0.332566762072282,0.0191341716182545));
#1252=CARTESIAN_POINT('',(0.0461939766255643,0.012,0.0191341716182545));
#1253=CARTESIAN_POINT('',(0.0461939766255643,0.012,0.0091341716182545));
#1254=CARTESIAN_POINT('',(0.0461939766255643,0.01,0.0191341716182545));
#1255=CARTESIAN_POINT('',(0.0461939766255643,0.01,0.0091341716182545));
#1256=CARTESIAN_POINT('',(0.0461939766255643,0.012,0.0191341716182545));
#1257=CARTESIAN_POINT('',(0.0596927841852483,0.012,0.0193135997838781));
#1258=CARTESIAN_POINT('',(0.0558659498615974,0.012,0.0285523951089909));
#1259=CARTESIAN_POINT('',(0.0461939766255643,0.012,0.0191341716182545));
#1260=CARTESIAN_POINT('',(0.0461939766255643,0.012,0.0056341716182545));
#1261=CARTESIAN_POINT('',(0.0461939766255643,0.012,0.0191341716182545));
#1262=CARTESIAN_POINT('',(0.0461939766255643,0.01,0.0191341716182545));
#1263=CARTESIAN_POINT('',(0.0461939766255643,0.01,0.0191341716182545));
#1264=CARTESIAN_POINT('',(0.0461939766255643,0.01,0.0078341716182545));
#1265=CARTESIAN_POINT('',(0.0461939766255643,0.01,0.0191341716182545));
#1266=CARTESIAN_POINT('',(0.0744379604639615,0.006,0.0254212517781031));
#1267=CARTESIAN_POINT('',(0.0706111261403106,0.006,0.034660047103216));
#1268=MECHANICAL_DESIGN_GEOMETRIC_PRESENTATION_REPRESENTATION('',(#728),
#1269);
#1269=(
GEOMETRIC_REPRESENTATION_CONTEXT(3)
GLOBAL_UNCERTAINTY_ASSIGNED_CONTEXT((#1270))
GLOBAL_UNIT_ASSIGNED_CONTEXT((#1273,#1272,#1271))
REPRESENTATION_CONTEXT('Part 1','TOP_LEVEL_ASSEMBLY_PART')
);
#1270=UNCERTAINTY_MEASURE_WITH_UNIT(LENGTH_MEASURE(2.E-5),#1273,
'DISTANCE_ACCURACY_VALUE','Maximum Tolerance applied to model');
#1271=(
NAMED_UNIT(*)
SI_UNIT($,.STERADIAN.)
SOLID_ANGLE_UNIT()
);
#1272=(
NAMED_UNIT(*)
PLANE_ANGLE_UNIT()
SI_UNIT($,.RADIAN.)
);
#1273=(
LENGTH_UNIT()
NAMED_UNIT(*)
SI_UNIT($,.METRE.)
);
#1274=PRODUCT_DEFINITION_SHAPE('','',#1275);
#1275=PRODUCT_DEFINITION('','',#1277,#1276);
#1276=PRODUCT_DEFINITION_CONTEXT('',#1283,'design');
#1277=PRODUCT_DEFINITION_FORMATION_WITH_SPECIFIED_SOURCE('','',#1279,
 .NOT_KNOWN.);
#1278=PRODUCT_RELATED_PRODUCT_CATEGORY('','',(#1279));
#1279=PRODUCT('Part 1','Part 1','Part 1',(#1281));
#1280=PRODUCT_CATEGORY('','');
#1281=PRODUCT_CONTEXT('',#1283,'mechanical');
#1282=APPLICATION_PROTOCOL_DEFINITION('international standard',
'automotive_design',2010,#1283);
#1283=APPLICATION_CONTEXT(
'core data for automotive mechanical design processes');
ENDSEC;
END-ISO-10303-21;
