ISO-10303-21;
HEADER;
/* Generated by software containing ST-Developer
 * from STEP Tools, Inc. (www.steptools.com) 
 */
/* OPTION: using custom renumber hook */

FILE_DESCRIPTION(
/* description */ ('STEP AP214',
'CAx-IF Rec.Pracs.---User Defined Attributes---1.5---2016-08-15'),
/* implementation_level */ '2;1');

FILE_NAME(
/* name */ '6aa1df8fa9afc4404b11f280',
/* time_stamp */ '2026-09-09T22:37:04Z',
/* author */ (''),
/* organization */ (''),
/* preprocessor_version */ 'ST-DEVELOPER v20',
/* originating_system */ 'ONSHAPE BY PTC INC, 1.220',
/* authorisation */ '  ');

FILE_SCHEMA (('AUTOMOTIVE_DESIGN {1 0 10303 214 3 1 1}'));
ENDSEC;

DATA;
#10=PROPERTY_DEFINITION_REPRESENTATION(#14,#12);
#11=PROPERTY_DEFINITION_REPRESENTATION(#15,#13);
#12=REPRESENTATION('',(#16),#1697);
#13=REPRESENTATION('',(#17),#1697);
#14=PROPERTY_DEFINITION('pmi validation property','',#1702);
#15=PROPERTY_DEFINITION('pmi validation property','',#1702);
#16=VALUE_REPRESENTATION_ITEM('number of annotations',COUNT_MEASURE(0.));
#17=VALUE_REPRESENTATION_ITEM('number of views',COUNT_MEASURE(0.));
#18=SHAPE_REPRESENTATION_RELATIONSHIP('','',#891,#19);
#19=ADVANCED_BREP_SHAPE_REPRESENTATION('',(#889),#1697);
#20=B_SPLINE_CURVE_WITH_KNOTS('',3,(#1314,#1315,#1316,#1317),
 .UNSPECIFIED.,.F.,.F.,(4,4),(3.18972246948615E-7,0.0015500670774627),
 .UNSPECIFIED.);
#21=B_SPLINE_CURVE_WITH_KNOTS('',3,(#1322,#1323,#1324,#1325),
 .UNSPECIFIED.,.F.,.F.,(4,4),(3.0151544458097E-7,0.00155004946585904),
 .UNSPECIFIED.);
#22=B_SPLINE_CURVE_WITH_KNOTS('',3,(#1329,#1330,#1331,#1332),
 .UNSPECIFIED.,.F.,.F.,(4,4),(3.01515444605594E-7,0.00155004946585907),
 .UNSPECIFIED.);
#23=B_SPLINE_CURVE_WITH_KNOTS('',3,(#1334,#1335,#1336,#1337),
 .UNSPECIFIED.,.F.,.F.,(4,4),(3.18972246922594E-7,0.00155006707746268),
 .UNSPECIFIED.);
#24=B_SPLINE_CURVE_WITH_KNOTS('',3,(#1341,#1342,#1343,#1344),
 .UNSPECIFIED.,.F.,.F.,(4,4),(3.01515444590849E-7,0.00155004946585905),
 .UNSPECIFIED.);
#25=B_SPLINE_CURVE_WITH_KNOTS('',3,(#1346,#1347,#1348,#1349),
 .UNSPECIFIED.,.F.,.F.,(4,4),(3.18972246942544E-7,0.0015500670774627),
 .UNSPECIFIED.);
#26=B_SPLINE_CURVE_WITH_KNOTS('',3,(#1444,#1445,#1446,#1447),
 .UNSPECIFIED.,.F.,.F.,(4,4),(3.01515444605594E-7,0.00155004946585907),
 .UNSPECIFIED.);
#27=B_SPLINE_CURVE_WITH_KNOTS('',3,(#1449,#1450,#1451,#1452),
 .UNSPECIFIED.,.F.,.F.,(4,4),(3.18972246957722E-7,0.00155006707746271),
 .UNSPECIFIED.);
#28=B_SPLINE_CURVE_WITH_KNOTS('',3,(#1482,#1483,#1484,#1485,#1486,#1487,
#1488,#1489,#1490,#1491,#1492,#1493,#1494,#1495,#1496),.UNSPECIFIED.,.T.,
 .F.,(1,1,1,1,1,1,1,1,1,1,1,1,1,1,1,1,1,1,1),(-0.00795015830010013,-0.005962618725075,
-0.00397507915004987,3.92293053237873E-16,0.00397507915005066,0.00596261872507579,
0.00795015830010092,0.00993769787512606,0.0119252374501512,0.0159003166002015,
0.0198753957502517,0.0218629353252769,0.023850474900302,0.0258380144753271,
0.0278255540503523,0.0318006332004025,0.0357757123504528,0.0377632519254779,
0.039750791500503),.UNSPECIFIED.);
#29=B_SPLINE_CURVE_WITH_KNOTS('',3,(#1498,#1499,#1500,#1501,#1502,#1503,
#1504,#1505,#1506,#1507,#1508,#1509,#1510,#1511,#1512),.UNSPECIFIED.,.T.,
 .F.,(1,1,1,1,1,1,1,1,1,1,1,1,1,1,1,1,1,1,1),(-0.00795547169780527,-0.00397773584889978,
-0.00198886792444704,5.70049877825714E-15,0.00198886792445844,0.00397773584891119,
0.00795547169781667,0.0119332075467222,0.0139220754711749,0.0159109433956276,
0.0178998113200804,0.0198886792445331,0.0238664150934386,0.0278441509423441,
0.0298330188667968,0.0318218867912496,0.0338107547157023,0.0357996226401551,
0.0397773584890606),.UNSPECIFIED.);
#30=B_SPLINE_CURVE_WITH_KNOTS('',3,(#1514,#1515,#1516,#1517,#1518,#1519,
#1520,#1521,#1522,#1523,#1524,#1525,#1526),.UNSPECIFIED.,.T.,.F.,(1,1,1,
1,1,1,1,1,1,1,1,1,1,1,1,1,1),(-0.00795072320068075,-0.00596304240051048,
-0.00397536160034022,3.08936669572487E-16,0.00397536160034084,0.00795072320068137,
0.0119260848010219,0.0159014464013624,0.019876808001703,0.0218644888018732,
0.0238521696020435,0.0258398504022138,0.027827531202384,0.0318028928027246,
0.0357782544030651,0.0397536160034056,0.0437289776037461),.UNSPECIFIED.);
#31=B_SPLINE_CURVE_WITH_KNOTS('',3,(#1528,#1529,#1530,#1531,#1532,#1533,
#1534,#1535,#1536,#1537,#1538,#1539,#1540,#1541,#1542),.UNSPECIFIED.,.T.,
 .F.,(1,1,1,1,1,1,1,1,1,1,1,1,1,1,1,1,1,1,1),(-0.00795558646786317,-0.00397779323393158,
-0.00198889661696579,0.,0.00198889661696579,0.00397779323393158,0.00795558646786317,
0.0119333797017948,0.0139222763187605,0.0159111729357263,0.0179000695526921,
0.0198889661696579,0.0238667594035895,0.0278445526375211,0.0298334492544869,
0.0318223458714527,0.0338112424884185,0.0358001391053843,0.0397779323393158),
 .UNSPECIFIED.);
#32=B_SPLINE_CURVE_WITH_KNOTS('',3,(#1544,#1545,#1546,#1547,#1548,#1549,
#1550,#1551,#1552,#1553),.UNSPECIFIED.,.F.,.F.,(4,1,1,1,1,1,1,4),(7.62543329079837E-7,
0.00203934441014952,0.00407792627696995,0.00611650814379039,0.00815509001061083,
0.0101936718774313,0.0122322537442517,0.0163094174778926),.UNSPECIFIED.);
#33=B_SPLINE_CURVE_WITH_KNOTS('',3,(#1558,#1559,#1560,#1561,#1562,#1563,
#1564,#1565,#1566,#1567),.UNSPECIFIED.,.F.,.F.,(4,1,1,1,1,1,1,4),(7.62543329079837E-7,
0.00203934441014952,0.00407792627696996,0.0061165081437904,0.00815509001061083,
0.0101936718774313,0.0122322537442517,0.0163094174778926),.UNSPECIFIED.);
#34=B_SPLINE_CURVE_WITH_KNOTS('',3,(#1571,#1572,#1573,#1574,#1575,#1576,
#1577,#1578,#1579,#1580),.UNSPECIFIED.,.F.,.F.,(4,1,1,1,1,1,1,4),(7.62543329079837E-7,
0.00203934441014952,0.00407792627696996,0.0061165081437904,0.00815509001061083,
0.0101936718774313,0.0122322537442517,0.0163094174778926),.UNSPECIFIED.);
#35=B_SPLINE_CURVE_WITH_KNOTS('',3,(#1584,#1585,#1586,#1587,#1588,#1589,
#1590,#1591,#1592,#1593),.UNSPECIFIED.,.F.,.F.,(4,1,1,1,1,1,1,4),(7.62543329079837E-7,
0.00203934441014952,0.00407792627696996,0.00611650814379039,0.00815509001061083,
0.0101936718774313,0.0122322537442517,0.0163094174778926),.UNSPECIFIED.);
#36=B_SPLINE_CURVE_WITH_KNOTS('',3,(#1596,#1597,#1598,#1599,#1600),
 .UNSPECIFIED.,.F.,.F.,(4,1,4),(1.47885327780809E-6,0.00387859161767845,
0.0077557043820791),.UNSPECIFIED.);
#37=B_SPLINE_CURVE_WITH_KNOTS('',3,(#1601,#1602,#1603,#1604,#1605),
 .UNSPECIFIED.,.F.,.F.,(4,1,4),(1.47885327780809E-6,0.00387859161767846,
0.00775570438207912),.UNSPECIFIED.);
#38=B_SPLINE_CURVE_WITH_KNOTS('',3,(#1606,#1607,#1608,#1609,#1610),
 .UNSPECIFIED.,.F.,.F.,(4,1,4),(1.47885327780809E-6,0.00387859161767845,
0.0077557043820791),.UNSPECIFIED.);
#39=B_SPLINE_CURVE_WITH_KNOTS('',3,(#1611,#1612,#1613,#1614,#1615),
 .UNSPECIFIED.,.F.,.F.,(4,1,4),(1.47885327776142E-6,0.00387859161767838,
0.007755704382079),.UNSPECIFIED.);
#40=B_SPLINE_CURVE_WITH_KNOTS('',3,(#1617,#1618,#1619,#1620,#1621,#1622,
#1623,#1624,#1625,#1626),.UNSPECIFIED.,.F.,.F.,(4,1,1,1,1,1,1,4),(7.62518487647598E-7,
0.00387509668549013,0.00581226376899137,0.00774943085249262,0.00968659793599386,
0.0116237650194951,0.0135609321029963,0.0154980991864976),.UNSPECIFIED.);
#41=B_SPLINE_CURVE_WITH_KNOTS('',3,(#1627,#1628,#1629,#1630,#1631,#1632,
#1633,#1634,#1635,#1636),.UNSPECIFIED.,.F.,.F.,(4,1,1,1,1,1,1,4),(7.62518487647598E-7,
0.00387509668549013,0.00581226376899137,0.00774943085249261,0.00968659793599385,
0.0116237650194951,0.0135609321029963,0.0154980991864976),.UNSPECIFIED.);
#42=B_SPLINE_CURVE_WITH_KNOTS('',3,(#1637,#1638,#1639,#1640,#1641,#1642,
#1643,#1644,#1645,#1646),.UNSPECIFIED.,.F.,.F.,(4,1,1,1,1,1,1,4),(7.62518487647598E-7,
0.00387509668549013,0.00581226376899137,0.00774943085249261,0.00968659793599385,
0.0116237650194951,0.0135609321029963,0.0154980991864976),.UNSPECIFIED.);
#43=B_SPLINE_CURVE_WITH_KNOTS('',3,(#1647,#1648,#1649,#1650,#1651,#1652,
#1653,#1654,#1655,#1656),.UNSPECIFIED.,.F.,.F.,(4,1,1,1,1,1,1,4),(7.62518487647598E-7,
0.00387509668549013,0.00581226376899137,0.00774943085249261,0.00968659793599385,
0.0116237650194951,0.0135609321029963,0.0154980991864976),.UNSPECIFIED.);
#44=CONICAL_SURFACE('',#905,0.094,0.785398043445928);
#45=CONICAL_SURFACE('',#908,0.094,0.785398043445928);
#46=CONICAL_SURFACE('',#910,0.094,0.785398043445928);
#47=CONICAL_SURFACE('',#959,0.094,0.785398043445928);
#48=CONICAL_SURFACE('',#977,0.0600000146217752,1.30899693899575);
#49=CONICAL_SURFACE('',#982,0.018,1.30899693899575);
#50=LINE('',#1290,#66);
#51=LINE('',#1294,#67);
#52=LINE('',#1299,#68);
#53=LINE('',#1303,#69);
#54=LINE('',#1308,#70);
#55=LINE('',#1312,#71);
#56=LINE('',#1353,#72);
#57=LINE('',#1358,#73);
#58=LINE('',#1362,#74);
#59=LINE('',#1367,#75);
#60=LINE('',#1371,#76);
#61=LINE('',#1376,#77);
#62=LINE('',#1441,#78);
#63=LINE('',#1442,#79);
#64=LINE('',#1476,#80);
#65=LINE('',#1480,#81);
#66=VECTOR('',#1028,1.);
#67=VECTOR('',#1031,1.);
#68=VECTOR('',#1036,1.);
#69=VECTOR('',#1039,1.);
#70=VECTOR('',#1044,1.);
#71=VECTOR('',#1047,1.);
#72=VECTOR('',#1064,1.);
#73=VECTOR('',#1067,1.);
#74=VECTOR('',#1072,1.);
#75=VECTOR('',#1075,1.);
#76=VECTOR('',#1080,1.);
#77=VECTOR('',#1083,1.);
#78=VECTOR('',#1162,1.);
#79=VECTOR('',#1163,1.);
#80=VECTOR('',#1198,1.);
#81=VECTOR('',#1201,1.);
#82=CYLINDRICAL_SURFACE('',#896,0.095);
#83=CYLINDRICAL_SURFACE('',#899,0.095);
#84=CYLINDRICAL_SURFACE('',#902,0.095);
#85=CYLINDRICAL_SURFACE('',#912,0.092);
#86=CYLINDRICAL_SURFACE('',#915,0.092);
#87=CYLINDRICAL_SURFACE('',#918,0.092);
#88=CYLINDRICAL_SURFACE('',#921,0.0115);
#89=CYLINDRICAL_SURFACE('',#926,0.024);
#90=CYLINDRICAL_SURFACE('',#930,0.052);
#91=CYLINDRICAL_SURFACE('',#938,0.068);
#92=CYLINDRICAL_SURFACE('',#946,0.087);
#93=CYLINDRICAL_SURFACE('',#958,0.095);
#94=CYLINDRICAL_SURFACE('',#975,0.092);
#95=CYLINDRICAL_SURFACE('',#984,0.018);
#96=CYLINDRICAL_SURFACE('',#988,0.0145);
#97=CYLINDRICAL_SURFACE('',#991,0.008);
#98=CYLINDRICAL_SURFACE('',#992,0.008);
#99=CYLINDRICAL_SURFACE('',#993,0.008);
#100=CYLINDRICAL_SURFACE('',#994,0.008);
#101=CYLINDRICAL_SURFACE('',#995,0.008);
#102=CYLINDRICAL_SURFACE('',#996,0.008);
#103=CYLINDRICAL_SURFACE('',#997,0.008);
#104=CYLINDRICAL_SURFACE('',#998,0.008);
#105=CYLINDRICAL_SURFACE('',#999,0.0917);
#106=CYLINDRICAL_SURFACE('',#1001,0.0938);
#107=CYLINDRICAL_SURFACE('',#1004,0.00325);
#108=CYLINDRICAL_SURFACE('',#1005,0.00325);
#109=CYLINDRICAL_SURFACE('',#1006,0.00325);
#110=CYLINDRICAL_SURFACE('',#1007,0.00325);
#111=CYLINDRICAL_SURFACE('',#1008,0.005);
#112=CYLINDRICAL_SURFACE('',#1009,0.005);
#113=CYLINDRICAL_SURFACE('',#1010,0.005);
#114=CYLINDRICAL_SURFACE('',#1011,0.005);
#115=CYLINDRICAL_SURFACE('',#1012,0.005);
#116=CYLINDRICAL_SURFACE('',#1013,0.005);
#117=CYLINDRICAL_SURFACE('',#1014,0.005);
#118=CYLINDRICAL_SURFACE('',#1015,0.005);
#119=ORIENTED_EDGE('',*,*,#339,.F.);
#120=ORIENTED_EDGE('',*,*,#340,.T.);
#121=ORIENTED_EDGE('',*,*,#341,.F.);
#122=ORIENTED_EDGE('',*,*,#342,.T.);
#123=ORIENTED_EDGE('',*,*,#343,.T.);
#124=ORIENTED_EDGE('',*,*,#344,.T.);
#125=ORIENTED_EDGE('',*,*,#345,.F.);
#126=ORIENTED_EDGE('',*,*,#346,.T.);
#127=ORIENTED_EDGE('',*,*,#347,.T.);
#128=ORIENTED_EDGE('',*,*,#348,.T.);
#129=ORIENTED_EDGE('',*,*,#349,.F.);
#130=ORIENTED_EDGE('',*,*,#350,.T.);
#131=ORIENTED_EDGE('',*,*,#351,.T.);
#132=ORIENTED_EDGE('',*,*,#352,.T.);
#133=ORIENTED_EDGE('',*,*,#353,.F.);
#134=ORIENTED_EDGE('',*,*,#354,.F.);
#135=ORIENTED_EDGE('',*,*,#355,.F.);
#136=ORIENTED_EDGE('',*,*,#356,.T.);
#137=ORIENTED_EDGE('',*,*,#357,.F.);
#138=ORIENTED_EDGE('',*,*,#341,.T.);
#139=ORIENTED_EDGE('',*,*,#358,.F.);
#140=ORIENTED_EDGE('',*,*,#359,.F.);
#141=ORIENTED_EDGE('',*,*,#360,.F.);
#142=ORIENTED_EDGE('',*,*,#345,.T.);
#143=ORIENTED_EDGE('',*,*,#361,.F.);
#144=ORIENTED_EDGE('',*,*,#362,.F.);
#145=ORIENTED_EDGE('',*,*,#363,.F.);
#146=ORIENTED_EDGE('',*,*,#364,.T.);
#147=ORIENTED_EDGE('',*,*,#365,.F.);
#148=ORIENTED_EDGE('',*,*,#366,.F.);
#149=ORIENTED_EDGE('',*,*,#367,.F.);
#150=ORIENTED_EDGE('',*,*,#368,.T.);
#151=ORIENTED_EDGE('',*,*,#369,.F.);
#152=ORIENTED_EDGE('',*,*,#370,.F.);
#153=ORIENTED_EDGE('',*,*,#371,.F.);
#154=ORIENTED_EDGE('',*,*,#372,.T.);
#155=ORIENTED_EDGE('',*,*,#373,.F.);
#156=ORIENTED_EDGE('',*,*,#374,.F.);
#157=ORIENTED_EDGE('',*,*,#375,.F.);
#158=ORIENTED_EDGE('',*,*,#376,.T.);
#159=ORIENTED_EDGE('',*,*,#377,.F.);
#160=ORIENTED_EDGE('',*,*,#375,.T.);
#161=ORIENTED_EDGE('',*,*,#378,.F.);
#162=ORIENTED_EDGE('',*,*,#377,.T.);
#163=ORIENTED_EDGE('',*,*,#379,.F.);
#164=ORIENTED_EDGE('',*,*,#378,.T.);
#165=ORIENTED_EDGE('',*,*,#380,.F.);
#166=ORIENTED_EDGE('',*,*,#379,.T.);
#167=ORIENTED_EDGE('',*,*,#381,.F.);
#168=ORIENTED_EDGE('',*,*,#382,.F.);
#169=ORIENTED_EDGE('',*,*,#383,.F.);
#170=ORIENTED_EDGE('',*,*,#384,.F.);
#171=ORIENTED_EDGE('',*,*,#385,.F.);
#172=ORIENTED_EDGE('',*,*,#380,.T.);
#173=ORIENTED_EDGE('',*,*,#386,.F.);
#174=ORIENTED_EDGE('',*,*,#385,.T.);
#175=ORIENTED_EDGE('',*,*,#387,.T.);
#176=ORIENTED_EDGE('',*,*,#388,.T.);
#177=ORIENTED_EDGE('',*,*,#389,.T.);
#178=ORIENTED_EDGE('',*,*,#390,.T.);
#179=ORIENTED_EDGE('',*,*,#391,.F.);
#180=ORIENTED_EDGE('',*,*,#386,.T.);
#181=ORIENTED_EDGE('',*,*,#340,.F.);
#182=ORIENTED_EDGE('',*,*,#391,.T.);
#183=ORIENTED_EDGE('',*,*,#392,.F.);
#184=ORIENTED_EDGE('',*,*,#393,.F.);
#185=ORIENTED_EDGE('',*,*,#394,.F.);
#186=ORIENTED_EDGE('',*,*,#395,.F.);
#187=ORIENTED_EDGE('',*,*,#396,.T.);
#188=ORIENTED_EDGE('',*,*,#397,.F.);
#189=ORIENTED_EDGE('',*,*,#398,.T.);
#190=ORIENTED_EDGE('',*,*,#351,.F.);
#191=ORIENTED_EDGE('',*,*,#399,.T.);
#192=ORIENTED_EDGE('',*,*,#347,.F.);
#193=ORIENTED_EDGE('',*,*,#400,.T.);
#194=ORIENTED_EDGE('',*,*,#343,.F.);
#195=ORIENTED_EDGE('',*,*,#401,.T.);
#196=ORIENTED_EDGE('',*,*,#397,.T.);
#197=ORIENTED_EDGE('',*,*,#402,.T.);
#198=ORIENTED_EDGE('',*,*,#356,.F.);
#199=ORIENTED_EDGE('',*,*,#403,.T.);
#200=ORIENTED_EDGE('',*,*,#404,.F.);
#201=ORIENTED_EDGE('',*,*,#349,.T.);
#202=ORIENTED_EDGE('',*,*,#405,.F.);
#203=ORIENTED_EDGE('',*,*,#406,.F.);
#204=ORIENTED_EDGE('',*,*,#407,.F.);
#205=ORIENTED_EDGE('',*,*,#408,.F.);
#206=ORIENTED_EDGE('',*,*,#409,.F.);
#207=ORIENTED_EDGE('',*,*,#410,.F.);
#208=ORIENTED_EDGE('',*,*,#364,.F.);
#209=ORIENTED_EDGE('',*,*,#411,.F.);
#210=ORIENTED_EDGE('',*,*,#412,.F.);
#211=ORIENTED_EDGE('',*,*,#413,.F.);
#212=ORIENTED_EDGE('',*,*,#372,.F.);
#213=ORIENTED_EDGE('',*,*,#414,.F.);
#214=ORIENTED_EDGE('',*,*,#368,.F.);
#215=ORIENTED_EDGE('',*,*,#415,.F.);
#216=ORIENTED_EDGE('',*,*,#354,.T.);
#217=ORIENTED_EDGE('',*,*,#416,.F.);
#218=ORIENTED_EDGE('',*,*,#359,.T.);
#219=ORIENTED_EDGE('',*,*,#417,.F.);
#220=ORIENTED_EDGE('',*,*,#362,.T.);
#221=ORIENTED_EDGE('',*,*,#418,.F.);
#222=ORIENTED_EDGE('',*,*,#406,.T.);
#223=ORIENTED_EDGE('',*,*,#419,.F.);
#224=ORIENTED_EDGE('',*,*,#420,.F.);
#225=ORIENTED_EDGE('',*,*,#421,.F.);
#226=ORIENTED_EDGE('',*,*,#422,.F.);
#227=ORIENTED_EDGE('',*,*,#412,.T.);
#228=ORIENTED_EDGE('',*,*,#423,.F.);
#229=ORIENTED_EDGE('',*,*,#424,.F.);
#230=ORIENTED_EDGE('',*,*,#425,.F.);
#231=ORIENTED_EDGE('',*,*,#426,.F.);
#232=ORIENTED_EDGE('',*,*,#427,.F.);
#233=ORIENTED_EDGE('',*,*,#428,.F.);
#234=ORIENTED_EDGE('',*,*,#429,.F.);
#235=ORIENTED_EDGE('',*,*,#430,.F.);
#236=ORIENTED_EDGE('',*,*,#431,.F.);
#237=ORIENTED_EDGE('',*,*,#432,.F.);
#238=ORIENTED_EDGE('',*,*,#433,.F.);
#239=ORIENTED_EDGE('',*,*,#434,.F.);
#240=ORIENTED_EDGE('',*,*,#435,.F.);
#241=ORIENTED_EDGE('',*,*,#366,.T.);
#242=ORIENTED_EDGE('',*,*,#436,.F.);
#243=ORIENTED_EDGE('',*,*,#370,.T.);
#244=ORIENTED_EDGE('',*,*,#437,.F.);
#245=ORIENTED_EDGE('',*,*,#374,.T.);
#246=ORIENTED_EDGE('',*,*,#438,.F.);
#247=ORIENTED_EDGE('',*,*,#421,.T.);
#248=ORIENTED_EDGE('',*,*,#439,.F.);
#249=ORIENTED_EDGE('',*,*,#434,.T.);
#250=ORIENTED_EDGE('',*,*,#440,.F.);
#251=ORIENTED_EDGE('',*,*,#432,.T.);
#252=ORIENTED_EDGE('',*,*,#441,.F.);
#253=ORIENTED_EDGE('',*,*,#430,.T.);
#254=ORIENTED_EDGE('',*,*,#442,.F.);
#255=ORIENTED_EDGE('',*,*,#428,.T.);
#256=ORIENTED_EDGE('',*,*,#443,.F.);
#257=ORIENTED_EDGE('',*,*,#443,.T.);
#258=ORIENTED_EDGE('',*,*,#444,.F.);
#259=ORIENTED_EDGE('',*,*,#444,.T.);
#260=ORIENTED_EDGE('',*,*,#445,.F.);
#261=ORIENTED_EDGE('',*,*,#445,.T.);
#262=ORIENTED_EDGE('',*,*,#446,.F.);
#263=ORIENTED_EDGE('',*,*,#446,.T.);
#264=ORIENTED_EDGE('',*,*,#376,.F.);
#265=ORIENTED_EDGE('',*,*,#413,.T.);
#266=ORIENTED_EDGE('',*,*,#422,.T.);
#267=ORIENTED_EDGE('',*,*,#438,.T.);
#268=ORIENTED_EDGE('',*,*,#373,.T.);
#269=ORIENTED_EDGE('',*,*,#414,.T.);
#270=ORIENTED_EDGE('',*,*,#371,.T.);
#271=ORIENTED_EDGE('',*,*,#437,.T.);
#272=ORIENTED_EDGE('',*,*,#369,.T.);
#273=ORIENTED_EDGE('',*,*,#415,.T.);
#274=ORIENTED_EDGE('',*,*,#367,.T.);
#275=ORIENTED_EDGE('',*,*,#436,.T.);
#276=ORIENTED_EDGE('',*,*,#365,.T.);
#277=ORIENTED_EDGE('',*,*,#411,.T.);
#278=ORIENTED_EDGE('',*,*,#363,.T.);
#279=ORIENTED_EDGE('',*,*,#435,.T.);
#280=ORIENTED_EDGE('',*,*,#420,.T.);
#281=ORIENTED_EDGE('',*,*,#352,.F.);
#282=ORIENTED_EDGE('',*,*,#398,.F.);
#283=ORIENTED_EDGE('',*,*,#403,.F.);
#284=ORIENTED_EDGE('',*,*,#355,.T.);
#285=ORIENTED_EDGE('',*,*,#419,.T.);
#286=ORIENTED_EDGE('',*,*,#405,.T.);
#287=ORIENTED_EDGE('',*,*,#348,.F.);
#288=ORIENTED_EDGE('',*,*,#399,.F.);
#289=ORIENTED_EDGE('',*,*,#350,.F.);
#290=ORIENTED_EDGE('',*,*,#404,.T.);
#291=ORIENTED_EDGE('',*,*,#418,.T.);
#292=ORIENTED_EDGE('',*,*,#361,.T.);
#293=ORIENTED_EDGE('',*,*,#344,.F.);
#294=ORIENTED_EDGE('',*,*,#400,.F.);
#295=ORIENTED_EDGE('',*,*,#346,.F.);
#296=ORIENTED_EDGE('',*,*,#360,.T.);
#297=ORIENTED_EDGE('',*,*,#417,.T.);
#298=ORIENTED_EDGE('',*,*,#358,.T.);
#299=ORIENTED_EDGE('',*,*,#402,.F.);
#300=ORIENTED_EDGE('',*,*,#401,.F.);
#301=ORIENTED_EDGE('',*,*,#342,.F.);
#302=ORIENTED_EDGE('',*,*,#357,.T.);
#303=ORIENTED_EDGE('',*,*,#416,.T.);
#304=ORIENTED_EDGE('',*,*,#353,.T.);
#305=ORIENTED_EDGE('',*,*,#339,.T.);
#306=ORIENTED_EDGE('',*,*,#447,.F.);
#307=ORIENTED_EDGE('',*,*,#448,.T.);
#308=ORIENTED_EDGE('',*,*,#396,.F.);
#309=ORIENTED_EDGE('',*,*,#447,.T.);
#310=ORIENTED_EDGE('',*,*,#448,.F.);
#311=ORIENTED_EDGE('',*,*,#410,.T.);
#312=ORIENTED_EDGE('',*,*,#395,.T.);
#313=ORIENTED_EDGE('',*,*,#409,.T.);
#314=ORIENTED_EDGE('',*,*,#394,.T.);
#315=ORIENTED_EDGE('',*,*,#408,.T.);
#316=ORIENTED_EDGE('',*,*,#393,.T.);
#317=ORIENTED_EDGE('',*,*,#407,.T.);
#318=ORIENTED_EDGE('',*,*,#392,.T.);
#319=ORIENTED_EDGE('',*,*,#433,.T.);
#320=ORIENTED_EDGE('',*,*,#440,.T.);
#321=ORIENTED_EDGE('',*,*,#384,.T.);
#322=ORIENTED_EDGE('',*,*,#431,.T.);
#323=ORIENTED_EDGE('',*,*,#441,.T.);
#324=ORIENTED_EDGE('',*,*,#383,.T.);
#325=ORIENTED_EDGE('',*,*,#429,.T.);
#326=ORIENTED_EDGE('',*,*,#442,.T.);
#327=ORIENTED_EDGE('',*,*,#382,.T.);
#328=ORIENTED_EDGE('',*,*,#427,.T.);
#329=ORIENTED_EDGE('',*,*,#439,.T.);
#330=ORIENTED_EDGE('',*,*,#381,.T.);
#331=ORIENTED_EDGE('',*,*,#426,.T.);
#332=ORIENTED_EDGE('',*,*,#390,.F.);
#333=ORIENTED_EDGE('',*,*,#425,.T.);
#334=ORIENTED_EDGE('',*,*,#389,.F.);
#335=ORIENTED_EDGE('',*,*,#424,.T.);
#336=ORIENTED_EDGE('',*,*,#388,.F.);
#337=ORIENTED_EDGE('',*,*,#423,.T.);
#338=ORIENTED_EDGE('',*,*,#387,.F.);
#339=EDGE_CURVE('',#449,#449,#535,.T.);
#340=EDGE_CURVE('',#450,#450,#536,.T.);
#341=EDGE_CURVE('',#451,#452,#537,.T.);
#342=EDGE_CURVE('',#451,#453,#50,.T.);
#343=EDGE_CURVE('',#453,#454,#538,.T.);
#344=EDGE_CURVE('',#454,#452,#51,.F.);
#345=EDGE_CURVE('',#455,#456,#539,.T.);
#346=EDGE_CURVE('',#455,#457,#52,.T.);
#347=EDGE_CURVE('',#457,#458,#540,.T.);
#348=EDGE_CURVE('',#458,#456,#53,.F.);
#349=EDGE_CURVE('',#459,#460,#541,.T.);
#350=EDGE_CURVE('',#459,#461,#54,.T.);
#351=EDGE_CURVE('',#461,#462,#542,.T.);
#352=EDGE_CURVE('',#462,#460,#55,.F.);
#353=EDGE_CURVE('',#463,#464,#20,.T.);
#354=EDGE_CURVE('',#465,#463,#543,.T.);
#355=EDGE_CURVE('',#466,#465,#21,.T.);
#356=EDGE_CURVE('',#466,#464,#544,.T.);
#357=EDGE_CURVE('',#451,#467,#22,.T.);
#358=EDGE_CURVE('',#468,#452,#23,.T.);
#359=EDGE_CURVE('',#467,#468,#545,.T.);
#360=EDGE_CURVE('',#455,#469,#24,.T.);
#361=EDGE_CURVE('',#470,#456,#25,.T.);
#362=EDGE_CURVE('',#469,#470,#546,.T.);
#363=EDGE_CURVE('',#471,#472,#56,.T.);
#364=EDGE_CURVE('',#471,#473,#547,.T.);
#365=EDGE_CURVE('',#474,#473,#57,.F.);
#366=EDGE_CURVE('',#472,#474,#548,.T.);
#367=EDGE_CURVE('',#475,#476,#58,.T.);
#368=EDGE_CURVE('',#475,#477,#549,.T.);
#369=EDGE_CURVE('',#478,#477,#59,.F.);
#370=EDGE_CURVE('',#476,#478,#550,.T.);
#371=EDGE_CURVE('',#479,#480,#60,.T.);
#372=EDGE_CURVE('',#479,#481,#551,.T.);
#373=EDGE_CURVE('',#482,#481,#61,.F.);
#374=EDGE_CURVE('',#480,#482,#552,.T.);
#375=EDGE_CURVE('',#483,#483,#553,.T.);
#376=EDGE_CURVE('',#484,#484,#554,.T.);
#377=EDGE_CURVE('',#485,#485,#555,.T.);
#378=EDGE_CURVE('',#486,#486,#556,.T.);
#379=EDGE_CURVE('',#487,#487,#557,.T.);
#380=EDGE_CURVE('',#488,#488,#558,.T.);
#381=EDGE_CURVE('',#489,#489,#559,.T.);
#382=EDGE_CURVE('',#490,#490,#560,.T.);
#383=EDGE_CURVE('',#491,#491,#561,.T.);
#384=EDGE_CURVE('',#492,#492,#562,.T.);
#385=EDGE_CURVE('',#493,#493,#563,.T.);
#386=EDGE_CURVE('',#494,#494,#564,.T.);
#387=EDGE_CURVE('',#495,#495,#565,.T.);
#388=EDGE_CURVE('',#496,#496,#566,.T.);
#389=EDGE_CURVE('',#497,#497,#567,.T.);
#390=EDGE_CURVE('',#498,#498,#568,.T.);
#391=EDGE_CURVE('',#499,#499,#569,.T.);
#392=EDGE_CURVE('',#500,#500,#570,.T.);
#393=EDGE_CURVE('',#501,#501,#571,.T.);
#394=EDGE_CURVE('',#502,#502,#572,.T.);
#395=EDGE_CURVE('',#503,#503,#573,.T.);
#396=EDGE_CURVE('',#504,#504,#574,.T.);
#397=EDGE_CURVE('',#505,#506,#575,.T.);
#398=EDGE_CURVE('',#505,#462,#576,.T.);
#399=EDGE_CURVE('',#461,#458,#577,.T.);
#400=EDGE_CURVE('',#457,#454,#578,.T.);
#401=EDGE_CURVE('',#453,#506,#579,.T.);
#402=EDGE_CURVE('',#506,#464,#62,.F.);
#403=EDGE_CURVE('',#466,#505,#63,.T.);
#404=EDGE_CURVE('',#459,#507,#26,.T.);
#405=EDGE_CURVE('',#508,#460,#27,.T.);
#406=EDGE_CURVE('',#507,#508,#580,.T.);
#407=EDGE_CURVE('',#509,#509,#581,.T.);
#408=EDGE_CURVE('',#510,#510,#582,.T.);
#409=EDGE_CURVE('',#511,#511,#583,.T.);
#410=EDGE_CURVE('',#512,#512,#584,.T.);
#411=EDGE_CURVE('',#513,#471,#585,.T.);
#412=EDGE_CURVE('',#514,#513,#586,.T.);
#413=EDGE_CURVE('',#481,#514,#587,.T.);
#414=EDGE_CURVE('',#477,#479,#588,.T.);
#415=EDGE_CURVE('',#473,#475,#589,.T.);
#416=EDGE_CURVE('',#467,#463,#590,.T.);
#417=EDGE_CURVE('',#469,#468,#591,.T.);
#418=EDGE_CURVE('',#507,#470,#592,.T.);
#419=EDGE_CURVE('',#465,#508,#593,.T.);
#420=EDGE_CURVE('',#515,#513,#64,.F.);
#421=EDGE_CURVE('',#516,#515,#594,.T.);
#422=EDGE_CURVE('',#514,#516,#65,.T.);
#423=EDGE_CURVE('',#517,#517,#28,.T.);
#424=EDGE_CURVE('',#518,#518,#29,.T.);
#425=EDGE_CURVE('',#519,#519,#30,.T.);
#426=EDGE_CURVE('',#520,#520,#31,.T.);
#427=EDGE_CURVE('',#521,#522,#32,.T.);
#428=EDGE_CURVE('',#523,#521,#595,.T.);
#429=EDGE_CURVE('',#524,#523,#33,.T.);
#430=EDGE_CURVE('',#525,#524,#596,.T.);
#431=EDGE_CURVE('',#526,#525,#34,.T.);
#432=EDGE_CURVE('',#527,#526,#597,.T.);
#433=EDGE_CURVE('',#528,#527,#35,.T.);
#434=EDGE_CURVE('',#522,#528,#598,.T.);
#435=EDGE_CURVE('',#472,#515,#36,.T.);
#436=EDGE_CURVE('',#476,#474,#37,.T.);
#437=EDGE_CURVE('',#480,#478,#38,.T.);
#438=EDGE_CURVE('',#516,#482,#39,.T.);
#439=EDGE_CURVE('',#522,#521,#40,.T.);
#440=EDGE_CURVE('',#527,#528,#41,.T.);
#441=EDGE_CURVE('',#525,#526,#42,.T.);
#442=EDGE_CURVE('',#523,#524,#43,.T.);
#443=EDGE_CURVE('',#529,#529,#599,.T.);
#444=EDGE_CURVE('',#530,#530,#600,.T.);
#445=EDGE_CURVE('',#531,#531,#601,.T.);
#446=EDGE_CURVE('',#532,#532,#602,.T.);
#447=EDGE_CURVE('',#533,#533,#603,.T.);
#448=EDGE_CURVE('',#534,#534,#604,.T.);
#449=VERTEX_POINT('',#1283);
#450=VERTEX_POINT('',#1285);
#451=VERTEX_POINT('',#1288);
#452=VERTEX_POINT('',#1289);
#453=VERTEX_POINT('',#1291);
#454=VERTEX_POINT('',#1293);
#455=VERTEX_POINT('',#1297);
#456=VERTEX_POINT('',#1298);
#457=VERTEX_POINT('',#1300);
#458=VERTEX_POINT('',#1302);
#459=VERTEX_POINT('',#1306);
#460=VERTEX_POINT('',#1307);
#461=VERTEX_POINT('',#1309);
#462=VERTEX_POINT('',#1311);
#463=VERTEX_POINT('',#1318);
#464=VERTEX_POINT('',#1319);
#465=VERTEX_POINT('',#1321);
#466=VERTEX_POINT('',#1326);
#467=VERTEX_POINT('',#1333);
#468=VERTEX_POINT('',#1338);
#469=VERTEX_POINT('',#1345);
#470=VERTEX_POINT('',#1350);
#471=VERTEX_POINT('',#1354);
#472=VERTEX_POINT('',#1355);
#473=VERTEX_POINT('',#1357);
#474=VERTEX_POINT('',#1359);
#475=VERTEX_POINT('',#1363);
#476=VERTEX_POINT('',#1364);
#477=VERTEX_POINT('',#1366);
#478=VERTEX_POINT('',#1368);
#479=VERTEX_POINT('',#1372);
#480=VERTEX_POINT('',#1373);
#481=VERTEX_POINT('',#1375);
#482=VERTEX_POINT('',#1377);
#483=VERTEX_POINT('',#1381);
#484=VERTEX_POINT('',#1383);
#485=VERTEX_POINT('',#1386);
#486=VERTEX_POINT('',#1389);
#487=VERTEX_POINT('',#1392);
#488=VERTEX_POINT('',#1395);
#489=VERTEX_POINT('',#1398);
#490=VERTEX_POINT('',#1400);
#491=VERTEX_POINT('',#1402);
#492=VERTEX_POINT('',#1404);
#493=VERTEX_POINT('',#1406);
#494=VERTEX_POINT('',#1409);
#495=VERTEX_POINT('',#1412);
#496=VERTEX_POINT('',#1414);
#497=VERTEX_POINT('',#1416);
#498=VERTEX_POINT('',#1418);
#499=VERTEX_POINT('',#1420);
#500=VERTEX_POINT('',#1424);
#501=VERTEX_POINT('',#1426);
#502=VERTEX_POINT('',#1428);
#503=VERTEX_POINT('',#1430);
#504=VERTEX_POINT('',#1432);
#505=VERTEX_POINT('',#1434);
#506=VERTEX_POINT('',#1435);
#507=VERTEX_POINT('',#1448);
#508=VERTEX_POINT('',#1453);
#509=VERTEX_POINT('',#1457);
#510=VERTEX_POINT('',#1459);
#511=VERTEX_POINT('',#1461);
#512=VERTEX_POINT('',#1463);
#513=VERTEX_POINT('',#1465);
#514=VERTEX_POINT('',#1467);
#515=VERTEX_POINT('',#1477);
#516=VERTEX_POINT('',#1479);
#517=VERTEX_POINT('',#1497);
#518=VERTEX_POINT('',#1513);
#519=VERTEX_POINT('',#1527);
#520=VERTEX_POINT('',#1543);
#521=VERTEX_POINT('',#1554);
#522=VERTEX_POINT('',#1555);
#523=VERTEX_POINT('',#1557);
#524=VERTEX_POINT('',#1568);
#525=VERTEX_POINT('',#1570);
#526=VERTEX_POINT('',#1581);
#527=VERTEX_POINT('',#1583);
#528=VERTEX_POINT('',#1594);
#529=VERTEX_POINT('',#1658);
#530=VERTEX_POINT('',#1661);
#531=VERTEX_POINT('',#1664);
#532=VERTEX_POINT('',#1667);
#533=VERTEX_POINT('',#1679);
#534=VERTEX_POINT('',#1682);
#535=CIRCLE('',#894,0.0917);
#536=CIRCLE('',#895,0.087);
#537=CIRCLE('',#897,0.095);
#538=CIRCLE('',#898,0.095);
#539=CIRCLE('',#900,0.095);
#540=CIRCLE('',#901,0.095);
#541=CIRCLE('',#903,0.095);
#542=CIRCLE('',#904,0.095);
#543=CIRCLE('',#906,0.094);
#544=CIRCLE('',#907,0.095);
#545=CIRCLE('',#909,0.094);
#546=CIRCLE('',#911,0.094);
#547=CIRCLE('',#913,0.092);
#548=CIRCLE('',#914,0.092);
#549=CIRCLE('',#916,0.092);
#550=CIRCLE('',#917,0.092);
#551=CIRCLE('',#919,0.092);
#552=CIRCLE('',#920,0.092);
#553=CIRCLE('',#922,0.0115);
#554=CIRCLE('',#923,0.0115);
#555=CIRCLE('',#925,0.024);
#556=CIRCLE('',#927,0.024);
#557=CIRCLE('',#929,0.052);
#558=CIRCLE('',#931,0.052);
#559=CIRCLE('',#933,0.005);
#560=CIRCLE('',#934,0.005);
#561=CIRCLE('',#935,0.005);
#562=CIRCLE('',#936,0.005);
#563=CIRCLE('',#937,0.068);
#564=CIRCLE('',#939,0.068);
#565=CIRCLE('',#941,0.005);
#566=CIRCLE('',#942,0.005);
#567=CIRCLE('',#943,0.005);
#568=CIRCLE('',#944,0.005);
#569=CIRCLE('',#945,0.087);
#570=CIRCLE('',#948,0.00325);
#571=CIRCLE('',#949,0.00325);
#572=CIRCLE('',#950,0.00325);
#573=CIRCLE('',#951,0.00325);
#574=CIRCLE('',#952,0.0938);
#575=CIRCLE('',#953,0.095);
#576=CIRCLE('',#954,0.008);
#577=CIRCLE('',#955,0.008);
#578=CIRCLE('',#956,0.008);
#579=CIRCLE('',#957,0.008);
#580=CIRCLE('',#960,0.094);
#581=CIRCLE('',#962,0.00325);
#582=CIRCLE('',#963,0.00325);
#583=CIRCLE('',#964,0.00325);
#584=CIRCLE('',#965,0.00325);
#585=CIRCLE('',#966,0.008);
#586=CIRCLE('',#967,0.092);
#587=CIRCLE('',#968,0.008);
#588=CIRCLE('',#969,0.008);
#589=CIRCLE('',#970,0.008);
#590=CIRCLE('',#971,0.008);
#591=CIRCLE('',#972,0.008);
#592=CIRCLE('',#973,0.008);
#593=CIRCLE('',#974,0.008);
#594=CIRCLE('',#976,0.092);
#595=CIRCLE('',#978,0.0600000146217752);
#596=CIRCLE('',#979,0.0600000146217752);
#597=CIRCLE('',#980,0.0600000146217752);
#598=CIRCLE('',#981,0.0600000146217752);
#599=CIRCLE('',#983,0.018);
#600=CIRCLE('',#985,0.018);
#601=CIRCLE('',#987,0.0145);
#602=CIRCLE('',#989,0.0145);
#603=CIRCLE('',#1000,0.0917);
#604=CIRCLE('',#1002,0.0938);
#605=EDGE_LOOP('',(#119));
#606=EDGE_LOOP('',(#120));
#607=EDGE_LOOP('',(#121,#122,#123,#124));
#608=EDGE_LOOP('',(#125,#126,#127,#128));
#609=EDGE_LOOP('',(#129,#130,#131,#132));
#610=EDGE_LOOP('',(#133,#134,#135,#136));
#611=EDGE_LOOP('',(#137,#138,#139,#140));
#612=EDGE_LOOP('',(#141,#142,#143,#144));
#613=EDGE_LOOP('',(#145,#146,#147,#148));
#614=EDGE_LOOP('',(#149,#150,#151,#152));
#615=EDGE_LOOP('',(#153,#154,#155,#156));
#616=EDGE_LOOP('',(#157));
#617=EDGE_LOOP('',(#158));
#618=EDGE_LOOP('',(#159));
#619=EDGE_LOOP('',(#160));
#620=EDGE_LOOP('',(#161));
#621=EDGE_LOOP('',(#162));
#622=EDGE_LOOP('',(#163));
#623=EDGE_LOOP('',(#164));
#624=EDGE_LOOP('',(#165));
#625=EDGE_LOOP('',(#166));
#626=EDGE_LOOP('',(#167));
#627=EDGE_LOOP('',(#168));
#628=EDGE_LOOP('',(#169));
#629=EDGE_LOOP('',(#170));
#630=EDGE_LOOP('',(#171));
#631=EDGE_LOOP('',(#172));
#632=EDGE_LOOP('',(#173));
#633=EDGE_LOOP('',(#174));
#634=EDGE_LOOP('',(#175));
#635=EDGE_LOOP('',(#176));
#636=EDGE_LOOP('',(#177));
#637=EDGE_LOOP('',(#178));
#638=EDGE_LOOP('',(#179));
#639=EDGE_LOOP('',(#180));
#640=EDGE_LOOP('',(#181));
#641=EDGE_LOOP('',(#182));
#642=EDGE_LOOP('',(#183));
#643=EDGE_LOOP('',(#184));
#644=EDGE_LOOP('',(#185));
#645=EDGE_LOOP('',(#186));
#646=EDGE_LOOP('',(#187));
#647=EDGE_LOOP('',(#188,#189,#190,#191,#192,#193,#194,#195));
#648=EDGE_LOOP('',(#196,#197,#198,#199));
#649=EDGE_LOOP('',(#200,#201,#202,#203));
#650=EDGE_LOOP('',(#204));
#651=EDGE_LOOP('',(#205));
#652=EDGE_LOOP('',(#206));
#653=EDGE_LOOP('',(#207));
#654=EDGE_LOOP('',(#208,#209,#210,#211,#212,#213,#214,#215));
#655=EDGE_LOOP('',(#216,#217,#218,#219,#220,#221,#222,#223));
#656=EDGE_LOOP('',(#224,#225,#226,#227));
#657=EDGE_LOOP('',(#228));
#658=EDGE_LOOP('',(#229));
#659=EDGE_LOOP('',(#230));
#660=EDGE_LOOP('',(#231));
#661=EDGE_LOOP('',(#232,#233,#234,#235,#236,#237,#238,#239));
#662=EDGE_LOOP('',(#240,#241,#242,#243,#244,#245,#246,#247));
#663=EDGE_LOOP('',(#248,#249,#250,#251,#252,#253,#254,#255));
#664=EDGE_LOOP('',(#256));
#665=EDGE_LOOP('',(#257));
#666=EDGE_LOOP('',(#258));
#667=EDGE_LOOP('',(#259));
#668=EDGE_LOOP('',(#260));
#669=EDGE_LOOP('',(#261));
#670=EDGE_LOOP('',(#262));
#671=EDGE_LOOP('',(#263));
#672=EDGE_LOOP('',(#264));
#673=EDGE_LOOP('',(#265,#266,#267,#268));
#674=EDGE_LOOP('',(#269,#270,#271,#272));
#675=EDGE_LOOP('',(#273,#274,#275,#276));
#676=EDGE_LOOP('',(#277,#278,#279,#280));
#677=EDGE_LOOP('',(#281,#282,#283,#284,#285,#286));
#678=EDGE_LOOP('',(#287,#288,#289,#290,#291,#292));
#679=EDGE_LOOP('',(#293,#294,#295,#296,#297,#298));
#680=EDGE_LOOP('',(#299,#300,#301,#302,#303,#304));
#681=EDGE_LOOP('',(#305));
#682=EDGE_LOOP('',(#306));
#683=EDGE_LOOP('',(#307));
#684=EDGE_LOOP('',(#308));
#685=EDGE_LOOP('',(#309));
#686=EDGE_LOOP('',(#310));
#687=EDGE_LOOP('',(#311));
#688=EDGE_LOOP('',(#312));
#689=EDGE_LOOP('',(#313));
#690=EDGE_LOOP('',(#314));
#691=EDGE_LOOP('',(#315));
#692=EDGE_LOOP('',(#316));
#693=EDGE_LOOP('',(#317));
#694=EDGE_LOOP('',(#318));
#695=EDGE_LOOP('',(#319,#320));
#696=EDGE_LOOP('',(#321));
#697=EDGE_LOOP('',(#322,#323));
#698=EDGE_LOOP('',(#324));
#699=EDGE_LOOP('',(#325,#326));
#700=EDGE_LOOP('',(#327));
#701=EDGE_LOOP('',(#328,#329));
#702=EDGE_LOOP('',(#330));
#703=EDGE_LOOP('',(#331));
#704=EDGE_LOOP('',(#332));
#705=EDGE_LOOP('',(#333));
#706=EDGE_LOOP('',(#334));
#707=EDGE_LOOP('',(#335));
#708=EDGE_LOOP('',(#336));
#709=EDGE_LOOP('',(#337));
#710=EDGE_LOOP('',(#338));
#711=FACE_BOUND('',#605,.T.);
#712=FACE_BOUND('',#606,.T.);
#713=FACE_BOUND('',#607,.T.);
#714=FACE_BOUND('',#608,.T.);
#715=FACE_BOUND('',#609,.T.);
#716=FACE_BOUND('',#610,.T.);
#717=FACE_BOUND('',#611,.T.);
#718=FACE_BOUND('',#612,.T.);
#719=FACE_BOUND('',#613,.T.);
#720=FACE_BOUND('',#614,.T.);
#721=FACE_BOUND('',#615,.T.);
#722=FACE_BOUND('',#616,.T.);
#723=FACE_BOUND('',#617,.T.);
#724=FACE_BOUND('',#618,.T.);
#725=FACE_BOUND('',#619,.T.);
#726=FACE_BOUND('',#620,.T.);
#727=FACE_BOUND('',#621,.T.);
#728=FACE_BOUND('',#622,.T.);
#729=FACE_BOUND('',#623,.T.);
#730=FACE_BOUND('',#624,.T.);
#731=FACE_BOUND('',#625,.T.);
#732=FACE_BOUND('',#626,.T.);
#733=FACE_BOUND('',#627,.T.);
#734=FACE_BOUND('',#628,.T.);
#735=FACE_BOUND('',#629,.T.);
#736=FACE_BOUND('',#630,.T.);
#737=FACE_BOUND('',#631,.T.);
#738=FACE_BOUND('',#632,.T.);
#739=FACE_BOUND('',#633,.T.);
#740=FACE_BOUND('',#634,.T.);
#741=FACE_BOUND('',#635,.T.);
#742=FACE_BOUND('',#636,.T.);
#743=FACE_BOUND('',#637,.T.);
#744=FACE_BOUND('',#638,.T.);
#745=FACE_BOUND('',#639,.T.);
#746=FACE_BOUND('',#640,.T.);
#747=FACE_BOUND('',#641,.T.);
#748=FACE_BOUND('',#642,.T.);
#749=FACE_BOUND('',#643,.T.);
#750=FACE_BOUND('',#644,.T.);
#751=FACE_BOUND('',#645,.T.);
#752=FACE_BOUND('',#646,.T.);
#753=FACE_BOUND('',#647,.T.);
#754=FACE_BOUND('',#648,.T.);
#755=FACE_BOUND('',#649,.T.);
#756=FACE_BOUND('',#650,.T.);
#757=FACE_BOUND('',#651,.T.);
#758=FACE_BOUND('',#652,.T.);
#759=FACE_BOUND('',#653,.T.);
#760=FACE_BOUND('',#654,.T.);
#761=FACE_BOUND('',#655,.T.);
#762=FACE_BOUND('',#656,.T.);
#763=FACE_BOUND('',#657,.T.);
#764=FACE_BOUND('',#658,.T.);
#765=FACE_BOUND('',#659,.T.);
#766=FACE_BOUND('',#660,.T.);
#767=FACE_BOUND('',#661,.T.);
#768=FACE_BOUND('',#662,.T.);
#769=FACE_BOUND('',#663,.T.);
#770=FACE_BOUND('',#664,.T.);
#771=FACE_BOUND('',#665,.T.);
#772=FACE_BOUND('',#666,.T.);
#773=FACE_BOUND('',#667,.T.);
#774=FACE_BOUND('',#668,.T.);
#775=FACE_BOUND('',#669,.T.);
#776=FACE_BOUND('',#670,.T.);
#777=FACE_BOUND('',#671,.T.);
#778=FACE_BOUND('',#672,.T.);
#779=FACE_BOUND('',#673,.T.);
#780=FACE_BOUND('',#674,.T.);
#781=FACE_BOUND('',#675,.T.);
#782=FACE_BOUND('',#676,.T.);
#783=FACE_BOUND('',#677,.T.);
#784=FACE_BOUND('',#678,.T.);
#785=FACE_BOUND('',#679,.T.);
#786=FACE_BOUND('',#680,.T.);
#787=FACE_BOUND('',#681,.T.);
#788=FACE_BOUND('',#682,.T.);
#789=FACE_BOUND('',#683,.T.);
#790=FACE_BOUND('',#684,.T.);
#791=FACE_BOUND('',#685,.T.);
#792=FACE_BOUND('',#686,.T.);
#793=FACE_BOUND('',#687,.T.);
#794=FACE_BOUND('',#688,.T.);
#795=FACE_BOUND('',#689,.T.);
#796=FACE_BOUND('',#690,.T.);
#797=FACE_BOUND('',#691,.T.);
#798=FACE_BOUND('',#692,.T.);
#799=FACE_BOUND('',#693,.T.);
#800=FACE_BOUND('',#694,.T.);
#801=FACE_BOUND('',#695,.T.);
#802=FACE_BOUND('',#696,.T.);
#803=FACE_BOUND('',#697,.T.);
#804=FACE_BOUND('',#698,.T.);
#805=FACE_BOUND('',#699,.T.);
#806=FACE_BOUND('',#700,.T.);
#807=FACE_BOUND('',#701,.T.);
#808=FACE_BOUND('',#702,.T.);
#809=FACE_BOUND('',#703,.T.);
#810=FACE_BOUND('',#704,.T.);
#811=FACE_BOUND('',#705,.T.);
#812=FACE_BOUND('',#706,.T.);
#813=FACE_BOUND('',#707,.T.);
#814=FACE_BOUND('',#708,.T.);
#815=FACE_BOUND('',#709,.T.);
#816=FACE_BOUND('',#710,.T.);
#817=PLANE('',#893);
#818=PLANE('',#924);
#819=PLANE('',#928);
#820=PLANE('',#932);
#821=PLANE('',#940);
#822=PLANE('',#947);
#823=PLANE('',#961);
#824=PLANE('',#986);
#825=PLANE('',#990);
#826=PLANE('',#1003);
#827=ADVANCED_FACE('',(#711,#712),#817,.F.);
#828=ADVANCED_FACE('',(#713),#82,.T.);
#829=ADVANCED_FACE('',(#714),#83,.T.);
#830=ADVANCED_FACE('',(#715),#84,.T.);
#831=ADVANCED_FACE('',(#716),#44,.T.);
#832=ADVANCED_FACE('',(#717),#45,.T.);
#833=ADVANCED_FACE('',(#718),#46,.T.);
#834=ADVANCED_FACE('',(#719),#85,.F.);
#835=ADVANCED_FACE('',(#720),#86,.F.);
#836=ADVANCED_FACE('',(#721),#87,.F.);
#837=ADVANCED_FACE('',(#722,#723),#88,.F.);
#838=ADVANCED_FACE('',(#724,#725),#818,.F.);
#839=ADVANCED_FACE('',(#726,#727),#89,.T.);
#840=ADVANCED_FACE('',(#728,#729),#819,.F.);
#841=ADVANCED_FACE('',(#730,#731),#90,.F.);
#842=ADVANCED_FACE('',(#732,#733,#734,#735,#736,#737),#820,.F.);
#843=ADVANCED_FACE('',(#738,#739),#91,.T.);
#844=ADVANCED_FACE('',(#740,#741,#742,#743,#744,#745),#821,.F.);
#845=ADVANCED_FACE('',(#746,#747),#92,.F.);
#846=ADVANCED_FACE('',(#748,#749,#750,#751,#752,#753),#822,.F.);
#847=ADVANCED_FACE('',(#754),#93,.T.);
#848=ADVANCED_FACE('',(#755),#47,.T.);
#849=ADVANCED_FACE('',(#756,#757,#758,#759,#760,#761),#823,.T.);
#850=ADVANCED_FACE('',(#762),#94,.F.);
#851=ADVANCED_FACE('',(#763,#764,#765,#766,#767,#768),#48,.F.);
#852=ADVANCED_FACE('',(#769,#770),#49,.T.);
#853=ADVANCED_FACE('',(#771,#772),#95,.T.);
#854=ADVANCED_FACE('',(#773,#774),#824,.T.);
#855=ADVANCED_FACE('',(#775,#776),#96,.T.);
#856=ADVANCED_FACE('',(#777,#778),#825,.T.);
#857=ADVANCED_FACE('',(#779),#97,.T.);
#858=ADVANCED_FACE('',(#780),#98,.T.);
#859=ADVANCED_FACE('',(#781),#99,.T.);
#860=ADVANCED_FACE('',(#782),#100,.T.);
#861=ADVANCED_FACE('',(#783),#101,.T.);
#862=ADVANCED_FACE('',(#784),#102,.T.);
#863=ADVANCED_FACE('',(#785),#103,.T.);
#864=ADVANCED_FACE('',(#786),#104,.T.);
#865=ADVANCED_FACE('',(#787,#788),#105,.T.);
#866=ADVANCED_FACE('',(#789,#790),#106,.F.);
#867=ADVANCED_FACE('',(#791,#792),#826,.T.);
#868=ADVANCED_FACE('',(#793,#794),#107,.F.);
#869=ADVANCED_FACE('',(#795,#796),#108,.F.);
#870=ADVANCED_FACE('',(#797,#798),#109,.F.);
#871=ADVANCED_FACE('',(#799,#800),#110,.F.);
#872=ADVANCED_FACE('',(#801,#802),#111,.F.);
#873=ADVANCED_FACE('',(#803,#804),#112,.F.);
#874=ADVANCED_FACE('',(#805,#806),#113,.F.);
#875=ADVANCED_FACE('',(#807,#808),#114,.F.);
#876=ADVANCED_FACE('',(#809,#810),#115,.F.);
#877=ADVANCED_FACE('',(#811,#812),#116,.F.);
#878=ADVANCED_FACE('',(#813,#814),#117,.F.);
#879=ADVANCED_FACE('',(#815,#816),#118,.F.);
#880=CLOSED_SHELL('',(#827,#828,#829,#830,#831,#832,#833,#834,#835,#836,
#837,#838,#839,#840,#841,#842,#843,#844,#845,#846,#847,#848,#849,#850,#851,
#852,#853,#854,#855,#856,#857,#858,#859,#860,#861,#862,#863,#864,#865,#866,
#867,#868,#869,#870,#871,#872,#873,#874,#875,#876,#877,#878,#879));
#881=STYLED_ITEM('',(#882),#889);
#882=PRESENTATION_STYLE_ASSIGNMENT((#883));
#883=SURFACE_STYLE_USAGE(.BOTH.,#884);
#884=SURFACE_SIDE_STYLE('',(#885));
#885=SURFACE_STYLE_FILL_AREA(#886);
#886=FILL_AREA_STYLE('',(#887));
#887=FILL_AREA_STYLE_COLOUR('',#888);
#888=COLOUR_RGB('',0.615686274509804,0.811764705882353,0.929411764705882);
#889=MANIFOLD_SOLID_BREP('Part 1',#880);
#890=SHAPE_DEFINITION_REPRESENTATION(#1702,#891);
#891=SHAPE_REPRESENTATION('Part 1',(#892),#1697);
#892=AXIS2_PLACEMENT_3D('',#1280,#1016,#1017);
#893=AXIS2_PLACEMENT_3D('',#1281,#1018,#1019);
#894=AXIS2_PLACEMENT_3D('',#1282,#1020,#1021);
#895=AXIS2_PLACEMENT_3D('',#1284,#1022,#1023);
#896=AXIS2_PLACEMENT_3D('',#1286,#1024,#1025);
#897=AXIS2_PLACEMENT_3D('',#1287,#1026,#1027);
#898=AXIS2_PLACEMENT_3D('',#1292,#1029,#1030);
#899=AXIS2_PLACEMENT_3D('',#1295,#1032,#1033);
#900=AXIS2_PLACEMENT_3D('',#1296,#1034,#1035);
#901=AXIS2_PLACEMENT_3D('',#1301,#1037,#1038);
#902=AXIS2_PLACEMENT_3D('',#1304,#1040,#1041);
#903=AXIS2_PLACEMENT_3D('',#1305,#1042,#1043);
#904=AXIS2_PLACEMENT_3D('',#1310,#1045,#1046);
#905=AXIS2_PLACEMENT_3D('',#1313,#1048,#1049);
#906=AXIS2_PLACEMENT_3D('',#1320,#1050,#1051);
#907=AXIS2_PLACEMENT_3D('',#1327,#1052,#1053);
#908=AXIS2_PLACEMENT_3D('',#1328,#1054,#1055);
#909=AXIS2_PLACEMENT_3D('',#1339,#1056,#1057);
#910=AXIS2_PLACEMENT_3D('',#1340,#1058,#1059);
#911=AXIS2_PLACEMENT_3D('',#1351,#1060,#1061);
#912=AXIS2_PLACEMENT_3D('',#1352,#1062,#1063);
#913=AXIS2_PLACEMENT_3D('',#1356,#1065,#1066);
#914=AXIS2_PLACEMENT_3D('',#1360,#1068,#1069);
#915=AXIS2_PLACEMENT_3D('',#1361,#1070,#1071);
#916=AXIS2_PLACEMENT_3D('',#1365,#1073,#1074);
#917=AXIS2_PLACEMENT_3D('',#1369,#1076,#1077);
#918=AXIS2_PLACEMENT_3D('',#1370,#1078,#1079);
#919=AXIS2_PLACEMENT_3D('',#1374,#1081,#1082);
#920=AXIS2_PLACEMENT_3D('',#1378,#1084,#1085);
#921=AXIS2_PLACEMENT_3D('',#1379,#1086,#1087);
#922=AXIS2_PLACEMENT_3D('',#1380,#1088,#1089);
#923=AXIS2_PLACEMENT_3D('',#1382,#1090,#1091);
#924=AXIS2_PLACEMENT_3D('',#1384,#1092,#1093);
#925=AXIS2_PLACEMENT_3D('',#1385,#1094,#1095);
#926=AXIS2_PLACEMENT_3D('',#1387,#1096,#1097);
#927=AXIS2_PLACEMENT_3D('',#1388,#1098,#1099);
#928=AXIS2_PLACEMENT_3D('',#1390,#1100,#1101);
#929=AXIS2_PLACEMENT_3D('',#1391,#1102,#1103);
#930=AXIS2_PLACEMENT_3D('',#1393,#1104,#1105);
#931=AXIS2_PLACEMENT_3D('',#1394,#1106,#1107);
#932=AXIS2_PLACEMENT_3D('',#1396,#1108,#1109);
#933=AXIS2_PLACEMENT_3D('',#1397,#1110,#1111);
#934=AXIS2_PLACEMENT_3D('',#1399,#1112,#1113);
#935=AXIS2_PLACEMENT_3D('',#1401,#1114,#1115);
#936=AXIS2_PLACEMENT_3D('',#1403,#1116,#1117);
#937=AXIS2_PLACEMENT_3D('',#1405,#1118,#1119);
#938=AXIS2_PLACEMENT_3D('',#1407,#1120,#1121);
#939=AXIS2_PLACEMENT_3D('',#1408,#1122,#1123);
#940=AXIS2_PLACEMENT_3D('',#1410,#1124,#1125);
#941=AXIS2_PLACEMENT_3D('',#1411,#1126,#1127);
#942=AXIS2_PLACEMENT_3D('',#1413,#1128,#1129);
#943=AXIS2_PLACEMENT_3D('',#1415,#1130,#1131);
#944=AXIS2_PLACEMENT_3D('',#1417,#1132,#1133);
#945=AXIS2_PLACEMENT_3D('',#1419,#1134,#1135);
#946=AXIS2_PLACEMENT_3D('',#1421,#1136,#1137);
#947=AXIS2_PLACEMENT_3D('',#1422,#1138,#1139);
#948=AXIS2_PLACEMENT_3D('',#1423,#1140,#1141);
#949=AXIS2_PLACEMENT_3D('',#1425,#1142,#1143);
#950=AXIS2_PLACEMENT_3D('',#1427,#1144,#1145);
#951=AXIS2_PLACEMENT_3D('',#1429,#1146,#1147);
#952=AXIS2_PLACEMENT_3D('',#1431,#1148,#1149);
#953=AXIS2_PLACEMENT_3D('',#1433,#1150,#1151);
#954=AXIS2_PLACEMENT_3D('',#1436,#1152,#1153);
#955=AXIS2_PLACEMENT_3D('',#1437,#1154,#1155);
#956=AXIS2_PLACEMENT_3D('',#1438,#1156,#1157);
#957=AXIS2_PLACEMENT_3D('',#1439,#1158,#1159);
#958=AXIS2_PLACEMENT_3D('',#1440,#1160,#1161);
#959=AXIS2_PLACEMENT_3D('',#1443,#1164,#1165);
#960=AXIS2_PLACEMENT_3D('',#1454,#1166,#1167);
#961=AXIS2_PLACEMENT_3D('',#1455,#1168,#1169);
#962=AXIS2_PLACEMENT_3D('',#1456,#1170,#1171);
#963=AXIS2_PLACEMENT_3D('',#1458,#1172,#1173);
#964=AXIS2_PLACEMENT_3D('',#1460,#1174,#1175);
#965=AXIS2_PLACEMENT_3D('',#1462,#1176,#1177);
#966=AXIS2_PLACEMENT_3D('',#1464,#1178,#1179);
#967=AXIS2_PLACEMENT_3D('',#1466,#1180,#1181);
#968=AXIS2_PLACEMENT_3D('',#1468,#1182,#1183);
#969=AXIS2_PLACEMENT_3D('',#1469,#1184,#1185);
#970=AXIS2_PLACEMENT_3D('',#1470,#1186,#1187);
#971=AXIS2_PLACEMENT_3D('',#1471,#1188,#1189);
#972=AXIS2_PLACEMENT_3D('',#1472,#1190,#1191);
#973=AXIS2_PLACEMENT_3D('',#1473,#1192,#1193);
#974=AXIS2_PLACEMENT_3D('',#1474,#1194,#1195);
#975=AXIS2_PLACEMENT_3D('',#1475,#1196,#1197);
#976=AXIS2_PLACEMENT_3D('',#1478,#1199,#1200);
#977=AXIS2_PLACEMENT_3D('',#1481,#1202,#1203);
#978=AXIS2_PLACEMENT_3D('',#1556,#1204,#1205);
#979=AXIS2_PLACEMENT_3D('',#1569,#1206,#1207);
#980=AXIS2_PLACEMENT_3D('',#1582,#1208,#1209);
#981=AXIS2_PLACEMENT_3D('',#1595,#1210,#1211);
#982=AXIS2_PLACEMENT_3D('',#1616,#1212,#1213);
#983=AXIS2_PLACEMENT_3D('',#1657,#1214,#1215);
#984=AXIS2_PLACEMENT_3D('',#1659,#1216,#1217);
#985=AXIS2_PLACEMENT_3D('',#1660,#1218,#1219);
#986=AXIS2_PLACEMENT_3D('',#1662,#1220,#1221);
#987=AXIS2_PLACEMENT_3D('',#1663,#1222,#1223);
#988=AXIS2_PLACEMENT_3D('',#1665,#1224,#1225);
#989=AXIS2_PLACEMENT_3D('',#1666,#1226,#1227);
#990=AXIS2_PLACEMENT_3D('',#1668,#1228,#1229);
#991=AXIS2_PLACEMENT_3D('',#1669,#1230,#1231);
#992=AXIS2_PLACEMENT_3D('',#1670,#1232,#1233);
#993=AXIS2_PLACEMENT_3D('',#1671,#1234,#1235);
#994=AXIS2_PLACEMENT_3D('',#1672,#1236,#1237);
#995=AXIS2_PLACEMENT_3D('',#1673,#1238,#1239);
#996=AXIS2_PLACEMENT_3D('',#1674,#1240,#1241);
#997=AXIS2_PLACEMENT_3D('',#1675,#1242,#1243);
#998=AXIS2_PLACEMENT_3D('',#1676,#1244,#1245);
#999=AXIS2_PLACEMENT_3D('',#1677,#1246,#1247);
#1000=AXIS2_PLACEMENT_3D('',#1678,#1248,#1249);
#1001=AXIS2_PLACEMENT_3D('',#1680,#1250,#1251);
#1002=AXIS2_PLACEMENT_3D('',#1681,#1252,#1253);
#1003=AXIS2_PLACEMENT_3D('',#1683,#1254,#1255);
#1004=AXIS2_PLACEMENT_3D('',#1684,#1256,#1257);
#1005=AXIS2_PLACEMENT_3D('',#1685,#1258,#1259);
#1006=AXIS2_PLACEMENT_3D('',#1686,#1260,#1261);
#1007=AXIS2_PLACEMENT_3D('',#1687,#1262,#1263);
#1008=AXIS2_PLACEMENT_3D('',#1688,#1264,#1265);
#1009=AXIS2_PLACEMENT_3D('',#1689,#1266,#1267);
#1010=AXIS2_PLACEMENT_3D('',#1690,#1268,#1269);
#1011=AXIS2_PLACEMENT_3D('',#1691,#1270,#1271);
#1012=AXIS2_PLACEMENT_3D('',#1692,#1272,#1273);
#1013=AXIS2_PLACEMENT_3D('',#1693,#1274,#1275);
#1014=AXIS2_PLACEMENT_3D('',#1694,#1276,#1277);
#1015=AXIS2_PLACEMENT_3D('',#1695,#1278,#1279);
#1016=DIRECTION('',(0.,0.,1.));
#1017=DIRECTION('',(1.,0.,0.));
#1018=DIRECTION('',(0.,1.,0.));
#1019=DIRECTION('',(0.,0.,1.));
#1020=DIRECTION('',(0.,1.,0.));
#1021=DIRECTION('',(0.,0.,1.));
#1022=DIRECTION('',(0.,1.,0.));
#1023=DIRECTION('',(0.,0.,1.));
#1024=DIRECTION('',(0.,1.,0.));
#1025=DIRECTION('',(0.,0.,1.));
#1026=DIRECTION('',(0.,1.,0.));
#1027=DIRECTION('',(0.,0.,1.));
#1028=DIRECTION('',(0.,-1.,0.));
#1029=DIRECTION('',(0.,1.,0.));
#1030=DIRECTION('',(0.,0.,1.));
#1031=DIRECTION('',(0.,-1.,0.));
#1032=DIRECTION('',(0.,1.,0.));
#1033=DIRECTION('',(0.,0.,1.));
#1034=DIRECTION('',(0.,1.,0.));
#1035=DIRECTION('',(0.,0.,1.));
#1036=DIRECTION('',(0.,-1.,0.));
#1037=DIRECTION('',(0.,1.,0.));
#1038=DIRECTION('',(0.,0.,1.));
#1039=DIRECTION('',(0.,-1.,0.));
#1040=DIRECTION('',(0.,1.,0.));
#1041=DIRECTION('',(0.,0.,1.));
#1042=DIRECTION('',(0.,1.,0.));
#1043=DIRECTION('',(0.,0.,1.));
#1044=DIRECTION('',(0.,-1.,0.));
#1045=DIRECTION('',(0.,1.,0.));
#1046=DIRECTION('',(0.,0.,1.));
#1047=DIRECTION('',(0.,-1.,0.));
#1048=DIRECTION('',(0.,-1.,0.));
#1049=DIRECTION('',(0.,0.,-1.));
#1050=DIRECTION('',(0.,1.,0.));
#1051=DIRECTION('',(0.,0.,1.));
#1052=DIRECTION('',(0.,1.,0.));
#1053=DIRECTION('',(0.,0.,1.));
#1054=DIRECTION('',(0.,-1.,0.));
#1055=DIRECTION('',(0.,0.,-1.));
#1056=DIRECTION('',(0.,1.,0.));
#1057=DIRECTION('',(0.,0.,1.));
#1058=DIRECTION('',(0.,-1.,0.));
#1059=DIRECTION('',(0.,0.,-1.));
#1060=DIRECTION('',(0.,1.,0.));
#1061=DIRECTION('',(0.,0.,1.));
#1062=DIRECTION('',(0.,1.,0.));
#1063=DIRECTION('',(0.,0.,1.));
#1064=DIRECTION('',(0.,-1.,0.));
#1065=DIRECTION('',(0.,1.,0.));
#1066=DIRECTION('',(0.,0.,1.));
#1067=DIRECTION('',(0.,-1.,0.));
#1068=DIRECTION('',(0.,1.,0.));
#1069=DIRECTION('',(0.,0.,1.));
#1070=DIRECTION('',(0.,1.,0.));
#1071=DIRECTION('',(0.,0.,1.));
#1072=DIRECTION('',(0.,-1.,0.));
#1073=DIRECTION('',(0.,1.,0.));
#1074=DIRECTION('',(0.,0.,1.));
#1075=DIRECTION('',(0.,-1.,0.));
#1076=DIRECTION('',(0.,1.,0.));
#1077=DIRECTION('',(0.,0.,1.));
#1078=DIRECTION('',(0.,1.,0.));
#1079=DIRECTION('',(0.,0.,1.));
#1080=DIRECTION('',(0.,-1.,0.));
#1081=DIRECTION('',(0.,1.,0.));
#1082=DIRECTION('',(0.,0.,1.));
#1083=DIRECTION('',(0.,-1.,0.));
#1084=DIRECTION('',(0.,1.,0.));
#1085=DIRECTION('',(0.,0.,1.));
#1086=DIRECTION('',(0.,1.,0.));
#1087=DIRECTION('',(0.,0.,1.));
#1088=DIRECTION('',(0.,1.,0.));
#1089=DIRECTION('',(0.,0.,1.));
#1090=DIRECTION('',(0.,1.,0.));
#1091=DIRECTION('',(0.,0.,1.));
#1092=DIRECTION('',(0.,1.,0.));
#1093=DIRECTION('',(0.,0.,1.));
#1094=DIRECTION('',(0.,1.,0.));
#1095=DIRECTION('',(0.,0.,1.));
#1096=DIRECTION('',(0.,1.,0.));
#1097=DIRECTION('',(0.,0.,1.));
#1098=DIRECTION('',(0.,1.,0.));
#1099=DIRECTION('',(0.,0.,1.));
#1100=DIRECTION('',(0.,1.,0.));
#1101=DIRECTION('',(0.,0.,1.));
#1102=DIRECTION('',(0.,1.,0.));
#1103=DIRECTION('',(0.,0.,1.));
#1104=DIRECTION('',(0.,1.,0.));
#1105=DIRECTION('',(0.,0.,1.));
#1106=DIRECTION('',(0.,1.,0.));
#1107=DIRECTION('',(0.,0.,1.));
#1108=DIRECTION('',(0.,1.,0.));
#1109=DIRECTION('',(0.,0.,1.));
#1110=DIRECTION('',(0.,-1.,0.));
#1111=DIRECTION('',(0.,0.,-1.));
#1112=DIRECTION('',(0.,-1.,0.));
#1113=DIRECTION('',(0.,0.,-1.));
#1114=DIRECTION('',(0.,-1.,0.));
#1115=DIRECTION('',(0.,0.,-1.));
#1116=DIRECTION('',(0.,-1.,0.));
#1117=DIRECTION('',(0.,0.,-1.));
#1118=DIRECTION('',(0.,1.,0.));
#1119=DIRECTION('',(0.,0.,1.));
#1120=DIRECTION('',(0.,1.,0.));
#1121=DIRECTION('',(0.,0.,1.));
#1122=DIRECTION('',(0.,1.,0.));
#1123=DIRECTION('',(0.,0.,1.));
#1124=DIRECTION('',(0.,1.,0.));
#1125=DIRECTION('',(0.,0.,1.));
#1126=DIRECTION('',(0.,1.,0.));
#1127=DIRECTION('',(0.,0.,1.));
#1128=DIRECTION('',(0.,1.,0.));
#1129=DIRECTION('',(0.,0.,1.));
#1130=DIRECTION('',(0.,1.,0.));
#1131=DIRECTION('',(0.,0.,1.));
#1132=DIRECTION('',(0.,1.,0.));
#1133=DIRECTION('',(0.,0.,1.));
#1134=DIRECTION('',(0.,1.,0.));
#1135=DIRECTION('',(0.,0.,1.));
#1136=DIRECTION('',(0.,1.,0.));
#1137=DIRECTION('',(0.,0.,1.));
#1138=DIRECTION('',(0.,1.,0.));
#1139=DIRECTION('',(0.,0.,1.));
#1140=DIRECTION('',(0.,-1.,0.));
#1141=DIRECTION('',(0.,0.,-1.));
#1142=DIRECTION('',(0.,-1.,0.));
#1143=DIRECTION('',(0.,0.,-1.));
#1144=DIRECTION('',(0.,-1.,0.));
#1145=DIRECTION('',(0.,0.,-1.));
#1146=DIRECTION('',(0.,-1.,0.));
#1147=DIRECTION('',(0.,0.,-1.));
#1148=DIRECTION('',(0.,1.,0.));
#1149=DIRECTION('',(0.,0.,1.));
#1150=DIRECTION('',(0.,1.,0.));
#1151=DIRECTION('',(0.,0.,1.));
#1152=DIRECTION('',(0.,-1.,0.));
#1153=DIRECTION('',(0.,0.,-1.));
#1154=DIRECTION('',(0.,-1.,0.));
#1155=DIRECTION('',(0.,0.,-1.));
#1156=DIRECTION('',(0.,-1.,0.));
#1157=DIRECTION('',(0.,0.,-1.));
#1158=DIRECTION('',(0.,-1.,0.));
#1159=DIRECTION('',(0.,0.,-1.));
#1160=DIRECTION('',(0.,1.,0.));
#1161=DIRECTION('',(0.,0.,1.));
#1162=DIRECTION('',(0.,-1.,0.));
#1163=DIRECTION('',(0.,-1.,0.));
#1164=DIRECTION('',(0.,-1.,0.));
#1165=DIRECTION('',(0.,0.,-1.));
#1166=DIRECTION('',(0.,1.,0.));
#1167=DIRECTION('',(0.,0.,1.));
#1168=DIRECTION('',(0.,1.,0.));
#1169=DIRECTION('',(0.,0.,1.));
#1170=DIRECTION('',(0.,1.,0.));
#1171=DIRECTION('',(0.,0.,1.));
#1172=DIRECTION('',(0.,1.,0.));
#1173=DIRECTION('',(0.,0.,1.));
#1174=DIRECTION('',(0.,1.,0.));
#1175=DIRECTION('',(0.,0.,1.));
#1176=DIRECTION('',(0.,1.,0.));
#1177=DIRECTION('',(0.,0.,1.));
#1178=DIRECTION('',(0.,-1.,0.));
#1179=DIRECTION('',(0.,0.,-1.));
#1180=DIRECTION('',(0.,1.,0.));
#1181=DIRECTION('',(0.,0.,1.));
#1182=DIRECTION('',(0.,-1.,0.));
#1183=DIRECTION('',(0.,0.,-1.));
#1184=DIRECTION('',(0.,-1.,0.));
#1185=DIRECTION('',(0.,0.,-1.));
#1186=DIRECTION('',(0.,-1.,0.));
#1187=DIRECTION('',(0.,0.,-1.));
#1188=DIRECTION('',(0.,-1.,0.));
#1189=DIRECTION('',(0.,0.,-1.));
#1190=DIRECTION('',(0.,-1.,0.));
#1191=DIRECTION('',(0.,0.,-1.));
#1192=DIRECTION('',(0.,-1.,0.));
#1193=DIRECTION('',(0.,0.,-1.));
#1194=DIRECTION('',(0.,-1.,0.));
#1195=DIRECTION('',(0.,0.,-1.));
#1196=DIRECTION('',(0.,1.,0.));
#1197=DIRECTION('',(0.,0.,1.));
#1198=DIRECTION('',(0.,-1.,0.));
#1199=DIRECTION('',(0.,1.,0.));
#1200=DIRECTION('',(0.,0.,1.));
#1201=DIRECTION('',(0.,-1.,0.));
#1202=DIRECTION('',(0.,1.,0.));
#1203=DIRECTION('',(0.,0.,1.));
#1204=DIRECTION('',(0.,1.,0.));
#1205=DIRECTION('',(0.,0.,1.));
#1206=DIRECTION('',(0.,1.,0.));
#1207=DIRECTION('',(0.,0.,1.));
#1208=DIRECTION('',(0.,1.,0.));
#1209=DIRECTION('',(0.,0.,1.));
#1210=DIRECTION('',(0.,1.,0.));
#1211=DIRECTION('',(0.,0.,1.));
#1212=DIRECTION('',(0.,-1.,0.));
#1213=DIRECTION('',(0.,0.,-1.));
#1214=DIRECTION('',(0.,1.,0.));
#1215=DIRECTION('',(0.,0.,1.));
#1216=DIRECTION('',(0.,1.,0.));
#1217=DIRECTION('',(0.,0.,1.));
#1218=DIRECTION('',(0.,1.,0.));
#1219=DIRECTION('',(0.,0.,1.));
#1220=DIRECTION('',(0.,1.,0.));
#1221=DIRECTION('',(0.,0.,1.));
#1222=DIRECTION('',(0.,1.,0.));
#1223=DIRECTION('',(0.,0.,1.));
#1224=DIRECTION('',(0.,1.,0.));
#1225=DIRECTION('',(0.,0.,1.));
#1226=DIRECTION('',(0.,1.,0.));
#1227=DIRECTION('',(0.,0.,1.));
#1228=DIRECTION('',(0.,1.,0.));
#1229=DIRECTION('',(0.,0.,1.));
#1230=DIRECTION('',(0.,-1.,0.));
#1231=DIRECTION('',(0.,0.,-1.));
#1232=DIRECTION('',(0.,-1.,0.));
#1233=DIRECTION('',(0.,0.,-1.));
#1234=DIRECTION('',(0.,-1.,0.));
#1235=DIRECTION('',(0.,0.,-1.));
#1236=DIRECTION('',(0.,-1.,0.));
#1237=DIRECTION('',(0.,0.,-1.));
#1238=DIRECTION('',(0.,-1.,0.));
#1239=DIRECTION('',(0.,0.,-1.));
#1240=DIRECTION('',(0.,-1.,0.));
#1241=DIRECTION('',(0.,0.,-1.));
#1242=DIRECTION('',(0.,-1.,0.));
#1243=DIRECTION('',(0.,0.,-1.));
#1244=DIRECTION('',(0.,-1.,0.));
#1245=DIRECTION('',(0.,0.,-1.));
#1246=DIRECTION('',(0.,1.,0.));
#1247=DIRECTION('',(0.,0.,1.));
#1248=DIRECTION('',(0.,1.,0.));
#1249=DIRECTION('',(0.,0.,1.));
#1250=DIRECTION('',(0.,1.,0.));
#1251=DIRECTION('',(0.,0.,1.));
#1252=DIRECTION('',(0.,1.,0.));
#1253=DIRECTION('',(0.,0.,1.));
#1254=DIRECTION('',(0.,-1.,0.));
#1255=DIRECTION('',(0.,0.,-1.));
#1256=DIRECTION('',(0.,-1.,0.));
#1257=DIRECTION('',(0.,0.,-1.));
#1258=DIRECTION('',(0.,-1.,0.));
#1259=DIRECTION('',(0.,0.,-1.));
#1260=DIRECTION('',(0.,-1.,0.));
#1261=DIRECTION('',(0.,0.,-1.));
#1262=DIRECTION('',(0.,-1.,0.));
#1263=DIRECTION('',(0.,0.,-1.));
#1264=DIRECTION('',(0.,-1.,0.));
#1265=DIRECTION('',(0.,0.,-1.));
#1266=DIRECTION('',(0.,-1.,0.));
#1267=DIRECTION('',(0.,0.,-1.));
#1268=DIRECTION('',(0.,-1.,0.));
#1269=DIRECTION('',(0.,0.,-1.));
#1270=DIRECTION('',(0.,-1.,0.));
#1271=DIRECTION('',(0.,0.,-1.));
#1272=DIRECTION('',(0.,-1.,0.));
#1273=DIRECTION('',(0.,0.,-1.));
#1274=DIRECTION('',(0.,-1.,0.));
#1275=DIRECTION('',(0.,0.,-1.));
#1276=DIRECTION('',(0.,-1.,0.));
#1277=DIRECTION('',(0.,0.,-1.));
#1278=DIRECTION('',(0.,-1.,0.));
#1279=DIRECTION('',(0.,0.,-1.));
#1280=CARTESIAN_POINT('',(0.,0.,0.));
#1281=CARTESIAN_POINT('',(0.091,0.00853279232978823,0.));
#1282=CARTESIAN_POINT('',(0.,0.0085328,0.));
#1283=CARTESIAN_POINT('',(0.,0.0085328,0.0917));
#1284=CARTESIAN_POINT('',(0.,0.00853279232978823,0.));
#1285=CARTESIAN_POINT('',(0.,0.00853279232978823,0.087));
#1286=CARTESIAN_POINT('',(0.,0.0281165651977063,0.));
#1287=CARTESIAN_POINT('',(0.,0.0235327923297883,0.));
#1288=CARTESIAN_POINT('',(0.0622077971279771,0.0235327923297883,-0.0717996516459826));
#1289=CARTESIAN_POINT('',(-0.0622077971279771,0.0235327923297883,-0.0717996516459826));
#1290=CARTESIAN_POINT('',(0.0622077971279771,0.0165327923297882,-0.0717996516459826));
#1291=CARTESIAN_POINT('',(0.0622077971279771,0.00853279232978823,-0.0717996516459826));
#1292=CARTESIAN_POINT('',(0.,0.00853279232978823,0.));
#1293=CARTESIAN_POINT('',(-0.0622077971279771,0.00853279232978823,-0.0717996516459825));
#1294=CARTESIAN_POINT('',(-0.0622077971279771,0.0165327923297882,-0.0717996516459825));
#1295=CARTESIAN_POINT('',(0.,0.0281165651977063,0.));
#1296=CARTESIAN_POINT('',(0.,0.0235327923297883,0.));
#1297=CARTESIAN_POINT('',(-0.0717996516459826,0.0235327923297883,-0.0622077971279771));
#1298=CARTESIAN_POINT('',(-0.0717996516459826,0.0235327923297883,0.0622077971279771));
#1299=CARTESIAN_POINT('',(-0.0717996516459825,0.0165327923297882,-0.0622077971279771));
#1300=CARTESIAN_POINT('',(-0.0717996516459826,0.00853279232978823,-0.0622077971279771));
#1301=CARTESIAN_POINT('',(0.,0.00853279232978823,0.));
#1302=CARTESIAN_POINT('',(-0.0717996516459826,0.00853279232978823,0.0622077971279771));
#1303=CARTESIAN_POINT('',(-0.0717996516459825,0.0165327923297882,0.0622077971279771));
#1304=CARTESIAN_POINT('',(0.,0.0281165651977063,0.));
#1305=CARTESIAN_POINT('',(0.,0.0235327923297883,0.));
#1306=CARTESIAN_POINT('',(-0.0622077971279771,0.0235327923297883,0.0717996516459826));
#1307=CARTESIAN_POINT('',(0.0622077971279771,0.0235327923297883,0.0717996516459826));
#1308=CARTESIAN_POINT('',(-0.0622077971279771,0.0165327923297882,0.0717996516459825));
#1309=CARTESIAN_POINT('',(-0.0622077971279771,0.00853279232978823,0.0717996516459826));
#1310=CARTESIAN_POINT('',(0.,0.00853279232978823,0.));
#1311=CARTESIAN_POINT('',(0.0622077971279771,0.00853279232978823,0.0717996516459826));
#1312=CARTESIAN_POINT('',(0.0622077971279771,0.0165327923297882,0.0717996516459825));
#1313=CARTESIAN_POINT('',(0.,0.0245327925696913,0.));
#1314=CARTESIAN_POINT('',(0.0706294277227668,0.0245327925696913,-0.0620280899234731));
#1315=CARTESIAN_POINT('',(0.0710322347433333,0.024209274475627,-0.0620596992186089));
#1316=CARTESIAN_POINT('',(0.0714217158151369,0.0238754481354903,-0.0621207239155644));
#1317=CARTESIAN_POINT('',(0.0717996516459826,0.0235327923297882,-0.0622077971279771));
#1318=CARTESIAN_POINT('',(0.0706294277227668,0.0245327925696913,-0.0620280899234731));
#1319=CARTESIAN_POINT('',(0.0717996516459826,0.0235327923297883,-0.0622077971279771));
#1320=CARTESIAN_POINT('',(0.,0.0245327925696913,0.));
#1321=CARTESIAN_POINT('',(0.0706294277227668,0.0245327923297882,0.0620280899234731));
#1322=CARTESIAN_POINT('',(0.0717996516459826,0.0235327923297882,0.0622077971279771));
#1323=CARTESIAN_POINT('',(0.0714217158528881,0.0238754481012631,0.062120723924262));
#1324=CARTESIAN_POINT('',(0.0710322348211193,0.0242092744089181,0.0620596992308468));
#1325=CARTESIAN_POINT('',(0.0706294278434736,0.0245327924727445,0.0620280899329453));
#1326=CARTESIAN_POINT('',(0.0717996516459826,0.0235327923297883,0.0622077971279771));
#1327=CARTESIAN_POINT('',(0.,0.0235327923297883,0.));
#1328=CARTESIAN_POINT('',(0.,0.0245327925696913,0.));
#1329=CARTESIAN_POINT('',(0.0622077971279771,0.0235327923297882,-0.0717996516459826));
#1330=CARTESIAN_POINT('',(0.062120723924262,0.0238754481012631,-0.0714217158528881));
#1331=CARTESIAN_POINT('',(0.0620596992308468,0.0242092744089181,-0.0710322348211193));
#1332=CARTESIAN_POINT('',(0.0620280899329453,0.0245327924727445,-0.0706294278434736));
#1333=CARTESIAN_POINT('',(0.0620280899234731,0.0245327923297882,-0.0706294277227668));
#1334=CARTESIAN_POINT('',(-0.0620280899234731,0.0245327925696913,-0.0706294277227668));
#1335=CARTESIAN_POINT('',(-0.0620596992186089,0.024209274475627,-0.0710322347433333));
#1336=CARTESIAN_POINT('',(-0.0621207239155644,0.0238754481354903,-0.0714217158151369));
#1337=CARTESIAN_POINT('',(-0.0622077971279771,0.0235327923297882,-0.0717996516459826));
#1338=CARTESIAN_POINT('',(-0.0620280899234731,0.0245327925696913,-0.0706294277227668));
#1339=CARTESIAN_POINT('',(0.,0.0245327925696913,0.));
#1340=CARTESIAN_POINT('',(0.,0.0245327925696913,0.));
#1341=CARTESIAN_POINT('',(-0.0717996516459826,0.0235327923297882,-0.0622077971279771));
#1342=CARTESIAN_POINT('',(-0.0714217158528881,0.0238754481012631,-0.062120723924262));
#1343=CARTESIAN_POINT('',(-0.0710322348211193,0.0242092744089181,-0.0620596992308468));
#1344=CARTESIAN_POINT('',(-0.0706294278434736,0.0245327924727445,-0.0620280899329453));
#1345=CARTESIAN_POINT('',(-0.0706294277227668,0.0245327923297882,-0.0620280899234731));
#1346=CARTESIAN_POINT('',(-0.0706294277227668,0.0245327925696913,0.0620280899234731));
#1347=CARTESIAN_POINT('',(-0.0710322347433333,0.024209274475627,0.0620596992186089));
#1348=CARTESIAN_POINT('',(-0.0714217158151369,0.0238754481354903,0.0621207239155644));
#1349=CARTESIAN_POINT('',(-0.0717996516459826,0.0235327923297882,0.0622077971279771));
#1350=CARTESIAN_POINT('',(-0.0706294277227668,0.0245327925696913,0.0620280899234731));
#1351=CARTESIAN_POINT('',(0.,0.0245327925696913,0.));
#1352=CARTESIAN_POINT('',(0.,0.0281165651977063,0.));
#1353=CARTESIAN_POINT('',(0.0623607803462035,0.0165327923297882,-0.0676397300010323));
#1354=CARTESIAN_POINT('',(0.0623607803462035,0.0245327925696913,-0.0676397300010324));
#1355=CARTESIAN_POINT('',(0.0623607803462035,0.0231071625696913,-0.0676397300010324));
#1356=CARTESIAN_POINT('',(0.,0.0245327925696913,0.));
#1357=CARTESIAN_POINT('',(-0.0623607803462035,0.0245327925696913,-0.0676397300010324));
#1358=CARTESIAN_POINT('',(-0.0623607803462035,0.0165327923297882,-0.0676397300010323));
#1359=CARTESIAN_POINT('',(-0.0623607803462035,0.0231071625696913,-0.0676397300010324));
#1360=CARTESIAN_POINT('',(0.,0.0231071625696913,0.));
#1361=CARTESIAN_POINT('',(0.,0.0281165651977063,0.));
#1362=CARTESIAN_POINT('',(-0.0676397300010323,0.0165327923297882,-0.0623607803462035));
#1363=CARTESIAN_POINT('',(-0.0676397300010324,0.0245327925696913,-0.0623607803462035));
#1364=CARTESIAN_POINT('',(-0.0676397300010324,0.0231071625696913,-0.0623607803462035));
#1365=CARTESIAN_POINT('',(0.,0.0245327925696913,0.));
#1366=CARTESIAN_POINT('',(-0.0676397300010324,0.0245327925696913,0.0623607803462035));
#1367=CARTESIAN_POINT('',(-0.0676397300010323,0.0165327923297882,0.0623607803462035));
#1368=CARTESIAN_POINT('',(-0.0676397300010324,0.0231071625696913,0.0623607803462035));
#1369=CARTESIAN_POINT('',(0.,0.0231071625696913,0.));
#1370=CARTESIAN_POINT('',(0.,0.0281165651977063,0.));
#1371=CARTESIAN_POINT('',(-0.0623607803462035,0.0165327923297882,0.0676397300010323));
#1372=CARTESIAN_POINT('',(-0.0623607803462035,0.0245327925696913,0.0676397300010324));
#1373=CARTESIAN_POINT('',(-0.0623607803462035,0.0231071625696913,0.0676397300010324));
#1374=CARTESIAN_POINT('',(0.,0.0245327925696913,0.));
#1375=CARTESIAN_POINT('',(0.0623607803462035,0.0245327925696913,0.0676397300010324));
#1376=CARTESIAN_POINT('',(0.0623607803462035,0.0165327923297882,0.0676397300010323));
#1377=CARTESIAN_POINT('',(0.0623607803462035,0.0231071625696913,0.0676397300010324));
#1378=CARTESIAN_POINT('',(0.,0.0231071625696913,0.));
#1379=CARTESIAN_POINT('',(0.,0.0281165651977063,0.));
#1380=CARTESIAN_POINT('',(0.,0.0085327923297882,0.));
#1381=CARTESIAN_POINT('',(0.,0.0085327923297882,0.0115));
#1382=CARTESIAN_POINT('',(0.,0.0275327923297882,0.));
#1383=CARTESIAN_POINT('',(0.,0.0275327923297882,0.0115));
#1384=CARTESIAN_POINT('',(0.01775,0.00853279232978821,0.));
#1385=CARTESIAN_POINT('',(0.,0.00853279232978821,0.));
#1386=CARTESIAN_POINT('',(0.,0.00853279232978821,0.024));
#1387=CARTESIAN_POINT('',(0.,0.0281165651977063,0.));
#1388=CARTESIAN_POINT('',(0.,0.0125327923297882,0.));
#1389=CARTESIAN_POINT('',(0.,0.0125327923297882,0.024));
#1390=CARTESIAN_POINT('',(0.038,0.0125327923297882,0.));
#1391=CARTESIAN_POINT('',(0.,0.0125327923297882,0.));
#1392=CARTESIAN_POINT('',(0.,0.0125327923297882,0.052));
#1393=CARTESIAN_POINT('',(0.,0.0281165651977063,0.));
#1394=CARTESIAN_POINT('',(0.,0.00853279232978821,0.));
#1395=CARTESIAN_POINT('',(0.,0.00853279232978821,0.052));
#1396=CARTESIAN_POINT('',(0.06,0.00853279232978821,0.));
#1397=CARTESIAN_POINT('',(0.06,0.00853279232978821,3.06161699786838E-19));
#1398=CARTESIAN_POINT('',(0.06,0.00853279232978821,-0.005));
#1399=CARTESIAN_POINT('',(3.46944695195361E-18,0.00853279232978821,0.06));
#1400=CARTESIAN_POINT('',(3.46944695195361E-18,0.00853279232978821,0.055));
#1401=CARTESIAN_POINT('',(-0.06,0.00853279232978821,7.65404249467096E-18));
#1402=CARTESIAN_POINT('',(-0.06,0.00853279232978821,-0.00499999999999999));
#1403=CARTESIAN_POINT('',(-1.12757025938492E-17,0.00853279232978821,-0.06));
#1404=CARTESIAN_POINT('',(-1.12757025938492E-17,0.00853279232978821,-0.065));
#1405=CARTESIAN_POINT('',(0.,0.00853279232978821,0.));
#1406=CARTESIAN_POINT('',(0.,0.00853279232978821,0.068));
#1407=CARTESIAN_POINT('',(0.,0.0281165651977063,0.));
#1408=CARTESIAN_POINT('',(0.,0.0125327923297882,0.));
#1409=CARTESIAN_POINT('',(0.,0.0125327923297882,0.068));
#1410=CARTESIAN_POINT('',(0.0775,0.0125327923297882,0.));
#1411=CARTESIAN_POINT('',(0.0565685424949238,0.0125327923297882,-0.0565685424949238));
#1412=CARTESIAN_POINT('',(0.0565685424949238,0.0125327923297882,-0.0515685424949238));
#1413=CARTESIAN_POINT('',(-0.0565685424949238,0.0125327923297882,-0.0565685424949238));
#1414=CARTESIAN_POINT('',(-0.0565685424949238,0.0125327923297882,-0.0515685424949238));
#1415=CARTESIAN_POINT('',(-0.0565685424949238,0.0125327923297882,0.0565685424949238));
#1416=CARTESIAN_POINT('',(-0.0565685424949238,0.0125327923297882,0.0615685424949238));
#1417=CARTESIAN_POINT('',(0.0565685424949238,0.0125327923297882,0.0565685424949238));
#1418=CARTESIAN_POINT('',(0.0565685424949238,0.0125327923297882,0.0615685424949238));
#1419=CARTESIAN_POINT('',(0.,0.0125327923297882,0.));
#1420=CARTESIAN_POINT('',(0.,0.0125327923297882,0.087));
#1421=CARTESIAN_POINT('',(0.,0.0281165651977063,0.));
#1422=CARTESIAN_POINT('',(0.091,0.00853279232978823,0.));
#1423=CARTESIAN_POINT('',(0.0700035713374682,0.00853279232978821,-0.0700035713374682));
#1424=CARTESIAN_POINT('',(0.0700035713374682,0.00853279232978821,-0.0732535713374682));
#1425=CARTESIAN_POINT('',(-0.0700035713374682,0.00853279232978821,-0.0700035713374682));
#1426=CARTESIAN_POINT('',(-0.0700035713374682,0.00853279232978821,-0.0732535713374682));
#1427=CARTESIAN_POINT('',(-0.0700035713374682,0.00853279232978821,0.0700035713374682));
#1428=CARTESIAN_POINT('',(-0.0700035713374682,0.00853279232978821,0.0667535713374682));
#1429=CARTESIAN_POINT('',(0.0700035713374682,0.00853279232978821,0.0700035713374682));
#1430=CARTESIAN_POINT('',(0.0700035713374682,0.00853279232978821,0.0667535713374682));
#1431=CARTESIAN_POINT('',(0.,0.0085328,0.));
#1432=CARTESIAN_POINT('',(0.,0.0085328,0.0938));
#1433=CARTESIAN_POINT('',(0.,0.00853279232978823,0.));
#1434=CARTESIAN_POINT('',(0.0717996516459826,0.00853279232978823,0.0622077971279771));
#1435=CARTESIAN_POINT('',(0.0717996516459826,0.00853279232978823,-0.0622077971279771));
#1436=CARTESIAN_POINT('',(0.0700035713374682,0.00853279232978821,0.0700035713374682));
#1437=CARTESIAN_POINT('',(-0.0700035713374682,0.00853279232978821,0.0700035713374682));
#1438=CARTESIAN_POINT('',(-0.0700035713374682,0.00853279232978821,-0.0700035713374682));
#1439=CARTESIAN_POINT('',(0.0700035713374682,0.00853279232978821,-0.0700035713374682));
#1440=CARTESIAN_POINT('',(0.,0.0281165651977063,0.));
#1441=CARTESIAN_POINT('',(0.0717996516459825,0.0165327923297882,-0.0622077971279771));
#1442=CARTESIAN_POINT('',(0.0717996516459825,0.0165327923297882,0.0622077971279771));
#1443=CARTESIAN_POINT('',(0.,0.0245327925696913,0.));
#1444=CARTESIAN_POINT('',(-0.0622077971279771,0.0235327923297882,0.0717996516459826));
#1445=CARTESIAN_POINT('',(-0.062120723924262,0.0238754481012631,0.0714217158528881));
#1446=CARTESIAN_POINT('',(-0.0620596992308468,0.0242092744089181,0.0710322348211193));
#1447=CARTESIAN_POINT('',(-0.0620280899329453,0.0245327924727445,0.0706294278434736));
#1448=CARTESIAN_POINT('',(-0.0620280899234731,0.0245327923297882,0.0706294277227668));
#1449=CARTESIAN_POINT('',(0.0620280899234731,0.0245327925696913,0.0706294277227668));
#1450=CARTESIAN_POINT('',(0.0620596992186089,0.024209274475627,0.0710322347433333));
#1451=CARTESIAN_POINT('',(0.0621207239155644,0.0238754481354903,0.0714217158151369));
#1452=CARTESIAN_POINT('',(0.0622077971279771,0.0235327923297882,0.0717996516459826));
#1453=CARTESIAN_POINT('',(0.0620280899234731,0.0245327925696913,0.0706294277227668));
#1454=CARTESIAN_POINT('',(0.,0.0245327925696913,0.));
#1455=CARTESIAN_POINT('',(0.093,0.0245327925696913,0.));
#1456=CARTESIAN_POINT('',(0.0700035713374682,0.0245327925696913,-0.0700035713374682));
#1457=CARTESIAN_POINT('',(0.0700035713374682,0.0245327925696913,-0.0667535713374682));
#1458=CARTESIAN_POINT('',(-0.0700035713374682,0.0245327925696913,-0.0700035713374682));
#1459=CARTESIAN_POINT('',(-0.0700035713374682,0.0245327925696913,-0.0667535713374682));
#1460=CARTESIAN_POINT('',(-0.0700035713374682,0.0245327925696913,0.0700035713374682));
#1461=CARTESIAN_POINT('',(-0.0700035713374682,0.0245327925696913,0.0732535713374682));
#1462=CARTESIAN_POINT('',(0.0700035713374682,0.0245327925696913,0.0700035713374682));
#1463=CARTESIAN_POINT('',(0.0700035713374682,0.0245327925696913,0.0732535713374682));
#1464=CARTESIAN_POINT('',(0.0700035713374682,0.0245327923297882,-0.0700035713374682));
#1465=CARTESIAN_POINT('',(0.0676397300010324,0.0245327925696913,-0.0623607803462035));
#1466=CARTESIAN_POINT('',(0.,0.0245327925696913,0.));
#1467=CARTESIAN_POINT('',(0.0676397300010324,0.0245327925696913,0.0623607803462035));
#1468=CARTESIAN_POINT('',(0.0700035713374682,0.0245327923297882,0.0700035713374682));
#1469=CARTESIAN_POINT('',(-0.0700035713374682,0.0245327923297882,0.0700035713374682));
#1470=CARTESIAN_POINT('',(-0.0700035713374682,0.0245327923297882,-0.0700035713374682));
#1471=CARTESIAN_POINT('',(0.0700035713374682,0.0245327923297882,-0.0700035713374682));
#1472=CARTESIAN_POINT('',(-0.0700035713374682,0.0245327923297882,-0.0700035713374682));
#1473=CARTESIAN_POINT('',(-0.0700035713374682,0.0245327923297882,0.0700035713374682));
#1474=CARTESIAN_POINT('',(0.0700035713374682,0.0245327923297882,0.0700035713374682));
#1475=CARTESIAN_POINT('',(0.,0.0281165651977063,0.));
#1476=CARTESIAN_POINT('',(0.0676397300010323,0.0165327923297882,-0.0623607803462035));
#1477=CARTESIAN_POINT('',(0.0676397300010324,0.0231071625696913,-0.0623607803462035));
#1478=CARTESIAN_POINT('',(0.,0.0231071625696913,0.));
#1479=CARTESIAN_POINT('',(0.0676397300010324,0.0231071625696913,0.0623607803462035));
#1480=CARTESIAN_POINT('',(0.0676397300010323,0.0165327923297882,0.0623607803462035));
#1481=CARTESIAN_POINT('',(0.,0.0145327923297882,0.));
#1482=CARTESIAN_POINT('',(0.0558558404564777,0.0207789189087416,-0.0618271706538572));
#1483=CARTESIAN_POINT('',(0.0526532831309725,0.0199390608609653,-0.0604610288606788));
#1484=CARTESIAN_POINT('',(0.0513125429952774,0.0190579540988061,-0.0572732378585664));
#1485=CARTESIAN_POINT('',(0.0518128390083814,0.0186298032058047,-0.0546372051609603));
#1486=CARTESIAN_POINT('',(0.0529354352538037,0.01851328694895,-0.052939307640557));
#1487=CARTESIAN_POINT('',(0.0546332389226875,0.0186292077865912,-0.0518138533366845));
#1488=CARTESIAN_POINT('',(0.0572773916321096,0.0190585308464251,-0.0513111986324112));
#1489=CARTESIAN_POINT('',(0.0604653253151675,0.0199412060811601,-0.0526604823447179));
#1490=CARTESIAN_POINT('',(0.0618250341373894,0.0207775353959916,-0.0558504442853266));
#1491=CARTESIAN_POINT('',(0.0613267672783608,0.0211626239151295,-0.0584943724670527));
#1492=CARTESIAN_POINT('',(0.0602053532350985,0.0212657028715617,-0.0601948319445232));
#1493=CARTESIAN_POINT('',(0.0585030634426713,0.0211636678959714,-0.0613239390400063));
#1494=CARTESIAN_POINT('',(0.0558558404564777,0.0207789189087416,-0.0618271706538572));
#1495=CARTESIAN_POINT('',(0.0526532831309725,0.0199390608609653,-0.0604610288606788));
#1496=CARTESIAN_POINT('',(0.0513125429952774,0.0190579540988061,-0.0572732378585664));
#1497=CARTESIAN_POINT('',(0.0530256465689351,0.0199308111180886,-0.0600966990188911));
#1498=CARTESIAN_POINT('',(-0.0584932997632782,0.0211626418493024,-0.061327942710235));
#1499=CARTESIAN_POINT('',(-0.0602014829672576,0.0212658426286699,-0.0601994874523592));
#1500=CARTESIAN_POINT('',(-0.0613252267729131,0.0211630969719688,-0.05849856588555));
#1501=CARTESIAN_POINT('',(-0.0618260702018357,0.0207780372289872,-0.0558521370990056));
#1502=CARTESIAN_POINT('',(-0.0604640419344358,0.0199407458255076,-0.0526593491496186));
#1503=CARTESIAN_POINT('',(-0.0572798879287678,0.0190592897366399,-0.0513125884174139));
#1504=CARTESIAN_POINT('',(-0.0546390585055446,0.0186299409345556,-0.0518116621740292));
#1505=CARTESIAN_POINT('',(-0.0529393389451597,0.0185132375142256,-0.0529351578850832));
#1506=CARTESIAN_POINT('',(-0.0518143012678032,0.0186292683257324,-0.0546331013552977));
#1507=CARTESIAN_POINT('',(-0.0513112741076684,0.0190574787476202,-0.0572720297216356));
#1508=CARTESIAN_POINT('',(-0.0526571817784708,0.0199404440420331,-0.060464495251182));
#1509=CARTESIAN_POINT('',(-0.0558518872071688,0.0207776980599697,-0.0618244780853184));
#1510=CARTESIAN_POINT('',(-0.0584932997632782,0.0211626418493024,-0.061327942710235));
#1511=CARTESIAN_POINT('',(-0.0602014829672576,0.0212658426286699,-0.0601994874523592));
#1512=CARTESIAN_POINT('',(-0.0613252267729131,0.0211630969719688,-0.05849856588555));
#1513=CARTESIAN_POINT('',(-0.0601040764008588,0.0212315182226734,-0.0601040764008543));
#1514=CARTESIAN_POINT('',(-0.0572672095166776,0.0190563416707827,0.0513104221437833));
#1515=CARTESIAN_POINT('',(-0.0604606702959291,0.0199396155697374,0.0526558819737547));
#1516=CARTESIAN_POINT('',(-0.0621089955688085,0.0209467175385909,0.0564890213407998));
#1517=CARTESIAN_POINT('',(-0.0605130713606564,0.0213732058142639,0.0604962036189217));
#1518=CARTESIAN_POINT('',(-0.0565011416051099,0.0209495564028818,0.0621125903126726));
#1519=CARTESIAN_POINT('',(-0.0526615568082382,0.0199412553562196,0.0604637925528365));
#1520=CARTESIAN_POINT('',(-0.0513145536412779,0.019060977269309,0.0572866043848994));
#1521=CARTESIAN_POINT('',(-0.0518078950442208,0.018631294106989,0.0546495053763487));
#1522=CARTESIAN_POINT('',(-0.0529263755279468,0.0185130989963951,0.0529474452466236));
#1523=CARTESIAN_POINT('',(-0.0546275810397943,0.0186284988146256,0.0518159924777554));
#1524=CARTESIAN_POINT('',(-0.0572672095166776,0.0190563416707827,0.0513104221437833));
#1525=CARTESIAN_POINT('',(-0.0604606702959291,0.0199396155697374,0.0526558819737547));
#1526=CARTESIAN_POINT('',(-0.0621089955688085,0.0209467175385909,0.0564890213407998));
#1527=CARTESIAN_POINT('',(-0.0600966990188914,0.0199308111180887,0.0530256465689354));
#1528=CARTESIAN_POINT('',(0.0546438379534889,0.0186304625680364,0.0518094718143747));
#1529=CARTESIAN_POINT('',(0.0529355414608093,0.0185129357034078,0.0529374618531128));
#1530=CARTESIAN_POINT('',(0.0518120477372205,0.0186299524085056,0.0546387323071207));
#1531=CARTESIAN_POINT('',(0.0513124421406154,0.0190588790103565,0.0572779667727905));
#1532=CARTESIAN_POINT('',(0.0526585679960375,0.019940413725492,0.0604630697520236));
#1533=CARTESIAN_POINT('',(0.0558497160163858,0.0207775842206296,0.0618259833185658));
#1534=CARTESIAN_POINT('',(0.058498635046428,0.021163164951487,0.0613255350533184));
#1535=CARTESIAN_POINT('',(0.0601979981369122,0.0212655733271761,0.0602014616675455));
#1536=CARTESIAN_POINT('',(0.0613231263313512,0.0211636501130975,0.0585037757624434));
#1537=CARTESIAN_POINT('',(0.0618272042554072,0.0207792835383879,0.0558578517332547));
#1538=CARTESIAN_POINT('',(0.0604650119719378,0.0199405961047771,0.0526574690759681));
#1539=CARTESIAN_POINT('',(0.0572773495539772,0.0190590614291605,0.0513140161316457));
#1540=CARTESIAN_POINT('',(0.0546438379534889,0.0186304625680364,0.0518094718143747));
#1541=CARTESIAN_POINT('',(0.0529355414608093,0.0185129357034078,0.0529374618531128));
#1542=CARTESIAN_POINT('',(0.0518120477372205,0.0186299524085056,0.0546387323071207));
#1543=CARTESIAN_POINT('',(0.0530330085889911,0.0185520262983622,0.0530330085889911));
#1544=CARTESIAN_POINT('',(0.0597916812884436,0.0145327923297882,0.0049956584465329));
#1545=CARTESIAN_POINT('',(0.0604568219069829,0.0147110161779464,0.00502339477761736));
#1546=CARTESIAN_POINT('',(0.0617795526384722,0.0150593361627066,0.00481414444205335));
#1547=CARTESIAN_POINT('',(0.0635188902757695,0.0155036537073699,0.0037429998855951));
#1548=CARTESIAN_POINT('',(0.0647122155635335,0.0158015581083418,0.00205384148388251));
#1549=CARTESIAN_POINT('',(0.0651422699329648,0.0159076291895302,8.19860198644354E-6));
#1550=CARTESIAN_POINT('',(0.0647186708600625,0.0158031230068104,-0.00204157291868225));
#1551=CARTESIAN_POINT('',(0.063122885394503,0.0154050260126755,-0.00430898259328761));
#1552=CARTESIAN_POINT('',(0.061122135722073,0.0148892864339693,-0.00505113833098947));
#1553=CARTESIAN_POINT('',(0.0597916812884436,0.0145327923297882,-0.0049956584465329));
#1554=CARTESIAN_POINT('',(0.0597916812884436,0.0145327923297882,0.0049956584465329));
#1555=CARTESIAN_POINT('',(0.0597916812884436,0.0145327923297882,-0.0049956584465329));
#1556=CARTESIAN_POINT('',(0.,0.0145327923297882,0.));
#1557=CARTESIAN_POINT('',(0.0049956584465329,0.0145327923297882,0.0597916812884436));
#1558=CARTESIAN_POINT('',(-0.00499565844653289,0.0145327923297882,0.0597916812884436));
#1559=CARTESIAN_POINT('',(-0.00502339477761736,0.0147110161779464,0.0604568219069829));
#1560=CARTESIAN_POINT('',(-0.00481414444205335,0.0150593361627066,0.0617795526384722));
#1561=CARTESIAN_POINT('',(-0.00374299988559509,0.0155036537073699,0.0635188902757695));
#1562=CARTESIAN_POINT('',(-0.00205384148388252,0.0158015581083418,0.0647122155635335));
#1563=CARTESIAN_POINT('',(-8.19860198643622E-6,0.0159076291895302,0.0651422699329648));
#1564=CARTESIAN_POINT('',(0.00204157291868225,0.0158031230068104,0.0647186708600625));
#1565=CARTESIAN_POINT('',(0.00430898259328761,0.0154050260126755,0.063122885394503));
#1566=CARTESIAN_POINT('',(0.00505113833098948,0.0148892864339693,0.061122135722073));
#1567=CARTESIAN_POINT('',(0.0049956584465329,0.0145327923297882,0.0597916812884436));
#1568=CARTESIAN_POINT('',(-0.0049956584465329,0.0145327923297882,0.0597916812884436));
#1569=CARTESIAN_POINT('',(0.,0.0145327923297882,0.));
#1570=CARTESIAN_POINT('',(-0.0597916812884436,0.0145327923297882,0.00499565844653291));
#1571=CARTESIAN_POINT('',(-0.0597916812884436,0.0145327923297882,-0.00499565844653289));
#1572=CARTESIAN_POINT('',(-0.0604568219069829,0.0147110161779464,-0.00502339477761735));
#1573=CARTESIAN_POINT('',(-0.0617795526384722,0.0150593361627066,-0.00481414444205334));
#1574=CARTESIAN_POINT('',(-0.0635188902757695,0.0155036537073699,-0.00374299988559509));
#1575=CARTESIAN_POINT('',(-0.0647122155635335,0.0158015581083418,-0.00205384148388252));
#1576=CARTESIAN_POINT('',(-0.0651422699329648,0.0159076291895302,-8.1986019864309E-6));
#1577=CARTESIAN_POINT('',(-0.0647186708600625,0.0158031230068104,0.00204157291868225));
#1578=CARTESIAN_POINT('',(-0.063122885394503,0.0154050260126755,0.00430898259328762));
#1579=CARTESIAN_POINT('',(-0.061122135722073,0.0148892864339693,0.00505113833098948));
#1580=CARTESIAN_POINT('',(-0.0597916812884436,0.0145327923297882,0.00499565844653291));
#1581=CARTESIAN_POINT('',(-0.0597916812884436,0.0145327923297882,-0.00499565844653289));
#1582=CARTESIAN_POINT('',(0.,0.0145327923297882,0.));
#1583=CARTESIAN_POINT('',(-0.00499565844653291,0.0145327923297882,-0.0597916812884436));
#1584=CARTESIAN_POINT('',(0.00499565844653289,0.0145327923297882,-0.0597916812884436));
#1585=CARTESIAN_POINT('',(0.00502339477761735,0.0147110161779464,-0.0604568219069829));
#1586=CARTESIAN_POINT('',(0.00481414444205334,0.0150593361627066,-0.0617795526384722));
#1587=CARTESIAN_POINT('',(0.00374299988559509,0.0155036537073699,-0.0635188902757694));
#1588=CARTESIAN_POINT('',(0.00205384148388251,0.0158015581083418,-0.0647122155635335));
#1589=CARTESIAN_POINT('',(8.19860198642933E-6,0.0159076291895302,-0.0651422699329648));
#1590=CARTESIAN_POINT('',(-0.00204157291868226,0.0158031230068104,-0.0647186708600625));
#1591=CARTESIAN_POINT('',(-0.00430898259328762,0.0154050260126755,-0.063122885394503));
#1592=CARTESIAN_POINT('',(-0.00505113833098948,0.0148892864339693,-0.061122135722073));
#1593=CARTESIAN_POINT('',(-0.00499565844653291,0.0145327923297882,-0.0597916812884436));
#1594=CARTESIAN_POINT('',(0.00499565844653289,0.0145327923297882,-0.0597916812884436));
#1595=CARTESIAN_POINT('',(0.,0.0145327923297882,0.));
#1596=CARTESIAN_POINT('',(0.0623607803462035,0.0231071625696913,-0.0676397300010324));
#1597=CARTESIAN_POINT('',(0.062744573964969,0.0229324147488208,-0.0663988453583986));
#1598=CARTESIAN_POINT('',(0.0641212020964838,0.0227460129674243,-0.0641222516487811));
#1599=CARTESIAN_POINT('',(0.0663988317724482,0.0229324128355767,-0.062744578166972));
#1600=CARTESIAN_POINT('',(0.0676397300010324,0.0231071625696913,-0.0623607803462035));
#1601=CARTESIAN_POINT('',(-0.0676397300010324,0.0231071625696913,-0.0623607803462035));
#1602=CARTESIAN_POINT('',(-0.0663988453583986,0.0229324147488208,-0.062744573964969));
#1603=CARTESIAN_POINT('',(-0.0641222516487811,0.0227460129674243,-0.0641212020964838));
#1604=CARTESIAN_POINT('',(-0.0627445781669721,0.0229324128355767,-0.0663988317724482));
#1605=CARTESIAN_POINT('',(-0.0623607803462035,0.0231071625696913,-0.0676397300010324));
#1606=CARTESIAN_POINT('',(-0.0623607803462035,0.0231071625696913,0.0676397300010324));
#1607=CARTESIAN_POINT('',(-0.062744573964969,0.0229324147488208,0.0663988453583986));
#1608=CARTESIAN_POINT('',(-0.0641212020964838,0.0227460129674243,0.0641222516487811));
#1609=CARTESIAN_POINT('',(-0.0663988317724482,0.0229324128355767,0.062744578166972));
#1610=CARTESIAN_POINT('',(-0.0676397300010324,0.0231071625696913,0.0623607803462035));
#1611=CARTESIAN_POINT('',(0.0676397300010324,0.0231071625696913,0.0623607803462035));
#1612=CARTESIAN_POINT('',(0.0663988453583986,0.0229324147488208,0.062744573964969));
#1613=CARTESIAN_POINT('',(0.0641222516487811,0.0227460129674243,0.0641212020964838));
#1614=CARTESIAN_POINT('',(0.062744578166972,0.0229324128355767,0.0663988317724482));
#1615=CARTESIAN_POINT('',(0.0623607803462035,0.0231071625696913,0.0676397300010324));
#1616=CARTESIAN_POINT('',(0.,0.0257866623297882,0.));
#1617=CARTESIAN_POINT('',(0.0597916812884436,0.0145327923297882,-0.0049956584465329));
#1618=CARTESIAN_POINT('',(0.0585275300131322,0.0148715205605719,-0.00494294340051769));
#1619=CARTESIAN_POINT('',(0.0566982246731303,0.0153805093035285,-0.00412865105960633));
#1620=CARTESIAN_POINT('',(0.0552571072972104,0.0157971512847425,-0.00194618055501614));
#1621=CARTESIAN_POINT('',(0.0548716041032062,0.0159102009578621,-1.94834275314344E-6));
#1622=CARTESIAN_POINT('',(0.0552564778231403,0.0157972976946695,0.00194438275718802));
#1623=CARTESIAN_POINT('',(0.0563350780843906,0.0154856467756508,0.00358096323086495));
#1624=CARTESIAN_POINT('',(0.0579296949266895,0.0150371761103829,0.0046814220086321));
#1625=CARTESIAN_POINT('',(0.0591595405665454,0.014702173884446,0.00496929820951558));
#1626=CARTESIAN_POINT('',(0.0597916812884436,0.0145327923297882,0.0049956584465329));
#1627=CARTESIAN_POINT('',(-0.00499565844653291,0.0145327923297882,-0.0597916812884436));
#1628=CARTESIAN_POINT('',(-0.0049429434005177,0.0148715205605719,-0.0585275300131322));
#1629=CARTESIAN_POINT('',(-0.00412865105960634,0.0153805093035285,-0.0566982246731303));
#1630=CARTESIAN_POINT('',(-0.00194618055501616,0.0157971512847425,-0.0552571072972104));
#1631=CARTESIAN_POINT('',(-1.94834275315797E-6,0.0159102009578621,-0.0548716041032062));
#1632=CARTESIAN_POINT('',(0.001944382757188,0.0157972976946695,-0.0552564778231403));
#1633=CARTESIAN_POINT('',(0.00358096323086493,0.0154856467756508,-0.0563350780843906));
#1634=CARTESIAN_POINT('',(0.00468142200863209,0.0150371761103829,-0.0579296949266894));
#1635=CARTESIAN_POINT('',(0.00496929820951557,0.014702173884446,-0.0591595405665454));
#1636=CARTESIAN_POINT('',(0.00499565844653289,0.0145327923297882,-0.0597916812884436));
#1637=CARTESIAN_POINT('',(-0.0597916812884436,0.0145327923297882,0.00499565844653291));
#1638=CARTESIAN_POINT('',(-0.0585275300131322,0.0148715205605719,0.0049429434005177));
#1639=CARTESIAN_POINT('',(-0.0566982246731303,0.0153805093035285,0.00412865105960633));
#1640=CARTESIAN_POINT('',(-0.0552571072972104,0.0157971512847425,0.00194618055501615));
#1641=CARTESIAN_POINT('',(-0.0548716041032062,0.0159102009578621,1.94834275315275E-6));
#1642=CARTESIAN_POINT('',(-0.0552564778231403,0.0157972976946695,-0.00194438275718801));
#1643=CARTESIAN_POINT('',(-0.0563350780843906,0.0154856467756508,-0.00358096323086494));
#1644=CARTESIAN_POINT('',(-0.0579296949266895,0.0150371761103829,-0.00468142200863209));
#1645=CARTESIAN_POINT('',(-0.0591595405665454,0.014702173884446,-0.00496929820951558));
#1646=CARTESIAN_POINT('',(-0.0597916812884436,0.0145327923297882,-0.00499565844653289));
#1647=CARTESIAN_POINT('',(0.0049956584465329,0.0145327923297882,0.0597916812884436));
#1648=CARTESIAN_POINT('',(0.00494294340051769,0.0148715205605719,0.0585275300131322));
#1649=CARTESIAN_POINT('',(0.00412865105960633,0.0153805093035285,0.0566982246731303));
#1650=CARTESIAN_POINT('',(0.00194618055501615,0.0157971512847425,0.0552571072972104));
#1651=CARTESIAN_POINT('',(1.94834275314944E-6,0.0159102009578621,0.0548716041032062));
#1652=CARTESIAN_POINT('',(-0.00194438275718802,0.0157972976946695,0.0552564778231403));
#1653=CARTESIAN_POINT('',(-0.00358096323086492,0.0154856467756508,0.0563350780843905));
#1654=CARTESIAN_POINT('',(-0.0046814220086321,0.0150371761103829,0.0579296949266895));
#1655=CARTESIAN_POINT('',(-0.00496929820951558,0.014702173884446,0.0591595405665454));
#1656=CARTESIAN_POINT('',(-0.00499565844653289,0.0145327923297882,0.0597916812884436));
#1657=CARTESIAN_POINT('',(0.,0.0257866623297882,0.));
#1658=CARTESIAN_POINT('',(0.,0.0257866623297882,0.018));
#1659=CARTESIAN_POINT('',(0.,0.0281165651977063,0.));
#1660=CARTESIAN_POINT('',(0.,0.0265327923297882,0.));
#1661=CARTESIAN_POINT('',(0.,0.0265327923297882,0.018));
#1662=CARTESIAN_POINT('',(0.01625,0.0265327923297882,0.));
#1663=CARTESIAN_POINT('',(0.,0.0265327923297882,0.));
#1664=CARTESIAN_POINT('',(0.,0.0265327923297882,0.0145));
#1665=CARTESIAN_POINT('',(0.,0.0281165651977063,0.));
#1666=CARTESIAN_POINT('',(0.,0.0275327923297882,0.));
#1667=CARTESIAN_POINT('',(0.,0.0275327923297882,0.0145));
#1668=CARTESIAN_POINT('',(0.013,0.0275327923297882,0.));
#1669=CARTESIAN_POINT('',(0.0700035713374682,0.0245327923297882,0.0700035713374682));
#1670=CARTESIAN_POINT('',(-0.0700035713374682,0.0245327923297882,0.0700035713374682));
#1671=CARTESIAN_POINT('',(-0.0700035713374682,0.0245327923297882,-0.0700035713374682));
#1672=CARTESIAN_POINT('',(0.0700035713374682,0.0245327923297882,-0.0700035713374682));
#1673=CARTESIAN_POINT('',(0.0700035713374682,0.0245327923297882,0.0700035713374682));
#1674=CARTESIAN_POINT('',(-0.0700035713374682,0.0245327923297882,0.0700035713374682));
#1675=CARTESIAN_POINT('',(-0.0700035713374682,0.0245327923297882,-0.0700035713374682));
#1676=CARTESIAN_POINT('',(0.0700035713374682,0.0245327923297882,-0.0700035713374682));
#1677=CARTESIAN_POINT('',(0.,0.0281165651977063,0.));
#1678=CARTESIAN_POINT('',(0.,0.0110328,0.));
#1679=CARTESIAN_POINT('',(0.,0.0110328,0.0917));
#1680=CARTESIAN_POINT('',(0.,0.0281165651977063,0.));
#1681=CARTESIAN_POINT('',(0.,0.0110328,0.));
#1682=CARTESIAN_POINT('',(0.,0.0110328,0.0938));
#1683=CARTESIAN_POINT('',(0.09275,0.0110328,0.));
#1684=CARTESIAN_POINT('',(0.0700035713374682,0.277914283026187,0.0700035713374682));
#1685=CARTESIAN_POINT('',(-0.0700035713374682,0.277914283026187,0.0700035713374682));
#1686=CARTESIAN_POINT('',(-0.0700035713374682,0.277914283026187,-0.0700035713374682));
#1687=CARTESIAN_POINT('',(0.0700035713374682,0.277914283026187,-0.0700035713374682));
#1688=CARTESIAN_POINT('',(-1.12757025938492E-17,0.277914283026187,-0.06));
#1689=CARTESIAN_POINT('',(-0.06,0.277914283026187,7.65404249467096E-18));
#1690=CARTESIAN_POINT('',(3.46944695195361E-18,0.277914283026187,0.06));
#1691=CARTESIAN_POINT('',(0.06,0.277914283026187,3.06161699786838E-19));
#1692=CARTESIAN_POINT('',(0.0565685424949238,0.277914283026187,0.0565685424949238));
#1693=CARTESIAN_POINT('',(-0.0565685424949238,0.277914283026187,0.0565685424949238));
#1694=CARTESIAN_POINT('',(-0.0565685424949238,0.277914283026187,-0.0565685424949238));
#1695=CARTESIAN_POINT('',(0.0565685424949238,0.277914283026187,-0.0565685424949238));
#1696=MECHANICAL_DESIGN_GEOMETRIC_PRESENTATION_REPRESENTATION('',(#881),
#1697);
#1697=(
GEOMETRIC_REPRESENTATION_CONTEXT(3)
GLOBAL_UNCERTAINTY_ASSIGNED_CONTEXT((#1698))
GLOBAL_UNIT_ASSIGNED_CONTEXT((#1701,#1700,#1699))
REPRESENTATION_CONTEXT('Part 1','TOP_LEVEL_ASSEMBLY_PART')
);
#1698=UNCERTAINTY_MEASURE_WITH_UNIT(LENGTH_MEASURE(2.E-5),#1701,
'DISTANCE_ACCURACY_VALUE','Maximum Tolerance applied to model');
#1699=(
NAMED_UNIT(*)
SI_UNIT($,.STERADIAN.)
SOLID_ANGLE_UNIT()
);
#1700=(
NAMED_UNIT(*)
PLANE_ANGLE_UNIT()
SI_UNIT($,.RADIAN.)
);
#1701=(
LENGTH_UNIT()
NAMED_UNIT(*)
SI_UNIT($,.METRE.)
);
#1702=PRODUCT_DEFINITION_SHAPE('','',#1703);
#1703=PRODUCT_DEFINITION('','',#1705,#1704);
#1704=PRODUCT_DEFINITION_CONTEXT('',#1711,'design');
#1705=PRODUCT_DEFINITION_FORMATION_WITH_SPECIFIED_SOURCE('','',#1707,
 .NOT_KNOWN.);
#1706=PRODUCT_RELATED_PRODUCT_CATEGORY('','',(#1707));
#1707=PRODUCT('Part 1','Part 1','Part 1',(#1709));
#1708=PRODUCT_CATEGORY('','');
#1709=PRODUCT_CONTEXT('',#1711,'mechanical');
#1710=APPLICATION_PROTOCOL_DEFINITION('international standard',
'automotive_design',2010,#1711);
#1711=APPLICATION_CONTEXT(
'core data for automotive mechanical design processes');
ENDSEC;
END-ISO-10303-21;
