ISO-10303-21;
HEADER;
/* Generated by software containing ST-Developer
 * from STEP Tools, Inc. (www.steptools.com) 
 */
/* OPTION: using custom renumber hook */

FILE_DESCRIPTION(
/* description */ ('STEP AP214',
'CAx-IF Rec.Pracs.---User Defined Attributes---1.5---2016-08-15'),
/* implementation_level */ '2;1');

FILE_NAME(
/* name */ '6aa1df8ba9afc4404b11f243',
/* time_stamp */ '2026-09-09T22:37:00Z',
/* author */ (''),
/* organization */ (''),
/* preprocessor_version */ 'ST-DEVELOPER v20',
/* originating_system */ 'ONSHAPE BY PTC INC, 1.220',
/* authorisation */ '  ');

FILE_SCHEMA (('AUTOMOTIVE_DESIGN {1 0 10303 214 3 1 1}'));
ENDSEC;

DATA;
#10=PROPERTY_DEFINITION_REPRESENTATION(#14,#12);
#11=PROPERTY_DEFINITION_REPRESENTATION(#15,#13);
#12=REPRESENTATION('',(#16),#1360);
#13=REPRESENTATION('',(#17),#1360);
#14=PROPERTY_DEFINITION('pmi validation property','',#1365);
#15=PROPERTY_DEFINITION('pmi validation property','',#1365);
#16=VALUE_REPRESENTATION_ITEM('number of annotations',COUNT_MEASURE(0.));
#17=VALUE_REPRESENTATION_ITEM('number of views',COUNT_MEASURE(0.));
#18=SHAPE_REPRESENTATION_RELATIONSHIP('','',#796,#19);
#19=ADVANCED_BREP_SHAPE_REPRESENTATION('',(#794),#1360);
#20=PLANE('',#816);
#21=PLANE('',#821);
#22=PLANE('',#823);
#23=PLANE('',#825);
#24=PLANE('',#827);
#25=PLANE('',#832);
#26=PLANE('',#833);
#27=PLANE('',#834);
#28=PLANE('',#835);
#29=PLANE('',#836);
#30=PLANE('',#837);
#31=PLANE('',#853);
#32=PLANE('',#854);
#33=PLANE('',#855);
#34=PLANE('',#856);
#35=PLANE('',#858);
#36=PLANE('',#859);
#37=PLANE('',#860);
#38=PLANE('',#862);
#39=PLANE('',#863);
#40=PLANE('',#864);
#41=PLANE('',#865);
#42=PLANE('',#866);
#43=PLANE('',#867);
#44=PLANE('',#868);
#45=PLANE('',#869);
#46=PLANE('',#870);
#47=PLANE('',#871);
#48=PLANE('',#872);
#49=B_SPLINE_CURVE_WITH_KNOTS('',3,(#1108,#1109,#1110,#1111),
 .UNSPECIFIED.,.F.,.F.,(4,4),(2.83052109905994E-7,0.00141556693483676),
 .UNSPECIFIED.);
#50=B_SPLINE_CURVE_WITH_KNOTS('',3,(#1115,#1116,#1117,#1118),
 .UNSPECIFIED.,.F.,.F.,(4,4),(2.83061547275415E-7,0.00141556694427414),
 .UNSPECIFIED.);
#51=B_SPLINE_CURVE_WITH_KNOTS('',3,(#1122,#1123,#1124,#1125),
 .UNSPECIFIED.,.F.,.F.,(4,4),(2.83052109911474E-7,0.00141556693483678),
 .UNSPECIFIED.);
#52=B_SPLINE_CURVE_WITH_KNOTS('',3,(#1129,#1130,#1131,#1132),
 .UNSPECIFIED.,.F.,.F.,(4,4),(2.8306154725465E-7,0.00141556694427411),
 .UNSPECIFIED.);
#53=B_SPLINE_CURVE_WITH_KNOTS('',3,(#1133,#1134,#1135,#1136),
 .UNSPECIFIED.,.F.,.F.,(4,4),(0.042444714037789,0.0438599976444194),
 .UNSPECIFIED.);
#54=B_SPLINE_CURVE_WITH_KNOTS('',3,(#1140,#1141,#1142,#1143),
 .UNSPECIFIED.,.F.,.F.,(4,4),(0.0425250735407049,0.043940356537184),
 .UNSPECIFIED.);
#55=B_SPLINE_CURVE_WITH_KNOTS('',3,(#1147,#1148,#1149,#1150),
 .UNSPECIFIED.,.F.,.F.,(4,4),(2.83061547123353E-7,0.0029248354401822),
 .UNSPECIFIED.);
#56=B_SPLINE_CURVE_WITH_KNOTS('',3,(#1152,#1153,#1154,#1155),
 .UNSPECIFIED.,.F.,.F.,(4,4),(0.0425955314784088,0.0455200832709028),
 .UNSPECIFIED.);
#57=B_SPLINE_CURVE_WITH_KNOTS('',3,(#1157,#1158,#1159,#1160),
 .UNSPECIFIED.,.F.,.F.,(4,4),(0.00584684190821807,0.0108450644604956),
 .UNSPECIFIED.);
#58=B_SPLINE_CURVE_WITH_KNOTS('',3,(#1162,#1163,#1164,#1165),
 .UNSPECIFIED.,.F.,.F.,(4,4),(0.0427145727235614,0.045639123276552),
 .UNSPECIFIED.);
#59=B_SPLINE_CURVE_WITH_KNOTS('',3,(#1166,#1167,#1168,#1169),
 .UNSPECIFIED.,.F.,.F.,(4,4),(3.26368189599912E-7,0.00292487874682467),
 .UNSPECIFIED.);
#60=B_SPLINE_CURVE_WITH_KNOTS('',3,(#1171,#1172,#1173,#1174),
 .UNSPECIFIED.,.F.,.F.,(4,4),(2.30940107680894E-7,0.00500023094010768),
 .UNSPECIFIED.);
#61=B_SPLINE_CURVE_WITH_KNOTS('',3,(#1176,#1177,#1178,#1179),
 .UNSPECIFIED.,.F.,.F.,(4,4),(2.83061547117873E-7,0.0029248354401822),
 .UNSPECIFIED.);
#62=B_SPLINE_CURVE_WITH_KNOTS('',3,(#1183,#1184,#1185,#1186),
 .UNSPECIFIED.,.F.,.F.,(4,4),(3.26368189599912E-7,0.00292487874682468),
 .UNSPECIFIED.);
#63=B_SPLINE_CURVE_WITH_KNOTS('',3,(#1188,#1189,#1190,#1191),
 .UNSPECIFIED.,.F.,.F.,(4,4),(2.30940107662402E-7,0.00500023094010766),
 .UNSPECIFIED.);
#64=CONICAL_SURFACE('',#804,0.045,0.785398163397449);
#65=CONICAL_SURFACE('',#810,0.07,0.785398163397448);
#66=CONICAL_SURFACE('',#814,0.0695,0.785398163397448);
#67=CONICAL_SURFACE('',#818,0.0695,0.785398163397448);
#68=CONICAL_SURFACE('',#838,0.0147,0.785398163397448);
#69=CONICAL_SURFACE('',#857,0.0147,0.785398163397448);
#70=CONICAL_SURFACE('',#861,0.0147,0.785398163397448);
#71=CIRCLE('',#799,0.045);
#72=CIRCLE('',#800,0.045);
#73=CIRCLE('',#802,0.045);
#74=CIRCLE('',#803,0.045);
#75=CIRCLE('',#805,0.046);
#76=CIRCLE('',#806,0.045);
#77=CIRCLE('',#807,0.046);
#78=CIRCLE('',#808,0.046);
#79=CIRCLE('',#809,0.06975);
#80=CIRCLE('',#811,0.045);
#81=CIRCLE('',#812,0.07);
#82=CIRCLE('',#815,0.07);
#83=CIRCLE('',#817,0.0695);
#84=CIRCLE('',#819,0.07);
#85=CIRCLE('',#822,0.0172);
#86=CIRCLE('',#824,0.0172);
#87=CIRCLE('',#826,0.0172);
#88=CIRCLE('',#828,0.0147);
#89=CIRCLE('',#829,0.0172);
#90=CIRCLE('',#830,0.0172);
#91=CIRCLE('',#831,0.0172);
#92=CIRCLE('',#839,0.0147);
#93=CIRCLE('',#840,0.0172);
#94=CIRCLE('',#842,0.0147);
#95=CIRCLE('',#843,0.0147);
#96=CIRCLE('',#844,0.0147);
#97=CIRCLE('',#845,0.0147);
#98=CIRCLE('',#846,0.0147);
#99=CIRCLE('',#848,0.0172);
#100=CIRCLE('',#849,0.0172);
#101=CIRCLE('',#850,0.0172);
#102=CIRCLE('',#851,0.0172);
#103=CIRCLE('',#852,0.0172);
#104=ORIENTED_EDGE('',*,*,#326,.F.);
#105=ORIENTED_EDGE('',*,*,#327,.T.);
#106=ORIENTED_EDGE('',*,*,#328,.F.);
#107=ORIENTED_EDGE('',*,*,#329,.F.);
#108=ORIENTED_EDGE('',*,*,#330,.F.);
#109=ORIENTED_EDGE('',*,*,#331,.F.);
#110=ORIENTED_EDGE('',*,*,#332,.F.);
#111=ORIENTED_EDGE('',*,*,#333,.T.);
#112=ORIENTED_EDGE('',*,*,#334,.F.);
#113=ORIENTED_EDGE('',*,*,#335,.T.);
#114=ORIENTED_EDGE('',*,*,#336,.F.);
#115=ORIENTED_EDGE('',*,*,#337,.F.);
#116=ORIENTED_EDGE('',*,*,#338,.F.);
#117=ORIENTED_EDGE('',*,*,#339,.T.);
#118=ORIENTED_EDGE('',*,*,#340,.F.);
#119=ORIENTED_EDGE('',*,*,#333,.F.);
#120=ORIENTED_EDGE('',*,*,#341,.F.);
#121=ORIENTED_EDGE('',*,*,#342,.T.);
#122=ORIENTED_EDGE('',*,*,#343,.F.);
#123=ORIENTED_EDGE('',*,*,#327,.F.);
#124=ORIENTED_EDGE('',*,*,#344,.T.);
#125=ORIENTED_EDGE('',*,*,#345,.F.);
#126=ORIENTED_EDGE('',*,*,#329,.T.);
#127=ORIENTED_EDGE('',*,*,#346,.F.);
#128=ORIENTED_EDGE('',*,*,#347,.F.);
#129=ORIENTED_EDGE('',*,*,#348,.F.);
#130=ORIENTED_EDGE('',*,*,#331,.T.);
#131=ORIENTED_EDGE('',*,*,#349,.F.);
#132=ORIENTED_EDGE('',*,*,#350,.F.);
#133=ORIENTED_EDGE('',*,*,#351,.F.);
#134=ORIENTED_EDGE('',*,*,#352,.T.);
#135=ORIENTED_EDGE('',*,*,#353,.F.);
#136=ORIENTED_EDGE('',*,*,#354,.F.);
#137=ORIENTED_EDGE('',*,*,#355,.F.);
#138=ORIENTED_EDGE('',*,*,#356,.F.);
#139=ORIENTED_EDGE('',*,*,#352,.F.);
#140=ORIENTED_EDGE('',*,*,#357,.F.);
#141=ORIENTED_EDGE('',*,*,#337,.T.);
#142=ORIENTED_EDGE('',*,*,#344,.F.);
#143=ORIENTED_EDGE('',*,*,#358,.T.);
#144=ORIENTED_EDGE('',*,*,#359,.F.);
#145=ORIENTED_EDGE('',*,*,#355,.T.);
#146=ORIENTED_EDGE('',*,*,#360,.F.);
#147=ORIENTED_EDGE('',*,*,#359,.T.);
#148=ORIENTED_EDGE('',*,*,#360,.T.);
#149=ORIENTED_EDGE('',*,*,#358,.F.);
#150=ORIENTED_EDGE('',*,*,#335,.F.);
#151=ORIENTED_EDGE('',*,*,#361,.F.);
#152=ORIENTED_EDGE('',*,*,#362,.T.);
#153=ORIENTED_EDGE('',*,*,#363,.F.);
#154=ORIENTED_EDGE('',*,*,#339,.F.);
#155=ORIENTED_EDGE('',*,*,#364,.F.);
#156=ORIENTED_EDGE('',*,*,#365,.T.);
#157=ORIENTED_EDGE('',*,*,#366,.F.);
#158=ORIENTED_EDGE('',*,*,#342,.F.);
#159=ORIENTED_EDGE('',*,*,#367,.F.);
#160=ORIENTED_EDGE('',*,*,#368,.T.);
#161=ORIENTED_EDGE('',*,*,#369,.F.);
#162=ORIENTED_EDGE('',*,*,#370,.T.);
#163=ORIENTED_EDGE('',*,*,#371,.T.);
#164=ORIENTED_EDGE('',*,*,#372,.T.);
#165=ORIENTED_EDGE('',*,*,#373,.T.);
#166=ORIENTED_EDGE('',*,*,#374,.T.);
#167=ORIENTED_EDGE('',*,*,#375,.T.);
#168=ORIENTED_EDGE('',*,*,#376,.F.);
#169=ORIENTED_EDGE('',*,*,#377,.T.);
#170=ORIENTED_EDGE('',*,*,#378,.T.);
#171=ORIENTED_EDGE('',*,*,#379,.T.);
#172=ORIENTED_EDGE('',*,*,#380,.T.);
#173=ORIENTED_EDGE('',*,*,#381,.T.);
#174=ORIENTED_EDGE('',*,*,#382,.F.);
#175=ORIENTED_EDGE('',*,*,#383,.T.);
#176=ORIENTED_EDGE('',*,*,#384,.T.);
#177=ORIENTED_EDGE('',*,*,#385,.T.);
#178=ORIENTED_EDGE('',*,*,#386,.T.);
#179=ORIENTED_EDGE('',*,*,#387,.T.);
#180=ORIENTED_EDGE('',*,*,#388,.F.);
#181=ORIENTED_EDGE('',*,*,#361,.T.);
#182=ORIENTED_EDGE('',*,*,#334,.T.);
#183=ORIENTED_EDGE('',*,*,#326,.T.);
#184=ORIENTED_EDGE('',*,*,#383,.F.);
#185=ORIENTED_EDGE('',*,*,#389,.F.);
#186=ORIENTED_EDGE('',*,*,#356,.T.);
#187=ORIENTED_EDGE('',*,*,#336,.T.);
#188=ORIENTED_EDGE('',*,*,#363,.T.);
#189=ORIENTED_EDGE('',*,*,#390,.F.);
#190=ORIENTED_EDGE('',*,*,#387,.F.);
#191=ORIENTED_EDGE('',*,*,#330,.T.);
#192=ORIENTED_EDGE('',*,*,#340,.T.);
#193=ORIENTED_EDGE('',*,*,#366,.T.);
#194=ORIENTED_EDGE('',*,*,#391,.F.);
#195=ORIENTED_EDGE('',*,*,#375,.F.);
#196=ORIENTED_EDGE('',*,*,#364,.T.);
#197=ORIENTED_EDGE('',*,*,#338,.T.);
#198=ORIENTED_EDGE('',*,*,#357,.T.);
#199=ORIENTED_EDGE('',*,*,#371,.F.);
#200=ORIENTED_EDGE('',*,*,#392,.F.);
#201=ORIENTED_EDGE('',*,*,#328,.T.);
#202=ORIENTED_EDGE('',*,*,#343,.T.);
#203=ORIENTED_EDGE('',*,*,#369,.T.);
#204=ORIENTED_EDGE('',*,*,#393,.F.);
#205=ORIENTED_EDGE('',*,*,#381,.F.);
#206=ORIENTED_EDGE('',*,*,#367,.T.);
#207=ORIENTED_EDGE('',*,*,#341,.T.);
#208=ORIENTED_EDGE('',*,*,#332,.T.);
#209=ORIENTED_EDGE('',*,*,#377,.F.);
#210=ORIENTED_EDGE('',*,*,#394,.F.);
#211=ORIENTED_EDGE('',*,*,#395,.F.);
#212=ORIENTED_EDGE('',*,*,#396,.F.);
#213=ORIENTED_EDGE('',*,*,#397,.F.);
#214=ORIENTED_EDGE('',*,*,#398,.T.);
#215=ORIENTED_EDGE('',*,*,#370,.F.);
#216=ORIENTED_EDGE('',*,*,#399,.T.);
#217=ORIENTED_EDGE('',*,*,#400,.T.);
#218=ORIENTED_EDGE('',*,*,#401,.F.);
#219=ORIENTED_EDGE('',*,*,#402,.T.);
#220=ORIENTED_EDGE('',*,*,#403,.T.);
#221=ORIENTED_EDGE('',*,*,#404,.T.);
#222=ORIENTED_EDGE('',*,*,#405,.F.);
#223=ORIENTED_EDGE('',*,*,#406,.T.);
#224=ORIENTED_EDGE('',*,*,#407,.F.);
#225=ORIENTED_EDGE('',*,*,#408,.T.);
#226=ORIENTED_EDGE('',*,*,#409,.F.);
#227=ORIENTED_EDGE('',*,*,#396,.T.);
#228=ORIENTED_EDGE('',*,*,#382,.T.);
#229=ORIENTED_EDGE('',*,*,#393,.T.);
#230=ORIENTED_EDGE('',*,*,#368,.F.);
#231=ORIENTED_EDGE('',*,*,#394,.T.);
#232=ORIENTED_EDGE('',*,*,#376,.T.);
#233=ORIENTED_EDGE('',*,*,#391,.T.);
#234=ORIENTED_EDGE('',*,*,#365,.F.);
#235=ORIENTED_EDGE('',*,*,#392,.T.);
#236=ORIENTED_EDGE('',*,*,#388,.T.);
#237=ORIENTED_EDGE('',*,*,#390,.T.);
#238=ORIENTED_EDGE('',*,*,#362,.F.);
#239=ORIENTED_EDGE('',*,*,#389,.T.);
#240=ORIENTED_EDGE('',*,*,#410,.T.);
#241=ORIENTED_EDGE('',*,*,#411,.F.);
#242=ORIENTED_EDGE('',*,*,#412,.F.);
#243=ORIENTED_EDGE('',*,*,#413,.F.);
#244=ORIENTED_EDGE('',*,*,#414,.T.);
#245=ORIENTED_EDGE('',*,*,#415,.F.);
#246=ORIENTED_EDGE('',*,*,#416,.F.);
#247=ORIENTED_EDGE('',*,*,#417,.F.);
#248=ORIENTED_EDGE('',*,*,#418,.T.);
#249=ORIENTED_EDGE('',*,*,#419,.F.);
#250=ORIENTED_EDGE('',*,*,#420,.F.);
#251=ORIENTED_EDGE('',*,*,#398,.F.);
#252=ORIENTED_EDGE('',*,*,#409,.T.);
#253=ORIENTED_EDGE('',*,*,#421,.T.);
#254=ORIENTED_EDGE('',*,*,#410,.F.);
#255=ORIENTED_EDGE('',*,*,#397,.T.);
#256=ORIENTED_EDGE('',*,*,#420,.T.);
#257=ORIENTED_EDGE('',*,*,#422,.T.);
#258=ORIENTED_EDGE('',*,*,#399,.F.);
#259=ORIENTED_EDGE('',*,*,#395,.T.);
#260=ORIENTED_EDGE('',*,*,#421,.F.);
#261=ORIENTED_EDGE('',*,*,#408,.F.);
#262=ORIENTED_EDGE('',*,*,#423,.F.);
#263=ORIENTED_EDGE('',*,*,#411,.T.);
#264=ORIENTED_EDGE('',*,*,#422,.F.);
#265=ORIENTED_EDGE('',*,*,#419,.T.);
#266=ORIENTED_EDGE('',*,*,#424,.F.);
#267=ORIENTED_EDGE('',*,*,#400,.F.);
#268=ORIENTED_EDGE('',*,*,#425,.F.);
#269=ORIENTED_EDGE('',*,*,#413,.T.);
#270=ORIENTED_EDGE('',*,*,#426,.F.);
#271=ORIENTED_EDGE('',*,*,#406,.F.);
#272=ORIENTED_EDGE('',*,*,#412,.T.);
#273=ORIENTED_EDGE('',*,*,#423,.T.);
#274=ORIENTED_EDGE('',*,*,#407,.T.);
#275=ORIENTED_EDGE('',*,*,#426,.T.);
#276=ORIENTED_EDGE('',*,*,#405,.T.);
#277=ORIENTED_EDGE('',*,*,#427,.T.);
#278=ORIENTED_EDGE('',*,*,#414,.F.);
#279=ORIENTED_EDGE('',*,*,#425,.T.);
#280=ORIENTED_EDGE('',*,*,#427,.F.);
#281=ORIENTED_EDGE('',*,*,#404,.F.);
#282=ORIENTED_EDGE('',*,*,#428,.F.);
#283=ORIENTED_EDGE('',*,*,#415,.T.);
#284=ORIENTED_EDGE('',*,*,#429,.F.);
#285=ORIENTED_EDGE('',*,*,#417,.T.);
#286=ORIENTED_EDGE('',*,*,#430,.F.);
#287=ORIENTED_EDGE('',*,*,#402,.F.);
#288=ORIENTED_EDGE('',*,*,#416,.T.);
#289=ORIENTED_EDGE('',*,*,#428,.T.);
#290=ORIENTED_EDGE('',*,*,#403,.F.);
#291=ORIENTED_EDGE('',*,*,#430,.T.);
#292=ORIENTED_EDGE('',*,*,#401,.T.);
#293=ORIENTED_EDGE('',*,*,#424,.T.);
#294=ORIENTED_EDGE('',*,*,#418,.F.);
#295=ORIENTED_EDGE('',*,*,#429,.T.);
#296=ORIENTED_EDGE('',*,*,#384,.F.);
#297=ORIENTED_EDGE('',*,*,#345,.T.);
#298=ORIENTED_EDGE('',*,*,#431,.T.);
#299=ORIENTED_EDGE('',*,*,#432,.F.);
#300=ORIENTED_EDGE('',*,*,#353,.T.);
#301=ORIENTED_EDGE('',*,*,#386,.F.);
#302=ORIENTED_EDGE('',*,*,#431,.F.);
#303=ORIENTED_EDGE('',*,*,#354,.T.);
#304=ORIENTED_EDGE('',*,*,#432,.T.);
#305=ORIENTED_EDGE('',*,*,#385,.F.);
#306=ORIENTED_EDGE('',*,*,#433,.F.);
#307=ORIENTED_EDGE('',*,*,#349,.T.);
#308=ORIENTED_EDGE('',*,*,#374,.F.);
#309=ORIENTED_EDGE('',*,*,#372,.F.);
#310=ORIENTED_EDGE('',*,*,#351,.T.);
#311=ORIENTED_EDGE('',*,*,#434,.T.);
#312=ORIENTED_EDGE('',*,*,#434,.F.);
#313=ORIENTED_EDGE('',*,*,#350,.T.);
#314=ORIENTED_EDGE('',*,*,#433,.T.);
#315=ORIENTED_EDGE('',*,*,#373,.F.);
#316=ORIENTED_EDGE('',*,*,#435,.F.);
#317=ORIENTED_EDGE('',*,*,#346,.T.);
#318=ORIENTED_EDGE('',*,*,#380,.F.);
#319=ORIENTED_EDGE('',*,*,#378,.F.);
#320=ORIENTED_EDGE('',*,*,#348,.T.);
#321=ORIENTED_EDGE('',*,*,#436,.T.);
#322=ORIENTED_EDGE('',*,*,#436,.F.);
#323=ORIENTED_EDGE('',*,*,#347,.T.);
#324=ORIENTED_EDGE('',*,*,#435,.T.);
#325=ORIENTED_EDGE('',*,*,#379,.F.);
#326=EDGE_CURVE('',#437,#438,#509,.F.);
#327=EDGE_CURVE('',#437,#439,#71,.T.);
#328=EDGE_CURVE('',#440,#439,#510,.T.);
#329=EDGE_CURVE('',#438,#440,#72,.T.);
#330=EDGE_CURVE('',#441,#442,#511,.T.);
#331=EDGE_CURVE('',#443,#441,#73,.T.);
#332=EDGE_CURVE('',#444,#443,#512,.F.);
#333=EDGE_CURVE('',#444,#442,#74,.T.);
#334=EDGE_CURVE('',#445,#437,#49,.T.);
#335=EDGE_CURVE('',#445,#446,#75,.T.);
#336=EDGE_CURVE('',#447,#446,#50,.T.);
#337=EDGE_CURVE('',#448,#447,#76,.T.);
#338=EDGE_CURVE('',#449,#448,#51,.T.);
#339=EDGE_CURVE('',#449,#450,#77,.T.);
#340=EDGE_CURVE('',#442,#450,#52,.T.);
#341=EDGE_CURVE('',#451,#444,#53,.T.);
#342=EDGE_CURVE('',#451,#452,#78,.T.);
#343=EDGE_CURVE('',#439,#452,#54,.T.);
#344=EDGE_CURVE('',#453,#453,#79,.F.);
#345=EDGE_CURVE('',#438,#454,#55,.T.);
#346=EDGE_CURVE('',#455,#440,#56,.T.);
#347=EDGE_CURVE('',#456,#455,#57,.T.);
#348=EDGE_CURVE('',#443,#456,#58,.T.);
#349=EDGE_CURVE('',#457,#441,#59,.T.);
#350=EDGE_CURVE('',#458,#457,#60,.T.);
#351=EDGE_CURVE('',#459,#458,#61,.T.);
#352=EDGE_CURVE('',#459,#460,#80,.T.);
#353=EDGE_CURVE('',#461,#460,#62,.T.);
#354=EDGE_CURVE('',#454,#461,#63,.T.);
#355=EDGE_CURVE('',#462,#462,#81,.T.);
#356=EDGE_CURVE('',#460,#447,#513,.T.);
#357=EDGE_CURVE('',#448,#459,#514,.F.);
#358=EDGE_CURVE('',#463,#463,#82,.T.);
#359=EDGE_CURVE('',#464,#464,#83,.T.);
#360=EDGE_CURVE('',#465,#465,#84,.T.);
#361=EDGE_CURVE('',#466,#445,#515,.T.);
#362=EDGE_CURVE('',#466,#467,#85,.T.);
#363=EDGE_CURVE('',#446,#467,#516,.T.);
#364=EDGE_CURVE('',#468,#449,#517,.T.);
#365=EDGE_CURVE('',#468,#469,#86,.T.);
#366=EDGE_CURVE('',#450,#469,#518,.T.);
#367=EDGE_CURVE('',#470,#451,#519,.T.);
#368=EDGE_CURVE('',#470,#471,#87,.T.);
#369=EDGE_CURVE('',#452,#471,#520,.T.);
#370=EDGE_CURVE('',#472,#472,#88,.T.);
#371=EDGE_CURVE('',#473,#459,#521,.T.);
#372=EDGE_CURVE('',#459,#474,#522,.T.);
#373=EDGE_CURVE('',#474,#475,#523,.T.);
#374=EDGE_CURVE('',#475,#441,#524,.T.);
#375=EDGE_CURVE('',#441,#476,#525,.T.);
#376=EDGE_CURVE('',#477,#476,#89,.T.);
#377=EDGE_CURVE('',#477,#443,#526,.T.);
#378=EDGE_CURVE('',#443,#478,#527,.T.);
#379=EDGE_CURVE('',#478,#479,#528,.T.);
#380=EDGE_CURVE('',#479,#440,#529,.T.);
#381=EDGE_CURVE('',#440,#480,#530,.T.);
#382=EDGE_CURVE('',#481,#480,#90,.T.);
#383=EDGE_CURVE('',#481,#438,#531,.T.);
#384=EDGE_CURVE('',#438,#482,#532,.T.);
#385=EDGE_CURVE('',#482,#483,#533,.T.);
#386=EDGE_CURVE('',#483,#460,#534,.T.);
#387=EDGE_CURVE('',#460,#484,#535,.T.);
#388=EDGE_CURVE('',#473,#484,#91,.T.);
#389=EDGE_CURVE('',#466,#481,#536,.F.);
#390=EDGE_CURVE('',#484,#467,#537,.T.);
#391=EDGE_CURVE('',#476,#469,#538,.T.);
#392=EDGE_CURVE('',#468,#473,#539,.F.);
#393=EDGE_CURVE('',#480,#471,#540,.T.);
#394=EDGE_CURVE('',#470,#477,#541,.F.);
#395=EDGE_CURVE('',#485,#486,#542,.T.);
#396=EDGE_CURVE('',#487,#485,#92,.T.);
#397=EDGE_CURVE('',#488,#487,#543,.T.);
#398=EDGE_CURVE('',#488,#486,#93,.T.);
#399=EDGE_CURVE('',#485,#489,#544,.T.);
#400=EDGE_CURVE('',#489,#490,#94,.T.);
#401=EDGE_CURVE('',#491,#490,#545,.T.);
#402=EDGE_CURVE('',#491,#492,#95,.T.);
#403=EDGE_CURVE('',#492,#493,#546,.T.);
#404=EDGE_CURVE('',#493,#494,#96,.T.);
#405=EDGE_CURVE('',#495,#494,#547,.T.);
#406=EDGE_CURVE('',#495,#496,#97,.T.);
#407=EDGE_CURVE('',#497,#496,#548,.T.);
#408=EDGE_CURVE('',#497,#498,#98,.T.);
#409=EDGE_CURVE('',#487,#498,#549,.F.);
#410=EDGE_CURVE('',#488,#499,#550,.T.);
#411=EDGE_CURVE('',#500,#499,#99,.T.);
#412=EDGE_CURVE('',#501,#500,#551,.T.);
#413=EDGE_CURVE('',#502,#501,#100,.T.);
#414=EDGE_CURVE('',#502,#503,#552,.T.);
#415=EDGE_CURVE('',#504,#503,#101,.T.);
#416=EDGE_CURVE('',#505,#504,#553,.T.);
#417=EDGE_CURVE('',#506,#505,#102,.T.);
#418=EDGE_CURVE('',#506,#507,#554,.T.);
#419=EDGE_CURVE('',#508,#507,#103,.T.);
#420=EDGE_CURVE('',#486,#508,#555,.T.);
#421=EDGE_CURVE('',#498,#499,#556,.T.);
#422=EDGE_CURVE('',#508,#489,#557,.T.);
#423=EDGE_CURVE('',#500,#497,#558,.T.);
#424=EDGE_CURVE('',#490,#507,#559,.T.);
#425=EDGE_CURVE('',#502,#495,#560,.T.);
#426=EDGE_CURVE('',#496,#501,#561,.T.);
#427=EDGE_CURVE('',#494,#503,#562,.T.);
#428=EDGE_CURVE('',#504,#493,#563,.T.);
#429=EDGE_CURVE('',#506,#491,#564,.T.);
#430=EDGE_CURVE('',#492,#505,#565,.T.);
#431=EDGE_CURVE('',#454,#482,#566,.T.);
#432=EDGE_CURVE('',#461,#483,#567,.T.);
#433=EDGE_CURVE('',#457,#475,#568,.T.);
#434=EDGE_CURVE('',#458,#474,#569,.T.);
#435=EDGE_CURVE('',#455,#479,#570,.T.);
#436=EDGE_CURVE('',#456,#478,#571,.T.);
#437=VERTEX_POINT('',#1091);
#438=VERTEX_POINT('',#1092);
#439=VERTEX_POINT('',#1094);
#440=VERTEX_POINT('',#1096);
#441=VERTEX_POINT('',#1100);
#442=VERTEX_POINT('',#1101);
#443=VERTEX_POINT('',#1103);
#444=VERTEX_POINT('',#1105);
#445=VERTEX_POINT('',#1112);
#446=VERTEX_POINT('',#1114);
#447=VERTEX_POINT('',#1119);
#448=VERTEX_POINT('',#1121);
#449=VERTEX_POINT('',#1126);
#450=VERTEX_POINT('',#1128);
#451=VERTEX_POINT('',#1137);
#452=VERTEX_POINT('',#1139);
#453=VERTEX_POINT('',#1145);
#454=VERTEX_POINT('',#1151);
#455=VERTEX_POINT('',#1156);
#456=VERTEX_POINT('',#1161);
#457=VERTEX_POINT('',#1170);
#458=VERTEX_POINT('',#1175);
#459=VERTEX_POINT('',#1180);
#460=VERTEX_POINT('',#1182);
#461=VERTEX_POINT('',#1187);
#462=VERTEX_POINT('',#1193);
#463=VERTEX_POINT('',#1199);
#464=VERTEX_POINT('',#1202);
#465=VERTEX_POINT('',#1205);
#466=VERTEX_POINT('',#1209);
#467=VERTEX_POINT('',#1211);
#468=VERTEX_POINT('',#1215);
#469=VERTEX_POINT('',#1217);
#470=VERTEX_POINT('',#1221);
#471=VERTEX_POINT('',#1223);
#472=VERTEX_POINT('',#1227);
#473=VERTEX_POINT('',#1229);
#474=VERTEX_POINT('',#1231);
#475=VERTEX_POINT('',#1233);
#476=VERTEX_POINT('',#1236);
#477=VERTEX_POINT('',#1238);
#478=VERTEX_POINT('',#1241);
#479=VERTEX_POINT('',#1243);
#480=VERTEX_POINT('',#1246);
#481=VERTEX_POINT('',#1248);
#482=VERTEX_POINT('',#1251);
#483=VERTEX_POINT('',#1253);
#484=VERTEX_POINT('',#1256);
#485=VERTEX_POINT('',#1272);
#486=VERTEX_POINT('',#1273);
#487=VERTEX_POINT('',#1275);
#488=VERTEX_POINT('',#1277);
#489=VERTEX_POINT('',#1281);
#490=VERTEX_POINT('',#1283);
#491=VERTEX_POINT('',#1285);
#492=VERTEX_POINT('',#1287);
#493=VERTEX_POINT('',#1289);
#494=VERTEX_POINT('',#1291);
#495=VERTEX_POINT('',#1293);
#496=VERTEX_POINT('',#1295);
#497=VERTEX_POINT('',#1297);
#498=VERTEX_POINT('',#1299);
#499=VERTEX_POINT('',#1303);
#500=VERTEX_POINT('',#1305);
#501=VERTEX_POINT('',#1307);
#502=VERTEX_POINT('',#1309);
#503=VERTEX_POINT('',#1311);
#504=VERTEX_POINT('',#1313);
#505=VERTEX_POINT('',#1315);
#506=VERTEX_POINT('',#1317);
#507=VERTEX_POINT('',#1319);
#508=VERTEX_POINT('',#1321);
#509=LINE('',#1090,#572);
#510=LINE('',#1095,#573);
#511=LINE('',#1099,#574);
#512=LINE('',#1104,#575);
#513=LINE('',#1195,#576);
#514=LINE('',#1196,#577);
#515=LINE('',#1208,#578);
#516=LINE('',#1212,#579);
#517=LINE('',#1214,#580);
#518=LINE('',#1218,#581);
#519=LINE('',#1220,#582);
#520=LINE('',#1224,#583);
#521=LINE('',#1228,#584);
#522=LINE('',#1230,#585);
#523=LINE('',#1232,#586);
#524=LINE('',#1234,#587);
#525=LINE('',#1235,#588);
#526=LINE('',#1239,#589);
#527=LINE('',#1240,#590);
#528=LINE('',#1242,#591);
#529=LINE('',#1244,#592);
#530=LINE('',#1245,#593);
#531=LINE('',#1249,#594);
#532=LINE('',#1250,#595);
#533=LINE('',#1252,#596);
#534=LINE('',#1254,#597);
#535=LINE('',#1255,#598);
#536=LINE('',#1259,#599);
#537=LINE('',#1261,#600);
#538=LINE('',#1263,#601);
#539=LINE('',#1265,#602);
#540=LINE('',#1267,#603);
#541=LINE('',#1269,#604);
#542=LINE('',#1271,#605);
#543=LINE('',#1276,#606);
#544=LINE('',#1280,#607);
#545=LINE('',#1284,#608);
#546=LINE('',#1288,#609);
#547=LINE('',#1292,#610);
#548=LINE('',#1296,#611);
#549=LINE('',#1300,#612);
#550=LINE('',#1302,#613);
#551=LINE('',#1306,#614);
#552=LINE('',#1310,#615);
#553=LINE('',#1314,#616);
#554=LINE('',#1318,#617);
#555=LINE('',#1322,#618);
#556=LINE('',#1324,#619);
#557=LINE('',#1326,#620);
#558=LINE('',#1328,#621);
#559=LINE('',#1330,#622);
#560=LINE('',#1332,#623);
#561=LINE('',#1333,#624);
#562=LINE('',#1336,#625);
#563=LINE('',#1338,#626);
#564=LINE('',#1340,#627);
#565=LINE('',#1341,#628);
#566=LINE('',#1345,#629);
#567=LINE('',#1347,#630);
#568=LINE('',#1350,#631);
#569=LINE('',#1352,#632);
#570=LINE('',#1355,#633);
#571=LINE('',#1357,#634);
#572=VECTOR('',#877,1.);
#573=VECTOR('',#880,1.);
#574=VECTOR('',#885,1.);
#575=VECTOR('',#888,1.);
#576=VECTOR('',#911,1.);
#577=VECTOR('',#912,1.);
#578=VECTOR('',#929,1.);
#579=VECTOR('',#932,1.);
#580=VECTOR('',#935,1.);
#581=VECTOR('',#938,1.);
#582=VECTOR('',#941,1.);
#583=VECTOR('',#944,1.);
#584=VECTOR('',#949,1.);
#585=VECTOR('',#950,1.);
#586=VECTOR('',#951,1.);
#587=VECTOR('',#952,1.);
#588=VECTOR('',#953,1.);
#589=VECTOR('',#956,1.);
#590=VECTOR('',#957,1.);
#591=VECTOR('',#958,1.);
#592=VECTOR('',#959,1.);
#593=VECTOR('',#960,1.);
#594=VECTOR('',#963,1.);
#595=VECTOR('',#964,1.);
#596=VECTOR('',#965,1.);
#597=VECTOR('',#966,1.);
#598=VECTOR('',#967,1.);
#599=VECTOR('',#972,1.);
#600=VECTOR('',#975,1.);
#601=VECTOR('',#978,1.);
#602=VECTOR('',#981,1.);
#603=VECTOR('',#984,1.);
#604=VECTOR('',#987,1.);
#605=VECTOR('',#990,1.);
#606=VECTOR('',#993,1.);
#607=VECTOR('',#998,1.);
#608=VECTOR('',#1001,1.);
#609=VECTOR('',#1004,1.);
#610=VECTOR('',#1007,1.);
#611=VECTOR('',#1010,1.);
#612=VECTOR('',#1013,1.);
#613=VECTOR('',#1016,1.);
#614=VECTOR('',#1019,1.);
#615=VECTOR('',#1022,1.);
#616=VECTOR('',#1025,1.);
#617=VECTOR('',#1028,1.);
#618=VECTOR('',#1031,1.);
#619=VECTOR('',#1034,1.);
#620=VECTOR('',#1037,1.);
#621=VECTOR('',#1040,1.);
#622=VECTOR('',#1043,1.);
#623=VECTOR('',#1046,1.);
#624=VECTOR('',#1047,1.);
#625=VECTOR('',#1052,1.);
#626=VECTOR('',#1055,1.);
#627=VECTOR('',#1058,1.);
#628=VECTOR('',#1059,1.);
#629=VECTOR('',#1066,1.);
#630=VECTOR('',#1069,1.);
#631=VECTOR('',#1074,1.);
#632=VECTOR('',#1077,1.);
#633=VECTOR('',#1082,1.);
#634=VECTOR('',#1085,1.);
#635=EDGE_LOOP('',(#104,#105,#106,#107));
#636=EDGE_LOOP('',(#108,#109,#110,#111));
#637=EDGE_LOOP('',(#112,#113,#114,#115,#116,#117,#118,#119,#120,#121,#122,
#123));
#638=EDGE_LOOP('',(#124));
#639=EDGE_LOOP('',(#125,#126,#127,#128,#129,#130,#131,#132,#133,#134,#135,
#136));
#640=EDGE_LOOP('',(#137));
#641=EDGE_LOOP('',(#138,#139,#140,#141));
#642=EDGE_LOOP('',(#142));
#643=EDGE_LOOP('',(#143));
#644=EDGE_LOOP('',(#144));
#645=EDGE_LOOP('',(#145));
#646=EDGE_LOOP('',(#146));
#647=EDGE_LOOP('',(#147));
#648=EDGE_LOOP('',(#148));
#649=EDGE_LOOP('',(#149));
#650=EDGE_LOOP('',(#150,#151,#152,#153));
#651=EDGE_LOOP('',(#154,#155,#156,#157));
#652=EDGE_LOOP('',(#158,#159,#160,#161));
#653=EDGE_LOOP('',(#162));
#654=EDGE_LOOP('',(#163,#164,#165,#166,#167,#168,#169,#170,#171,#172,#173,
#174,#175,#176,#177,#178,#179,#180));
#655=EDGE_LOOP('',(#181,#182,#183,#184,#185));
#656=EDGE_LOOP('',(#186,#187,#188,#189,#190));
#657=EDGE_LOOP('',(#191,#192,#193,#194,#195));
#658=EDGE_LOOP('',(#196,#197,#198,#199,#200));
#659=EDGE_LOOP('',(#201,#202,#203,#204,#205));
#660=EDGE_LOOP('',(#206,#207,#208,#209,#210));
#661=EDGE_LOOP('',(#211,#212,#213,#214));
#662=EDGE_LOOP('',(#215));
#663=EDGE_LOOP('',(#216,#217,#218,#219,#220,#221,#222,#223,#224,#225,#226,
#227));
#664=EDGE_LOOP('',(#228,#229,#230,#231,#232,#233,#234,#235,#236,#237,#238,
#239));
#665=EDGE_LOOP('',(#240,#241,#242,#243,#244,#245,#246,#247,#248,#249,#250,
#251));
#666=EDGE_LOOP('',(#252,#253,#254,#255));
#667=EDGE_LOOP('',(#256,#257,#258,#259));
#668=EDGE_LOOP('',(#260,#261,#262,#263));
#669=EDGE_LOOP('',(#264,#265,#266,#267));
#670=EDGE_LOOP('',(#268,#269,#270,#271));
#671=EDGE_LOOP('',(#272,#273,#274,#275));
#672=EDGE_LOOP('',(#276,#277,#278,#279));
#673=EDGE_LOOP('',(#280,#281,#282,#283));
#674=EDGE_LOOP('',(#284,#285,#286,#287));
#675=EDGE_LOOP('',(#288,#289,#290,#291));
#676=EDGE_LOOP('',(#292,#293,#294,#295));
#677=EDGE_LOOP('',(#296,#297,#298));
#678=EDGE_LOOP('',(#299,#300,#301));
#679=EDGE_LOOP('',(#302,#303,#304,#305));
#680=EDGE_LOOP('',(#306,#307,#308));
#681=EDGE_LOOP('',(#309,#310,#311));
#682=EDGE_LOOP('',(#312,#313,#314,#315));
#683=EDGE_LOOP('',(#316,#317,#318));
#684=EDGE_LOOP('',(#319,#320,#321));
#685=EDGE_LOOP('',(#322,#323,#324,#325));
#686=FACE_BOUND('',#635,.T.);
#687=FACE_BOUND('',#636,.T.);
#688=FACE_BOUND('',#637,.T.);
#689=FACE_BOUND('',#638,.T.);
#690=FACE_BOUND('',#639,.T.);
#691=FACE_BOUND('',#640,.T.);
#692=FACE_BOUND('',#641,.T.);
#693=FACE_BOUND('',#642,.T.);
#694=FACE_BOUND('',#643,.T.);
#695=FACE_BOUND('',#644,.T.);
#696=FACE_BOUND('',#645,.T.);
#697=FACE_BOUND('',#646,.T.);
#698=FACE_BOUND('',#647,.T.);
#699=FACE_BOUND('',#648,.T.);
#700=FACE_BOUND('',#649,.T.);
#701=FACE_BOUND('',#650,.T.);
#702=FACE_BOUND('',#651,.T.);
#703=FACE_BOUND('',#652,.T.);
#704=FACE_BOUND('',#653,.T.);
#705=FACE_BOUND('',#654,.T.);
#706=FACE_BOUND('',#655,.T.);
#707=FACE_BOUND('',#656,.T.);
#708=FACE_BOUND('',#657,.T.);
#709=FACE_BOUND('',#658,.T.);
#710=FACE_BOUND('',#659,.T.);
#711=FACE_BOUND('',#660,.T.);
#712=FACE_BOUND('',#661,.T.);
#713=FACE_BOUND('',#662,.T.);
#714=FACE_BOUND('',#663,.T.);
#715=FACE_BOUND('',#664,.T.);
#716=FACE_BOUND('',#665,.T.);
#717=FACE_BOUND('',#666,.T.);
#718=FACE_BOUND('',#667,.T.);
#719=FACE_BOUND('',#668,.T.);
#720=FACE_BOUND('',#669,.T.);
#721=FACE_BOUND('',#670,.T.);
#722=FACE_BOUND('',#671,.T.);
#723=FACE_BOUND('',#672,.T.);
#724=FACE_BOUND('',#673,.T.);
#725=FACE_BOUND('',#674,.T.);
#726=FACE_BOUND('',#675,.T.);
#727=FACE_BOUND('',#676,.T.);
#728=FACE_BOUND('',#677,.T.);
#729=FACE_BOUND('',#678,.T.);
#730=FACE_BOUND('',#679,.T.);
#731=FACE_BOUND('',#680,.T.);
#732=FACE_BOUND('',#681,.T.);
#733=FACE_BOUND('',#682,.T.);
#734=FACE_BOUND('',#683,.T.);
#735=FACE_BOUND('',#684,.T.);
#736=FACE_BOUND('',#685,.T.);
#737=CYLINDRICAL_SURFACE('',#798,0.045);
#738=CYLINDRICAL_SURFACE('',#801,0.045);
#739=CYLINDRICAL_SURFACE('',#813,0.045);
#740=CYLINDRICAL_SURFACE('',#820,0.07);
#741=CYLINDRICAL_SURFACE('',#841,0.0147);
#742=CYLINDRICAL_SURFACE('',#847,0.0172);
#743=ADVANCED_FACE('',(#686),#737,.F.);
#744=ADVANCED_FACE('',(#687),#738,.F.);
#745=ADVANCED_FACE('',(#688,#689),#64,.F.);
#746=ADVANCED_FACE('',(#690,#691),#65,.T.);
#747=ADVANCED_FACE('',(#692),#739,.F.);
#748=ADVANCED_FACE('',(#693,#694),#66,.T.);
#749=ADVANCED_FACE('',(#695,#696),#20,.F.);
#750=ADVANCED_FACE('',(#697,#698),#67,.T.);
#751=ADVANCED_FACE('',(#699,#700),#740,.T.);
#752=ADVANCED_FACE('',(#701),#21,.F.);
#753=ADVANCED_FACE('',(#702),#22,.F.);
#754=ADVANCED_FACE('',(#703),#23,.F.);
#755=ADVANCED_FACE('',(#704,#705),#24,.F.);
#756=ADVANCED_FACE('',(#706),#25,.T.);
#757=ADVANCED_FACE('',(#707),#26,.T.);
#758=ADVANCED_FACE('',(#708),#27,.T.);
#759=ADVANCED_FACE('',(#709),#28,.T.);
#760=ADVANCED_FACE('',(#710),#29,.T.);
#761=ADVANCED_FACE('',(#711),#30,.T.);
#762=ADVANCED_FACE('',(#712),#68,.F.);
#763=ADVANCED_FACE('',(#713,#714),#741,.F.);
#764=ADVANCED_FACE('',(#715,#716),#742,.T.);
#765=ADVANCED_FACE('',(#717),#31,.F.);
#766=ADVANCED_FACE('',(#718),#32,.F.);
#767=ADVANCED_FACE('',(#719),#33,.T.);
#768=ADVANCED_FACE('',(#720),#34,.T.);
#769=ADVANCED_FACE('',(#721),#69,.F.);
#770=ADVANCED_FACE('',(#722),#35,.F.);
#771=ADVANCED_FACE('',(#723),#36,.F.);
#772=ADVANCED_FACE('',(#724),#37,.T.);
#773=ADVANCED_FACE('',(#725),#70,.F.);
#774=ADVANCED_FACE('',(#726),#38,.F.);
#775=ADVANCED_FACE('',(#727),#39,.F.);
#776=ADVANCED_FACE('',(#728),#40,.T.);
#777=ADVANCED_FACE('',(#729),#41,.T.);
#778=ADVANCED_FACE('',(#730),#42,.T.);
#779=ADVANCED_FACE('',(#731),#43,.T.);
#780=ADVANCED_FACE('',(#732),#44,.T.);
#781=ADVANCED_FACE('',(#733),#45,.T.);
#782=ADVANCED_FACE('',(#734),#46,.T.);
#783=ADVANCED_FACE('',(#735),#47,.T.);
#784=ADVANCED_FACE('',(#736),#48,.T.);
#785=CLOSED_SHELL('',(#743,#744,#745,#746,#747,#748,#749,#750,#751,#752,
#753,#754,#755,#756,#757,#758,#759,#760,#761,#762,#763,#764,#765,#766,#767,
#768,#769,#770,#771,#772,#773,#774,#775,#776,#777,#778,#779,#780,#781,#782,
#783,#784));
#786=STYLED_ITEM('',(#787),#794);
#787=PRESENTATION_STYLE_ASSIGNMENT((#788));
#788=SURFACE_STYLE_USAGE(.BOTH.,#789);
#789=SURFACE_SIDE_STYLE('',(#790));
#790=SURFACE_STYLE_FILL_AREA(#791);
#791=FILL_AREA_STYLE('',(#792));
#792=FILL_AREA_STYLE_COLOUR('',#793);
#793=COLOUR_RGB('',0.972549019607843,0.529411764705882,0.00392156862745098);
#794=MANIFOLD_SOLID_BREP('Part 1',#785);
#795=SHAPE_DEFINITION_REPRESENTATION(#1365,#796);
#796=SHAPE_REPRESENTATION('Part 1',(#797),#1360);
#797=AXIS2_PLACEMENT_3D('',#1088,#873,#874);
#798=AXIS2_PLACEMENT_3D('',#1089,#875,#876);
#799=AXIS2_PLACEMENT_3D('',#1093,#878,#879);
#800=AXIS2_PLACEMENT_3D('',#1097,#881,#882);
#801=AXIS2_PLACEMENT_3D('',#1098,#883,#884);
#802=AXIS2_PLACEMENT_3D('',#1102,#886,#887);
#803=AXIS2_PLACEMENT_3D('',#1106,#889,#890);
#804=AXIS2_PLACEMENT_3D('',#1107,#891,#892);
#805=AXIS2_PLACEMENT_3D('',#1113,#893,#894);
#806=AXIS2_PLACEMENT_3D('',#1120,#895,#896);
#807=AXIS2_PLACEMENT_3D('',#1127,#897,#898);
#808=AXIS2_PLACEMENT_3D('',#1138,#899,#900);
#809=AXIS2_PLACEMENT_3D('',#1144,#901,#902);
#810=AXIS2_PLACEMENT_3D('',#1146,#903,#904);
#811=AXIS2_PLACEMENT_3D('',#1181,#905,#906);
#812=AXIS2_PLACEMENT_3D('',#1192,#907,#908);
#813=AXIS2_PLACEMENT_3D('',#1194,#909,#910);
#814=AXIS2_PLACEMENT_3D('',#1197,#913,#914);
#815=AXIS2_PLACEMENT_3D('',#1198,#915,#916);
#816=AXIS2_PLACEMENT_3D('',#1200,#917,#918);
#817=AXIS2_PLACEMENT_3D('',#1201,#919,#920);
#818=AXIS2_PLACEMENT_3D('',#1203,#921,#922);
#819=AXIS2_PLACEMENT_3D('',#1204,#923,#924);
#820=AXIS2_PLACEMENT_3D('',#1206,#925,#926);
#821=AXIS2_PLACEMENT_3D('',#1207,#927,#928);
#822=AXIS2_PLACEMENT_3D('',#1210,#930,#931);
#823=AXIS2_PLACEMENT_3D('',#1213,#933,#934);
#824=AXIS2_PLACEMENT_3D('',#1216,#936,#937);
#825=AXIS2_PLACEMENT_3D('',#1219,#939,#940);
#826=AXIS2_PLACEMENT_3D('',#1222,#942,#943);
#827=AXIS2_PLACEMENT_3D('',#1225,#945,#946);
#828=AXIS2_PLACEMENT_3D('',#1226,#947,#948);
#829=AXIS2_PLACEMENT_3D('',#1237,#954,#955);
#830=AXIS2_PLACEMENT_3D('',#1247,#961,#962);
#831=AXIS2_PLACEMENT_3D('',#1257,#968,#969);
#832=AXIS2_PLACEMENT_3D('',#1258,#970,#971);
#833=AXIS2_PLACEMENT_3D('',#1260,#973,#974);
#834=AXIS2_PLACEMENT_3D('',#1262,#976,#977);
#835=AXIS2_PLACEMENT_3D('',#1264,#979,#980);
#836=AXIS2_PLACEMENT_3D('',#1266,#982,#983);
#837=AXIS2_PLACEMENT_3D('',#1268,#985,#986);
#838=AXIS2_PLACEMENT_3D('',#1270,#988,#989);
#839=AXIS2_PLACEMENT_3D('',#1274,#991,#992);
#840=AXIS2_PLACEMENT_3D('',#1278,#994,#995);
#841=AXIS2_PLACEMENT_3D('',#1279,#996,#997);
#842=AXIS2_PLACEMENT_3D('',#1282,#999,#1000);
#843=AXIS2_PLACEMENT_3D('',#1286,#1002,#1003);
#844=AXIS2_PLACEMENT_3D('',#1290,#1005,#1006);
#845=AXIS2_PLACEMENT_3D('',#1294,#1008,#1009);
#846=AXIS2_PLACEMENT_3D('',#1298,#1011,#1012);
#847=AXIS2_PLACEMENT_3D('',#1301,#1014,#1015);
#848=AXIS2_PLACEMENT_3D('',#1304,#1017,#1018);
#849=AXIS2_PLACEMENT_3D('',#1308,#1020,#1021);
#850=AXIS2_PLACEMENT_3D('',#1312,#1023,#1024);
#851=AXIS2_PLACEMENT_3D('',#1316,#1026,#1027);
#852=AXIS2_PLACEMENT_3D('',#1320,#1029,#1030);
#853=AXIS2_PLACEMENT_3D('',#1323,#1032,#1033);
#854=AXIS2_PLACEMENT_3D('',#1325,#1035,#1036);
#855=AXIS2_PLACEMENT_3D('',#1327,#1038,#1039);
#856=AXIS2_PLACEMENT_3D('',#1329,#1041,#1042);
#857=AXIS2_PLACEMENT_3D('',#1331,#1044,#1045);
#858=AXIS2_PLACEMENT_3D('',#1334,#1048,#1049);
#859=AXIS2_PLACEMENT_3D('',#1335,#1050,#1051);
#860=AXIS2_PLACEMENT_3D('',#1337,#1053,#1054);
#861=AXIS2_PLACEMENT_3D('',#1339,#1056,#1057);
#862=AXIS2_PLACEMENT_3D('',#1342,#1060,#1061);
#863=AXIS2_PLACEMENT_3D('',#1343,#1062,#1063);
#864=AXIS2_PLACEMENT_3D('',#1344,#1064,#1065);
#865=AXIS2_PLACEMENT_3D('',#1346,#1067,#1068);
#866=AXIS2_PLACEMENT_3D('',#1348,#1070,#1071);
#867=AXIS2_PLACEMENT_3D('',#1349,#1072,#1073);
#868=AXIS2_PLACEMENT_3D('',#1351,#1075,#1076);
#869=AXIS2_PLACEMENT_3D('',#1353,#1078,#1079);
#870=AXIS2_PLACEMENT_3D('',#1354,#1080,#1081);
#871=AXIS2_PLACEMENT_3D('',#1356,#1083,#1084);
#872=AXIS2_PLACEMENT_3D('',#1358,#1086,#1087);
#873=DIRECTION('',(0.,0.,1.));
#874=DIRECTION('',(1.,0.,0.));
#875=DIRECTION('',(0.,-1.,0.));
#876=DIRECTION('',(0.,0.,-1.));
#877=DIRECTION('',(0.,-1.,0.));
#878=DIRECTION('',(0.,-1.,0.));
#879=DIRECTION('',(0.,0.,-1.));
#880=DIRECTION('',(0.,-1.,0.));
#881=DIRECTION('',(0.,-1.,0.));
#882=DIRECTION('',(0.,0.,-1.));
#883=DIRECTION('',(0.,-1.,0.));
#884=DIRECTION('',(0.,0.,-1.));
#885=DIRECTION('',(0.,-1.,0.));
#886=DIRECTION('',(0.,-1.,0.));
#887=DIRECTION('',(0.,0.,-1.));
#888=DIRECTION('',(0.,-1.,0.));
#889=DIRECTION('',(0.,-1.,0.));
#890=DIRECTION('',(0.,0.,-1.));
#891=DIRECTION('',(0.,-1.,0.));
#892=DIRECTION('',(0.,0.,-1.));
#893=DIRECTION('',(0.,1.,0.));
#894=DIRECTION('',(0.,0.,1.));
#895=DIRECTION('',(0.,-1.,0.));
#896=DIRECTION('',(0.,0.,-1.));
#897=DIRECTION('',(0.,1.,0.));
#898=DIRECTION('',(0.,0.,1.));
#899=DIRECTION('',(0.,1.,0.));
#900=DIRECTION('',(0.,0.,1.));
#901=DIRECTION('',(0.,1.,0.));
#902=DIRECTION('',(0.,0.,1.));
#903=DIRECTION('',(0.,-1.,0.));
#904=DIRECTION('',(0.,0.,-1.));
#905=DIRECTION('',(0.,-1.,0.));
#906=DIRECTION('',(0.,0.,-1.));
#907=DIRECTION('',(0.,-1.,0.));
#908=DIRECTION('',(0.,0.,-1.));
#909=DIRECTION('',(0.,-1.,0.));
#910=DIRECTION('',(0.,0.,-1.));
#911=DIRECTION('',(0.,-1.,0.));
#912=DIRECTION('',(0.,-1.,0.));
#913=DIRECTION('',(0.,1.,0.));
#914=DIRECTION('',(0.,0.,1.));
#915=DIRECTION('',(0.,-1.,0.));
#916=DIRECTION('',(0.,0.,-1.));
#917=DIRECTION('',(0.,1.,0.));
#918=DIRECTION('',(0.,0.,1.));
#919=DIRECTION('',(0.,-1.,0.));
#920=DIRECTION('',(0.,0.,-1.));
#921=DIRECTION('',(0.,-1.,0.));
#922=DIRECTION('',(0.,0.,-1.));
#923=DIRECTION('',(0.,-1.,0.));
#924=DIRECTION('',(0.,0.,-1.));
#925=DIRECTION('',(0.,-1.,0.));
#926=DIRECTION('',(0.,0.,-1.));
#927=DIRECTION('',(0.,1.,0.));
#928=DIRECTION('',(-1.,0.,0.));
#929=DIRECTION('',(-0.866025403784439,0.,0.5));
#930=DIRECTION('',(0.,1.,0.));
#931=DIRECTION('',(0.,0.,1.));
#932=DIRECTION('',(0.866025403784439,0.,-0.5));
#933=DIRECTION('',(0.,1.,0.));
#934=DIRECTION('',(-1.,0.,0.));
#935=DIRECTION('',(0.866025403784439,0.,0.5));
#936=DIRECTION('',(0.,1.,0.));
#937=DIRECTION('',(0.,0.,1.));
#938=DIRECTION('',(-0.866025403784439,0.,-0.5));
#939=DIRECTION('',(0.,1.,0.));
#940=DIRECTION('',(-1.,0.,0.));
#941=DIRECTION('',(1.78979406251575E-16,0.,-1.));
#942=DIRECTION('',(0.,1.,0.));
#943=DIRECTION('',(0.,0.,1.));
#944=DIRECTION('',(-1.78979406251575E-16,0.,1.));
#945=DIRECTION('',(0.,-1.,0.));
#946=DIRECTION('',(0.,0.,-1.));
#947=DIRECTION('',(0.,-1.,0.));
#948=DIRECTION('',(0.,0.,-1.));
#949=DIRECTION('',(0.866025403784439,0.,0.5));
#950=DIRECTION('',(0.866025403784439,0.,0.5));
#951=DIRECTION('',(0.5,0.,-0.866025403784439));
#952=DIRECTION('',(-0.866025403784439,0.,-0.5));
#953=DIRECTION('',(-0.866025403784439,0.,-0.5));
#954=DIRECTION('',(0.,-1.,0.));
#955=DIRECTION('',(0.,0.,-1.));
#956=DIRECTION('',(1.78979406251575E-16,0.,-1.));
#957=DIRECTION('',(1.78979406251575E-16,0.,-1.));
#958=DIRECTION('',(-1.,0.,0.));
#959=DIRECTION('',(-1.78979406251575E-16,0.,1.));
#960=DIRECTION('',(-1.78979406251575E-16,0.,1.));
#961=DIRECTION('',(0.,-1.,0.));
#962=DIRECTION('',(0.,0.,-1.));
#963=DIRECTION('',(-0.866025403784439,0.,0.5));
#964=DIRECTION('',(-0.866025403784439,0.,0.5));
#965=DIRECTION('',(0.5,0.,0.866025403784439));
#966=DIRECTION('',(0.866025403784439,0.,-0.5));
#967=DIRECTION('',(0.866025403784439,0.,-0.5));
#968=DIRECTION('',(0.,-1.,0.));
#969=DIRECTION('',(0.,0.,-1.));
#970=DIRECTION('',(-0.5,0.,-0.866025403784439));
#971=DIRECTION('',(-0.866025403784439,0.,0.5));
#972=DIRECTION('',(0.,-1.,0.));
#973=DIRECTION('',(0.5,0.,0.866025403784439));
#974=DIRECTION('',(0.866025403784439,0.,-0.5));
#975=DIRECTION('',(0.,-1.,0.));
#976=DIRECTION('',(0.5,0.,-0.866025403784439));
#977=DIRECTION('',(-0.866025403784439,0.,-0.5));
#978=DIRECTION('',(0.,-1.,0.));
#979=DIRECTION('',(-0.5,0.,0.866025403784439));
#980=DIRECTION('',(0.866025403784439,0.,0.5));
#981=DIRECTION('',(0.,-1.,0.));
#982=DIRECTION('',(-1.,0.,-1.78979406251575E-16));
#983=DIRECTION('',(-1.78979406251575E-16,0.,1.));
#984=DIRECTION('',(0.,-1.,0.));
#985=DIRECTION('',(1.,0.,1.78979406251575E-16));
#986=DIRECTION('',(1.78979406251575E-16,0.,-1.));
#987=DIRECTION('',(0.,-1.,0.));
#988=DIRECTION('',(0.,-1.,0.));
#989=DIRECTION('',(0.,0.,-1.));
#990=DIRECTION('',(0.270598050073099,-0.707106781186548,-0.653281482438188));
#991=DIRECTION('',(0.,-1.,0.));
#992=DIRECTION('',(0.,0.,-1.));
#993=DIRECTION('',(0.270598050073099,0.707106781186548,0.653281482438188));
#994=DIRECTION('',(0.,-1.,0.));
#995=DIRECTION('',(0.,0.,-1.));
#996=DIRECTION('',(0.,-1.,0.));
#997=DIRECTION('',(0.,0.,-1.));
#998=DIRECTION('',(0.,1.,0.));
#999=DIRECTION('',(0.,-1.,0.));
#1000=DIRECTION('',(0.,0.,-1.));
#1001=DIRECTION('',(0.,1.,0.));
#1002=DIRECTION('',(0.,-1.,0.));
#1003=DIRECTION('',(0.,0.,-1.));
#1004=DIRECTION('',(0.,1.,0.));
#1005=DIRECTION('',(0.,-1.,0.));
#1006=DIRECTION('',(0.,0.,-1.));
#1007=DIRECTION('',(0.,1.,0.));
#1008=DIRECTION('',(0.,-1.,0.));
#1009=DIRECTION('',(0.,0.,-1.));
#1010=DIRECTION('',(0.,-1.,0.));
#1011=DIRECTION('',(0.,-1.,0.));
#1012=DIRECTION('',(0.,0.,-1.));
#1013=DIRECTION('',(0.,-1.,0.));
#1014=DIRECTION('',(0.,-1.,0.));
#1015=DIRECTION('',(0.,0.,-1.));
#1016=DIRECTION('',(0.,1.,0.));
#1017=DIRECTION('',(0.,-1.,0.));
#1018=DIRECTION('',(0.,0.,-1.));
#1019=DIRECTION('',(0.,1.,0.));
#1020=DIRECTION('',(0.,-1.,0.));
#1021=DIRECTION('',(0.,0.,-1.));
#1022=DIRECTION('',(0.,1.,0.));
#1023=DIRECTION('',(0.,-1.,0.));
#1024=DIRECTION('',(0.,0.,-1.));
#1025=DIRECTION('',(0.,1.,0.));
#1026=DIRECTION('',(0.,-1.,0.));
#1027=DIRECTION('',(0.,0.,-1.));
#1028=DIRECTION('',(0.,1.,0.));
#1029=DIRECTION('',(0.,-1.,0.));
#1030=DIRECTION('',(0.,0.,-1.));
#1031=DIRECTION('',(0.,1.,0.));
#1032=DIRECTION('',(0.923879532511287,0.,-0.38268343236509));
#1033=DIRECTION('',(-0.38268343236509,0.,-0.923879532511287));
#1034=DIRECTION('',(-0.38268343236509,0.,-0.923879532511287));
#1035=DIRECTION('',(-0.923879532511287,0.,-0.38268343236509));
#1036=DIRECTION('',(-0.38268343236509,0.,0.923879532511287));
#1037=DIRECTION('',(-0.38268343236509,0.,0.923879532511287));
#1038=DIRECTION('',(0.,-1.,0.));
#1039=DIRECTION('',(0.,0.,-1.));
#1040=DIRECTION('',(0.991444861373811,0.,-0.130526192220051));
#1041=DIRECTION('',(0.,-1.,0.));
#1042=DIRECTION('',(0.,0.,-1.));
#1043=DIRECTION('',(0.99144486137381,0.,0.130526192220052));
#1044=DIRECTION('',(0.,-1.,0.));
#1045=DIRECTION('',(0.,0.,-1.));
#1046=DIRECTION('',(0.43045933457688,0.707106781186548,-0.560985526796931));
#1047=DIRECTION('',(-0.701057384649978,-0.707106781186548,0.092295955641257));
#1048=DIRECTION('',(0.130526192220051,0.,0.991444861373811));
#1049=DIRECTION('',(0.991444861373811,0.,-0.130526192220051));
#1050=DIRECTION('',(-0.793353340291235,0.,-0.608761429008721));
#1051=DIRECTION('',(-0.608761429008721,0.,0.793353340291235));
#1052=DIRECTION('',(-0.608761429008721,0.,0.793353340291235));
#1053=DIRECTION('',(0.,-1.,0.));
#1054=DIRECTION('',(0.,0.,-1.));
#1055=DIRECTION('',(-0.608761429008721,0.,-0.793353340291235));
#1056=DIRECTION('',(0.,-1.,0.));
#1057=DIRECTION('',(0.,0.,-1.));
#1058=DIRECTION('',(-0.701057384649978,0.707106781186548,-0.0922959556412573));
#1059=DIRECTION('',(0.43045933457688,-0.707106781186548,0.560985526796931));
#1060=DIRECTION('',(0.793353340291235,0.,-0.608761429008721));
#1061=DIRECTION('',(-0.608761429008721,0.,-0.793353340291235));
#1062=DIRECTION('',(-0.130526192220052,0.,0.99144486137381));
#1063=DIRECTION('',(0.99144486137381,0.,0.130526192220052));
#1064=DIRECTION('',(-0.5,0.,-0.866025403784439));
#1065=DIRECTION('',(-0.866025403784439,0.,0.5));
#1066=DIRECTION('',(0.,1.,0.));
#1067=DIRECTION('',(0.5,0.,0.866025403784439));
#1068=DIRECTION('',(0.866025403784439,0.,-0.5));
#1069=DIRECTION('',(0.,1.,0.));
#1070=DIRECTION('',(-0.866025403784438,0.,0.5));
#1071=DIRECTION('',(0.5,0.,0.866025403784439));
#1072=DIRECTION('',(0.5,0.,-0.866025403784439));
#1073=DIRECTION('',(-0.866025403784439,0.,-0.5));
#1074=DIRECTION('',(0.,1.,0.));
#1075=DIRECTION('',(-0.5,0.,0.866025403784439));
#1076=DIRECTION('',(0.866025403784439,0.,0.5));
#1077=DIRECTION('',(0.,1.,0.));
#1078=DIRECTION('',(0.866025403784438,0.,0.5));
#1079=DIRECTION('',(0.5,0.,-0.866025403784439));
#1080=DIRECTION('',(-1.,0.,-1.78979406251575E-16));
#1081=DIRECTION('',(-1.78979406251575E-16,0.,1.));
#1082=DIRECTION('',(0.,1.,0.));
#1083=DIRECTION('',(1.,0.,1.78979406251575E-16));
#1084=DIRECTION('',(1.78979406251575E-16,0.,-1.));
#1085=DIRECTION('',(0.,1.,0.));
#1086=DIRECTION('',(0.,0.,-1.));
#1087=DIRECTION('',(-1.,0.,0.));
#1088=CARTESIAN_POINT('',(0.,0.,0.));
#1089=CARTESIAN_POINT('',(0.,0.000209320336580276,0.));
#1090=CARTESIAN_POINT('',(-0.0401609560406834,0.000209320336580276,0.0203001874350532));
#1091=CARTESIAN_POINT('',(-0.0401609560406834,0.0686960268735886,0.0203001874350532));
#1092=CARTESIAN_POINT('',(-0.0401609560406834,0.0706960268735886,0.0203001874350532));
#1093=CARTESIAN_POINT('',(0.,0.0686960268735886,0.));
#1094=CARTESIAN_POINT('',(-0.0025,0.0686960268735886,-0.0449305018890285));
#1095=CARTESIAN_POINT('',(-0.0025,0.000209320336580276,-0.0449305018890285));
#1096=CARTESIAN_POINT('',(-0.0025,0.0706960268735886,-0.0449305018890285));
#1097=CARTESIAN_POINT('',(0.,0.0706960268735886,0.));
#1098=CARTESIAN_POINT('',(0.,0.000209320336580276,0.));
#1099=CARTESIAN_POINT('',(0.0401609560406834,0.000209320336580276,0.0203001874350532));
#1100=CARTESIAN_POINT('',(0.0401609560406834,0.0706960268735886,0.0203001874350532));
#1101=CARTESIAN_POINT('',(0.0401609560406834,0.0686960268735886,0.0203001874350532));
#1102=CARTESIAN_POINT('',(0.,0.0706960268735886,0.));
#1103=CARTESIAN_POINT('',(0.0025,0.0706960268735886,-0.0449305018890285));
#1104=CARTESIAN_POINT('',(0.0025,0.000209320336580276,-0.0449305018890285));
#1105=CARTESIAN_POINT('',(0.0025,0.0686960268735886,-0.0449305018890285));
#1106=CARTESIAN_POINT('',(0.,0.0686960268735886,0.));
#1107=CARTESIAN_POINT('',(0.,0.0686960268735886,0.));
#1108=CARTESIAN_POINT('',(-0.0410282918185284,0.0676960268735886,0.0208009439798697));
#1109=CARTESIAN_POINT('',(-0.0407391846438205,0.068029365701483,0.0206340278747275));
#1110=CARTESIAN_POINT('',(-0.0404500728236167,0.0683626991571044,0.020467109087507));
#1111=CARTESIAN_POINT('',(-0.0401609560406835,0.0686960268735886,0.0203001874350532));
#1112=CARTESIAN_POINT('',(-0.0410282918185284,0.0676960268735886,0.0208009439798698));
#1113=CARTESIAN_POINT('',(0.,0.0676960268735886,0.));
#1114=CARTESIAN_POINT('',(-0.0385282918185284,0.0676960268735886,0.0251310709987919));
#1115=CARTESIAN_POINT('',(-0.0376609560406834,0.0686960268735886,0.0246303144539754));
#1116=CARTESIAN_POINT('',(-0.0379500728236167,0.0683626991571044,0.0247972361064292));
#1117=CARTESIAN_POINT('',(-0.0382391846438205,0.0680293657014831,0.0249641548936497));
#1118=CARTESIAN_POINT('',(-0.0385282918185283,0.0676960268735886,0.0251310709987919));
#1119=CARTESIAN_POINT('',(-0.0376609560406835,0.0686960268735886,0.0246303144539753));
#1120=CARTESIAN_POINT('',(0.,0.0686960268735886,0.));
#1121=CARTESIAN_POINT('',(0.0376609560406835,0.0686960268735886,0.0246303144539753));
#1122=CARTESIAN_POINT('',(0.0385282918185283,0.0676960268735886,0.0251310709987919));
#1123=CARTESIAN_POINT('',(0.0382391846438205,0.0680293657014831,0.0249641548936497));
#1124=CARTESIAN_POINT('',(0.0379500728236167,0.0683626991571044,0.0247972361064292));
#1125=CARTESIAN_POINT('',(0.0376609560406834,0.0686960268735886,0.0246303144539754));
#1126=CARTESIAN_POINT('',(0.0385282918185284,0.0676960268735886,0.0251310709987919));
#1127=CARTESIAN_POINT('',(0.,0.0676960268735886,0.));
#1128=CARTESIAN_POINT('',(0.0410282918185284,0.0676960268735886,0.0208009439798697));
#1129=CARTESIAN_POINT('',(0.0401609560406835,0.0686960268735886,0.0203001874350532));
#1130=CARTESIAN_POINT('',(0.0404500728236167,0.0683626991571044,0.020467109087507));
#1131=CARTESIAN_POINT('',(0.0407391846438205,0.068029365701483,0.0206340278747275));
#1132=CARTESIAN_POINT('',(0.0410282918185284,0.0676960268735886,0.0208009439798697));
#1133=CARTESIAN_POINT('',(0.0025,0.0676960268735886,-0.0459320149786617));
#1134=CARTESIAN_POINT('',(0.0025,0.06802936570491,-0.0455981827649452));
#1135=CARTESIAN_POINT('',(0.0025,0.0683626991606075,-0.0452643451904276));
#1136=CARTESIAN_POINT('',(0.0025,0.0686960268735886,-0.0449305018890286));
#1137=CARTESIAN_POINT('',(0.0025,0.0676960268735886,-0.0459320149786617));
#1138=CARTESIAN_POINT('',(0.,0.0676960268735886,0.));
#1139=CARTESIAN_POINT('',(-0.0025,0.0676960268735886,-0.0459320149786617));
#1140=CARTESIAN_POINT('',(-0.0025,0.0686960268735886,-0.0449305018890286));
#1141=CARTESIAN_POINT('',(-0.0025,0.0683626991570859,-0.0452643451939546));
#1142=CARTESIAN_POINT('',(-0.0025,0.068029365701465,-0.0455981827683954));
#1143=CARTESIAN_POINT('',(-0.0025,0.0676960268735886,-0.0459320149786617));
#1144=CARTESIAN_POINT('',(0.,0.0439460268735886,0.));
#1145=CARTESIAN_POINT('',(0.,0.0439460268735886,0.06975));
#1146=CARTESIAN_POINT('',(0.,0.0456960268735885,0.));
#1147=CARTESIAN_POINT('',(-0.0401609560406834,0.0706960268735886,0.0203001874350532));
#1148=CARTESIAN_POINT('',(-0.0407583889556759,0.0700072361804766,0.0206451154893468));
#1149=CARTESIAN_POINT('',(-0.0413558007102004,0.0693184210172297,0.0209900313266386));
#1150=CARTESIAN_POINT('',(-0.0419531939778686,0.0686295844756337,0.0213349364905389));
#1151=CARTESIAN_POINT('',(-0.0419531939778686,0.0686295844756337,0.0213349364905389));
#1152=CARTESIAN_POINT('',(-0.0025,0.0686295844756337,-0.047));
#1153=CARTESIAN_POINT('',(-0.0025,0.0693184210313967,-0.0463101896580122));
#1154=CARTESIAN_POINT('',(-0.0025,0.0700072361952943,-0.0456203579827752));
#1155=CARTESIAN_POINT('',(-0.0025,0.0706960268735886,-0.0449305018890285));
#1156=CARTESIAN_POINT('',(-0.0025,0.0686295844756337,-0.047));
#1157=CARTESIAN_POINT('',(0.0025,0.0686295844756337,-0.047));
#1158=CARTESIAN_POINT('',(0.000835691132399773,0.068717986571841,-0.047));
#1159=CARTESIAN_POINT('',(-0.000830968844278789,0.0687182374027877,-0.047));
#1160=CARTESIAN_POINT('',(-0.0025,0.0686295844756337,-0.047));
#1161=CARTESIAN_POINT('',(0.0025,0.0686295844756337,-0.047));
#1162=CARTESIAN_POINT('',(0.0025,0.0706960268735886,-0.0449305018890285));
#1163=CARTESIAN_POINT('',(0.0025,0.0700072361806894,-0.0456203579974027));
#1164=CARTESIAN_POINT('',(0.0025,0.0693184210174331,-0.0463101896719956));
#1165=CARTESIAN_POINT('',(0.0025,0.0686295844756337,-0.047));
#1166=CARTESIAN_POINT('',(0.0419531939778686,0.0686295844756337,0.0213349364905389));
#1167=CARTESIAN_POINT('',(0.0413558007102004,0.0693184210172297,0.0209900313266386));
#1168=CARTESIAN_POINT('',(0.0407583889556759,0.0700072361804766,0.0206451154893468));
#1169=CARTESIAN_POINT('',(0.0401609560406834,0.0706960268735886,0.0203001874350532));
#1170=CARTESIAN_POINT('',(0.0419531939778686,0.0686295844756337,0.0213349364905389));
#1171=CARTESIAN_POINT('',(0.0394531939778687,0.0686295844756337,0.0256650635094611));
#1172=CARTESIAN_POINT('',(0.040286527311202,0.0687181118096403,0.024221687836487));
#1173=CARTESIAN_POINT('',(0.0411198606445353,0.0687181118096403,0.022778312163513));
#1174=CARTESIAN_POINT('',(0.0419531939778687,0.0686295844756337,0.0213349364905389));
#1175=CARTESIAN_POINT('',(0.0394531939778687,0.0686295844756337,0.0256650635094611));
#1176=CARTESIAN_POINT('',(0.0376609560406834,0.0706960268735886,0.0246303144539754));
#1177=CARTESIAN_POINT('',(0.0382583889556759,0.0700072361804766,0.024975242508269));
#1178=CARTESIAN_POINT('',(0.0388558007102004,0.0693184210172297,0.0253201583455608));
#1179=CARTESIAN_POINT('',(0.0394531939778686,0.0686295844756337,0.0256650635094611));
#1180=CARTESIAN_POINT('',(0.0376609560406835,0.0706960268735886,0.0246303144539753));
#1181=CARTESIAN_POINT('',(0.,0.0706960268735886,0.));
#1182=CARTESIAN_POINT('',(-0.0376609560406835,0.0706960268735886,0.0246303144539753));
#1183=CARTESIAN_POINT('',(-0.0394531939778686,0.0686295844756337,0.0256650635094611));
#1184=CARTESIAN_POINT('',(-0.0388558007102004,0.0693184210172297,0.0253201583455608));
#1185=CARTESIAN_POINT('',(-0.0382583889556759,0.0700072361804766,0.024975242508269));
#1186=CARTESIAN_POINT('',(-0.0376609560406834,0.0706960268735886,0.0246303144539754));
#1187=CARTESIAN_POINT('',(-0.0394531939778687,0.0686295844756337,0.0256650635094611));
#1188=CARTESIAN_POINT('',(-0.0419531939778686,0.0686295844756337,0.0213349364905389));
#1189=CARTESIAN_POINT('',(-0.0411198606445353,0.0687181118096403,0.022778312163513));
#1190=CARTESIAN_POINT('',(-0.040286527311202,0.0687181118096403,0.024221687836487));
#1191=CARTESIAN_POINT('',(-0.0394531939778686,0.0686295844756337,0.0256650635094611));
#1192=CARTESIAN_POINT('',(0.,0.0456960268735886,0.));
#1193=CARTESIAN_POINT('',(0.,0.0456960268735886,-0.07));
#1194=CARTESIAN_POINT('',(0.,0.000209320336580276,0.));
#1195=CARTESIAN_POINT('',(-0.0376609560406835,0.000209320336580276,0.0246303144539753));
#1196=CARTESIAN_POINT('',(0.0376609560406835,0.000209320336580276,0.0246303144539753));
#1197=CARTESIAN_POINT('',(0.,0.0436960268735886,0.));
#1198=CARTESIAN_POINT('',(0.,0.0441960268735886,0.));
#1199=CARTESIAN_POINT('',(0.,0.0441960268735886,-0.07));
#1200=CARTESIAN_POINT('',(0.06975,0.0456960268735886,0.));
#1201=CARTESIAN_POINT('',(0.,0.0456960268735886,0.));
#1202=CARTESIAN_POINT('',(0.,0.0456960268735886,-0.0695));
#1203=CARTESIAN_POINT('',(0.,0.0456960268735886,0.));
#1204=CARTESIAN_POINT('',(0.,0.0451960268735886,0.));
#1205=CARTESIAN_POINT('',(0.,0.0451960268735886,-0.07));
#1206=CARTESIAN_POINT('',(0.,0.000209320336580276,0.));
#1207=CARTESIAN_POINT('',(0.,0.0676960268735886,-0.0106674682452695));
#1208=CARTESIAN_POINT('',(-0.0283132938682637,0.0676960268735886,0.0134599364905389));
#1209=CARTESIAN_POINT('',(-0.0159874522899992,0.0676960268735886,0.00634360853733916));
#1210=CARTESIAN_POINT('',(0.,0.0676960268735886,0.));
#1211=CARTESIAN_POINT('',(-0.0134874522899991,0.0676960268735886,0.0106737355562613));
#1212=CARTESIAN_POINT('',(-0.0258132938682637,0.0676960268735886,0.0177900635094611));
#1213=CARTESIAN_POINT('',(0.,0.0676960268735886,-0.0106674682452695));
#1214=CARTESIAN_POINT('',(0.0258132938682637,0.0676960268735886,0.0177900635094611));
#1215=CARTESIAN_POINT('',(0.0134874522899991,0.0676960268735886,0.0106737355562613));
#1216=CARTESIAN_POINT('',(0.,0.0676960268735886,0.));
#1217=CARTESIAN_POINT('',(0.0159874522899991,0.0676960268735886,0.00634360853733916));
#1218=CARTESIAN_POINT('',(0.0283132938682637,0.0676960268735886,0.0134599364905389));
#1219=CARTESIAN_POINT('',(0.,0.0676960268735886,-0.0106674682452695));
#1220=CARTESIAN_POINT('',(0.0025,0.0676960268735886,-0.03125));
#1221=CARTESIAN_POINT('',(0.0025,0.0676960268735886,-0.0170173440936005));
#1222=CARTESIAN_POINT('',(0.,0.0676960268735886,0.));
#1223=CARTESIAN_POINT('',(-0.0025,0.0676960268735886,-0.0170173440936005));
#1224=CARTESIAN_POINT('',(-0.0025,0.0676960268735886,-0.03125));
#1225=CARTESIAN_POINT('',(0.01595,0.0706960268735886,0.));
#1226=CARTESIAN_POINT('',(0.,0.0706960268735886,0.));
#1227=CARTESIAN_POINT('',(0.,0.0706960268735886,-0.0147));
#1228=CARTESIAN_POINT('',(0.0258132938682637,0.0706960268735886,0.0177900635094611));
#1229=CARTESIAN_POINT('',(0.0134874522899991,0.0706960268735886,0.0106737355562613));
#1230=CARTESIAN_POINT('',(0.0258132938682637,0.0706960268735886,0.0177900635094611));
#1231=CARTESIAN_POINT('',(0.0394531939778687,0.0706960268735886,0.0256650635094611));
#1232=CARTESIAN_POINT('',(0.0407031939778686,0.0706960268735886,0.0235));
#1233=CARTESIAN_POINT('',(0.0419531939778686,0.0706960268735886,0.0213349364905389));
#1234=CARTESIAN_POINT('',(0.0283132938682637,0.0706960268735886,0.0134599364905389));
#1235=CARTESIAN_POINT('',(0.0283132938682637,0.0706960268735886,0.0134599364905389));
#1236=CARTESIAN_POINT('',(0.0159874522899991,0.0706960268735886,0.00634360853733916));
#1237=CARTESIAN_POINT('',(0.,0.0706960268735886,0.));
#1238=CARTESIAN_POINT('',(0.0025,0.0706960268735886,-0.0170173440936005));
#1239=CARTESIAN_POINT('',(0.0025,0.0706960268735886,-0.03125));
#1240=CARTESIAN_POINT('',(0.0025,0.0706960268735886,-0.03125));
#1241=CARTESIAN_POINT('',(0.0025,0.0706960268735886,-0.047));
#1242=CARTESIAN_POINT('',(8.23993651088983E-18,0.0706960268735886,-0.047));
#1243=CARTESIAN_POINT('',(-0.0025,0.0706960268735886,-0.047));
#1244=CARTESIAN_POINT('',(-0.0025,0.0706960268735886,-0.03125));
#1245=CARTESIAN_POINT('',(-0.0025,0.0706960268735886,-0.03125));
#1246=CARTESIAN_POINT('',(-0.0025,0.0706960268735886,-0.0170173440936005));
#1247=CARTESIAN_POINT('',(0.,0.0706960268735886,0.));
#1248=CARTESIAN_POINT('',(-0.0159874522899991,0.0706960268735886,0.00634360853733916));
#1249=CARTESIAN_POINT('',(-0.0283132938682637,0.0706960268735886,0.0134599364905389));
#1250=CARTESIAN_POINT('',(-0.0283132938682637,0.0706960268735886,0.0134599364905389));
#1251=CARTESIAN_POINT('',(-0.0419531939778686,0.0706960268735886,0.0213349364905389));
#1252=CARTESIAN_POINT('',(-0.0407031939778686,0.0706960268735886,0.0235));
#1253=CARTESIAN_POINT('',(-0.0394531939778687,0.0706960268735886,0.0256650635094611));
#1254=CARTESIAN_POINT('',(-0.0258132938682637,0.0706960268735886,0.0177900635094611));
#1255=CARTESIAN_POINT('',(-0.0258132938682637,0.0706960268735886,0.0177900635094611));
#1256=CARTESIAN_POINT('',(-0.0134874522899991,0.0706960268735886,0.0106737355562613));
#1257=CARTESIAN_POINT('',(0.,0.0706960268735886,0.));
#1258=CARTESIAN_POINT('',(-0.0283132938682637,0.0676960268735886,0.0134599364905389));
#1259=CARTESIAN_POINT('',(-0.0159874522899991,0.000209320336580276,0.00634360853733916));
#1260=CARTESIAN_POINT('',(-0.0258132938682637,0.0676960268735886,0.0177900635094611));
#1261=CARTESIAN_POINT('',(-0.0134874522899991,0.000209320336580276,0.0106737355562613));
#1262=CARTESIAN_POINT('',(0.0283132938682637,0.0676960268735886,0.0134599364905389));
#1263=CARTESIAN_POINT('',(0.0159874522899991,0.000209320336580276,0.00634360853733916));
#1264=CARTESIAN_POINT('',(0.0258132938682637,0.0676960268735886,0.0177900635094611));
#1265=CARTESIAN_POINT('',(0.0134874522899991,0.000209320336580276,0.0106737355562613));
#1266=CARTESIAN_POINT('',(-0.0025,0.0676960268735886,-0.03125));
#1267=CARTESIAN_POINT('',(-0.0025,0.000209320336580276,-0.0170173440936005));
#1268=CARTESIAN_POINT('',(0.0025,0.0676960268735886,-0.03125));
#1269=CARTESIAN_POINT('',(0.0025,0.000209320336580276,-0.0170173440936005));
#1270=CARTESIAN_POINT('',(0.,-0.0720039731264114,0.));
#1271=CARTESIAN_POINT('',(1.6026755140218E-18,-0.0573039731264114,6.63849933991103E-19));
#1272=CARTESIAN_POINT('',(0.00562544645576683,-0.0720039731264114,-0.0135810291279159));
#1273=CARTESIAN_POINT('',(0.00658215503667954,-0.0745039731264114,-0.0158907279591941));
#1274=CARTESIAN_POINT('',(0.,-0.0720039731264114,0.));
#1275=CARTESIAN_POINT('',(-0.00562544645576684,-0.0720039731264114,-0.0135810291279159));
#1276=CARTESIAN_POINT('',(0.,-0.0573039731264114,0.));
#1277=CARTESIAN_POINT('',(-0.00658215503667956,-0.0745039731264114,-0.0158907279591941));
#1278=CARTESIAN_POINT('',(0.,-0.0745039731264114,0.));
#1279=CARTESIAN_POINT('',(0.,0.000209320336580276,0.));
#1280=CARTESIAN_POINT('',(0.00562544645576682,-0.174840020624432,-0.0135810291279159));
#1281=CARTESIAN_POINT('',(0.00562544645576682,0.0456960268735886,-0.0135810291279159));
#1282=CARTESIAN_POINT('',(0.,0.0456960268735886,0.));
#1283=CARTESIAN_POINT('',(0.014574239462195,0.0456960268735886,0.00191873502563476));
#1284=CARTESIAN_POINT('',(0.014574239462195,-0.174840020624432,0.00191873502563476));
#1285=CARTESIAN_POINT('',(0.014574239462195,-0.0720039731264115,0.00191873502563476));
#1286=CARTESIAN_POINT('',(0.,-0.0720039731264114,0.));
#1287=CARTESIAN_POINT('',(0.00894879300642821,-0.0720039731264114,0.0116622941022812));
#1288=CARTESIAN_POINT('',(0.0089487930064282,-0.174840020624432,0.0116622941022812));
#1289=CARTESIAN_POINT('',(0.0089487930064282,0.0456960268735886,0.0116622941022812));
#1290=CARTESIAN_POINT('',(0.,0.0456960268735886,0.));
#1291=CARTESIAN_POINT('',(-0.00894879300642819,0.0456960268735886,0.0116622941022812));
#1292=CARTESIAN_POINT('',(-0.0089487930064282,-0.174840020624432,0.0116622941022812));
#1293=CARTESIAN_POINT('',(-0.00894879300642822,-0.0720039731264115,0.0116622941022812));
#1294=CARTESIAN_POINT('',(0.,-0.0720039731264114,0.));
#1295=CARTESIAN_POINT('',(-0.014574239462195,-0.0720039731264114,0.00191873502563476));
#1296=CARTESIAN_POINT('',(-0.014574239462195,0.000209320336580276,0.00191873502563476));
#1297=CARTESIAN_POINT('',(-0.014574239462195,0.0456960268735886,0.00191873502563476));
#1298=CARTESIAN_POINT('',(0.,0.0456960268735886,0.));
#1299=CARTESIAN_POINT('',(-0.00562544645576683,0.0456960268735886,-0.0135810291279159));
#1300=CARTESIAN_POINT('',(-0.00562544645576683,0.000209320336580276,-0.0135810291279159));
#1301=CARTESIAN_POINT('',(0.,0.000209320336580276,0.));
#1302=CARTESIAN_POINT('',(-0.00658215503667955,-0.174840020624432,-0.0158907279591941));
#1303=CARTESIAN_POINT('',(-0.00658215503667955,0.0456960268735886,-0.0158907279591941));
#1304=CARTESIAN_POINT('',(0.,0.0456960268735886,0.));
#1305=CARTESIAN_POINT('',(-0.0170528516156295,0.0456960268735886,0.00224505050618488));
#1306=CARTESIAN_POINT('',(-0.0170528516156295,-0.174840020624432,0.00224505050618488));
#1307=CARTESIAN_POINT('',(-0.0170528516156295,-0.0745039731264114,0.00224505050618488));
#1308=CARTESIAN_POINT('',(0.,-0.0745039731264114,0.));
#1309=CARTESIAN_POINT('',(-0.01047069657895,-0.0745039731264114,0.0136456774530093));
#1310=CARTESIAN_POINT('',(-0.01047069657895,-0.174840020624432,0.0136456774530092));
#1311=CARTESIAN_POINT('',(-0.01047069657895,0.0456960268735886,0.0136456774530092));
#1312=CARTESIAN_POINT('',(0.,0.0456960268735886,0.));
#1313=CARTESIAN_POINT('',(0.01047069657895,0.0456960268735886,0.0136456774530092));
#1314=CARTESIAN_POINT('',(0.01047069657895,-0.174840020624432,0.0136456774530092));
#1315=CARTESIAN_POINT('',(0.01047069657895,-0.0745039731264115,0.0136456774530093));
#1316=CARTESIAN_POINT('',(0.,-0.0745039731264114,0.));
#1317=CARTESIAN_POINT('',(0.0170528516156295,-0.0745039731264114,0.00224505050618489));
#1318=CARTESIAN_POINT('',(0.0170528516156295,-0.174840020624432,0.00224505050618488));
#1319=CARTESIAN_POINT('',(0.0170528516156295,0.0456960268735886,0.00224505050618488));
#1320=CARTESIAN_POINT('',(0.,0.0456960268735886,0.));
#1321=CARTESIAN_POINT('',(0.00658215503667954,0.0456960268735886,-0.0158907279591941));
#1322=CARTESIAN_POINT('',(0.00658215503667954,-0.174840020624432,-0.0158907279591941));
#1323=CARTESIAN_POINT('',(-0.00478354290456363,-0.174840020624432,-0.0115484941563911));
#1324=CARTESIAN_POINT('',(-0.00478354290456363,0.0456960268735886,-0.0115484941563911));
#1325=CARTESIAN_POINT('',(0.00478354290456362,-0.174840020624432,-0.0115484941563911));
#1326=CARTESIAN_POINT('',(0.00478354290456362,0.0456960268735886,-0.0115484941563911));
#1327=CARTESIAN_POINT('',(0.01595,0.0456960268735886,0.));
#1328=CARTESIAN_POINT('',(-0.0123930607671726,0.0456960268735886,0.00163157740275064));
#1329=CARTESIAN_POINT('',(0.01595,0.0456960268735886,0.));
#1330=CARTESIAN_POINT('',(0.0123930607671726,0.0456960268735886,0.00163157740275065));
#1331=CARTESIAN_POINT('',(0.,-0.0720039731264114,0.));
#1332=CARTESIAN_POINT('',(-6.88124332073911E-19,-0.0573039731264114,-5.28016371085308E-19));
#1333=CARTESIAN_POINT('',(-2.8303356234248E-20,-0.0573039731264114,-2.14985334520215E-19));
#1334=CARTESIAN_POINT('',(-0.0123930607671726,-0.174840020624432,0.00163157740275064));
#1335=CARTESIAN_POINT('',(-0.00760951786260901,-0.174840020624432,0.00991691675364044));
#1336=CARTESIAN_POINT('',(-0.00760951786260901,0.0456960268735886,0.00991691675364044));
#1337=CARTESIAN_POINT('',(0.01595,0.0456960268735886,0.));
#1338=CARTESIAN_POINT('',(0.00760951786260901,0.0456960268735886,0.00991691675364044));
#1339=CARTESIAN_POINT('',(0.,-0.0720039731264114,0.));
#1340=CARTESIAN_POINT('',(-2.83033562342481E-20,-0.0573039731264114,2.14985334520215E-19));
#1341=CARTESIAN_POINT('',(6.88124332073911E-19,-0.0573039731264114,-5.28016371085308E-19));
#1342=CARTESIAN_POINT('',(0.00760951786260901,-0.174840020624432,0.00991691675364044));
#1343=CARTESIAN_POINT('',(0.0123930607671726,-0.174840020624432,0.00163157740275065));
#1344=CARTESIAN_POINT('',(-0.0283132938682637,0.0676960268735886,0.0134599364905389));
#1345=CARTESIAN_POINT('',(-0.0419531939778686,0.0676960268735886,0.0213349364905389));
#1346=CARTESIAN_POINT('',(-0.0258132938682637,0.0676960268735886,0.0177900635094611));
#1347=CARTESIAN_POINT('',(-0.0394531939778687,0.0676960268735886,0.0256650635094611));
#1348=CARTESIAN_POINT('',(-0.0407031939778686,0.0676960268735886,0.0235));
#1349=CARTESIAN_POINT('',(0.0283132938682637,0.0676960268735886,0.0134599364905389));
#1350=CARTESIAN_POINT('',(0.0419531939778686,0.0676960268735886,0.0213349364905389));
#1351=CARTESIAN_POINT('',(0.0258132938682637,0.0676960268735886,0.0177900635094611));
#1352=CARTESIAN_POINT('',(0.0394531939778687,0.0676960268735886,0.0256650635094611));
#1353=CARTESIAN_POINT('',(0.0407031939778686,0.0676960268735886,0.0235));
#1354=CARTESIAN_POINT('',(-0.0025,0.0676960268735886,-0.03125));
#1355=CARTESIAN_POINT('',(-0.0025,0.0676960268735886,-0.047));
#1356=CARTESIAN_POINT('',(0.0025,0.0676960268735886,-0.03125));
#1357=CARTESIAN_POINT('',(0.0025,0.0676960268735886,-0.047));
#1358=CARTESIAN_POINT('',(8.23993651088983E-18,0.0676960268735886,-0.047));
#1359=MECHANICAL_DESIGN_GEOMETRIC_PRESENTATION_REPRESENTATION('',(#786),
#1360);
#1360=(
GEOMETRIC_REPRESENTATION_CONTEXT(3)
GLOBAL_UNCERTAINTY_ASSIGNED_CONTEXT((#1361))
GLOBAL_UNIT_ASSIGNED_CONTEXT((#1364,#1363,#1362))
REPRESENTATION_CONTEXT('Part 1','TOP_LEVEL_ASSEMBLY_PART')
);
#1361=UNCERTAINTY_MEASURE_WITH_UNIT(LENGTH_MEASURE(2.E-5),#1364,
'DISTANCE_ACCURACY_VALUE','Maximum Tolerance applied to model');
#1362=(
NAMED_UNIT(*)
SI_UNIT($,.STERADIAN.)
SOLID_ANGLE_UNIT()
);
#1363=(
NAMED_UNIT(*)
PLANE_ANGLE_UNIT()
SI_UNIT($,.RADIAN.)
);
#1364=(
LENGTH_UNIT()
NAMED_UNIT(*)
SI_UNIT($,.METRE.)
);
#1365=PRODUCT_DEFINITION_SHAPE('','',#1366);
#1366=PRODUCT_DEFINITION('','',#1368,#1367);
#1367=PRODUCT_DEFINITION_CONTEXT('',#1374,'design');
#1368=PRODUCT_DEFINITION_FORMATION_WITH_SPECIFIED_SOURCE('','',#1370,
 .NOT_KNOWN.);
#1369=PRODUCT_RELATED_PRODUCT_CATEGORY('','',(#1370));
#1370=PRODUCT('Part 1','Part 1','Part 1',(#1372));
#1371=PRODUCT_CATEGORY('','');
#1372=PRODUCT_CONTEXT('',#1374,'mechanical');
#1373=APPLICATION_PROTOCOL_DEFINITION('international standard',
'automotive_design',2010,#1374);
#1374=APPLICATION_CONTEXT(
'core data for automotive mechanical design processes');
ENDSEC;
END-ISO-10303-21;
