%TF.GenerationSoftware,KiCad,Pcbnew,10.0.4*%
%TF.CreationDate,2026-09-20T20:21:13-04:00*%
%TF.ProjectId,hat,6861742e-6b69-4636-9164-5f7063625858,rev?*%
%TF.SameCoordinates,Original*%
%TF.FileFunction,Copper,L1,Top*%
%TF.FilePolarity,Positive*%
%FSLAX46Y46*%
G04 Gerber Fmt 4.6, Leading zero omitted, Abs format (unit mm)*
G04 Created by KiCad (PCBNEW 10.0.4) date 2026-09-20 20:21:13*
%MOMM*%
%LPD*%
G01*
G04 APERTURE LIST*
G04 Aperture macros list*
%AMRoundRect*
0 Rectangle with rounded corners*
0 $1 Rounding radius*
0 $2 $3 $4 $5 $6 $7 $8 $9 X,Y pos of 4 corners*
0 Add a 4 corners polygon primitive as box body*
4,1,4,$2,$3,$4,$5,$6,$7,$8,$9,$2,$3,0*
0 Add four circle primitives for the rounded corners*
1,1,$1+$1,$2,$3*
1,1,$1+$1,$4,$5*
1,1,$1+$1,$6,$7*
1,1,$1+$1,$8,$9*
0 Add four rect primitives between the rounded corners*
20,1,$1+$1,$2,$3,$4,$5,0*
20,1,$1+$1,$4,$5,$6,$7,0*
20,1,$1+$1,$6,$7,$8,$9,0*
20,1,$1+$1,$8,$9,$2,$3,0*%
G04 Aperture macros list end*
%TA.AperFunction,ComponentPad*%
%ADD10C,1.600000*%
%TD*%
%TA.AperFunction,ComponentPad*%
%ADD11R,1.050000X1.500000*%
%TD*%
%TA.AperFunction,ComponentPad*%
%ADD12O,1.050000X1.500000*%
%TD*%
%TA.AperFunction,ComponentPad*%
%ADD13RoundRect,0.250001X-0.949999X-0.949999X0.949999X-0.949999X0.949999X0.949999X-0.949999X0.949999X0*%
%TD*%
%TA.AperFunction,ComponentPad*%
%ADD14C,2.400000*%
%TD*%
%TA.AperFunction,ComponentPad*%
%ADD15RoundRect,0.250000X-1.050000X-1.050000X1.050000X-1.050000X1.050000X1.050000X-1.050000X1.050000X0*%
%TD*%
%TA.AperFunction,ComponentPad*%
%ADD16C,2.600000*%
%TD*%
%TA.AperFunction,ComponentPad*%
%ADD17RoundRect,0.250000X-0.600000X-0.725000X0.600000X-0.725000X0.600000X0.725000X-0.600000X0.725000X0*%
%TD*%
%TA.AperFunction,ComponentPad*%
%ADD18O,1.700000X1.950000*%
%TD*%
%TA.AperFunction,ComponentPad*%
%ADD19RoundRect,0.250000X-1.350000X-1.350000X1.350000X-1.350000X1.350000X1.350000X-1.350000X1.350000X0*%
%TD*%
%TA.AperFunction,ComponentPad*%
%ADD20C,3.200000*%
%TD*%
%TA.AperFunction,ComponentPad*%
%ADD21R,1.700000X1.700000*%
%TD*%
%TA.AperFunction,ComponentPad*%
%ADD22C,1.700000*%
%TD*%
%TA.AperFunction,ComponentPad*%
%ADD23RoundRect,0.250000X-0.550000X-0.550000X0.550000X-0.550000X0.550000X0.550000X-0.550000X0.550000X0*%
%TD*%
%TA.AperFunction,SMDPad,CuDef*%
%ADD24R,1.000000X1.500000*%
%TD*%
%TA.AperFunction,ComponentPad*%
%ADD25C,3.000000*%
%TD*%
%TA.AperFunction,ComponentPad*%
%ADD26C,2.200000*%
%TD*%
%TA.AperFunction,SMDPad,CuDef*%
%ADD27C,1.500000*%
%TD*%
%TA.AperFunction,ComponentPad*%
%ADD28O,1.700000X1.700000*%
%TD*%
%TA.AperFunction,ComponentPad*%
%ADD29RoundRect,0.250000X-0.750000X-0.750000X0.750000X-0.750000X0.750000X0.750000X-0.750000X0.750000X0*%
%TD*%
%TA.AperFunction,ComponentPad*%
%ADD30C,2.000000*%
%TD*%
%TA.AperFunction,ComponentPad*%
%ADD31RoundRect,0.250000X0.550000X-0.550000X0.550000X0.550000X-0.550000X0.550000X-0.550000X-0.550000X0*%
%TD*%
%TA.AperFunction,ComponentPad*%
%ADD32RoundRect,0.249999X-0.850001X-0.850001X0.850001X-0.850001X0.850001X0.850001X-0.850001X0.850001X0*%
%TD*%
%TA.AperFunction,SMDPad,CuDef*%
%ADD33RoundRect,0.250003X-3.499997X-2.999997X3.499997X-2.999997X3.499997X2.999997X-3.499997X2.999997X0*%
%TD*%
%TA.AperFunction,ComponentPad*%
%ADD34R,2.000000X2.000000*%
%TD*%
%TA.AperFunction,ViaPad*%
%ADD35C,0.600000*%
%TD*%
%TA.AperFunction,Conductor*%
%ADD36C,0.500000*%
%TD*%
%TA.AperFunction,Conductor*%
%ADD37C,0.250000*%
%TD*%
G04 APERTURE END LIST*
D10*
%TO.P,C29,1*%
%TO.N,/EC_ADC*%
X108975000Y-56854750D03*
%TO.P,C29,2*%
%TO.N,GND*%
X111475000Y-56854750D03*
%TD*%
%TO.P,C12,1*%
%TO.N,+5V_MAINS*%
X153705000Y-18098250D03*
%TO.P,C12,2*%
%TO.N,GND*%
X156205000Y-18098250D03*
%TD*%
D11*
%TO.P,Q7,1*%
%TO.N,GND*%
X297433216Y-142244250D03*
D12*
%TO.P,Q7,2*%
%TO.N,Net-(Q7-G)*%
X298703216Y-142244250D03*
%TO.P,Q7,3*%
%TO.N,Net-(Q6-G)*%
X299973216Y-142244250D03*
%TD*%
D10*
%TO.P,C36,1*%
%TO.N,+5VISO*%
X231175000Y-56854750D03*
%TO.P,C36,2*%
%TO.N,GNDISO*%
X233675000Y-56854750D03*
%TD*%
%TO.P,C20,1*%
%TO.N,+5V*%
X269444396Y-18348250D03*
%TO.P,C20,2*%
%TO.N,GND*%
X274444396Y-18348250D03*
%TD*%
%TO.P,R28,1*%
%TO.N,/BUZZ*%
X149935000Y-191287250D03*
%TO.P,R28,2*%
%TO.N,Net-(Q10-G)*%
X160095000Y-191287250D03*
%TD*%
D13*
%TO.P,J5,1*%
%TO.N,+3V3*%
X18065000Y-144704250D03*
D14*
%TO.P,J5,2*%
%TO.N,GND*%
X23145000Y-144704250D03*
%TO.P,J5,3*%
%TO.N,/W1*%
X28225000Y-144704250D03*
%TD*%
D15*
%TO.P,D9,1*%
%TO.N,Net-(D9-A1)*%
X189875000Y-86571250D03*
D16*
%TO.P,D9,2*%
%TO.N,GNDISO*%
X205115000Y-86571250D03*
%TD*%
D10*
%TO.P,C30,1*%
%TO.N,PH_VCC*%
X138275000Y-57104750D03*
%TO.P,C30,2*%
%TO.N,GND*%
X143275000Y-57104750D03*
%TD*%
%TO.P,R22,1*%
%TO.N,+3V3*%
X16075000Y-191287250D03*
%TO.P,R22,2*%
%TO.N,Net-(Q8-G)*%
X26235000Y-191287250D03*
%TD*%
%TO.P,C5,1*%
%TO.N,+12V*%
X266639646Y-57104750D03*
%TO.P,C5,2*%
%TO.N,GND*%
X271639646Y-57104750D03*
%TD*%
D13*
%TO.P,J11,1*%
%TO.N,Net-(J11-Pin_1)*%
X193515000Y-116517750D03*
D14*
%TO.P,J11,2*%
%TO.N,GND*%
X198595000Y-116517750D03*
%TD*%
D10*
%TO.P,C8,1*%
%TO.N,+5V_IN*%
X16075000Y-85301250D03*
%TO.P,C8,2*%
%TO.N,GND*%
X21075000Y-85301250D03*
%TD*%
%TO.P,C9,1*%
%TO.N,+5V_IN*%
X33225000Y-85301250D03*
%TO.P,C9,2*%
%TO.N,GND*%
X38225000Y-85301250D03*
%TD*%
%TO.P,R18,1*%
%TO.N,Net-(J4-S)*%
X227435953Y-169240750D03*
%TO.P,R18,2*%
%TO.N,/EC_ADC*%
X237595953Y-169240750D03*
%TD*%
%TO.P,R27,1*%
%TO.N,+3V3*%
X127625000Y-191287250D03*
%TO.P,R27,2*%
%TO.N,/SCL*%
X137785000Y-191287250D03*
%TD*%
%TO.P,C22,1*%
%TO.N,+5V*%
X301244396Y-18348250D03*
%TO.P,C22,2*%
%TO.N,GND*%
X306244396Y-18348250D03*
%TD*%
D17*
%TO.P,J12,1*%
%TO.N,Net-(J12-Pin_1)*%
X215235000Y-114047750D03*
D18*
%TO.P,J12,2*%
%TO.N,/FLT*%
X217735000Y-114047750D03*
%TO.P,J12,3*%
%TO.N,GND*%
X220235000Y-114047750D03*
%TD*%
D10*
%TO.P,C21,1*%
%TO.N,/VBAT_SENSE*%
X286594396Y-18098250D03*
%TO.P,C21,2*%
%TO.N,GND*%
X289094396Y-18098250D03*
%TD*%
%TO.P,R29,1*%
%TO.N,Net-(Q10-G)*%
X172245000Y-191287250D03*
%TO.P,R29,2*%
%TO.N,GND*%
X182405000Y-191287250D03*
%TD*%
%TO.P,C15,1*%
%TO.N,+5V_BAT*%
X200155000Y-18348250D03*
%TO.P,C15,2*%
%TO.N,GND*%
X205155000Y-18348250D03*
%TD*%
%TO.P,C23,1*%
%TO.N,+3V3*%
X16075000Y-57104750D03*
%TO.P,C23,2*%
%TO.N,GND*%
X21075000Y-57104750D03*
%TD*%
%TO.P,C13,1*%
%TO.N,VBAT*%
X168355000Y-18098250D03*
%TO.P,C13,2*%
%TO.N,GND*%
X170855000Y-18098250D03*
%TD*%
%TO.P,R10,1*%
%TO.N,Net-(Q2-G)*%
X48955953Y-169240750D03*
%TO.P,R10,2*%
%TO.N,GND*%
X59115953Y-169240750D03*
%TD*%
D19*
%TO.P,D_ID2,1*%
%TO.N,+5V_MAINS*%
X260964833Y-213073750D03*
D20*
%TO.P,D_ID2,2*%
%TO.N,+5V*%
X276204833Y-213073750D03*
%TD*%
D10*
%TO.P,C33,1*%
%TO.N,+3V3*%
X187225000Y-56854750D03*
%TO.P,C33,2*%
%TO.N,GND*%
X189725000Y-56854750D03*
%TD*%
%TO.P,R30,1*%
%TO.N,Net-(D8-A1)*%
X194555000Y-191287250D03*
%TO.P,R30,2*%
%TO.N,Net-(JP2-A)*%
X204715000Y-191287250D03*
%TD*%
%TO.P,C3,1*%
%TO.N,/INA_INP*%
X123625000Y-56854750D03*
%TO.P,C3,2*%
%TO.N,Net-(U2-Vin-)*%
X126125000Y-56854750D03*
%TD*%
D21*
%TO.P,U11,1*%
%TO.N,+3V3*%
X141150750Y-254266846D03*
D22*
%TO.P,U11,2*%
%TO.N,GND*%
X143690750Y-254266846D03*
%TO.P,U11,3*%
%TO.N,/SDA*%
X146230750Y-254266846D03*
%TO.P,U11,4*%
%TO.N,/SCL*%
X148770750Y-254266846D03*
%TD*%
D10*
%TO.P,C35,1*%
%TO.N,+5V*%
X216525000Y-56854750D03*
%TO.P,C35,2*%
%TO.N,GND*%
X219025000Y-56854750D03*
%TD*%
D23*
%TO.P,C16,1*%
%TO.N,+5V_BAT*%
X218949698Y-21098250D03*
D10*
%TO.P,C16,2*%
%TO.N,GND*%
X222449698Y-21098250D03*
%TD*%
D15*
%TO.P,D8,1*%
%TO.N,Net-(D8-A1)*%
X161485000Y-86571250D03*
D16*
%TO.P,D8,2*%
%TO.N,GNDISO*%
X176725000Y-86571250D03*
%TD*%
D24*
%TO.P,JP2,1*%
%TO.N,Net-(JP2-A)*%
X152711476Y-140484250D03*
%TO.P,JP2,2*%
%TO.N,Net-(D9-A1)*%
X154011476Y-140484250D03*
%TD*%
D10*
%TO.P,R9,1*%
%TO.N,+5V_MAINS*%
X38385000Y-211723750D03*
%TO.P,R9,2*%
%TO.N,Net-(Q2-G)*%
X48545000Y-211723750D03*
%TD*%
%TO.P,C10,1*%
%TO.N,+5V_IN*%
X136555000Y-18348250D03*
%TO.P,C10,2*%
%TO.N,GND*%
X141555000Y-18348250D03*
%TD*%
D21*
%TO.P,J7,1*%
%TO.N,+3V3*%
X69194750Y-144699096D03*
D22*
%TO.P,J7,2*%
%TO.N,GND*%
X71734750Y-144699096D03*
%TO.P,J7,3*%
%TO.N,/SCL*%
X74274750Y-144699096D03*
%TO.P,J7,4*%
%TO.N,/SDA*%
X76814750Y-144699096D03*
%TD*%
D21*
%TO.P,J2,1*%
%TO.N,Net-(J2-Pin_1)*%
X236438250Y-113798310D03*
D22*
%TO.P,J2,2*%
%TO.N,Net-(J2-Pin_2)*%
X238978250Y-113798310D03*
%TO.P,J2,3*%
%TO.N,+3V3*%
X241518250Y-113798310D03*
%TO.P,J2,4*%
%TO.N,GND*%
X244058250Y-113798310D03*
%TD*%
D11*
%TO.P,Q8,1*%
%TO.N,EC_VCC*%
X17140714Y-170430750D03*
D12*
%TO.P,Q8,2*%
%TO.N,Net-(Q8-G)*%
X18410714Y-170430750D03*
%TO.P,Q8,3*%
%TO.N,+3V3*%
X19680714Y-170430750D03*
%TD*%
D25*
%TO.P,F2,1*%
%TO.N,+5V_IN*%
X249515000Y-88801250D03*
%TO.P,F2,2*%
%TO.N,+5V_MAINS*%
X272015000Y-88801250D03*
%TD*%
D10*
%TO.P,R26,1*%
%TO.N,+3V3*%
X105315000Y-191287250D03*
%TO.P,R26,2*%
%TO.N,/SDA*%
X115475000Y-191287250D03*
%TD*%
D21*
%TO.P,U3,1*%
%TO.N,+12V*%
X49924750Y-255266846D03*
D22*
%TO.P,U3,2*%
%TO.N,GND*%
X52464750Y-255266846D03*
%TO.P,U3,3*%
%TO.N,+5V_IN*%
X55004750Y-255266846D03*
%TO.P,U3,4*%
%TO.N,GND*%
X57544750Y-255266846D03*
%TD*%
D14*
%TO.P,J3,1*%
%TO.N,PH_VCC*%
X265431500Y-116517750D03*
D13*
%TO.P,J3,2*%
%TO.N,GND*%
X260351500Y-116517750D03*
D14*
%TO.P,J3,3*%
%TO.N,Net-(J3-S)*%
X270511500Y-116517750D03*
%TD*%
%TO.P,R_SHUNT,1*%
%TO.N,/12V_DIODE*%
X105715000Y-212273750D03*
%TO.P,R_SHUNT,2*%
%TO.N,+12V*%
X120955000Y-212273750D03*
%TD*%
D26*
%TO.P,F1,1*%
%TO.N,+12V_IN*%
X220815000Y-85601250D03*
X220815000Y-88101250D03*
X224315000Y-85601250D03*
X224315000Y-88101250D03*
%TO.P,F1,2*%
%TO.N,12V_FUSED*%
X230115000Y-85601250D03*
X230115000Y-88101250D03*
X233615000Y-85601250D03*
X233615000Y-88101250D03*
%TD*%
D25*
%TO.P,F3,1*%
%TO.N,VBAT*%
X285565000Y-88801250D03*
%TO.P,F3,2*%
%TO.N,VBAT_F*%
X308065000Y-88801250D03*
%TD*%
D19*
%TO.P,D_ID1,1*%
%TO.N,12V_FUSED*%
X231974833Y-213073750D03*
D20*
%TO.P,D_ID1,2*%
%TO.N,/12V_DIODE*%
X247214833Y-213073750D03*
%TD*%
D11*
%TO.P,Q5,1*%
%TO.N,GND*%
X264552263Y-142244250D03*
D12*
%TO.P,Q5,2*%
%TO.N,Net-(Q5-G)*%
X265822263Y-142244250D03*
%TO.P,Q5,3*%
%TO.N,/MAINS_N*%
X267092263Y-142244250D03*
%TD*%
D15*
%TO.P,D1,1*%
%TO.N,12V_FUSED*%
X50875000Y-86571250D03*
D16*
%TO.P,D1,2*%
%TO.N,GND*%
X66115000Y-86571250D03*
%TD*%
D10*
%TO.P,C25,1*%
%TO.N,+3V3_PI*%
X47875000Y-56854750D03*
%TO.P,C25,2*%
%TO.N,GND*%
X50375000Y-56854750D03*
%TD*%
%TO.P,R24,1*%
%TO.N,Net-(Q9-G)*%
X60695000Y-191287250D03*
%TO.P,R24,2*%
%TO.N,GND*%
X70855000Y-191287250D03*
%TD*%
%TO.P,C31,1*%
%TO.N,EC_VCC*%
X155425000Y-57104750D03*
%TO.P,C31,2*%
%TO.N,GND*%
X160425000Y-57104750D03*
%TD*%
D21*
%TO.P,U2,1*%
%TO.N,GND*%
X18228250Y-254457322D03*
D22*
%TO.P,U2,2*%
%TO.N,+3V3*%
X20768250Y-254457322D03*
%TO.P,U2,3*%
%TO.N,/SCL*%
X23308250Y-254457322D03*
%TO.P,U2,4*%
%TO.N,/SDA*%
X25848250Y-254457322D03*
%TO.P,U2,5*%
%TO.N,+12V*%
X28388250Y-254457322D03*
%TO.P,U2,6*%
%TO.N,/INA_INP*%
X30928250Y-254457322D03*
%TO.P,U2,7*%
%TO.N,Net-(U2-Vin-)*%
X33468250Y-254457322D03*
%TD*%
D24*
%TO.P,JP1,1*%
%TO.N,Net-(JP1-A)*%
X139221000Y-140484250D03*
%TO.P,JP1,2*%
%TO.N,GND*%
X140521000Y-140484250D03*
%TD*%
D23*
%TO.P,C19,1*%
%TO.N,+5V*%
X237694396Y-21098250D03*
D10*
%TO.P,C19,2*%
%TO.N,GND*%
X241194396Y-21098250D03*
%TD*%
%TO.P,R15,1*%
%TO.N,/MAINS_N*%
X160505953Y-169240750D03*
%TO.P,R15,2*%
%TO.N,+3V3*%
X170665953Y-169240750D03*
%TD*%
D11*
%TO.P,Q2,1*%
%TO.N,GND*%
X248492739Y-142244250D03*
D12*
%TO.P,Q2,2*%
%TO.N,Net-(Q2-G)*%
X249762739Y-142244250D03*
%TO.P,Q2,3*%
%TO.N,Net-(Q2-D)*%
X251032739Y-142244250D03*
%TD*%
D10*
%TO.P,C27,1*%
%TO.N,+3V3*%
X77175000Y-57104750D03*
%TO.P,C27,2*%
%TO.N,GND*%
X82175000Y-57104750D03*
%TD*%
D27*
%TO.P,TP1,1*%
%TO.N,/AIN3*%
X134221666Y-211003750D03*
%TD*%
D10*
%TO.P,C26,1*%
%TO.N,+3V3*%
X62525000Y-56854750D03*
%TO.P,C26,2*%
%TO.N,GND*%
X65025000Y-56854750D03*
%TD*%
D19*
%TO.P,D_ID3,1*%
%TO.N,+5V_BAT*%
X289954833Y-213073750D03*
D20*
%TO.P,D_ID3,2*%
%TO.N,+5V*%
X305194833Y-213073750D03*
%TD*%
D21*
%TO.P,U12,1*%
%TO.N,+3V3*%
X165227250Y-255385894D03*
D22*
%TO.P,U12,2*%
%TO.N,GND*%
X167767250Y-255385894D03*
%TO.P,U12,3*%
%TO.N,/RS485_DE*%
X170307250Y-255385894D03*
%TO.P,U12,4*%
%TO.N,/RS485_RX*%
X172847250Y-255385894D03*
%TO.P,U12,5*%
%TO.N,/RS485_TX*%
X175387250Y-255385894D03*
%TO.P,U12,6*%
%TO.N,GNDISO*%
X177927250Y-255385894D03*
%TO.P,U12,7*%
%TO.N,Net-(D8-A1)*%
X180467250Y-255385894D03*
%TO.P,U12,8*%
%TO.N,Net-(D9-A1)*%
X183007250Y-255385894D03*
%TO.P,U12,9*%
%TO.N,+5VISO*%
X185547250Y-255385894D03*
%TD*%
D10*
%TO.P,R17,1*%
%TO.N,Net-(J3-S)*%
X205125953Y-169240750D03*
%TO.P,R17,2*%
%TO.N,/PH_ADC*%
X215285953Y-169240750D03*
%TD*%
D28*
%TO.P,U10,1*%
%TO.N,GND*%
X158698333Y-228055500D03*
%TO.P,U10,2*%
%TO.N,N/C*%
X161238333Y-228055500D03*
%TO.P,U10,3*%
%TO.N,GND*%
X151078333Y-228055500D03*
%TO.P,U10,4*%
%TO.N,/PH_ADC*%
X163778333Y-228055500D03*
%TO.P,U10,5*%
%TO.N,/EC_ADC*%
X166318333Y-228055500D03*
%TO.P,U10,6*%
%TO.N,/VBAT_SENSE*%
X168858333Y-228055500D03*
%TO.P,U10,7*%
%TO.N,/AIN3*%
X171398333Y-228055500D03*
D21*
%TO.P,U10,8*%
%TO.N,+3V3*%
X148538333Y-228055500D03*
D28*
%TO.P,U10,9*%
%TO.N,/SDA*%
X156158333Y-228055500D03*
%TO.P,U10,10*%
%TO.N,/SCL*%
X153618333Y-228055500D03*
%TD*%
D10*
%TO.P,R25,1*%
%TO.N,+3V3*%
X83005000Y-191287250D03*
%TO.P,R25,2*%
%TO.N,/W1*%
X93165000Y-191287250D03*
%TD*%
%TO.P,R16,1*%
%TO.N,+3V3_PI*%
X182815953Y-169240750D03*
%TO.P,R16,2*%
%TO.N,Net-(JP1-A)*%
X192975953Y-169240750D03*
%TD*%
%TO.P,C6,1*%
%TO.N,+12V*%
X283789646Y-57104750D03*
%TO.P,C6,2*%
%TO.N,GND*%
X288789646Y-57104750D03*
%TD*%
D21*
%TO.P,U13,1*%
%TO.N,GND*%
X184948333Y-213853750D03*
D22*
%TO.P,U13,2*%
%TO.N,+5V*%
X187488333Y-213853750D03*
%TO.P,U13,3*%
%TO.N,GNDISO*%
X192568333Y-213853750D03*
%TO.P,U13,4*%
%TO.N,+5VISO*%
X195108333Y-213853750D03*
%TD*%
D21*
%TO.P,J_PI,1*%
%TO.N,+3V3_PI*%
X168795203Y-140286238D03*
D22*
%TO.P,J_PI,2*%
%TO.N,+5V*%
X168795203Y-142826238D03*
%TO.P,J_PI,3*%
%TO.N,/SDA*%
X171335203Y-140286238D03*
%TO.P,J_PI,4*%
%TO.N,+5V*%
X171335203Y-142826238D03*
%TO.P,J_PI,5*%
%TO.N,/SCL*%
X173875203Y-140286238D03*
%TO.P,J_PI,6*%
%TO.N,GND*%
X173875203Y-142826238D03*
%TO.P,J_PI,7*%
%TO.N,/W1*%
X176415203Y-140286238D03*
%TO.P,J_PI,8*%
%TO.N,/RS485_TX*%
X176415203Y-142826238D03*
%TO.P,J_PI,9*%
%TO.N,GND*%
X178955203Y-140286238D03*
%TO.P,J_PI,10*%
%TO.N,/RS485_RX*%
X178955203Y-142826238D03*
%TO.P,J_PI,11*%
%TO.N,/FLT*%
X181495203Y-140286238D03*
%TO.P,J_PI,12*%
%TO.N,/HB*%
X181495203Y-142826238D03*
%TO.P,J_PI,13*%
%TO.N,/MAINS_N*%
X184035203Y-140286238D03*
%TO.P,J_PI,14*%
%TO.N,GND*%
X184035203Y-142826238D03*
%TO.P,J_PI,15*%
%TO.N,/BUZZ*%
X186575203Y-140286238D03*
%TO.P,J_PI,16*%
%TO.N,/PH_EN*%
X186575203Y-142826238D03*
%TO.P,J_PI,17*%
%TO.N,+3V3_PI*%
X189115203Y-140286238D03*
%TO.P,J_PI,18*%
%TO.N,/EC_EN*%
X189115203Y-142826238D03*
%TO.P,J_PI,19*%
%TO.N,N/C*%
X191655203Y-140286238D03*
%TO.P,J_PI,20*%
%TO.N,GND*%
X191655203Y-142826238D03*
%TO.P,J_PI,21*%
%TO.N,N/C*%
X194195203Y-140286238D03*
%TO.P,J_PI,22*%
%TO.N,/RS485_DE*%
X194195203Y-142826238D03*
%TO.P,J_PI,23*%
%TO.N,N/C*%
X196735203Y-140286238D03*
%TO.P,J_PI,24*%
X196735203Y-142826238D03*
%TO.P,J_PI,25*%
%TO.N,GND*%
X199275203Y-140286238D03*
%TO.P,J_PI,26*%
%TO.N,N/C*%
X199275203Y-142826238D03*
%TO.P,J_PI,27*%
%TO.N,Net-(J_PI-Pin_27)*%
X201815203Y-140286238D03*
%TO.P,J_PI,28*%
%TO.N,Net-(J_PI-Pin_28)*%
X201815203Y-142826238D03*
%TO.P,J_PI,29*%
%TO.N,N/C*%
X204355203Y-140286238D03*
%TO.P,J_PI,30*%
%TO.N,GND*%
X204355203Y-142826238D03*
%TO.P,J_PI,31*%
%TO.N,N/C*%
X206895203Y-140286238D03*
%TO.P,J_PI,32*%
%TO.N,Net-(J2-Pin_1)*%
X206895203Y-142826238D03*
%TO.P,J_PI,33*%
%TO.N,Net-(J2-Pin_2)*%
X209435203Y-140286238D03*
%TO.P,J_PI,34*%
%TO.N,GND*%
X209435203Y-142826238D03*
%TO.P,J_PI,35*%
%TO.N,N/C*%
X211975203Y-140286238D03*
%TO.P,J_PI,36*%
X211975203Y-142826238D03*
%TO.P,J_PI,37*%
X214515203Y-140286238D03*
%TO.P,J_PI,38*%
X214515203Y-142826238D03*
%TO.P,J_PI,39*%
%TO.N,GND*%
X217055203Y-140286238D03*
%TO.P,J_PI,40*%
%TO.N,N/C*%
X217055203Y-142826238D03*
%TD*%
D10*
%TO.P,R33,1*%
%TO.N,/FLT*%
X261485000Y-191287250D03*
%TO.P,R33,2*%
%TO.N,+3V3*%
X271645000Y-191287250D03*
%TD*%
D21*
%TO.P,J9,1*%
%TO.N,GND*%
X117347750Y-143103858D03*
D22*
%TO.P,J9,2*%
%TO.N,+3V3*%
X119887750Y-143103858D03*
%TO.P,J9,3*%
%TO.N,/SCL*%
X122427750Y-143103858D03*
%TO.P,J9,4*%
%TO.N,/SDA*%
X124967750Y-143103858D03*
%TD*%
D10*
%TO.P,C7,1*%
%TO.N,+12V*%
X300939646Y-56854750D03*
%TO.P,C7,2*%
%TO.N,GND*%
X303439646Y-56854750D03*
%TD*%
D11*
%TO.P,Q9,1*%
%TO.N,GND*%
X33581191Y-170430750D03*
D12*
%TO.P,Q9,2*%
%TO.N,Net-(Q9-G)*%
X34851191Y-170430750D03*
%TO.P,Q9,3*%
%TO.N,Net-(Q8-G)*%
X36121191Y-170430750D03*
%TD*%
D21*
%TO.P,U5,1*%
%TO.N,VBAT_F*%
X95537750Y-260576371D03*
D22*
%TO.P,U5,2*%
%TO.N,GND*%
X98077750Y-260576371D03*
%TO.P,U5,3*%
%TO.N,+5V_BAT*%
X100617750Y-260576371D03*
%TO.P,U5,4*%
%TO.N,Net-(Q2-D)*%
X103157750Y-260576371D03*
%TD*%
D21*
%TO.P,J8,1*%
%TO.N,+3V3*%
X93271250Y-143294334D03*
D22*
%TO.P,J8,2*%
%TO.N,GND*%
X95811250Y-143294334D03*
%TO.P,J8,3*%
%TO.N,/SCL*%
X98351250Y-143294334D03*
%TO.P,J8,4*%
%TO.N,/SDA*%
X100891250Y-143294334D03*
%TD*%
D10*
%TO.P,C14,1*%
%TO.N,VBAT_F*%
X183005000Y-18348250D03*
%TO.P,C14,2*%
%TO.N,GND*%
X188005000Y-18348250D03*
%TD*%
D29*
%TO.P,C4,1*%
%TO.N,+12V*%
X247789646Y-60854750D03*
D30*
%TO.P,C4,2*%
%TO.N,GND*%
X252789646Y-60854750D03*
%TD*%
D10*
%TO.P,R14,1*%
%TO.N,Net-(Q5-G)*%
X138195953Y-169240750D03*
%TO.P,R14,2*%
%TO.N,GND*%
X148355953Y-169240750D03*
%TD*%
D13*
%TO.P,J1,1*%
%TO.N,+12V_IN*%
X144815000Y-116517750D03*
D14*
%TO.P,J1,2*%
%TO.N,GND*%
X149895000Y-116517750D03*
%TD*%
D10*
%TO.P,R34,1*%
%TO.N,/HB*%
X283795000Y-191287250D03*
%TO.P,R34,2*%
%TO.N,Net-(J12-Pin_1)*%
X293955000Y-191287250D03*
%TD*%
D21*
%TO.P,U8,1*%
%TO.N,+5V*%
X119614250Y-255004941D03*
D22*
%TO.P,U8,2*%
%TO.N,GND*%
X122154250Y-255004941D03*
%TO.P,U8,3*%
%TO.N,+3V3*%
X124694250Y-255004941D03*
%TD*%
D21*
%TO.P,U4,1*%
%TO.N,+5V_MAINS*%
X74001250Y-258671609D03*
D22*
%TO.P,U4,2*%
%TO.N,GND*%
X76541250Y-258671609D03*
%TO.P,U4,3*%
%TO.N,VBAT*%
X79081250Y-258671609D03*
%TD*%
D10*
%TO.P,R8,1*%
%TO.N,VBAT_F*%
X16075000Y-211723750D03*
%TO.P,R8,2*%
%TO.N,Net-(Q2-D)*%
X26235000Y-211723750D03*
%TD*%
%TO.P,C28,1*%
%TO.N,/PH_ADC*%
X94325000Y-56854750D03*
%TO.P,C28,2*%
%TO.N,GND*%
X96825000Y-56854750D03*
%TD*%
%TO.P,R13,1*%
%TO.N,+5V_MAINS*%
X115885953Y-169240750D03*
%TO.P,R13,2*%
%TO.N,Net-(Q5-G)*%
X126045953Y-169240750D03*
%TD*%
D21*
%TO.P,J6,1*%
%TO.N,+3V3*%
X45118250Y-143151477D03*
D22*
%TO.P,J6,2*%
%TO.N,GND*%
X47658250Y-143151477D03*
%TO.P,J6,3*%
%TO.N,/SCL*%
X50198250Y-143151477D03*
%TO.P,J6,4*%
%TO.N,/SDA*%
X52738250Y-143151477D03*
%TD*%
D31*
%TO.P,U9,1*%
%TO.N,GND*%
X209301583Y-217200500D03*
D10*
%TO.P,U9,2*%
X211841583Y-217200500D03*
%TO.P,U9,3*%
X214381583Y-217200500D03*
%TO.P,U9,4*%
X216921583Y-217200500D03*
%TO.P,U9,5*%
%TO.N,Net-(J_PI-Pin_27)*%
X216921583Y-209580500D03*
%TO.P,U9,6*%
%TO.N,Net-(J_PI-Pin_28)*%
X214381583Y-209580500D03*
%TO.P,U9,7*%
%TO.N,Net-(JP1-A)*%
X211841583Y-209580500D03*
%TO.P,U9,8*%
%TO.N,+3V3_PI*%
X209301583Y-209580500D03*
%TD*%
D14*
%TO.P,J4,1*%
%TO.N,EC_VCC*%
X292321500Y-116517750D03*
D13*
%TO.P,J4,2*%
%TO.N,GND*%
X287241500Y-116517750D03*
D14*
%TO.P,J4,3*%
%TO.N,Net-(J4-S)*%
X297401500Y-116517750D03*
%TD*%
D32*
%TO.P,D7,1*%
%TO.N,+5V*%
X138375000Y-85271250D03*
D26*
%TO.P,D7,2*%
%TO.N,Net-(BZ1--)*%
X148535000Y-85271250D03*
%TD*%
D10*
%TO.P,C24,1*%
%TO.N,+3V3*%
X33225000Y-56854750D03*
%TO.P,C24,2*%
%TO.N,GND*%
X35725000Y-56854750D03*
%TD*%
%TO.P,R_SENSE1,1*%
%TO.N,/12V_DIODE*%
X60695000Y-211723750D03*
%TO.P,R_SENSE1,2*%
%TO.N,/INA_INP*%
X70855000Y-211723750D03*
%TD*%
D33*
%TO.P,BT1,1*%
%TO.N,VBAT*%
X19275000Y-27378250D03*
%TO.P,BT1,2*%
%TO.N,GND*%
X98655000Y-27378250D03*
%TD*%
D10*
%TO.P,R31,1*%
%TO.N,+5VISO*%
X216865000Y-191287250D03*
%TO.P,R31,2*%
%TO.N,Net-(D8-A1)*%
X227025000Y-191287250D03*
%TD*%
%TO.P,R20,1*%
%TO.N,/PH_EN*%
X272055953Y-169240750D03*
%TO.P,R20,2*%
%TO.N,Net-(Q7-G)*%
X282215953Y-169240750D03*
%TD*%
%TO.P,R12,1*%
%TO.N,/VBAT_SENSE*%
X93575953Y-169240750D03*
%TO.P,R12,2*%
%TO.N,GND*%
X103735953Y-169240750D03*
%TD*%
D34*
%TO.P,BZ1,1*%
%TO.N,+5V*%
X115405000Y-23048250D03*
D30*
%TO.P,BZ1,2*%
%TO.N,Net-(BZ1--)*%
X123005000Y-23048250D03*
%TD*%
D10*
%TO.P,C34,1*%
%TO.N,+5VISO*%
X201875000Y-56854750D03*
%TO.P,C34,2*%
%TO.N,GNDISO*%
X204375000Y-56854750D03*
%TD*%
D13*
%TO.P,J10,1*%
%TO.N,Net-(D8-A1)*%
X166625000Y-116517750D03*
D14*
%TO.P,J10,2*%
%TO.N,Net-(D9-A1)*%
X171705000Y-116517750D03*
%TO.P,J10,3*%
%TO.N,GNDISO*%
X176785000Y-116517750D03*
%TD*%
D10*
%TO.P,C2,1*%
%TO.N,+3V3*%
X254794396Y-18098250D03*
%TO.P,C2,2*%
%TO.N,GND*%
X257294396Y-18098250D03*
%TD*%
%TO.P,R23,1*%
%TO.N,/EC_EN*%
X38385000Y-191287250D03*
%TO.P,R23,2*%
%TO.N,Net-(Q9-G)*%
X48545000Y-191287250D03*
%TD*%
D26*
%TO.P,F4,1*%
%TO.N,+12V*%
X19125000Y-113297750D03*
X19125000Y-115797750D03*
X22625000Y-113297750D03*
X22625000Y-115797750D03*
%TO.P,F4,2*%
%TO.N,Net-(J11-Pin_1)*%
X28425000Y-113297750D03*
X28425000Y-115797750D03*
X31925000Y-113297750D03*
X31925000Y-115797750D03*
%TD*%
D10*
%TO.P,R_SENSE2,1*%
%TO.N,+12V*%
X83005000Y-211723750D03*
%TO.P,R_SENSE2,2*%
%TO.N,Net-(U2-Vin-)*%
X93165000Y-211723750D03*
%TD*%
%TO.P,R19,1*%
%TO.N,+3V3*%
X249745953Y-169240750D03*
%TO.P,R19,2*%
%TO.N,Net-(Q6-G)*%
X259905953Y-169240750D03*
%TD*%
D23*
%TO.P,D6,1*%
%TO.N,/W1*%
X118305000Y-84921250D03*
D10*
%TO.P,D6,2*%
%TO.N,GND*%
X125925000Y-84921250D03*
%TD*%
%TO.P,R32,1*%
%TO.N,Net-(D9-A1)*%
X239175000Y-191287250D03*
%TO.P,R32,2*%
%TO.N,GNDISO*%
X249335000Y-191287250D03*
%TD*%
%TO.P,C32,1*%
%TO.N,+3V3*%
X172575000Y-56854750D03*
%TO.P,C32,2*%
%TO.N,GND*%
X175075000Y-56854750D03*
%TD*%
D11*
%TO.P,Q6,1*%
%TO.N,PH_VCC*%
X280992739Y-142244250D03*
D12*
%TO.P,Q6,2*%
%TO.N,Net-(Q6-G)*%
X282262739Y-142244250D03*
%TO.P,Q6,3*%
%TO.N,+3V3*%
X283532739Y-142244250D03*
%TD*%
D11*
%TO.P,Q10,1*%
%TO.N,GND*%
X232433215Y-142244250D03*
D12*
%TO.P,Q10,2*%
%TO.N,Net-(Q10-G)*%
X233703215Y-142244250D03*
%TO.P,Q10,3*%
%TO.N,Net-(BZ1--)*%
X234973215Y-142244250D03*
%TD*%
D10*
%TO.P,R21,1*%
%TO.N,Net-(Q7-G)*%
X294365953Y-169240750D03*
%TO.P,R21,2*%
%TO.N,GND*%
X304525953Y-169240750D03*
%TD*%
D23*
%TO.P,D4,1*%
%TO.N,/SDA*%
X78765000Y-84921250D03*
D10*
%TO.P,D4,2*%
%TO.N,GND*%
X86385000Y-84921250D03*
%TD*%
%TO.P,R11,1*%
%TO.N,VBAT_F*%
X71265953Y-169240750D03*
%TO.P,R11,2*%
%TO.N,/VBAT_SENSE*%
X81425953Y-169240750D03*
%TD*%
D23*
%TO.P,D5,1*%
%TO.N,/SCL*%
X98535000Y-84921250D03*
D10*
%TO.P,D5,2*%
%TO.N,GND*%
X106155000Y-84921250D03*
%TD*%
D35*
%TO.N,/EC_ADC*%
X109500000Y-65500000D03*
X168500000Y-182500000D03*
X139500000Y-173500000D03*
X118500000Y-136500000D03*
X220500000Y-175500000D03*
X111500000Y-78500000D03*
X151500000Y-182500000D03*
X117500000Y-109500000D03*
%TO.N,GND*%
X141732000Y-12192000D03*
X115570000Y-160147000D03*
X131445000Y-158369000D03*
%TO.N,+5V_MAINS*%
X111506000Y-169037000D03*
X109728000Y-133985000D03*
X281432000Y-217170000D03*
X109728000Y-182372000D03*
%TO.N,Net-(Q7-G)*%
X288544000Y-168910000D03*
%TO.N,Net-(Q6-G)*%
X291338000Y-152654000D03*
X271653000Y-150368000D03*
%TO.N,+5VISO*%
X218186000Y-204851000D03*
X196500000Y-207500000D03*
X209500000Y-61500000D03*
X230500000Y-12500000D03*
X225500000Y-30500000D03*
X230500000Y-14500000D03*
X220500000Y-182500000D03*
X191500000Y-229500000D03*
X225500000Y-178500000D03*
X310500000Y-177500000D03*
X240500000Y-180500000D03*
X222500000Y-61500000D03*
X285500000Y-178500000D03*
%TO.N,GNDISO*%
X228346000Y-205232000D03*
X207190000Y-88265000D03*
X229906587Y-102906587D03*
X207391000Y-106807000D03*
X224790000Y-65786000D03*
%TO.N,+5V*%
X200500000Y-197500000D03*
X249500000Y-204500000D03*
X135500000Y-102500000D03*
X137500000Y-78500000D03*
X143500000Y-137500000D03*
X197500000Y-197500000D03*
X201500000Y-199500000D03*
X135500000Y-89500000D03*
X216500000Y-44500000D03*
X233500000Y-30500000D03*
X192500000Y-199500000D03*
X217500000Y-203500000D03*
X233500000Y-27500000D03*
X187500000Y-204500000D03*
X307500000Y-163500000D03*
X226500000Y-201500000D03*
X190500000Y-203500000D03*
X228500000Y-223500000D03*
X231500000Y-43500000D03*
X142500000Y-135500000D03*
X135500000Y-104500000D03*
X196500000Y-197500000D03*
X139500000Y-134500000D03*
X228500000Y-201500000D03*
X118745000Y-267589000D03*
X224500000Y-219500000D03*
X143500000Y-139500000D03*
X184500000Y-51500000D03*
X135500000Y-81500000D03*
X145500000Y-148500000D03*
X161500000Y-148500000D03*
X134500000Y-67500000D03*
X138500000Y-76500000D03*
X229500000Y-34500000D03*
X149500000Y-148500000D03*
X261500000Y-200500000D03*
X165500000Y-148500000D03*
%TO.N,+3V3*%
X135636000Y-216408000D03*
%TO.N,/W1*%
X73500000Y-196500000D03*
X176500000Y-137500000D03*
X65500000Y-173500000D03*
X83500000Y-125500000D03*
X116500000Y-94500000D03*
X119500000Y-107500000D03*
%TO.N,Net-(D9-A1)*%
X155829000Y-135636000D03*
X200250994Y-179739737D03*
%TO.N,Net-(Q8-G)*%
X32500000Y-180500000D03*
X36500000Y-176500000D03*
%TO.N,+12V*%
X38500000Y-130500000D03*
X72500000Y-206500000D03*
X53500000Y-225500000D03*
X36500000Y-200500000D03*
X52500000Y-206500000D03*
X100500000Y-217500000D03*
X54500000Y-206500000D03*
X126500000Y-238500000D03*
X197500000Y-239500000D03*
X33500000Y-177500000D03*
X125500000Y-207500000D03*
X282500000Y-80500000D03*
X191500000Y-241500000D03*
X19550000Y-106464644D03*
X43500000Y-266500000D03*
X51500000Y-205500000D03*
X96500000Y-226500000D03*
X41500000Y-129500000D03*
X28500000Y-265500000D03*
X126500000Y-221500000D03*
X27500000Y-130500000D03*
X79500000Y-206500000D03*
%TO.N,Net-(J11-Pin_1)*%
X28500000Y-121500000D03*
X122500000Y-107500000D03*
X109500000Y-120500000D03*
X120500000Y-110500000D03*
X156500000Y-101500000D03*
X167500000Y-101500000D03*
X169500000Y-106500000D03*
X82500000Y-128500000D03*
X145500000Y-101500000D03*
X37500000Y-126500000D03*
%TO.N,+5V_IN*%
X22500000Y-90500000D03*
X50500000Y-184500000D03*
X36500000Y-105500000D03*
X55500000Y-243500000D03*
X53500000Y-195500000D03*
%TO.N,/SCL*%
X154178000Y-231902000D03*
X148209000Y-234569000D03*
X96520000Y-151250000D03*
X156591000Y-249936000D03*
X143764000Y-240411000D03*
X105156000Y-147066000D03*
X142621000Y-177038000D03*
%TO.N,Net-(J12-Pin_1)*%
X215500000Y-107500000D03*
X275500000Y-124500000D03*
%TO.N,/FLT*%
X153500000Y-100500000D03*
X226500000Y-132500000D03*
X177500000Y-133350000D03*
X246500000Y-184500000D03*
X215500000Y-121500000D03*
X253500000Y-185500000D03*
X216500000Y-121500000D03*
X221500000Y-128500000D03*
X165500000Y-127500000D03*
X185500000Y-109500000D03*
X171500000Y-97500000D03*
X182500000Y-108500000D03*
X159500000Y-93500000D03*
X244500000Y-173500000D03*
%TO.N,/VBAT_SENSE*%
X179500000Y-79500000D03*
X171500000Y-93500000D03*
X130500000Y-154500000D03*
X85500000Y-164500000D03*
X227500000Y-44500000D03*
X131500000Y-135500000D03*
X95500000Y-156500000D03*
%TO.N,+5V_BAT*%
X235500000Y-70500000D03*
X246500000Y-72500000D03*
X242500000Y-70500000D03*
%TO.N,VBAT*%
X285500000Y-98500000D03*
X310500000Y-99500000D03*
X217500000Y-37500000D03*
X41500000Y-43500000D03*
X60500000Y-272500000D03*
X119500000Y-39500000D03*
X19500000Y-41500000D03*
X13500000Y-122500000D03*
X231500000Y-40500000D03*
X100500000Y-43500000D03*
%TO.N,Net-(D8-A1)*%
X215500000Y-183500000D03*
X163500000Y-137500000D03*
X180500000Y-219500000D03*
X175500000Y-176500000D03*
X174500000Y-148500000D03*
X226500000Y-187500000D03*
X181500000Y-229500000D03*
X200500000Y-183500000D03*
X163500000Y-135500000D03*
X186500000Y-195500000D03*
X190500000Y-186500000D03*
X161500000Y-102500000D03*
X181500000Y-182500000D03*
X180500000Y-226500000D03*
X204500000Y-184500000D03*
X183500000Y-202500000D03*
%TO.N,Net-(JP2-A)*%
X152500000Y-176500000D03*
X151500000Y-144500000D03*
X181500000Y-204500000D03*
X151500000Y-140500000D03*
X188500000Y-207500000D03*
X176500000Y-196500000D03*
%TO.N,/INA_INP*%
X56500000Y-216500000D03*
X73500000Y-215500000D03*
X58500000Y-195500000D03*
%TO.N,Net-(U2-Vin-)*%
X112500000Y-88500000D03*
X112500000Y-64500000D03*
X124500000Y-50500000D03*
X78500000Y-222500000D03*
X80500000Y-219500000D03*
X112500000Y-62500000D03*
%TO.N,/SDA*%
X134500000Y-226500000D03*
X40500000Y-149500000D03*
X43500000Y-228500000D03*
X107500000Y-132500000D03*
X76500000Y-94500000D03*
X56500000Y-228500000D03*
X52500000Y-150500000D03*
X69500000Y-154500000D03*
X87500000Y-166500000D03*
X132500000Y-138500000D03*
X173228000Y-145161000D03*
X85500000Y-156500000D03*
X167894000Y-149250000D03*
X96500000Y-178500000D03*
X134500000Y-137500000D03*
X128500000Y-149500000D03*
X97790000Y-132500000D03*
X73500000Y-132500000D03*
X31500000Y-265500000D03*
X116500000Y-132500000D03*
X76500000Y-133500000D03*
X143891000Y-223139000D03*
X77500000Y-129500000D03*
X84500000Y-218500000D03*
%TO.N,Net-(J2-Pin_1)*%
X225500000Y-119500000D03*
%TO.N,EC_VCC*%
X248500000Y-106500000D03*
X107500000Y-91500000D03*
X127500000Y-62500000D03*
X12500000Y-93500000D03*
%TO.N,Net-(J3-S)*%
X241500000Y-125500000D03*
X217500000Y-173500000D03*
%TO.N,/12V_DIODE*%
X79500000Y-216500000D03*
X250500000Y-221500000D03*
X203500000Y-230500000D03*
X251500000Y-209500000D03*
X138500000Y-224500000D03*
X82500000Y-217500000D03*
X170500000Y-240500000D03*
X136500000Y-222500000D03*
%TO.N,+12V_IN*%
X125500000Y-44500000D03*
X132500000Y-106500000D03*
X184500000Y-73500000D03*
X134493000Y-109093000D03*
X138303000Y-109855000D03*
X107500000Y-78500000D03*
X106500000Y-64500000D03*
X153500000Y-72500000D03*
%TO.N,12V_FUSED*%
X231500000Y-205500000D03*
X228500000Y-181500000D03*
X249500000Y-130500000D03*
X164500000Y-48500000D03*
X128500000Y-48500000D03*
X224500000Y-173500000D03*
X238500000Y-101500000D03*
X136500000Y-48500000D03*
X231500000Y-200500000D03*
X227500000Y-162500000D03*
X231500000Y-181500000D03*
X231500000Y-202500000D03*
X184500000Y-48500000D03*
X230500000Y-220500000D03*
X225500000Y-162500000D03*
X271500000Y-130500000D03*
X188500000Y-49500000D03*
X192500000Y-52500000D03*
X215500000Y-77500000D03*
X212535356Y-95464644D03*
%TO.N,VBAT_F*%
X169500000Y-23500000D03*
X62500000Y-170500000D03*
X306500000Y-102500000D03*
X71500000Y-175500000D03*
X14500000Y-207500000D03*
X310500000Y-102500000D03*
X42500000Y-177500000D03*
X39500000Y-181500000D03*
X122500000Y-39500000D03*
X86500000Y-90500000D03*
X227500000Y-27500000D03*
X87500000Y-183500000D03*
X140500000Y-25500000D03*
X74500000Y-180500000D03*
%TO.N,Net-(Q5-G)*%
X149500000Y-96500000D03*
X140500000Y-106500000D03*
X277500000Y-104500000D03*
X265500000Y-131500000D03*
X162500000Y-96500000D03*
X280500000Y-126500000D03*
X176500000Y-101500000D03*
X273500000Y-99500000D03*
X136500000Y-164500000D03*
X279500000Y-108500000D03*
X181500000Y-101500000D03*
X231500000Y-99500000D03*
X240500000Y-97500000D03*
%TO.N,/MAINS_N*%
X219583000Y-132334000D03*
X225552000Y-133096000D03*
X214630000Y-153543000D03*
X203327000Y-159131000D03*
%TO.N,+3V3_PI*%
X193548000Y-184023000D03*
X195326000Y-179750000D03*
X151500000Y-185500000D03*
X186309000Y-174117000D03*
X171500000Y-178500000D03*
X185039000Y-135890000D03*
X114500000Y-151500000D03*
X186690000Y-164973000D03*
X210947000Y-202311000D03*
X173500000Y-174500000D03*
X187960000Y-179070000D03*
X193040000Y-178435000D03*
X198374000Y-185547000D03*
X139500000Y-186500000D03*
X53500000Y-124500000D03*
X154500000Y-183500000D03*
%TO.N,Net-(Q9-G)*%
X52500000Y-198500000D03*
X48500000Y-197500000D03*
%TO.N,Net-(JP1-A)*%
X209500000Y-195500000D03*
X200500000Y-172500000D03*
X209500000Y-183500000D03*
X211500000Y-208500000D03*
X137500000Y-154500000D03*
X209500000Y-206700000D03*
X202500000Y-173500000D03*
%TO.N,Net-(Q2-D)*%
X42500000Y-224500000D03*
X251500000Y-200500000D03*
X29500000Y-216500000D03*
%TO.N,/RS485_DE*%
X151500000Y-179500000D03*
X143500000Y-179500000D03*
X142500000Y-221500000D03*
X187500000Y-159500000D03*
X172500000Y-162500000D03*
X172500000Y-235500000D03*
%TO.N,/RS485_RX*%
X146500000Y-173500000D03*
X160500000Y-243500000D03*
X139500000Y-221500000D03*
X174500000Y-179500000D03*
%TO.N,/RS485_TX*%
X182372000Y-145288000D03*
X179959000Y-183261000D03*
X189738000Y-176022000D03*
%TO.N,/HB*%
X200500000Y-180500000D03*
X277500000Y-196500000D03*
%TO.N,/PH_EN*%
X193500000Y-161500000D03*
X268478000Y-171196000D03*
%TO.N,/EC_EN*%
X42500000Y-166500000D03*
X187500000Y-150500000D03*
%TO.N,Net-(J_PI-Pin_27)*%
X210500000Y-136500000D03*
X221500000Y-136500000D03*
%TO.N,Net-(BZ1--)*%
X238500000Y-121500000D03*
X238500000Y-135500000D03*
X128500000Y-53500000D03*
X231500000Y-118500000D03*
X234937859Y-148464644D03*
%TD*%
%TO.N,/EC_ADC*%
D36*
X129500000Y-136500000D02*
X129500000Y-164500000D01*
X230500000Y-164500000D02*
X237500000Y-164500000D01*
X108500000Y-62500000D02*
X109500000Y-62500000D01*
X115500000Y-91500000D02*
X114500000Y-91500000D01*
X228500000Y-159500000D02*
X228500000Y-160500000D01*
X173495000Y-188736000D02*
X167259000Y-182500000D01*
X108975000Y-61500000D02*
X108500000Y-61500000D01*
X117500000Y-108500000D02*
X117500000Y-109500000D01*
X135500000Y-173500000D02*
X139500000Y-173500000D01*
X220500000Y-164500000D02*
X222500000Y-164500000D01*
X166447000Y-214500000D02*
X173445000Y-207502000D01*
X222500000Y-164500000D02*
X222500000Y-161500000D01*
X167259000Y-182500000D02*
X168500000Y-182500000D01*
X223500000Y-159500000D02*
X228500000Y-159500000D01*
X134500000Y-167500000D02*
X135500000Y-167500000D01*
X108500000Y-61500000D02*
X108500000Y-62500000D01*
X237595953Y-164500000D02*
X237500000Y-164500000D01*
X113500000Y-108500000D02*
X117500000Y-108500000D01*
X114500000Y-92500000D02*
X113500000Y-92500000D01*
X134500000Y-165500000D02*
X134500000Y-167500000D01*
X115500000Y-86500000D02*
X115500000Y-91500000D01*
X112500000Y-85500000D02*
X113500000Y-85500000D01*
X118500000Y-136500000D02*
X129500000Y-136500000D01*
X173495000Y-207502000D02*
X173495000Y-188736000D01*
X112500000Y-78500000D02*
X112500000Y-85500000D01*
X113500000Y-85500000D02*
X113500000Y-86500000D01*
X113500000Y-86500000D02*
X115500000Y-86500000D01*
X109500000Y-62500000D02*
X109500000Y-65500000D01*
X166318333Y-214500000D02*
X166447000Y-214500000D01*
X223500000Y-161500000D02*
X223500000Y-159500000D01*
X220500000Y-175500000D02*
X220500000Y-164500000D01*
X135500000Y-167500000D02*
X135500000Y-173500000D01*
X113500000Y-92500000D02*
X113500000Y-108500000D01*
X129500000Y-164500000D02*
X133500000Y-164500000D01*
X237595953Y-169240750D02*
X237595953Y-164500000D01*
X108975000Y-56854750D02*
X108975000Y-61500000D01*
X166318333Y-228055500D02*
X166318333Y-214500000D01*
X133500000Y-165500000D02*
X134500000Y-165500000D01*
X111500000Y-78500000D02*
X112500000Y-78500000D01*
X114500000Y-91500000D02*
X114500000Y-92500000D01*
X228500000Y-160500000D02*
X230500000Y-160500000D01*
X151500000Y-182500000D02*
X167259000Y-182500000D01*
X230500000Y-160500000D02*
X230500000Y-164500000D01*
X133500000Y-164500000D02*
X133500000Y-165500000D01*
X222500000Y-161500000D02*
X223500000Y-161500000D01*
%TO.N,GND*%
D37*
X97950000Y-55729750D02*
X110350000Y-55729750D01*
X140521000Y-140484250D02*
X140521000Y-139884250D01*
X246777690Y-116517750D02*
X244058250Y-113798310D01*
X260351500Y-116517750D02*
X246777690Y-116517750D01*
X117348000Y-158369000D02*
X115570000Y-160147000D01*
X98655000Y-18531827D02*
X106261827Y-10925000D01*
X98655000Y-27378250D02*
X98655000Y-18531827D01*
X96825000Y-56854750D02*
X97950000Y-55729750D01*
X106261827Y-10925000D02*
X140465000Y-10925000D01*
X140046000Y-139409250D02*
X136683750Y-139409250D01*
X132075000Y-144018000D02*
X132075000Y-157739000D01*
X110350000Y-55729750D02*
X111475000Y-56854750D01*
X140521000Y-139884250D02*
X140046000Y-139409250D01*
X132075000Y-157739000D02*
X131445000Y-158369000D01*
X136683750Y-139409250D02*
X132075000Y-144018000D01*
X117348000Y-143104108D02*
X117348000Y-158369000D01*
X117347750Y-143103858D02*
X117348000Y-143104108D01*
X140465000Y-10925000D02*
X141732000Y-12192000D01*
%TO.N,+5V_MAINS*%
X111506000Y-135763000D02*
X109728000Y-133985000D01*
X126261827Y-22925000D02*
X118875000Y-30311827D01*
X243261827Y-98075000D02*
X262741250Y-98075000D01*
X220925000Y-53738173D02*
X220925000Y-70738173D01*
X119241116Y-40125000D02*
X216401000Y-40125000D01*
X219925000Y-52738173D02*
X220925000Y-53738173D01*
X109728000Y-170815000D02*
X111506000Y-169037000D01*
X118875000Y-39758884D02*
X119241116Y-40125000D01*
X118875000Y-30311827D02*
X118875000Y-39758884D01*
X111506000Y-169037000D02*
X111506000Y-135763000D01*
X109728000Y-182372000D02*
X109728000Y-170815000D01*
X262741250Y-98075000D02*
X272015000Y-88801250D01*
X261452666Y-217170000D02*
X260964833Y-216682167D01*
X148878250Y-22925000D02*
X126261827Y-22925000D01*
X260964833Y-216682167D02*
X260964833Y-213073750D01*
X220925000Y-70738173D02*
X242925000Y-92738173D01*
X216401000Y-40125000D02*
X219925000Y-43649000D01*
X281432000Y-217170000D02*
X261452666Y-217170000D01*
X242925000Y-97738173D02*
X243261827Y-98075000D01*
X153705000Y-18098250D02*
X148878250Y-22925000D01*
X242925000Y-92738173D02*
X242925000Y-97738173D01*
X219925000Y-43649000D02*
X219925000Y-52738173D01*
%TO.N,Net-(Q7-G)*%
X280142739Y-155017536D02*
X280142739Y-141169250D01*
X298283216Y-141169250D02*
X298703216Y-141589250D01*
X294365953Y-169240750D02*
X280142739Y-155017536D01*
X294365953Y-169240750D02*
X288874750Y-169240750D01*
X298703216Y-141589250D02*
X298703216Y-142244250D01*
X280142739Y-141169250D02*
X298283216Y-141169250D01*
X288874750Y-169240750D02*
X288544000Y-168910000D01*
%TO.N,Net-(Q6-G)*%
X282262739Y-143578739D02*
X291338000Y-152654000D01*
X259905953Y-162115047D02*
X271653000Y-150368000D01*
X259905953Y-169240750D02*
X259905953Y-162115047D01*
X282262739Y-142244250D02*
X282262739Y-143578739D01*
%TO.N,+5VISO*%
D36*
X224500000Y-30500000D02*
X225500000Y-30500000D01*
X231175000Y-56854750D02*
X231175000Y-61500000D01*
X216500000Y-190500000D02*
X216500000Y-188500000D01*
X231500000Y-61500000D02*
X224500000Y-61500000D01*
X201875000Y-61500000D02*
X201500000Y-61500000D01*
X292500000Y-178500000D02*
X285500000Y-178500000D01*
X234500000Y-180500000D02*
X234500000Y-179500000D01*
X201875000Y-56854750D02*
X201875000Y-61500000D01*
X191500000Y-232500000D02*
X190500000Y-232500000D01*
X188500000Y-234500000D02*
X188500000Y-241500000D01*
X292500000Y-177500000D02*
X292500000Y-178500000D01*
X233500000Y-178500000D02*
X225500000Y-178500000D01*
X185500000Y-243500000D02*
X185500000Y-254500000D01*
X217790339Y-204851000D02*
X216750000Y-203810661D01*
X185500000Y-254500000D02*
X185547250Y-255385894D01*
X187500000Y-243500000D02*
X185500000Y-243500000D01*
X191500000Y-229500000D02*
X191500000Y-232500000D01*
X310500000Y-177500000D02*
X292500000Y-177500000D01*
X190500000Y-234500000D02*
X188500000Y-234500000D01*
X220500000Y-184500000D02*
X219500000Y-184500000D01*
X209500000Y-61500000D02*
X201500000Y-61500000D01*
X231175000Y-61500000D02*
X231500000Y-61500000D01*
X233500000Y-179500000D02*
X233500000Y-178500000D01*
X240500000Y-180500000D02*
X234500000Y-180500000D01*
X224500000Y-61500000D02*
X224500000Y-30500000D01*
X216750000Y-191402250D02*
X216865000Y-191287250D01*
X216750000Y-203810661D02*
X216750000Y-191402250D01*
X188500000Y-241500000D02*
X187500000Y-241500000D01*
X230500000Y-14500000D02*
X230500000Y-12500000D01*
X195500000Y-207500000D02*
X196500000Y-207500000D01*
X217500000Y-188500000D02*
X217500000Y-187500000D01*
X190500000Y-232500000D02*
X190500000Y-234500000D01*
X195500000Y-206500000D02*
X195500000Y-207500000D01*
X216500000Y-188500000D02*
X217500000Y-188500000D01*
X220500000Y-182500000D02*
X220500000Y-184500000D01*
X217500000Y-187500000D02*
X219500000Y-187500000D01*
X195108333Y-206500000D02*
X195500000Y-206500000D01*
X219500000Y-187500000D02*
X219500000Y-186500000D01*
X234500000Y-179500000D02*
X233500000Y-179500000D01*
X187500000Y-241500000D02*
X187500000Y-243500000D01*
X195108333Y-213853750D02*
X195108333Y-206500000D01*
X218186000Y-204851000D02*
X217790339Y-204851000D01*
X231500000Y-61500000D02*
X222500000Y-61500000D01*
X219500000Y-184500000D02*
X219500000Y-186500000D01*
X216865000Y-191287250D02*
X216500000Y-190500000D01*
%TO.N,GNDISO*%
D37*
X217650000Y-44766116D02*
X217650000Y-57320741D01*
X178310000Y-118042750D02*
X194710100Y-118042750D01*
X184241116Y-50875000D02*
X209241116Y-50875000D01*
X219075000Y-150738173D02*
X233548215Y-150738173D01*
X217650000Y-57320741D02*
X216990991Y-57979750D01*
X227875000Y-201241116D02*
X230875000Y-198241116D01*
X240603250Y-143683138D02*
X240603250Y-116375011D01*
X183875000Y-51241116D02*
X184241116Y-50875000D01*
X239972750Y-181925000D02*
X249335000Y-191287250D01*
X240603250Y-116375011D02*
X242693250Y-114285011D01*
X224311827Y-182125000D02*
X219075000Y-176888173D01*
X231241116Y-180875000D02*
X229991116Y-182125000D01*
X216990991Y-57979750D02*
X205500000Y-57979750D01*
X233688173Y-180875000D02*
X234738173Y-181925000D01*
X230875000Y-198241116D02*
X230875000Y-181241116D01*
X228027173Y-65786000D02*
X224790000Y-65786000D01*
X233548215Y-150738173D02*
X240603250Y-143683138D01*
X205945850Y-106807000D02*
X207391000Y-106807000D01*
X216241116Y-43875000D02*
X216758884Y-43875000D01*
X242693250Y-114285011D02*
X242693250Y-113190634D01*
X219075000Y-176888173D02*
X219075000Y-150738173D01*
X205115000Y-86571250D02*
X193758077Y-86571250D01*
X194710100Y-118042750D02*
X205945850Y-106807000D01*
X228346000Y-205232000D02*
X227875000Y-204761000D01*
X233675000Y-60138173D02*
X228027173Y-65786000D01*
X234738173Y-181925000D02*
X239972750Y-181925000D01*
X242693250Y-113190634D02*
X249125000Y-106758884D01*
X231241116Y-180875000D02*
X233688173Y-180875000D01*
X209241116Y-50875000D02*
X216241116Y-43875000D01*
X183875000Y-76688173D02*
X183875000Y-51241116D01*
X249125000Y-106758884D02*
X249125000Y-105311827D01*
X176785000Y-116517750D02*
X178310000Y-118042750D01*
X249125000Y-105311827D02*
X246719760Y-102906587D01*
X246719760Y-102906587D02*
X229906587Y-102906587D01*
X233675000Y-56854750D02*
X233675000Y-60138173D01*
X230875000Y-181241116D02*
X231241116Y-180875000D01*
X229991116Y-182125000D02*
X224311827Y-182125000D01*
X205115000Y-86571250D02*
X206808750Y-88265000D01*
X227875000Y-204761000D02*
X227875000Y-201241116D01*
X216758884Y-43875000D02*
X217650000Y-44766116D01*
X193758077Y-86571250D02*
X183875000Y-76688173D01*
X206808750Y-88265000D02*
X207190000Y-88265000D01*
X205500000Y-57979750D02*
X204375000Y-56854750D01*
%TO.N,+5V*%
D36*
X226500000Y-201500000D02*
X218500000Y-201500000D01*
X132500000Y-47500000D02*
X130500000Y-47500000D01*
X201500000Y-198500000D02*
X200500000Y-198500000D01*
X137500000Y-85500000D02*
X135500000Y-85500000D01*
X238500000Y-44500000D02*
X238500000Y-45500000D01*
X260500000Y-204500000D02*
X260500000Y-205500000D01*
X126500000Y-45500000D02*
X115500000Y-45500000D01*
X195500000Y-203500000D02*
X195500000Y-199500000D01*
X261500000Y-200500000D02*
X253500000Y-200500000D01*
X171335203Y-142826238D02*
X171335203Y-148500000D01*
X188500000Y-205500000D02*
X188500000Y-203500000D01*
X230500000Y-34500000D02*
X229500000Y-34500000D01*
X201500000Y-199500000D02*
X201500000Y-198500000D01*
X238500000Y-45500000D02*
X240500000Y-45500000D01*
X306500000Y-80500000D02*
X311500000Y-80500000D01*
X262500000Y-206500000D02*
X276500000Y-206500000D01*
X291500000Y-23500000D02*
X301500000Y-23500000D01*
X187500000Y-206500000D02*
X187500000Y-205500000D01*
X168795203Y-148500000D02*
X168500000Y-148500000D01*
X301244396Y-18348250D02*
X301244396Y-23500000D01*
X187500000Y-204500000D02*
X187500000Y-206500000D01*
X228500000Y-222500000D02*
X228500000Y-223500000D01*
X135500000Y-85500000D02*
X135500000Y-81500000D01*
X135500000Y-106500000D02*
X137500000Y-106500000D01*
X237694396Y-21098250D02*
X237694396Y-13500000D01*
X240500000Y-46500000D02*
X242500000Y-46500000D01*
X253500000Y-201500000D02*
X228500000Y-201500000D01*
X191500000Y-199500000D02*
X191500000Y-203500000D01*
X269444396Y-18348250D02*
X269444396Y-13500000D01*
X191500000Y-198500000D02*
X194500000Y-198500000D01*
X243500000Y-50500000D02*
X244500000Y-50500000D01*
X168500000Y-148500000D02*
X171500000Y-148500000D01*
X187500000Y-203500000D02*
X189500000Y-203500000D01*
X253500000Y-200500000D02*
X253500000Y-201500000D01*
X309500000Y-97500000D02*
X309500000Y-99500000D01*
X138375000Y-85271250D02*
X137500000Y-85500000D01*
X301244396Y-23500000D02*
X301500000Y-23500000D01*
X260500000Y-205500000D02*
X262500000Y-205500000D01*
X269444396Y-13500000D02*
X269500000Y-13500000D01*
X192500000Y-199500000D02*
X191500000Y-199500000D01*
X130500000Y-46500000D02*
X126500000Y-46500000D01*
X134500000Y-67500000D02*
X134500000Y-51500000D01*
X142500000Y-136500000D02*
X143500000Y-136500000D01*
X171335203Y-148500000D02*
X171500000Y-148500000D01*
X135500000Y-105500000D02*
X135500000Y-102500000D01*
X145500000Y-148500000D02*
X149500000Y-148500000D01*
X133500000Y-51500000D02*
X133500000Y-49500000D01*
X233500000Y-30500000D02*
X230500000Y-30500000D01*
X115405000Y-23048250D02*
X115405000Y-33500000D01*
X187500000Y-206500000D02*
X187500000Y-203500000D01*
X216525000Y-51500000D02*
X216500000Y-51500000D01*
X134500000Y-51500000D02*
X133500000Y-51500000D01*
X191500000Y-202500000D02*
X191500000Y-198500000D01*
X137500000Y-106500000D02*
X137500000Y-134500000D01*
X141500000Y-134500000D02*
X137500000Y-134500000D01*
X276204833Y-206500000D02*
X276500000Y-206500000D01*
X306500000Y-52500000D02*
X306500000Y-80500000D01*
X230500000Y-30500000D02*
X230500000Y-34500000D01*
X143500000Y-136500000D02*
X141500000Y-136500000D01*
X171500000Y-148500000D02*
X161500000Y-148500000D01*
X307500000Y-99500000D02*
X307500000Y-163500000D01*
X195500000Y-199500000D02*
X196500000Y-199500000D01*
X216500000Y-51500000D02*
X184500000Y-51500000D01*
X225500000Y-222500000D02*
X228500000Y-222500000D01*
X262500000Y-205500000D02*
X262500000Y-206500000D01*
X143500000Y-137500000D02*
X143500000Y-136500000D01*
X244500000Y-52500000D02*
X306500000Y-52500000D01*
X237694396Y-13500000D02*
X237500000Y-13500000D01*
X191500000Y-203500000D02*
X190500000Y-203500000D01*
X269500000Y-13500000D02*
X237500000Y-13500000D01*
X141500000Y-136500000D02*
X141500000Y-134500000D01*
X276204833Y-213073750D02*
X276204833Y-206500000D01*
X311500000Y-80500000D02*
X311500000Y-97500000D01*
X119614250Y-255004941D02*
X119614250Y-266719750D01*
X309500000Y-99500000D02*
X307500000Y-99500000D01*
X132500000Y-49500000D02*
X132500000Y-47500000D01*
X200500000Y-198500000D02*
X200500000Y-197500000D01*
X224500000Y-219500000D02*
X225500000Y-219500000D01*
X218500000Y-203500000D02*
X217500000Y-203500000D01*
X138500000Y-78500000D02*
X137500000Y-78500000D01*
X231500000Y-43500000D02*
X234500000Y-43500000D01*
X291500000Y-13500000D02*
X291500000Y-23500000D01*
X115405000Y-33500000D02*
X115500000Y-33500000D01*
X196500000Y-199500000D02*
X196500000Y-197500000D01*
X240500000Y-45500000D02*
X240500000Y-46500000D01*
X189500000Y-202500000D02*
X191500000Y-202500000D01*
X194500000Y-197500000D02*
X197500000Y-197500000D01*
X187488333Y-213853750D02*
X187488333Y-206500000D01*
X135500000Y-85500000D02*
X135500000Y-89500000D01*
X243500000Y-48500000D02*
X243500000Y-50500000D01*
X234500000Y-44500000D02*
X238500000Y-44500000D01*
X136500000Y-107500000D02*
X136500000Y-105500000D01*
X187500000Y-205500000D02*
X188500000Y-205500000D01*
X119614250Y-266719750D02*
X118745000Y-267589000D01*
X249500000Y-204500000D02*
X260500000Y-204500000D01*
X133500000Y-49500000D02*
X132500000Y-49500000D01*
X216500000Y-44500000D02*
X216500000Y-51500000D01*
X233500000Y-13500000D02*
X233500000Y-27500000D01*
X136500000Y-105500000D02*
X135500000Y-105500000D01*
X165500000Y-148500000D02*
X168500000Y-148500000D01*
X142500000Y-135500000D02*
X142500000Y-136500000D01*
X187488333Y-206500000D02*
X187500000Y-206500000D01*
X311500000Y-97500000D02*
X309500000Y-97500000D01*
X115500000Y-45500000D02*
X115500000Y-33500000D01*
X237500000Y-13500000D02*
X233500000Y-13500000D01*
X269500000Y-13500000D02*
X291500000Y-13500000D01*
X189500000Y-203500000D02*
X189500000Y-202500000D01*
X143500000Y-136500000D02*
X143500000Y-139500000D01*
X137500000Y-134500000D02*
X137500000Y-107500000D01*
X130500000Y-47500000D02*
X130500000Y-46500000D01*
X218500000Y-201500000D02*
X218500000Y-203500000D01*
X168795203Y-142826238D02*
X168795203Y-148500000D01*
X234500000Y-43500000D02*
X234500000Y-44500000D01*
X216525000Y-56854750D02*
X216525000Y-51500000D01*
X242500000Y-46500000D02*
X242500000Y-48500000D01*
X244500000Y-50500000D02*
X244500000Y-52500000D01*
X188500000Y-203500000D02*
X195500000Y-203500000D01*
X242500000Y-48500000D02*
X243500000Y-48500000D01*
X138500000Y-76500000D02*
X138500000Y-78500000D01*
X194500000Y-198500000D02*
X194500000Y-197500000D01*
X135500000Y-104500000D02*
X135500000Y-106500000D01*
X305194833Y-213073750D02*
X305194833Y-206500000D01*
X276500000Y-206500000D02*
X305500000Y-206500000D01*
X137500000Y-107500000D02*
X136500000Y-107500000D01*
X225500000Y-219500000D02*
X225500000Y-222500000D01*
X137500000Y-134500000D02*
X139500000Y-134500000D01*
X305194833Y-206500000D02*
X305500000Y-206500000D01*
X126500000Y-46500000D02*
X126500000Y-45500000D01*
%TO.N,/BUZZ*%
X186575203Y-140286238D02*
X186575203Y-134500000D01*
X186575203Y-134500000D02*
X186500000Y-134500000D01*
X150500000Y-134500000D02*
X186500000Y-134500000D01*
X149935000Y-196500000D02*
X149500000Y-196500000D01*
X149500000Y-196500000D02*
X147500000Y-196500000D01*
X147500000Y-173500000D02*
X150500000Y-173500000D01*
X150500000Y-173500000D02*
X150500000Y-134500000D01*
X147500000Y-196500000D02*
X147500000Y-173500000D01*
X149935000Y-191287250D02*
X149935000Y-196500000D01*
%TO.N,Net-(Q10-G)*%
D37*
X180541167Y-181125000D02*
X174770000Y-186896167D01*
X229790078Y-127875000D02*
X207311827Y-127875000D01*
X201125000Y-159844594D02*
X201125000Y-180758884D01*
X200640203Y-159359797D02*
X201125000Y-159844594D01*
X237803250Y-113311609D02*
X237803250Y-119861828D01*
X240153250Y-134730634D02*
X240153250Y-113311609D01*
X240153250Y-113311609D02*
X239464951Y-112623310D01*
X200640203Y-134546624D02*
X200640203Y-159359797D01*
X200758884Y-181125000D02*
X180541167Y-181125000D01*
X237803250Y-119861828D02*
X229790078Y-127875000D01*
X170033333Y-227568799D02*
X170033333Y-228542201D01*
X233703215Y-141180669D02*
X240153250Y-134730634D01*
X170033333Y-228542201D02*
X169345034Y-229230500D01*
X201125000Y-180758884D02*
X200758884Y-181125000D01*
X174770000Y-222832132D02*
X170033333Y-227568799D01*
X165831632Y-229230500D02*
X165143333Y-228542201D01*
X207311827Y-127875000D02*
X200640203Y-134546624D01*
X238491549Y-112623310D02*
X237803250Y-113311609D01*
X233703215Y-142244250D02*
X233703215Y-141180669D01*
X160095000Y-191287250D02*
X172245000Y-191287250D01*
X239464951Y-112623310D02*
X238491549Y-112623310D01*
X165143333Y-228542201D02*
X165143333Y-198388917D01*
X165143333Y-198388917D02*
X172245000Y-191287250D01*
X174770000Y-186896167D02*
X174770000Y-222832132D01*
X169345034Y-229230500D02*
X165831632Y-229230500D01*
%TO.N,+3V3*%
X290599077Y-192412250D02*
X283925000Y-185738173D01*
X283532739Y-142244250D02*
X311125000Y-169836511D01*
X311125000Y-177758884D02*
X296471634Y-192412250D01*
X115940991Y-190162250D02*
X126125000Y-200346259D01*
X249745953Y-169240750D02*
X266243376Y-185738173D01*
X33225000Y-56854750D02*
X31850000Y-58229750D01*
X106440000Y-190162250D02*
X105315000Y-191287250D01*
X106440000Y-190162250D02*
X115940991Y-190162250D01*
X17200000Y-58229750D02*
X16075000Y-57104750D01*
X31850000Y-58229750D02*
X17200000Y-58229750D01*
X311125000Y-169836511D02*
X311125000Y-177758884D01*
X126500000Y-190162250D02*
X106440000Y-190162250D01*
X296471634Y-192412250D02*
X290599077Y-192412250D01*
X126125000Y-206897000D02*
X135636000Y-216408000D01*
X127625000Y-191287250D02*
X126500000Y-190162250D01*
X283925000Y-185738173D02*
X266243376Y-185738173D01*
X126125000Y-200346259D02*
X126125000Y-206897000D01*
%TO.N,/W1*%
D36*
X65500000Y-172500000D02*
X65500000Y-173500000D01*
X33500000Y-162500000D02*
X39500000Y-162500000D01*
X41500000Y-164500000D02*
X61500000Y-164500000D01*
X28500000Y-135500000D02*
X28500000Y-136500000D01*
X118305000Y-84921250D02*
X118305000Y-89500000D01*
X117500000Y-92500000D02*
X117500000Y-89500000D01*
X39500000Y-162500000D02*
X39500000Y-163500000D01*
X118305000Y-89500000D02*
X118500000Y-89500000D01*
X93165000Y-196500000D02*
X89482000Y-192817000D01*
X61500000Y-172500000D02*
X65500000Y-172500000D01*
X39500000Y-163500000D02*
X41500000Y-163500000D01*
X116500000Y-92500000D02*
X117500000Y-92500000D01*
X28225000Y-144704250D02*
X28225000Y-135500000D01*
X41500000Y-163500000D02*
X41500000Y-164500000D01*
X61500000Y-164500000D02*
X61500000Y-172500000D01*
X176415203Y-140286238D02*
X176500000Y-139500000D01*
X176500000Y-139500000D02*
X176500000Y-137500000D01*
X28225000Y-135500000D02*
X28500000Y-135500000D01*
X33500000Y-136500000D02*
X33500000Y-162500000D01*
X28500000Y-135500000D02*
X28500000Y-125500000D01*
X117500000Y-89500000D02*
X118500000Y-89500000D01*
X28500000Y-136500000D02*
X33500000Y-136500000D01*
X118500000Y-106500000D02*
X119500000Y-106500000D01*
X118500000Y-89500000D02*
X118500000Y-106500000D01*
X28500000Y-125500000D02*
X83500000Y-125500000D01*
X89482000Y-192817000D02*
X77183000Y-192817000D01*
X77183000Y-192817000D02*
X73500000Y-196500000D01*
X119500000Y-106500000D02*
X119500000Y-107500000D01*
X93165000Y-191287250D02*
X93165000Y-196500000D01*
X116500000Y-94500000D02*
X116500000Y-92500000D01*
%TO.N,Net-(D9-A1)*%
D37*
X154011476Y-137453524D02*
X154011476Y-140484250D01*
X185210203Y-168023376D02*
X196926564Y-179739737D01*
X177780203Y-138406624D02*
X180261827Y-135925000D01*
X180261827Y-135925000D02*
X181335666Y-135925000D01*
X181335666Y-135925000D02*
X185210203Y-139799537D01*
X155829000Y-135636000D02*
X154011476Y-137453524D01*
X177780203Y-140772939D02*
X177780203Y-138406624D01*
X154011476Y-140484250D02*
X155178464Y-141651238D01*
X155178464Y-141651238D02*
X176901904Y-141651238D01*
X176901904Y-141651238D02*
X177780203Y-140772939D01*
X185210203Y-139799537D02*
X185210203Y-168023376D01*
X196926564Y-179739737D02*
X200250994Y-179739737D01*
%TO.N,Net-(Q8-G)*%
D36*
X31500000Y-179500000D02*
X31500000Y-180500000D01*
X31500000Y-180500000D02*
X32500000Y-180500000D01*
X18410714Y-171680750D02*
X18410714Y-170430750D01*
X36121191Y-176500000D02*
X36500000Y-176500000D01*
X28500000Y-184500000D02*
X27500000Y-184500000D01*
X27500000Y-184500000D02*
X27500000Y-179500000D01*
X27500000Y-179500000D02*
X26229964Y-179500000D01*
X36121191Y-170430750D02*
X36121191Y-176500000D01*
X26229964Y-179500000D02*
X18410714Y-171680750D01*
X28500000Y-196500000D02*
X28500000Y-184500000D01*
X26235000Y-196500000D02*
X26500000Y-196500000D01*
X26500000Y-196500000D02*
X28500000Y-196500000D01*
X26235000Y-191287250D02*
X26235000Y-196500000D01*
X27500000Y-179500000D02*
X31500000Y-179500000D01*
%TO.N,+12V*%
X300939646Y-56854750D02*
X300939646Y-61500000D01*
X22625000Y-115797750D02*
X22625000Y-122500000D01*
X38500000Y-130500000D02*
X41500000Y-130500000D01*
X19125000Y-115797750D02*
X19125000Y-113297750D01*
X19500000Y-122500000D02*
X19500000Y-130500000D01*
X266500000Y-62500000D02*
X257500000Y-62500000D01*
X20125000Y-115797750D02*
X22625000Y-113297750D01*
X193500000Y-241500000D02*
X191500000Y-241500000D01*
X247500000Y-71500000D02*
X277500000Y-71500000D01*
X83500000Y-206500000D02*
X51500000Y-206500000D01*
X19125000Y-113297750D02*
X22625000Y-113297750D01*
X247789646Y-60854750D02*
X247789646Y-69500000D01*
X283500000Y-61500000D02*
X300500000Y-61500000D01*
X19125000Y-115797750D02*
X19125000Y-122500000D01*
X28388250Y-264500000D02*
X28500000Y-264500000D01*
X266500000Y-62500000D02*
X283500000Y-62500000D01*
X283789646Y-57104750D02*
X283789646Y-62500000D01*
X51500000Y-206500000D02*
X51500000Y-205500000D01*
X54500000Y-206500000D02*
X72500000Y-206500000D01*
X257500000Y-62500000D02*
X257500000Y-69500000D01*
X22500000Y-122500000D02*
X19500000Y-122500000D01*
X49924750Y-266500000D02*
X49500000Y-266500000D01*
X283500000Y-77500000D02*
X283500000Y-80500000D01*
X96500000Y-226500000D02*
X53500000Y-226500000D01*
X19125000Y-115797750D02*
X20125000Y-115797750D01*
X28500000Y-265500000D02*
X28500000Y-264500000D01*
X79500000Y-206500000D02*
X83500000Y-206500000D01*
X120955000Y-206500000D02*
X120500000Y-206500000D01*
X277500000Y-72500000D02*
X279500000Y-72500000D01*
X83005000Y-211723750D02*
X83005000Y-206500000D01*
X19500000Y-106500000D02*
X22500000Y-106500000D01*
X49924750Y-255266846D02*
X49924750Y-266500000D01*
X281500000Y-75500000D02*
X282500000Y-75500000D01*
X300939646Y-61500000D02*
X300500000Y-61500000D01*
X100500000Y-206500000D02*
X100500000Y-217500000D01*
X194500000Y-240500000D02*
X193500000Y-240500000D01*
X22625000Y-122500000D02*
X22500000Y-122500000D01*
X120500000Y-206500000D02*
X100500000Y-206500000D01*
X28388250Y-254457322D02*
X28388250Y-264500000D01*
X22625000Y-106500000D02*
X22500000Y-106500000D01*
X282500000Y-75500000D02*
X282500000Y-77500000D01*
X283500000Y-80500000D02*
X282500000Y-80500000D01*
X193500000Y-240500000D02*
X193500000Y-241500000D01*
X83005000Y-206500000D02*
X83500000Y-206500000D01*
X22625000Y-113297750D02*
X22625000Y-106500000D01*
X120955000Y-212273750D02*
X120955000Y-206500000D01*
X83500000Y-206500000D02*
X52500000Y-206500000D01*
X19125000Y-115797750D02*
X22625000Y-115797750D01*
X257500000Y-69500000D02*
X247500000Y-69500000D01*
X283789646Y-62500000D02*
X283500000Y-62500000D01*
X53500000Y-226500000D02*
X53500000Y-225500000D01*
X282500000Y-77500000D02*
X283500000Y-77500000D01*
X247500000Y-69500000D02*
X247500000Y-71500000D01*
X279500000Y-73500000D02*
X281500000Y-73500000D01*
X19125000Y-122500000D02*
X19500000Y-122500000D01*
X126500000Y-238500000D02*
X126500000Y-221500000D01*
X120955000Y-206500000D02*
X124500000Y-206500000D01*
X277500000Y-71500000D02*
X277500000Y-72500000D01*
X33500000Y-200500000D02*
X33500000Y-177500000D01*
X283500000Y-62500000D02*
X283500000Y-61500000D01*
X49500000Y-266500000D02*
X43500000Y-266500000D01*
X197500000Y-239500000D02*
X194500000Y-239500000D01*
X266639646Y-62500000D02*
X266500000Y-62500000D01*
X279500000Y-72500000D02*
X279500000Y-73500000D01*
X36500000Y-200500000D02*
X33500000Y-200500000D01*
X19500000Y-130500000D02*
X27500000Y-130500000D01*
X266639646Y-57104750D02*
X266639646Y-62500000D01*
X281500000Y-73500000D02*
X281500000Y-75500000D01*
X194500000Y-239500000D02*
X194500000Y-240500000D01*
X124500000Y-206500000D02*
X125500000Y-207500000D01*
X19125000Y-106500000D02*
X19500000Y-106500000D01*
X247789646Y-69500000D02*
X247500000Y-69500000D01*
X41500000Y-130500000D02*
X41500000Y-129500000D01*
%TO.N,Net-(J11-Pin_1)*%
D37*
X28425000Y-113297750D02*
X31925000Y-113297750D01*
D36*
X117500000Y-120500000D02*
X109500000Y-120500000D01*
X193500000Y-107500000D02*
X169500000Y-107500000D01*
X28500000Y-116500000D02*
X28500000Y-121500000D01*
X37500000Y-128500000D02*
X37500000Y-126500000D01*
X117500000Y-110500000D02*
X117500000Y-120500000D01*
X28425000Y-115797750D02*
X28500000Y-116500000D01*
X193515000Y-116517750D02*
X193515000Y-107500000D01*
X31925000Y-115797750D02*
X28425000Y-115797750D01*
X169500000Y-107500000D02*
X169500000Y-106500000D01*
X122500000Y-101500000D02*
X122500000Y-107500000D01*
X82500000Y-128500000D02*
X37500000Y-128500000D01*
X167500000Y-101500000D02*
X156500000Y-101500000D01*
X120500000Y-110500000D02*
X117500000Y-110500000D01*
X145500000Y-101500000D02*
X122500000Y-101500000D01*
D37*
X28425000Y-113297750D02*
X28425000Y-115797750D01*
X31925000Y-113297750D02*
X31925000Y-115797750D01*
D36*
X31925000Y-115797750D02*
X31500000Y-116500000D01*
X193515000Y-107500000D02*
X193500000Y-107500000D01*
%TO.N,+5V_IN*%
X241500000Y-78500000D02*
X243500000Y-78500000D01*
X136500000Y-13500000D02*
X226500000Y-13500000D01*
X104500000Y-41500000D02*
X104500000Y-13500000D01*
X239500000Y-77500000D02*
X241500000Y-77500000D01*
X62500000Y-244500000D02*
X62500000Y-265500000D01*
X249515000Y-88801250D02*
X249515000Y-97500000D01*
X243500000Y-97500000D02*
X249500000Y-97500000D01*
X122500000Y-13500000D02*
X122500000Y-11500000D01*
X249515000Y-97500000D02*
X249500000Y-97500000D01*
X16075000Y-85301250D02*
X16075000Y-90500000D01*
X104500000Y-13500000D02*
X122500000Y-13500000D01*
X226500000Y-13500000D02*
X226500000Y-52500000D01*
X241500000Y-77500000D02*
X241500000Y-78500000D01*
X243500000Y-78500000D02*
X243500000Y-97500000D01*
X51500000Y-185500000D02*
X53500000Y-185500000D01*
X33225000Y-90225000D02*
X33225000Y-85301250D01*
X128500000Y-13500000D02*
X136500000Y-13500000D01*
X136555000Y-18348250D02*
X136555000Y-13500000D01*
X126500000Y-12500000D02*
X128500000Y-12500000D01*
X122500000Y-11500000D02*
X126500000Y-11500000D01*
X55500000Y-243500000D02*
X55500000Y-244500000D01*
X62500000Y-265500000D02*
X55500000Y-265500000D01*
X33500000Y-90500000D02*
X33500000Y-105500000D01*
X35301250Y-85301250D02*
X33225000Y-85301250D01*
X33500000Y-105500000D02*
X36500000Y-105500000D01*
X55500000Y-265500000D02*
X55500000Y-266500000D01*
X226500000Y-52500000D02*
X236500000Y-52500000D01*
X33500000Y-90500000D02*
X33225000Y-90225000D01*
X40500000Y-90500000D02*
X35301250Y-85301250D01*
X236500000Y-76500000D02*
X239500000Y-76500000D01*
X55004750Y-266500000D02*
X55500000Y-266500000D01*
X136555000Y-13500000D02*
X136500000Y-13500000D01*
X53500000Y-185500000D02*
X53500000Y-195500000D01*
X126500000Y-11500000D02*
X126500000Y-12500000D01*
X51500000Y-184500000D02*
X51500000Y-185500000D01*
X55004750Y-255266846D02*
X55004750Y-266500000D01*
X40500000Y-41500000D02*
X104500000Y-41500000D01*
X55500000Y-244500000D02*
X62500000Y-244500000D01*
X128500000Y-12500000D02*
X128500000Y-13500000D01*
X16500000Y-90500000D02*
X22500000Y-90500000D01*
X16075000Y-90500000D02*
X16500000Y-90500000D01*
X239500000Y-76500000D02*
X239500000Y-77500000D01*
X236500000Y-52500000D02*
X236500000Y-76500000D01*
X40500000Y-90500000D02*
X40500000Y-41500000D01*
X50500000Y-184500000D02*
X51500000Y-184500000D01*
%TO.N,Net-(J4-S)*%
D37*
X275758884Y-123875000D02*
X275241116Y-123875000D01*
X288408884Y-130404289D02*
X282288173Y-130404289D01*
X275241116Y-123875000D02*
X272125000Y-126991116D01*
X238720953Y-169706741D02*
X238061944Y-170365750D01*
X297401500Y-121411673D02*
X288408884Y-130404289D01*
X297401500Y-116517750D02*
X297401500Y-121411673D01*
X265282571Y-145481024D02*
X260970797Y-141169250D01*
X238061944Y-170365750D02*
X228560953Y-170365750D01*
X260970797Y-141169250D02*
X247642739Y-141169250D01*
X282288173Y-130404289D02*
X275758884Y-123875000D01*
X272125000Y-126991116D02*
X272125000Y-138638595D01*
X247642739Y-141169250D02*
X238720953Y-150091036D01*
X227435953Y-169240750D02*
X228560953Y-170365750D01*
X272125000Y-138638595D02*
X265282571Y-145481024D01*
X238720953Y-150091036D02*
X238720953Y-169706741D01*
%TO.N,/SCL*%
X148209000Y-234569000D02*
X148209000Y-235966000D01*
X149326833Y-223764000D02*
X143632116Y-223764000D01*
X141875000Y-177784000D02*
X142621000Y-177038000D01*
X153618333Y-231342333D02*
X154178000Y-231902000D01*
X156591000Y-249936000D02*
X153101596Y-249936000D01*
X141875000Y-222006884D02*
X141875000Y-177784000D01*
X98351250Y-149164423D02*
X100261827Y-151075000D01*
X143632116Y-223764000D02*
X141875000Y-222006884D01*
X148209000Y-235966000D02*
X143764000Y-240411000D01*
X101147000Y-151075000D02*
X105156000Y-147066000D01*
X96520000Y-145125584D02*
X98351250Y-143294334D01*
X153101596Y-249936000D02*
X148770750Y-254266846D01*
X96520000Y-151250000D02*
X96520000Y-145125584D01*
X100261827Y-151075000D02*
X101147000Y-151075000D01*
X153618333Y-228055500D02*
X149326833Y-223764000D01*
X98351250Y-143294334D02*
X98351250Y-149164423D01*
X153618333Y-228055500D02*
X153618333Y-231342333D01*
%TO.N,Net-(J12-Pin_1)*%
D36*
X293955000Y-191287250D02*
X292500000Y-191500000D01*
X215235000Y-107500000D02*
X215500000Y-107500000D01*
X284500000Y-185500000D02*
X285500000Y-185500000D01*
X275500000Y-164500000D02*
X284500000Y-164500000D01*
X284500000Y-164500000D02*
X284500000Y-185500000D01*
X292500000Y-191500000D02*
X292500000Y-186500000D01*
X275500000Y-124500000D02*
X275500000Y-164500000D01*
X215500000Y-107500000D02*
X215235000Y-107765000D01*
X285500000Y-185500000D02*
X285500000Y-186500000D01*
X285500000Y-186500000D02*
X292500000Y-186500000D01*
X215235000Y-107765000D02*
X215235000Y-114047750D01*
%TO.N,/FLT*%
X155500000Y-108500000D02*
X155500000Y-124206000D01*
X163500000Y-125500000D02*
X172490000Y-125500000D01*
X222500000Y-128500000D02*
X222500000Y-129500000D01*
X261485000Y-196500000D02*
X261500000Y-196500000D01*
X172490000Y-125500000D02*
X180213000Y-133223000D01*
X217500000Y-121500000D02*
X216500000Y-121500000D01*
X170500000Y-95500000D02*
X170500000Y-93500000D01*
X165500000Y-126500000D02*
X165500000Y-127500000D01*
X159500000Y-92500000D02*
X159500000Y-93500000D01*
X217500000Y-121500000D02*
X215500000Y-121500000D01*
X163500000Y-126500000D02*
X165500000Y-126500000D01*
X221500000Y-128500000D02*
X222500000Y-128500000D01*
X168500000Y-93500000D02*
X168500000Y-92500000D01*
X180213000Y-133223000D02*
X180086000Y-133350000D01*
X185500000Y-109500000D02*
X182500000Y-109500000D01*
X226500000Y-130500000D02*
X226500000Y-132500000D01*
X180086000Y-133350000D02*
X177500000Y-133350000D01*
X153500000Y-108500000D02*
X155500000Y-108500000D01*
X253500000Y-185500000D02*
X253500000Y-196500000D01*
X217735000Y-114047750D02*
X217735000Y-121500000D01*
X153500000Y-100500000D02*
X153500000Y-108500000D01*
X163500000Y-125500000D02*
X163500000Y-126500000D01*
X244500000Y-184500000D02*
X246500000Y-184500000D01*
X261485000Y-191287250D02*
X261485000Y-196500000D01*
X224500000Y-130500000D02*
X226500000Y-130500000D01*
X171500000Y-97500000D02*
X171500000Y-95500000D01*
X163500000Y-125400000D02*
X163500000Y-125500000D01*
X155500000Y-124206000D02*
X162306000Y-124206000D01*
X253500000Y-196500000D02*
X261500000Y-196500000D01*
X170500000Y-93500000D02*
X168500000Y-93500000D01*
X224500000Y-129500000D02*
X224500000Y-130500000D01*
X217735000Y-121500000D02*
X217500000Y-121500000D01*
X182500000Y-109500000D02*
X182500000Y-108500000D01*
X244500000Y-173500000D02*
X244500000Y-184500000D01*
X162306000Y-124206000D02*
X163500000Y-125400000D01*
X171500000Y-95500000D02*
X170500000Y-95500000D01*
X222500000Y-129500000D02*
X224500000Y-129500000D01*
X168500000Y-92500000D02*
X159500000Y-92500000D01*
%TO.N,/VBAT_SENSE*%
X151189339Y-180250000D02*
X150452767Y-180986572D01*
X179500000Y-79500000D02*
X179500000Y-92500000D01*
X150224949Y-197200000D02*
X147210051Y-197200000D01*
X286594396Y-18098250D02*
X286594396Y-23500000D01*
X151185000Y-196239949D02*
X150224949Y-197200000D01*
X236500000Y-28500000D02*
X236500000Y-31500000D01*
X232500000Y-35500000D02*
X231500000Y-35500000D01*
X235500000Y-33500000D02*
X232500000Y-33500000D01*
X172500000Y-93500000D02*
X171500000Y-93500000D01*
X231500000Y-37500000D02*
X228500000Y-37500000D01*
X93500000Y-174500000D02*
X86500000Y-174500000D01*
X286500000Y-23500000D02*
X245500000Y-23500000D01*
X131500000Y-137510051D02*
X131500000Y-154500000D01*
X146139339Y-196129288D02*
X146139339Y-174200000D01*
X174195000Y-209163333D02*
X174195000Y-187134339D01*
X150452767Y-180986572D02*
X150452767Y-190037250D01*
X131500000Y-154500000D02*
X130500000Y-154500000D01*
X113750000Y-171160051D02*
X113750000Y-140189339D01*
X151185000Y-190769483D02*
X151185000Y-196239949D01*
X141200000Y-220860661D02*
X139810661Y-222250000D01*
X179500000Y-92500000D02*
X172500000Y-92500000D01*
X93500000Y-156500000D02*
X93500000Y-164500000D01*
X228500000Y-44500000D02*
X227500000Y-44500000D01*
X86500000Y-164500000D02*
X85500000Y-164500000D01*
X91500000Y-174500000D02*
X93500000Y-174500000D01*
X139810661Y-222250000D02*
X139189339Y-222250000D01*
X138750000Y-196160051D02*
X113750000Y-171160051D01*
X245500000Y-23500000D02*
X245500000Y-28500000D01*
X113750000Y-140189339D02*
X118189339Y-135750000D01*
X141200000Y-174200000D02*
X141200000Y-220860661D01*
X174195000Y-187134339D02*
X167310661Y-180250000D01*
X139189339Y-222250000D02*
X138750000Y-221810661D01*
X286594396Y-23500000D02*
X286500000Y-23500000D01*
X95500000Y-156500000D02*
X93500000Y-156500000D01*
X228500000Y-37500000D02*
X228500000Y-44500000D01*
X138750000Y-221810661D02*
X138750000Y-196160051D01*
X231500000Y-35500000D02*
X231500000Y-37500000D01*
X118189339Y-135750000D02*
X129739949Y-135750000D01*
X147210051Y-197200000D02*
X146139339Y-196129288D01*
X245500000Y-28500000D02*
X236500000Y-28500000D01*
X146139339Y-174200000D02*
X141200000Y-174200000D01*
X86500000Y-174500000D02*
X86500000Y-164500000D01*
X150452767Y-190037250D02*
X151185000Y-190769483D01*
X172500000Y-92500000D02*
X172500000Y-93500000D01*
X129739949Y-135750000D02*
X131500000Y-137510051D01*
X167310661Y-180250000D02*
X151189339Y-180250000D01*
X91500000Y-164500000D02*
X91500000Y-174500000D01*
X168858333Y-214500000D02*
X174195000Y-209163333D01*
X232500000Y-33500000D02*
X232500000Y-35500000D01*
X93575953Y-169240750D02*
X93575953Y-174500000D01*
X131500000Y-135500000D02*
X131500000Y-137510051D01*
X93575953Y-174500000D02*
X93500000Y-174500000D01*
X235500000Y-31500000D02*
X235500000Y-33500000D01*
X93500000Y-164500000D02*
X91500000Y-164500000D01*
X236500000Y-31500000D02*
X235500000Y-31500000D01*
X168858333Y-228055500D02*
X168858333Y-214500000D01*
%TO.N,+5V_BAT*%
X193500000Y-243500000D02*
X193500000Y-244500000D01*
X200500000Y-233500000D02*
X200500000Y-240500000D01*
X205500000Y-233500000D02*
X200500000Y-233500000D01*
X107500000Y-244500000D02*
X100500000Y-244500000D01*
X246500000Y-71500000D02*
X246500000Y-72500000D01*
X233500000Y-231500000D02*
X231500000Y-231500000D01*
X200500000Y-29500000D02*
X218500000Y-29500000D01*
X235500000Y-230500000D02*
X233500000Y-230500000D01*
X220500000Y-35500000D02*
X220500000Y-52500000D01*
X243500000Y-71500000D02*
X246500000Y-71500000D01*
X220500000Y-52500000D02*
X221500000Y-52500000D01*
X252500000Y-224500000D02*
X251500000Y-224500000D01*
X200500000Y-23500000D02*
X200500000Y-29500000D01*
X205500000Y-232500000D02*
X205500000Y-233500000D01*
X218500000Y-35500000D02*
X220500000Y-35500000D01*
X176500000Y-267500000D02*
X176500000Y-268500000D01*
X107500000Y-268500000D02*
X107500000Y-244500000D01*
X251500000Y-224500000D02*
X251500000Y-225500000D01*
X231500000Y-231500000D02*
X231500000Y-232500000D01*
X233500000Y-230500000D02*
X233500000Y-231500000D01*
X236500000Y-227500000D02*
X236500000Y-228500000D01*
X100617750Y-260576371D02*
X100617750Y-244500000D01*
X221500000Y-52500000D02*
X221500000Y-70500000D01*
X243500000Y-70500000D02*
X243500000Y-71500000D01*
X100617750Y-244500000D02*
X100500000Y-244500000D01*
X237500000Y-227500000D02*
X236500000Y-227500000D01*
X194500000Y-243500000D02*
X193500000Y-243500000D01*
X289500000Y-220500000D02*
X253500000Y-220500000D01*
X193500000Y-244500000D02*
X192500000Y-244500000D01*
X289954833Y-213073750D02*
X289954833Y-220500000D01*
X218949698Y-29500000D02*
X218500000Y-29500000D01*
X249500000Y-226500000D02*
X237500000Y-226500000D01*
X253500000Y-222500000D02*
X252500000Y-222500000D01*
X191500000Y-265500000D02*
X191500000Y-267500000D01*
X176500000Y-268500000D02*
X107500000Y-268500000D01*
X218949698Y-21098250D02*
X218949698Y-29500000D01*
X237500000Y-226500000D02*
X237500000Y-227500000D01*
X249500000Y-225500000D02*
X249500000Y-226500000D01*
X253500000Y-220500000D02*
X253500000Y-222500000D01*
X199500000Y-242500000D02*
X194500000Y-242500000D01*
X231500000Y-232500000D02*
X205500000Y-232500000D01*
X289954833Y-220500000D02*
X289500000Y-220500000D01*
X218500000Y-29500000D02*
X218500000Y-35500000D01*
X192500000Y-244500000D02*
X192500000Y-265500000D01*
X221500000Y-70500000D02*
X235500000Y-70500000D01*
X242500000Y-70500000D02*
X243500000Y-70500000D01*
X194500000Y-242500000D02*
X194500000Y-243500000D01*
X200155000Y-18348250D02*
X200155000Y-23500000D01*
X199500000Y-240500000D02*
X199500000Y-242500000D01*
X200155000Y-23500000D02*
X200500000Y-23500000D01*
X235500000Y-228500000D02*
X235500000Y-230500000D01*
X200500000Y-240500000D02*
X199500000Y-240500000D01*
X191500000Y-267500000D02*
X176500000Y-267500000D01*
X251500000Y-225500000D02*
X249500000Y-225500000D01*
X236500000Y-228500000D02*
X235500000Y-228500000D01*
X192500000Y-265500000D02*
X191500000Y-265500000D01*
X252500000Y-222500000D02*
X252500000Y-224500000D01*
%TO.N,VBAT*%
X232500000Y-40500000D02*
X232500000Y-41500000D01*
X312500000Y-97500000D02*
X312500000Y-99500000D01*
X126500000Y-23500000D02*
X126500000Y-32500000D01*
X19500000Y-52500000D02*
X13500000Y-52500000D01*
X19275000Y-27378250D02*
X19275000Y-41500000D01*
X246500000Y-49500000D02*
X246500000Y-50500000D01*
X238500000Y-42500000D02*
X238500000Y-43500000D01*
X240500000Y-44500000D02*
X242500000Y-44500000D01*
X231500000Y-40500000D02*
X232500000Y-40500000D01*
X240500000Y-43500000D02*
X240500000Y-44500000D01*
X242500000Y-44500000D02*
X242500000Y-45500000D01*
X308500000Y-78500000D02*
X311500000Y-78500000D01*
X306500000Y-50500000D02*
X306500000Y-51500000D01*
X168355000Y-18098250D02*
X168355000Y-23500000D01*
X119500000Y-32500000D02*
X119500000Y-39500000D01*
X232500000Y-41500000D02*
X234500000Y-41500000D01*
X168500000Y-37500000D02*
X217500000Y-37500000D01*
X238500000Y-43500000D02*
X240500000Y-43500000D01*
X168500000Y-23500000D02*
X168500000Y-37500000D01*
X100500000Y-43500000D02*
X41500000Y-43500000D01*
X311500000Y-78500000D02*
X311500000Y-79500000D01*
X308500000Y-51500000D02*
X308500000Y-78500000D01*
X313500000Y-79500000D02*
X313500000Y-97500000D01*
X242500000Y-45500000D02*
X244500000Y-45500000D01*
X285565000Y-98435000D02*
X285500000Y-98500000D01*
X13500000Y-52500000D02*
X13500000Y-91500000D01*
X244500000Y-45500000D02*
X244500000Y-47500000D01*
X15500000Y-108500000D02*
X13500000Y-108500000D01*
X15500000Y-91500000D02*
X15500000Y-108500000D01*
X312500000Y-99500000D02*
X310500000Y-99500000D01*
X19500000Y-41500000D02*
X19500000Y-52500000D01*
X79081250Y-272500000D02*
X60500000Y-272500000D01*
X311500000Y-79500000D02*
X313500000Y-79500000D01*
X126500000Y-32500000D02*
X119500000Y-32500000D01*
X245500000Y-49500000D02*
X246500000Y-49500000D01*
X79081250Y-258671609D02*
X79081250Y-272500000D01*
X244500000Y-47500000D02*
X245500000Y-47500000D01*
X246500000Y-50500000D02*
X306500000Y-50500000D01*
X13500000Y-91500000D02*
X15500000Y-91500000D01*
X13500000Y-108500000D02*
X13500000Y-122500000D01*
X306500000Y-51500000D02*
X308500000Y-51500000D01*
X234500000Y-42500000D02*
X238500000Y-42500000D01*
X234500000Y-41500000D02*
X234500000Y-42500000D01*
X313500000Y-97500000D02*
X312500000Y-97500000D01*
X285565000Y-88801250D02*
X285565000Y-98435000D01*
X168355000Y-23500000D02*
X168500000Y-23500000D01*
X245500000Y-47500000D02*
X245500000Y-49500000D01*
X168500000Y-23500000D02*
X126500000Y-23500000D01*
X19275000Y-41500000D02*
X19500000Y-41500000D01*
%TO.N,Net-(D8-A1)*%
X214500000Y-184500000D02*
X214500000Y-183500000D01*
X180500000Y-219500000D02*
X180500000Y-226500000D01*
X181500000Y-229500000D02*
X181500000Y-234500000D01*
X194555000Y-186500000D02*
X194500000Y-186500000D01*
X199500000Y-186500000D02*
X199500000Y-183500000D01*
X204500000Y-184500000D02*
X214500000Y-184500000D01*
X194500000Y-186500000D02*
X199500000Y-186500000D01*
X199500000Y-183500000D02*
X200500000Y-183500000D01*
X163500000Y-137500000D02*
X163500000Y-135500000D01*
X184500000Y-198500000D02*
X184500000Y-202500000D01*
X185500000Y-186500000D02*
X185500000Y-184500000D01*
X180500000Y-234500000D02*
X180500000Y-244500000D01*
X180467250Y-255385894D02*
X180467250Y-244500000D01*
X175500000Y-148500000D02*
X174500000Y-148500000D01*
X186500000Y-196500000D02*
X185500000Y-196500000D01*
X185500000Y-196500000D02*
X185500000Y-198500000D01*
X175500000Y-176500000D02*
X175500000Y-148500000D01*
X227025000Y-191287250D02*
X226500000Y-191500000D01*
X226500000Y-191500000D02*
X226500000Y-187500000D01*
X214500000Y-183500000D02*
X215500000Y-183500000D01*
X194500000Y-186500000D02*
X190500000Y-186500000D01*
X166625000Y-112186000D02*
X166625000Y-116517750D01*
X161500000Y-107061000D02*
X166625000Y-112186000D01*
X185500000Y-184500000D02*
X182500000Y-184500000D01*
X194500000Y-186500000D02*
X185500000Y-186500000D01*
X194555000Y-191287250D02*
X194555000Y-186500000D01*
X161500000Y-107061000D02*
X161500000Y-102500000D01*
X184500000Y-202500000D02*
X183500000Y-202500000D01*
X182500000Y-182500000D02*
X181500000Y-182500000D01*
X182500000Y-184500000D02*
X182500000Y-182500000D01*
X185500000Y-198500000D02*
X184500000Y-198500000D01*
X181500000Y-234500000D02*
X180500000Y-234500000D01*
X186500000Y-195500000D02*
X186500000Y-196500000D01*
X180467250Y-244500000D02*
X180500000Y-244500000D01*
%TO.N,Net-(JP2-A)*%
X197500000Y-202500000D02*
X197500000Y-203500000D01*
X152500000Y-176500000D02*
X152500000Y-144500000D01*
X189500000Y-206500000D02*
X189500000Y-207500000D01*
X203500000Y-200500000D02*
X203500000Y-202500000D01*
X177500000Y-204500000D02*
X177500000Y-196500000D01*
X181500000Y-204500000D02*
X177500000Y-204500000D01*
X189500000Y-207500000D02*
X188500000Y-207500000D01*
X197500000Y-203500000D02*
X196500000Y-203500000D01*
X204715000Y-191287250D02*
X204715000Y-196500000D01*
X152711476Y-140484250D02*
X151500000Y-140500000D01*
X204500000Y-196500000D02*
X204500000Y-200500000D01*
X196500000Y-205500000D02*
X192500000Y-205500000D01*
X204500000Y-200500000D02*
X203500000Y-200500000D01*
X177500000Y-196500000D02*
X176500000Y-196500000D01*
X192500000Y-206500000D02*
X189500000Y-206500000D01*
X196500000Y-203500000D02*
X196500000Y-205500000D01*
X152500000Y-144500000D02*
X151500000Y-144500000D01*
X204715000Y-196500000D02*
X204500000Y-196500000D01*
X203500000Y-202500000D02*
X197500000Y-202500000D01*
X192500000Y-205500000D02*
X192500000Y-206500000D01*
%TO.N,/INA_INP*%
X30928250Y-254457322D02*
X30928250Y-244500000D01*
X70500000Y-178500000D02*
X70500000Y-186500000D01*
X58500000Y-186500000D02*
X58500000Y-195500000D01*
X88500000Y-126500000D02*
X87500000Y-126500000D01*
X31500000Y-219500000D02*
X30500000Y-219500000D01*
X70855000Y-216500000D02*
X72500000Y-216500000D01*
X89500000Y-51500000D02*
X89500000Y-91500000D01*
X123500000Y-51500000D02*
X89500000Y-51500000D01*
X32500000Y-216500000D02*
X32500000Y-217500000D01*
X86500000Y-131500000D02*
X85500000Y-131500000D01*
X85500000Y-133500000D02*
X84500000Y-133500000D01*
X73500000Y-178500000D02*
X70500000Y-178500000D01*
X70855000Y-211723750D02*
X70855000Y-216500000D01*
X123625000Y-56854750D02*
X123625000Y-51500000D01*
X74500000Y-176500000D02*
X73500000Y-176500000D01*
X85500000Y-131500000D02*
X85500000Y-133500000D01*
X30500000Y-219500000D02*
X30500000Y-244500000D01*
X88500000Y-91500000D02*
X88500000Y-126500000D01*
X74500000Y-173500000D02*
X74500000Y-176500000D01*
X30928250Y-244500000D02*
X30500000Y-244500000D01*
X70500000Y-186500000D02*
X58500000Y-186500000D01*
X32500000Y-217500000D02*
X31500000Y-217500000D01*
X56500000Y-216500000D02*
X32500000Y-216500000D01*
X123625000Y-51500000D02*
X123500000Y-51500000D01*
X87500000Y-129500000D02*
X86500000Y-129500000D01*
X72500000Y-216500000D02*
X73500000Y-215500000D01*
X84500000Y-133500000D02*
X84500000Y-173500000D01*
X89500000Y-91500000D02*
X88500000Y-91500000D01*
X86500000Y-129500000D02*
X86500000Y-131500000D01*
X73500000Y-176500000D02*
X73500000Y-178500000D01*
X84500000Y-173500000D02*
X74500000Y-173500000D01*
X31500000Y-217500000D02*
X31500000Y-219500000D01*
X87500000Y-126500000D02*
X87500000Y-129500000D01*
%TO.N,Net-(U2-Vin-)*%
X93500000Y-216500000D02*
X80500000Y-216500000D01*
X44500000Y-222500000D02*
X44500000Y-221500000D01*
X38500000Y-221500000D02*
X38500000Y-264500000D01*
X95500000Y-173500000D02*
X95500000Y-216500000D01*
X112500000Y-62500000D02*
X112500000Y-64500000D01*
X124500000Y-51500000D02*
X124500000Y-50500000D01*
X80500000Y-216500000D02*
X80500000Y-219500000D01*
X126125000Y-56854750D02*
X125500000Y-56500000D01*
X93165000Y-211723750D02*
X93165000Y-216500000D01*
X109500000Y-92500000D02*
X109500000Y-94500000D01*
X44500000Y-221500000D02*
X38500000Y-221500000D01*
X111500000Y-90500000D02*
X111500000Y-92500000D01*
X111500000Y-92500000D02*
X109500000Y-92500000D01*
X38500000Y-264500000D02*
X33500000Y-264500000D01*
X125500000Y-51500000D02*
X124500000Y-51500000D01*
X112500000Y-88500000D02*
X112500000Y-90500000D01*
X125500000Y-56500000D02*
X125500000Y-52500000D01*
X109500000Y-94500000D02*
X106500000Y-94500000D01*
X106500000Y-173500000D02*
X95500000Y-173500000D01*
X93165000Y-216500000D02*
X93500000Y-216500000D01*
X78500000Y-222500000D02*
X44500000Y-222500000D01*
X33468250Y-264500000D02*
X33500000Y-264500000D01*
X106500000Y-94500000D02*
X106500000Y-173500000D01*
X95500000Y-216500000D02*
X93500000Y-216500000D01*
X112500000Y-90500000D02*
X111500000Y-90500000D01*
X125500000Y-52500000D02*
X125500000Y-51500000D01*
X33468250Y-254457322D02*
X33468250Y-264500000D01*
%TO.N,/SDA*%
X115500000Y-196500000D02*
X102500000Y-196500000D01*
X134500000Y-137500000D02*
X134500000Y-134500000D01*
X115475000Y-191287250D02*
X115475000Y-196500000D01*
X135500000Y-244500000D02*
X135500000Y-226500000D01*
X31500000Y-265500000D02*
X31500000Y-266500000D01*
X76500000Y-131500000D02*
X77500000Y-131500000D01*
X77500000Y-131500000D02*
X77500000Y-129500000D01*
X97500000Y-216500000D02*
X96500000Y-216500000D01*
X173228000Y-147761949D02*
X173228000Y-145161000D01*
X171739949Y-149250000D02*
X173228000Y-147761949D01*
X52500000Y-132500000D02*
X52500000Y-136500000D01*
X97500000Y-196500000D02*
X97500000Y-216500000D01*
X116500000Y-132500000D02*
X132500000Y-132500000D01*
X75500000Y-132500000D02*
X52500000Y-132500000D01*
X76500000Y-134500000D02*
X75500000Y-134500000D01*
X115475000Y-196500000D02*
X115500000Y-196500000D01*
X151241833Y-223139000D02*
X143891000Y-223139000D01*
X97790000Y-140193084D02*
X97790000Y-132500000D01*
X30500000Y-266500000D02*
X30500000Y-268500000D01*
X40500000Y-149500000D02*
X40500000Y-136500000D01*
X134500000Y-136500000D02*
X133500000Y-136500000D01*
X76500000Y-135500000D02*
X76500000Y-134500000D01*
X76500000Y-89500000D02*
X78500000Y-89500000D01*
X96500000Y-216500000D02*
X96500000Y-218500000D01*
X64500000Y-151500000D02*
X52500000Y-151500000D01*
X76814750Y-135500000D02*
X76500000Y-135500000D01*
X133500000Y-132500000D02*
X107500000Y-132500000D01*
X56500000Y-133500000D02*
X72500000Y-133500000D01*
X76814750Y-144699096D02*
X76814750Y-135500000D01*
X69500000Y-154500000D02*
X69500000Y-153500000D01*
X30500000Y-268500000D02*
X25500000Y-268500000D01*
X78765000Y-84921250D02*
X78765000Y-89500000D01*
X132500000Y-133500000D02*
X134500000Y-133500000D01*
X55500000Y-136500000D02*
X55500000Y-135500000D01*
X146230750Y-254266846D02*
X146230750Y-244500000D01*
X156158333Y-228055500D02*
X151241833Y-223139000D01*
X52738250Y-136500000D02*
X52500000Y-136500000D01*
X76500000Y-94500000D02*
X76500000Y-89500000D01*
X100891250Y-143294334D02*
X97790000Y-140193084D01*
X135500000Y-226500000D02*
X134500000Y-226500000D01*
X102500000Y-196500000D02*
X102500000Y-178500000D01*
X25848250Y-264500000D02*
X25500000Y-264500000D01*
X124967750Y-150500000D02*
X127500000Y-150500000D01*
X87500000Y-166500000D02*
X88500000Y-166500000D01*
X52500000Y-151500000D02*
X52500000Y-150500000D01*
X134500000Y-134500000D02*
X133500000Y-134500000D01*
X76500000Y-133500000D02*
X76500000Y-135500000D01*
X75500000Y-134500000D02*
X75500000Y-132500000D01*
X133500000Y-138500000D02*
X132500000Y-138500000D01*
X127500000Y-150500000D02*
X128500000Y-149500000D01*
X69500000Y-153500000D02*
X64500000Y-153500000D01*
X88500000Y-166500000D02*
X88500000Y-156500000D01*
X56500000Y-228500000D02*
X43500000Y-228500000D01*
X133500000Y-136500000D02*
X133500000Y-138500000D01*
X25500000Y-268500000D02*
X25500000Y-264500000D01*
X102500000Y-178500000D02*
X96500000Y-178500000D01*
X52738250Y-143151477D02*
X52738250Y-136500000D01*
X146500000Y-244500000D02*
X135500000Y-244500000D01*
X124967750Y-143103858D02*
X124967750Y-150500000D01*
X134500000Y-133500000D02*
X134500000Y-136500000D01*
X72500000Y-133500000D02*
X72500000Y-132500000D01*
X55500000Y-135500000D02*
X56500000Y-135500000D01*
X146230750Y-244500000D02*
X146500000Y-244500000D01*
X88500000Y-156500000D02*
X85500000Y-156500000D01*
X31500000Y-266500000D02*
X30500000Y-266500000D01*
X115500000Y-196500000D02*
X97500000Y-196500000D01*
X78765000Y-89500000D02*
X78500000Y-89500000D01*
X132500000Y-132500000D02*
X132500000Y-133500000D01*
X25848250Y-254457322D02*
X25848250Y-264500000D01*
X96500000Y-218500000D02*
X84500000Y-218500000D01*
X72500000Y-132500000D02*
X73500000Y-132500000D01*
X40500000Y-136500000D02*
X55500000Y-136500000D01*
X167894000Y-149250000D02*
X171739949Y-149250000D01*
X56500000Y-135500000D02*
X56500000Y-133500000D01*
X64500000Y-153500000D02*
X64500000Y-151500000D01*
X171335203Y-140286238D02*
X171500000Y-139500000D01*
X76500000Y-135500000D02*
X76500000Y-131500000D01*
X133500000Y-134500000D02*
X133500000Y-132500000D01*
%TO.N,Net-(J2-Pin_1)*%
X236438250Y-119500000D02*
X236438250Y-113798310D01*
X225500000Y-119500000D02*
X236438250Y-119500000D01*
%TO.N,Net-(J2-Pin_2)*%
X209435203Y-140286238D02*
X208500000Y-140500000D01*
X207500000Y-138500000D02*
X207500000Y-137500000D01*
X208500000Y-138500000D02*
X207500000Y-138500000D01*
X238978250Y-113798310D02*
X238978250Y-119500000D01*
X227250000Y-132810661D02*
X224310661Y-135750000D01*
X224310661Y-135750000D02*
X212310661Y-135750000D01*
X210560661Y-137500000D02*
X207500000Y-137500000D01*
X227250000Y-131228250D02*
X227250000Y-132810661D01*
X212310661Y-135750000D02*
X210560661Y-137500000D01*
X208500000Y-140500000D02*
X208500000Y-138500000D01*
X238978250Y-119500000D02*
X227250000Y-131228250D01*
%TO.N,EC_VCC*%
X155425000Y-94425000D02*
X155425000Y-57104750D01*
X167500000Y-94500000D02*
X167500000Y-95500000D01*
X10500000Y-93500000D02*
X12500000Y-93500000D01*
X16500000Y-170500000D02*
X13500000Y-170500000D01*
X224500000Y-104500000D02*
X224500000Y-105500000D01*
X10500000Y-123500000D02*
X10500000Y-93500000D01*
X110500000Y-66500000D02*
X112500000Y-66500000D01*
X169500000Y-97500000D02*
X170500000Y-97500000D01*
X219500000Y-104500000D02*
X224500000Y-104500000D01*
X167500000Y-95500000D02*
X169500000Y-95500000D01*
X124500000Y-64500000D02*
X126500000Y-64500000D01*
X224500000Y-105500000D02*
X248500000Y-105500000D01*
X112500000Y-65500000D02*
X124500000Y-65500000D01*
X126500000Y-64500000D02*
X126500000Y-62500000D01*
X12500000Y-123500000D02*
X10500000Y-123500000D01*
X13500000Y-170500000D02*
X13500000Y-124500000D01*
X248500000Y-105500000D02*
X248500000Y-106500000D01*
X13500000Y-124500000D02*
X12500000Y-124500000D01*
X172500000Y-100500000D02*
X217500000Y-100500000D01*
X112500000Y-66500000D02*
X112500000Y-65500000D01*
X17140714Y-170430750D02*
X16500000Y-170500000D01*
X108500000Y-91500000D02*
X108500000Y-90500000D01*
X219500000Y-101500000D02*
X219500000Y-104500000D01*
X172500000Y-98500000D02*
X172500000Y-100500000D01*
X217500000Y-101500000D02*
X219500000Y-101500000D01*
X126500000Y-62500000D02*
X127500000Y-62500000D01*
X107500000Y-91500000D02*
X108500000Y-91500000D01*
X155500000Y-94500000D02*
X167500000Y-94500000D01*
X110500000Y-90500000D02*
X110500000Y-66500000D01*
X169500000Y-95500000D02*
X169500000Y-97500000D01*
X170500000Y-97500000D02*
X170500000Y-98500000D01*
X170500000Y-98500000D02*
X172500000Y-98500000D01*
X108500000Y-90500000D02*
X110500000Y-90500000D01*
X217500000Y-100500000D02*
X217500000Y-101500000D01*
X155500000Y-94500000D02*
X155425000Y-94425000D01*
X124500000Y-65500000D02*
X124500000Y-64500000D01*
X12500000Y-124500000D02*
X12500000Y-123500000D01*
%TO.N,Net-(J3-S)*%
X216500000Y-174500000D02*
X217500000Y-173500000D01*
X270511500Y-116517750D02*
X270511500Y-125500000D01*
X270500000Y-125500000D02*
X241500000Y-125500000D01*
X205125953Y-174500000D02*
X216500000Y-174500000D01*
X205125953Y-169240750D02*
X205125953Y-174500000D01*
X270511500Y-125500000D02*
X270500000Y-125500000D01*
%TO.N,/12V_DIODE*%
X236500000Y-224500000D02*
X248500000Y-224500000D01*
X234500000Y-228500000D02*
X234500000Y-226500000D01*
X248500000Y-223500000D02*
X250500000Y-223500000D01*
X250500000Y-207500000D02*
X247500000Y-207500000D01*
X250500000Y-209500000D02*
X250500000Y-207500000D01*
X75500000Y-218500000D02*
X60500000Y-218500000D01*
X79500000Y-216500000D02*
X75500000Y-216500000D01*
X169500000Y-240500000D02*
X170500000Y-240500000D01*
X169500000Y-233500000D02*
X169500000Y-240500000D01*
X247214833Y-206500000D02*
X247500000Y-206500000D01*
X236500000Y-225500000D02*
X236500000Y-224500000D01*
X232500000Y-229500000D02*
X232500000Y-228500000D01*
X102500000Y-218500000D02*
X102500000Y-220500000D01*
X247500000Y-207500000D02*
X247500000Y-206500000D01*
X235500000Y-226500000D02*
X235500000Y-225500000D01*
X83500000Y-220500000D02*
X83500000Y-218500000D01*
X60695000Y-216500000D02*
X60500000Y-216500000D01*
X203500000Y-230500000D02*
X230500000Y-230500000D01*
X144500000Y-233500000D02*
X169500000Y-233500000D01*
X83500000Y-218500000D02*
X82500000Y-218500000D01*
X82500000Y-218500000D02*
X82500000Y-217500000D01*
X234500000Y-226500000D02*
X235500000Y-226500000D01*
X75500000Y-216500000D02*
X75500000Y-218500000D01*
X235500000Y-225500000D02*
X236500000Y-225500000D01*
X60695000Y-211723750D02*
X60695000Y-216500000D01*
X105500000Y-218500000D02*
X102500000Y-218500000D01*
X105715000Y-218500000D02*
X105500000Y-218500000D01*
X102500000Y-220500000D02*
X83500000Y-220500000D01*
X250500000Y-223500000D02*
X250500000Y-221500000D01*
X135500000Y-222500000D02*
X136500000Y-222500000D01*
X248500000Y-224500000D02*
X248500000Y-223500000D01*
X232500000Y-228500000D02*
X234500000Y-228500000D01*
X144500000Y-224500000D02*
X144500000Y-233500000D01*
X138500000Y-224500000D02*
X144500000Y-224500000D01*
X105715000Y-212273750D02*
X105715000Y-218500000D01*
X105500000Y-218500000D02*
X135500000Y-218500000D01*
X247214833Y-213073750D02*
X247214833Y-206500000D01*
X135500000Y-218500000D02*
X135500000Y-222500000D01*
X251500000Y-209500000D02*
X250500000Y-209500000D01*
X230500000Y-230500000D02*
X230500000Y-229500000D01*
X230500000Y-229500000D02*
X232500000Y-229500000D01*
X60500000Y-218500000D02*
X60500000Y-216500000D01*
%TO.N,+12V_IN*%
X134493000Y-107507000D02*
X134500000Y-107500000D01*
X133500000Y-45500000D02*
X131500000Y-45500000D01*
X145500000Y-72500000D02*
X145500000Y-52500000D01*
X144815000Y-116517750D02*
X144815000Y-107500000D01*
X144500000Y-107500000D02*
X142750000Y-105750000D01*
X138303000Y-106154949D02*
X138303000Y-109855000D01*
X185500000Y-73500000D02*
X185500000Y-77500000D01*
X127500000Y-44500000D02*
X127500000Y-43500000D01*
X185500000Y-77500000D02*
X214500000Y-77500000D01*
X125500000Y-43500000D02*
X125500000Y-44500000D01*
X134493000Y-109093000D02*
X134493000Y-107507000D01*
X214500000Y-84500000D02*
X215500000Y-85500000D01*
X219500000Y-85500000D02*
X215500000Y-85500000D01*
X224315000Y-88101250D02*
X224315000Y-95500000D01*
X138707949Y-105750000D02*
X138303000Y-106154949D01*
X142750000Y-105750000D02*
X138707949Y-105750000D01*
X135500000Y-51500000D02*
X135500000Y-49500000D01*
X106500000Y-78500000D02*
X107500000Y-78500000D01*
X135500000Y-49500000D02*
X134500000Y-49500000D01*
X224315000Y-95500000D02*
X224500000Y-95500000D01*
X220815000Y-85601250D02*
X219500000Y-85500000D01*
X153500000Y-72500000D02*
X145500000Y-72500000D01*
X214500000Y-77500000D02*
X214500000Y-84500000D01*
X144815000Y-107500000D02*
X144500000Y-107500000D01*
X133500000Y-107500000D02*
X134500000Y-107500000D01*
X215500000Y-95500000D02*
X220500000Y-95500000D01*
X136500000Y-52500000D02*
X136500000Y-51500000D01*
X184500000Y-73500000D02*
X185500000Y-73500000D01*
X136500000Y-51500000D02*
X135500000Y-51500000D01*
X145500000Y-52500000D02*
X136500000Y-52500000D01*
X131500000Y-44500000D02*
X127500000Y-44500000D01*
X133500000Y-106500000D02*
X133500000Y-107500000D01*
X134500000Y-49500000D02*
X134500000Y-47500000D01*
X215500000Y-85500000D02*
X215500000Y-95500000D01*
X134500000Y-47500000D02*
X133500000Y-47500000D01*
X131500000Y-45500000D02*
X131500000Y-44500000D01*
X127500000Y-43500000D02*
X125500000Y-43500000D01*
X133500000Y-47500000D02*
X133500000Y-45500000D01*
X220500000Y-95500000D02*
X224500000Y-95500000D01*
X106500000Y-64500000D02*
X106500000Y-78500000D01*
X220815000Y-95500000D02*
X220500000Y-95500000D01*
X220815000Y-88101250D02*
X220815000Y-95500000D01*
X132500000Y-106500000D02*
X133500000Y-106500000D01*
%TO.N,12V_FUSED*%
X233615000Y-95500000D02*
X233500000Y-95500000D01*
X233500000Y-189500000D02*
X232500000Y-189500000D01*
X232500000Y-191500000D02*
X231500000Y-191500000D01*
X50875000Y-92125000D02*
X50875000Y-86571250D01*
X231140000Y-95500000D02*
X229485000Y-97155000D01*
X219500000Y-76500000D02*
X219500000Y-77500000D01*
X214500000Y-76500000D02*
X214500000Y-75500000D01*
X128500000Y-48500000D02*
X69500000Y-48500000D01*
X230115000Y-88101250D02*
X230115000Y-95500000D01*
X230947500Y-98991839D02*
X230750000Y-99189339D01*
X235500000Y-182500000D02*
X235500000Y-185500000D01*
X230947500Y-100008161D02*
X230947500Y-101500000D01*
X233500000Y-187500000D02*
X233500000Y-189500000D01*
X234500000Y-187500000D02*
X233500000Y-187500000D01*
X229500000Y-80500000D02*
X226500000Y-80500000D01*
X232500000Y-85500000D02*
X232500000Y-83500000D01*
X226500000Y-80500000D02*
X226500000Y-78500000D01*
X214500000Y-75500000D02*
X192500000Y-75500000D01*
X186500000Y-48500000D02*
X184500000Y-48500000D01*
X234500000Y-185500000D02*
X234500000Y-187500000D01*
X225500000Y-78500000D02*
X225500000Y-76500000D01*
X271500000Y-130500000D02*
X249500000Y-130500000D01*
X231140000Y-95500000D02*
X233500000Y-95500000D01*
X192500000Y-75500000D02*
X192500000Y-52500000D01*
X164500000Y-48500000D02*
X136500000Y-48500000D01*
X231500000Y-191500000D02*
X231500000Y-200500000D01*
X230115000Y-95500000D02*
X230500000Y-95500000D01*
X231974833Y-213073750D02*
X231974833Y-220500000D01*
X230750000Y-99189339D02*
X230750000Y-99810661D01*
X231974833Y-220500000D02*
X231500000Y-220500000D01*
X230500000Y-220500000D02*
X231500000Y-220500000D01*
X227500000Y-162500000D02*
X225500000Y-162500000D01*
X233615000Y-88101250D02*
X233615000Y-95500000D01*
X230947500Y-101500000D02*
X238500000Y-101500000D01*
X186500000Y-49500000D02*
X186500000Y-48500000D01*
X229485000Y-97155000D02*
X214225712Y-97155000D01*
X226500000Y-78500000D02*
X225500000Y-78500000D01*
X214225712Y-97155000D02*
X212535356Y-95464644D01*
X50500000Y-92500000D02*
X50875000Y-92125000D01*
X230947500Y-95947500D02*
X230947500Y-98991839D01*
X230750000Y-99810661D02*
X230947500Y-100008161D01*
X230115000Y-85601250D02*
X229500000Y-85500000D01*
X235500000Y-185500000D02*
X234500000Y-185500000D01*
X233500000Y-181500000D02*
X233500000Y-182500000D01*
X229500000Y-83500000D02*
X229500000Y-80500000D01*
X233615000Y-85601250D02*
X232500000Y-85500000D01*
X231500000Y-181500000D02*
X233500000Y-181500000D01*
X224500000Y-181500000D02*
X228500000Y-181500000D01*
X226500000Y-78500000D02*
X225500000Y-78500000D01*
X69500000Y-48500000D02*
X69500000Y-92500000D01*
X230500000Y-95500000D02*
X230947500Y-95947500D01*
X225500000Y-76500000D02*
X214500000Y-76500000D01*
X233500000Y-182500000D02*
X235500000Y-182500000D01*
X230500000Y-95500000D02*
X231140000Y-95500000D01*
X188500000Y-49500000D02*
X186500000Y-49500000D01*
X226500000Y-80500000D02*
X226500000Y-78500000D01*
X69500000Y-92500000D02*
X50500000Y-92500000D01*
X232500000Y-83500000D02*
X229500000Y-83500000D01*
X225500000Y-78500000D02*
X225500000Y-76500000D01*
X231500000Y-202500000D02*
X231500000Y-205500000D01*
X229500000Y-85500000D02*
X229500000Y-80500000D01*
X219500000Y-77500000D02*
X215500000Y-77500000D01*
X224500000Y-173500000D02*
X224500000Y-181500000D01*
X229500000Y-80500000D02*
X226500000Y-80500000D01*
X225500000Y-76500000D02*
X219500000Y-76500000D01*
X232500000Y-189500000D02*
X232500000Y-191500000D01*
%TO.N,VBAT_F*%
X85500000Y-129500000D02*
X84500000Y-129500000D01*
X71265953Y-169240750D02*
X71265953Y-174500000D01*
X71500000Y-174500000D02*
X71500000Y-175500000D01*
X314500000Y-77500000D02*
X312500000Y-77500000D01*
X180079000Y-23500000D02*
X183005000Y-20574000D01*
X315500000Y-98500000D02*
X315500000Y-79500000D01*
X314500000Y-100500000D02*
X314500000Y-98500000D01*
X309500000Y-51500000D02*
X309500000Y-49500000D01*
X78500000Y-181500000D02*
X78500000Y-183500000D01*
X128500000Y-32500000D02*
X127500000Y-32500000D01*
X127500000Y-32500000D02*
X127500000Y-34500000D01*
X310500000Y-102500000D02*
X311500000Y-102500000D01*
X305500000Y-102500000D02*
X306500000Y-102500000D01*
X122500000Y-34500000D02*
X122500000Y-39500000D01*
X84500000Y-131500000D02*
X81500000Y-131500000D01*
X14500000Y-207500000D02*
X13500000Y-207500000D01*
X292500000Y-11500000D02*
X228500000Y-11500000D01*
X42500000Y-177500000D02*
X41500000Y-177500000D01*
X183005000Y-18348250D02*
X183005000Y-20574000D01*
X84500000Y-129500000D02*
X84500000Y-131500000D01*
X86500000Y-126500000D02*
X85500000Y-126500000D01*
X67500000Y-172500000D02*
X67500000Y-170500000D01*
X16075000Y-216500000D02*
X16500000Y-216500000D01*
X74500000Y-180500000D02*
X76500000Y-180500000D01*
X41500000Y-177500000D02*
X41500000Y-179500000D01*
X71500000Y-153500000D02*
X71500000Y-164500000D01*
X81500000Y-131500000D02*
X81500000Y-153500000D01*
X314500000Y-98500000D02*
X315500000Y-98500000D01*
X305500000Y-97500000D02*
X305500000Y-102500000D01*
X228500000Y-11500000D02*
X228500000Y-27500000D01*
X315500000Y-79500000D02*
X314500000Y-79500000D01*
X314500000Y-79500000D02*
X314500000Y-77500000D01*
X68500000Y-174500000D02*
X71500000Y-174500000D01*
X67500000Y-170500000D02*
X62500000Y-170500000D01*
X312500000Y-77500000D02*
X312500000Y-76500000D01*
X307500000Y-88500000D02*
X307500000Y-97500000D01*
X85500000Y-126500000D02*
X85500000Y-129500000D01*
X308500000Y-49500000D02*
X308500000Y-13500000D01*
X71500000Y-164500000D02*
X68500000Y-164500000D01*
X13500000Y-207500000D02*
X13500000Y-216500000D01*
X140500000Y-25500000D02*
X128500000Y-25500000D01*
X308500000Y-13500000D02*
X292500000Y-13500000D01*
X128500000Y-25500000D02*
X128500000Y-32500000D01*
X310500000Y-76500000D02*
X310500000Y-51500000D01*
X312500000Y-76500000D02*
X310500000Y-76500000D01*
X40500000Y-179500000D02*
X40500000Y-181500000D01*
X40500000Y-181500000D02*
X39500000Y-181500000D01*
X311500000Y-101500000D02*
X313500000Y-101500000D01*
X71265953Y-174500000D02*
X71500000Y-174500000D01*
X169500000Y-23500000D02*
X180079000Y-23500000D01*
X292500000Y-13500000D02*
X292500000Y-11500000D01*
X307500000Y-97500000D02*
X305500000Y-97500000D01*
X313500000Y-100500000D02*
X314500000Y-100500000D01*
X308065000Y-88801250D02*
X307500000Y-88500000D01*
X309500000Y-49500000D02*
X308500000Y-49500000D01*
X76500000Y-180500000D02*
X76500000Y-181500000D01*
X68500000Y-172500000D02*
X67500000Y-172500000D01*
X81500000Y-153500000D02*
X71500000Y-153500000D01*
X71500000Y-174500000D02*
X68500000Y-174500000D01*
X310500000Y-51500000D02*
X309500000Y-51500000D01*
X13500000Y-216500000D02*
X16500000Y-216500000D01*
X78500000Y-183500000D02*
X87500000Y-183500000D01*
X16075000Y-211723750D02*
X16075000Y-216500000D01*
X41500000Y-179500000D02*
X40500000Y-179500000D01*
X311500000Y-102500000D02*
X311500000Y-101500000D01*
X313500000Y-101500000D02*
X313500000Y-100500000D01*
X68500000Y-164500000D02*
X68500000Y-174500000D01*
X68500000Y-174500000D02*
X68500000Y-172500000D01*
X228500000Y-27500000D02*
X227500000Y-27500000D01*
X86500000Y-90500000D02*
X86500000Y-126500000D01*
X76500000Y-181500000D02*
X78500000Y-181500000D01*
X127500000Y-34500000D02*
X122500000Y-34500000D01*
%TO.N,Net-(Q5-G)*%
X277500000Y-102500000D02*
X276500000Y-102500000D01*
X136500000Y-164500000D02*
X138195953Y-166195953D01*
X181500000Y-102500000D02*
X176500000Y-102500000D01*
X145500000Y-133500000D02*
X145500000Y-135500000D01*
X274500000Y-99500000D02*
X273500000Y-99500000D01*
X232500000Y-99500000D02*
X231500000Y-99500000D01*
X274500000Y-100500000D02*
X274500000Y-99500000D01*
X279500000Y-121500000D02*
X279500000Y-108500000D01*
X280500000Y-123500000D02*
X280500000Y-121500000D01*
X140500000Y-106500000D02*
X140500000Y-132500000D01*
X145500000Y-140500000D02*
X145500000Y-142500000D01*
X276500000Y-102500000D02*
X276500000Y-100500000D01*
X143500000Y-133500000D02*
X145500000Y-133500000D01*
X265822263Y-142244250D02*
X265822263Y-136500000D01*
X140500000Y-132500000D02*
X143500000Y-132500000D01*
X277500000Y-104500000D02*
X277500000Y-102500000D01*
X138500000Y-144500000D02*
X138500000Y-157500000D01*
X146500000Y-140500000D02*
X145500000Y-140500000D01*
X280500000Y-126500000D02*
X281500000Y-126500000D01*
X265500000Y-136500000D02*
X265500000Y-131500000D01*
X138195953Y-166195953D02*
X138195953Y-169240750D01*
X145500000Y-142500000D02*
X143500000Y-142500000D01*
X138195953Y-157804047D02*
X138500000Y-157500000D01*
X143500000Y-142500000D02*
X143500000Y-144500000D01*
X281500000Y-126500000D02*
X281500000Y-123500000D01*
X138195953Y-166195953D02*
X138195953Y-157804047D01*
X280500000Y-121500000D02*
X279500000Y-121500000D01*
X162500000Y-96500000D02*
X149500000Y-96500000D01*
X145500000Y-135500000D02*
X146500000Y-135500000D01*
X276500000Y-100500000D02*
X274500000Y-100500000D01*
X232500000Y-97500000D02*
X232500000Y-99500000D01*
X146500000Y-135500000D02*
X146500000Y-140500000D01*
X176500000Y-102500000D02*
X176500000Y-101500000D01*
X143500000Y-144500000D02*
X138500000Y-144500000D01*
X143500000Y-132500000D02*
X143500000Y-133500000D01*
X240500000Y-97500000D02*
X232500000Y-97500000D01*
X281500000Y-123500000D02*
X280500000Y-123500000D01*
X181500000Y-101500000D02*
X181500000Y-102500000D01*
X265822263Y-136500000D02*
X265500000Y-136500000D01*
%TO.N,/MAINS_N*%
D37*
X173875000Y-148241116D02*
X177780203Y-144335913D01*
X177780203Y-142339537D02*
X178658502Y-141461238D01*
X182860203Y-141461238D02*
X184035203Y-140286238D01*
X166643134Y-169240750D02*
X173875000Y-162008884D01*
X178658502Y-141461238D02*
X182860203Y-141461238D01*
X203327000Y-159131000D02*
X208915000Y-153543000D01*
X160505953Y-169240750D02*
X166643134Y-169240750D01*
X173875000Y-162008884D02*
X173875000Y-148241116D01*
X219583000Y-132334000D02*
X222123000Y-132334000D01*
X208915000Y-153543000D02*
X214630000Y-153543000D01*
X222885000Y-133096000D02*
X225552000Y-133096000D01*
X222123000Y-132334000D02*
X222885000Y-133096000D01*
X177780203Y-144335913D02*
X177780203Y-142339537D01*
%TO.N,+3V3_PI*%
D36*
X47500000Y-61500000D02*
X47500000Y-108500000D01*
D37*
X195370203Y-142339537D02*
X195370203Y-160513681D01*
D36*
X152500000Y-184500000D02*
X154500000Y-184500000D01*
X138500000Y-186500000D02*
X139500000Y-186500000D01*
D37*
X184624000Y-135475000D02*
X185039000Y-135890000D01*
D36*
X193548000Y-184023000D02*
X196850000Y-184023000D01*
X115500000Y-162500000D02*
X115500000Y-163500000D01*
X152500000Y-185500000D02*
X152500000Y-184500000D01*
X171500000Y-178500000D02*
X171500000Y-175500000D01*
X137500000Y-176500000D02*
X138500000Y-176500000D01*
X210947000Y-202311000D02*
X213091583Y-204455583D01*
X138500000Y-176500000D02*
X138500000Y-186500000D01*
X196850000Y-184023000D02*
X198374000Y-185547000D01*
D37*
X173527221Y-135554221D02*
X173606441Y-135475000D01*
D36*
X47500000Y-108500000D02*
X53500000Y-108500000D01*
X128500000Y-174500000D02*
X134500000Y-174500000D01*
X171500000Y-175500000D02*
X173500000Y-175500000D01*
X154500000Y-184500000D02*
X154500000Y-183500000D01*
X47875000Y-61500000D02*
X47500000Y-61500000D01*
X151500000Y-185500000D02*
X152500000Y-185500000D01*
D37*
X173606442Y-135475000D02*
X184624000Y-135475000D01*
D36*
X137500000Y-175500000D02*
X137500000Y-176500000D01*
D37*
X195370203Y-160513681D02*
X190910884Y-164973000D01*
D36*
X186309000Y-174117000D02*
X187960000Y-175768000D01*
X117500000Y-163500000D02*
X117500000Y-164500000D01*
X187960000Y-175768000D02*
X187960000Y-179070000D01*
X194011000Y-178435000D02*
X195326000Y-179750000D01*
X134500000Y-175500000D02*
X137500000Y-175500000D01*
X47875000Y-56854750D02*
X47875000Y-61500000D01*
X213091583Y-210098267D02*
X212359350Y-210830500D01*
X193040000Y-178435000D02*
X194011000Y-178435000D01*
X173500000Y-175500000D02*
X173500000Y-174500000D01*
X134500000Y-174500000D02*
X134500000Y-175500000D01*
X114500000Y-162500000D02*
X115500000Y-162500000D01*
D37*
X194681904Y-141651238D02*
X195370203Y-142339537D01*
X190910884Y-164973000D02*
X186690000Y-164973000D01*
D36*
X117500000Y-164500000D02*
X128500000Y-164500000D01*
D37*
X173527221Y-135554221D02*
X173606442Y-135475000D01*
D36*
X210551583Y-210830500D02*
X209301583Y-209580500D01*
X213091583Y-204455583D02*
X213091583Y-210098267D01*
X115500000Y-163500000D02*
X117500000Y-163500000D01*
D37*
X190480203Y-141651238D02*
X194681904Y-141651238D01*
D36*
X53500000Y-108500000D02*
X53500000Y-124500000D01*
X114500000Y-151500000D02*
X114500000Y-162500000D01*
X128500000Y-164500000D02*
X128500000Y-174500000D01*
D37*
X168795203Y-140286238D02*
X173527221Y-135554221D01*
D36*
X212359350Y-210830500D02*
X210551583Y-210830500D01*
X209301583Y-209580500D02*
X208500000Y-209500000D01*
D37*
X189115203Y-140286238D02*
X190480203Y-141651238D01*
%TO.N,Net-(Q9-G)*%
D36*
X35500000Y-178500000D02*
X36500000Y-178500000D01*
X48500000Y-196500000D02*
X39500000Y-196500000D01*
X48545000Y-196500000D02*
X48500000Y-196500000D01*
X53500000Y-196500000D02*
X53500000Y-198500000D01*
X39500000Y-196500000D02*
X39500000Y-198500000D01*
X48500000Y-197500000D02*
X48500000Y-196500000D01*
X60695000Y-196500000D02*
X60500000Y-196500000D01*
X39500000Y-198500000D02*
X35500000Y-198500000D01*
X60695000Y-191287250D02*
X60695000Y-196500000D01*
X36500000Y-178500000D02*
X36500000Y-177500000D01*
X48545000Y-191287250D02*
X48545000Y-196500000D01*
X34851191Y-164500000D02*
X34500000Y-164500000D01*
X39500000Y-164500000D02*
X34500000Y-164500000D01*
X53500000Y-198500000D02*
X52500000Y-198500000D01*
X39500000Y-175500000D02*
X39500000Y-164500000D01*
X38500000Y-177500000D02*
X38500000Y-175500000D01*
X35500000Y-198500000D02*
X35500000Y-178500000D01*
X36500000Y-177500000D02*
X38500000Y-177500000D01*
X34851191Y-170430750D02*
X34851191Y-164500000D01*
X38500000Y-175500000D02*
X39500000Y-175500000D01*
X60500000Y-196500000D02*
X53500000Y-196500000D01*
%TO.N,Net-(JP1-A)*%
X192975953Y-174500000D02*
X194975953Y-172500000D01*
X139221000Y-140484250D02*
X138500000Y-140500000D01*
X209500000Y-195500000D02*
X209500000Y-206500000D01*
X209500000Y-182500000D02*
X209500000Y-183500000D01*
X203500000Y-173500000D02*
X203500000Y-181500000D01*
X136500000Y-154500000D02*
X137500000Y-154500000D01*
X202500000Y-173500000D02*
X203500000Y-173500000D01*
X211841583Y-209580500D02*
X211500000Y-208500000D01*
X199500000Y-172500000D02*
X200500000Y-172500000D01*
X203500000Y-181500000D02*
X205500000Y-181500000D01*
X205500000Y-182500000D02*
X209500000Y-182500000D01*
X192975953Y-169240750D02*
X192975953Y-174500000D01*
X205500000Y-181500000D02*
X205500000Y-182500000D01*
X136500000Y-140500000D02*
X136500000Y-154500000D01*
X138500000Y-140500000D02*
X136500000Y-140500000D01*
X194975953Y-172500000D02*
X199500000Y-172500000D01*
%TO.N,Net-(Q2-D)*%
X251500000Y-186500000D02*
X251500000Y-200500000D01*
X102489000Y-276500000D02*
X103157750Y-275831250D01*
X251500000Y-148500000D02*
X247500000Y-148500000D01*
X247500000Y-148500000D02*
X247500000Y-186500000D01*
X251032739Y-142244250D02*
X251032739Y-148500000D01*
X102489000Y-276500000D02*
X42500000Y-276500000D01*
X26235000Y-211723750D02*
X26235000Y-216500000D01*
X29500000Y-216500000D02*
X26500000Y-216500000D01*
X42500000Y-276500000D02*
X42500000Y-224500000D01*
X247500000Y-186500000D02*
X251500000Y-186500000D01*
X251032739Y-148500000D02*
X251500000Y-148500000D01*
X103157750Y-275831250D02*
X103157750Y-260576371D01*
X26235000Y-216500000D02*
X26500000Y-216500000D01*
%TO.N,/AIN3*%
X171398333Y-242500000D02*
X171500000Y-242500000D01*
X134500000Y-206500000D02*
X134500000Y-207500000D01*
X137500000Y-242500000D02*
X171500000Y-242500000D01*
X171398333Y-228055500D02*
X171398333Y-242500000D01*
X137500000Y-207500000D02*
X137500000Y-242500000D01*
X134221666Y-206500000D02*
X134500000Y-206500000D01*
X134500000Y-207500000D02*
X137500000Y-207500000D01*
X134221666Y-211003750D02*
X134221666Y-206500000D01*
%TO.N,/RS485_DE*%
X155500000Y-178500000D02*
X155500000Y-162500000D01*
X171500000Y-243500000D02*
X173500000Y-243500000D01*
X173500000Y-235500000D02*
X172500000Y-235500000D01*
X194195203Y-148500000D02*
X194500000Y-148500000D01*
X194195203Y-142826238D02*
X194195203Y-148500000D01*
X170307250Y-244500000D02*
X170500000Y-244500000D01*
X188500000Y-152500000D02*
X190500000Y-152500000D01*
X173500000Y-243500000D02*
X173500000Y-235500000D01*
X191500000Y-148500000D02*
X194500000Y-148500000D01*
X188500000Y-159500000D02*
X188500000Y-152500000D01*
X190500000Y-149500000D02*
X191500000Y-149500000D01*
X153500000Y-178500000D02*
X155500000Y-178500000D01*
X170500000Y-244500000D02*
X171500000Y-244500000D01*
X171500000Y-244500000D02*
X171500000Y-243500000D01*
X170307250Y-255385894D02*
X170307250Y-244500000D01*
X151500000Y-179500000D02*
X153500000Y-179500000D01*
X142500000Y-221500000D02*
X142500000Y-179500000D01*
X153500000Y-179500000D02*
X153500000Y-178500000D01*
X155500000Y-162500000D02*
X172500000Y-162500000D01*
X187500000Y-159500000D02*
X188500000Y-159500000D01*
X142500000Y-179500000D02*
X143500000Y-179500000D01*
X191500000Y-149500000D02*
X191500000Y-148500000D01*
X190500000Y-152500000D02*
X190500000Y-149500000D01*
%TO.N,/RS485_RX*%
X140500000Y-196500000D02*
X140500000Y-173500000D01*
X172500000Y-266500000D02*
X172500000Y-265500000D01*
X172500000Y-265500000D02*
X160500000Y-265500000D01*
X172847250Y-266500000D02*
X172500000Y-266500000D01*
X178955203Y-142826238D02*
X178955203Y-148500000D01*
X178500000Y-178500000D02*
X178500000Y-148500000D01*
X140500000Y-173500000D02*
X146500000Y-173500000D01*
X160500000Y-265500000D02*
X160500000Y-243500000D01*
X176500000Y-179500000D02*
X176500000Y-178500000D01*
X176500000Y-178500000D02*
X178500000Y-178500000D01*
X178955203Y-148500000D02*
X178500000Y-148500000D01*
X174500000Y-179500000D02*
X176500000Y-179500000D01*
X139500000Y-221500000D02*
X139500000Y-196500000D01*
X172847250Y-255385894D02*
X172847250Y-266500000D01*
X139500000Y-196500000D02*
X140500000Y-196500000D01*
%TO.N,/RS485_TX*%
D37*
X175387250Y-187832750D02*
X179959000Y-183261000D01*
X175387250Y-255385894D02*
X175387250Y-187832750D01*
X184760203Y-171044203D02*
X184760203Y-147676203D01*
X184760203Y-147676203D02*
X182372000Y-145288000D01*
X189738000Y-176022000D02*
X184760203Y-171044203D01*
%TO.N,/HB*%
D36*
X180500000Y-142500000D02*
X180500000Y-146500000D01*
X277500000Y-196500000D02*
X283500000Y-196500000D01*
X181495203Y-142826238D02*
X180500000Y-142500000D01*
X182500000Y-179500000D02*
X182500000Y-180500000D01*
X283795000Y-196500000D02*
X283500000Y-196500000D01*
X180500000Y-146500000D02*
X180500000Y-179500000D01*
X182500000Y-180500000D02*
X200500000Y-180500000D01*
X283795000Y-191287250D02*
X283795000Y-196500000D01*
X180500000Y-179500000D02*
X182500000Y-179500000D01*
%TO.N,/PH_EN*%
X186500000Y-161500000D02*
X193500000Y-161500000D01*
X270100703Y-171196000D02*
X272055953Y-169240750D01*
X268478000Y-171196000D02*
X270100703Y-171196000D01*
X186575203Y-142826238D02*
X186575203Y-148500000D01*
X186500000Y-148500000D02*
X186500000Y-161500000D01*
X186575203Y-148500000D02*
X186500000Y-148500000D01*
%TO.N,/EC_EN*%
X38385000Y-191287250D02*
X38385000Y-186500000D01*
X40500000Y-175500000D02*
X40500000Y-177500000D01*
X41500000Y-166500000D02*
X41500000Y-175500000D01*
X39500000Y-177500000D02*
X39500000Y-179500000D01*
X188500000Y-150500000D02*
X187500000Y-150500000D01*
X41500000Y-175500000D02*
X40500000Y-175500000D01*
X188500000Y-148500000D02*
X188500000Y-150500000D01*
X42500000Y-166500000D02*
X41500000Y-166500000D01*
X189115203Y-148500000D02*
X189500000Y-148500000D01*
X38500000Y-179500000D02*
X38500000Y-186500000D01*
X189500000Y-148500000D02*
X188500000Y-148500000D01*
X39500000Y-179500000D02*
X38500000Y-179500000D01*
X189115203Y-142826238D02*
X189115203Y-148500000D01*
X40500000Y-177500000D02*
X39500000Y-177500000D01*
X38385000Y-186500000D02*
X38500000Y-186500000D01*
%TO.N,Net-(J_PI-Pin_27)*%
X216921583Y-209580500D02*
X216500000Y-208500000D01*
X201815203Y-134500000D02*
X201500000Y-134500000D01*
X216500000Y-206500000D02*
X216500000Y-207500000D01*
X222500000Y-136500000D02*
X222500000Y-146500000D01*
X217500000Y-184500000D02*
X217500000Y-186500000D01*
X201815203Y-140286238D02*
X201815203Y-134500000D01*
X214500000Y-186500000D02*
X214500000Y-206500000D01*
X216500000Y-208500000D02*
X216500000Y-207500000D01*
X201500000Y-136500000D02*
X210500000Y-136500000D01*
X218500000Y-184500000D02*
X217500000Y-184500000D01*
X218500000Y-146500000D02*
X218500000Y-184500000D01*
X222500000Y-146500000D02*
X218500000Y-146500000D01*
X221500000Y-136500000D02*
X222500000Y-136500000D01*
X214500000Y-206500000D02*
X216500000Y-206500000D01*
X217500000Y-186500000D02*
X214500000Y-186500000D01*
X201500000Y-134500000D02*
X201500000Y-136500000D01*
%TO.N,Net-(J_PI-Pin_28)*%
X213800000Y-194860661D02*
X201750000Y-182810661D01*
X214381583Y-209580500D02*
X214500000Y-208500000D01*
X201750000Y-182810661D02*
X201750000Y-142891441D01*
X214500000Y-207500000D02*
X213800000Y-206800000D01*
X201750000Y-142891441D02*
X201815203Y-142826238D01*
X213800000Y-206800000D02*
X213800000Y-194860661D01*
X214500000Y-208500000D02*
X214500000Y-207500000D01*
%TO.N,Net-(BZ1--)*%
X168500000Y-98500000D02*
X168500000Y-99500000D01*
X229500000Y-116500000D02*
X231500000Y-116500000D01*
X170500000Y-99500000D02*
X170500000Y-104500000D01*
X224500000Y-106500000D02*
X224500000Y-107500000D01*
X229500000Y-115500000D02*
X229500000Y-116500000D01*
X216500000Y-106500000D02*
X224500000Y-106500000D01*
X148500000Y-98500000D02*
X168500000Y-98500000D01*
X148500000Y-90500000D02*
X148500000Y-98500000D01*
X128500000Y-90500000D02*
X128500000Y-53500000D01*
X214500000Y-104500000D02*
X214500000Y-105500000D01*
X226500000Y-115500000D02*
X229500000Y-115500000D01*
X231500000Y-116500000D02*
X231500000Y-118500000D01*
X216500000Y-105500000D02*
X216500000Y-106500000D01*
X168500000Y-99500000D02*
X170500000Y-99500000D01*
X148500000Y-90500000D02*
X128500000Y-90500000D01*
X226500000Y-107500000D02*
X226500000Y-115500000D01*
X238500000Y-121500000D02*
X238500000Y-135500000D01*
X214500000Y-105500000D02*
X216500000Y-105500000D01*
X234973215Y-142244250D02*
X234973215Y-148500000D01*
X224500000Y-107500000D02*
X226500000Y-107500000D01*
X170500000Y-104500000D02*
X214500000Y-104500000D01*
X148535000Y-85271250D02*
X148535000Y-90500000D01*
X148535000Y-90500000D02*
X148500000Y-90500000D01*
%TD*%
M02*
