M48
; DRILL file KiCad 10.0.4 date 2026-09-20T20:21:14
; FORMAT={-:-/ absolute / metric / decimal}
; #@! TF.CreationDate,2026-09-20T20:21:14-04:00
; #@! TF.GenerationSoftware,Kicad,Pcbnew,10.0.4
; #@! TF.FileFunction,MixedPlating,1,4
FMAT,2
METRIC
; #@! TA.AperFunction,Plated,PTH,ViaDrill
T1C0.300
; #@! TA.AperFunction,Plated,PTH,ComponentDrill
T2C0.750
; #@! TA.AperFunction,Plated,PTH,ComponentDrill
T3C0.800
; #@! TA.AperFunction,Plated,PTH,ComponentDrill
T4C0.950
; #@! TA.AperFunction,Plated,PTH,ComponentDrill
T5C1.000
; #@! TA.AperFunction,Plated,PTH,ComponentDrill
T6C1.100
; #@! TA.AperFunction,Plated,PTH,ComponentDrill
T7C1.200
; #@! TA.AperFunction,Plated,PTH,ComponentDrill
T8C1.300
; #@! TA.AperFunction,Plated,PTH,ComponentDrill
T9C1.400
; #@! TA.AperFunction,Plated,PTH,ComponentDrill
T10C1.600
; #@! TA.AperFunction,NonPlated,NPTH,ComponentDrill
T11C2.390
; #@! TA.AperFunction,NonPlated,NPTH,ComponentDrill
T12C2.400
; #@! TA.AperFunction,NonPlated,NPTH,ComponentDrill
T13C2.700
; #@! TA.AperFunction,NonPlated,NPTH,ComponentDrill
T14C3.450
%
G90
G05
T1
X12.5Y-93.5
X13.5Y-122.5
X14.5Y-207.5
X19.5Y-41.5
X19.55Y-106.465
X22.5Y-90.5
X27.5Y-130.5
X28.5Y-121.5
X28.5Y-265.5
X29.5Y-216.5
X31.5Y-265.5
X32.5Y-180.5
X33.5Y-177.5
X36.5Y-105.5
X36.5Y-176.5
X36.5Y-200.5
X37.5Y-126.5
X38.5Y-130.5
X39.5Y-181.5
X40.5Y-149.5
X41.5Y-43.5
X41.5Y-129.5
X42.5Y-166.5
X42.5Y-177.5
X42.5Y-224.5
X43.5Y-228.5
X43.5Y-266.5
X48.5Y-197.5
X50.5Y-184.5
X51.5Y-205.5
X52.5Y-150.5
X52.5Y-198.5
X52.5Y-206.5
X53.5Y-124.5
X53.5Y-195.5
X53.5Y-225.5
X54.5Y-206.5
X55.5Y-243.5
X56.5Y-216.5
X56.5Y-228.5
X58.5Y-195.5
X60.5Y-272.5
X62.5Y-170.5
X65.5Y-173.5
X69.5Y-154.5
X71.5Y-175.5
X72.5Y-206.5
X73.5Y-132.5
X73.5Y-196.5
X73.5Y-215.5
X74.5Y-180.5
X76.5Y-94.5
X76.5Y-133.5
X77.5Y-129.5
X78.5Y-222.5
X79.5Y-206.5
X79.5Y-216.5
X80.5Y-219.5
X82.5Y-128.5
X82.5Y-217.5
X83.5Y-125.5
X84.5Y-218.5
X85.5Y-156.5
X85.5Y-164.5
X86.5Y-90.5
X87.5Y-166.5
X87.5Y-183.5
X95.5Y-156.5
X96.5Y-178.5
X96.5Y-226.5
X96.52Y-151.25
X97.79Y-132.5
X100.5Y-43.5
X100.5Y-217.5
X105.156Y-147.066
X106.5Y-64.5
X107.5Y-78.5
X107.5Y-91.5
X107.5Y-132.5
X109.5Y-65.5
X109.5Y-120.5
X109.728Y-133.985
X109.728Y-182.372
X111.5Y-78.5
X111.506Y-169.037
X112.5Y-62.5
X112.5Y-64.5
X112.5Y-88.5
X114.5Y-151.5
X115.57Y-160.147
X116.5Y-94.5
X116.5Y-132.5
X117.5Y-109.5
X118.5Y-136.5
X118.745Y-267.589
X119.5Y-39.5
X119.5Y-107.5
X120.5Y-110.5
X122.5Y-39.5
X122.5Y-107.5
X124.5Y-50.5
X125.5Y-44.5
X125.5Y-207.5
X126.5Y-221.5
X126.5Y-238.5
X127.5Y-62.5
X128.5Y-48.5
X128.5Y-53.5
X128.5Y-149.5
X130.5Y-154.5
X131.445Y-158.369
X131.5Y-135.5
X132.5Y-106.5
X132.5Y-138.5
X134.493Y-109.093
X134.5Y-67.5
X134.5Y-137.5
X134.5Y-226.5
X135.5Y-81.5
X135.5Y-89.5
X135.5Y-102.5
X135.5Y-104.5
X135.636Y-216.408
X136.5Y-48.5
X136.5Y-164.5
X136.5Y-222.5
X137.5Y-78.5
X137.5Y-154.5
X138.303Y-109.855
X138.5Y-76.5
X138.5Y-224.5
X139.5Y-134.5
X139.5Y-173.5
X139.5Y-186.5
X139.5Y-221.5
X140.5Y-25.5
X140.5Y-106.5
X141.732Y-12.192
X142.5Y-135.5
X142.5Y-221.5
X142.621Y-177.038
X143.5Y-137.5
X143.5Y-139.5
X143.5Y-179.5
X143.764Y-240.411
X143.891Y-223.139
X145.5Y-101.5
X145.5Y-148.5
X146.5Y-173.5
X148.209Y-234.569
X149.5Y-96.5
X149.5Y-148.5
X151.5Y-140.5
X151.5Y-144.5
X151.5Y-179.5
X151.5Y-182.5
X151.5Y-185.5
X152.5Y-176.5
X153.5Y-72.5
X153.5Y-100.5
X154.178Y-231.902
X154.5Y-183.5
X155.829Y-135.636
X156.5Y-101.5
X156.591Y-249.936
X159.5Y-93.5
X160.5Y-243.5
X161.5Y-102.5
X161.5Y-148.5
X162.5Y-96.5
X163.5Y-135.5
X163.5Y-137.5
X164.5Y-48.5
X165.5Y-127.5
X165.5Y-148.5
X167.5Y-101.5
X167.894Y-149.25
X168.5Y-182.5
X169.5Y-23.5
X169.5Y-106.5
X170.5Y-240.5
X171.5Y-93.5
X171.5Y-97.5
X171.5Y-178.5
X172.5Y-162.5
X172.5Y-235.5
X173.228Y-145.161
X173.5Y-174.5
X174.5Y-148.5
X174.5Y-179.5
X175.5Y-176.5
X176.5Y-101.5
X176.5Y-137.5
X176.5Y-196.5
X177.5Y-133.35
X179.5Y-79.5
X179.959Y-183.261
X180.5Y-219.5
X180.5Y-226.5
X181.5Y-101.5
X181.5Y-182.5
X181.5Y-204.5
X181.5Y-229.5
X182.372Y-145.288
X182.5Y-108.5
X183.5Y-202.5
X184.5Y-48.5
X184.5Y-51.5
X184.5Y-73.5
X185.039Y-135.89
X185.5Y-109.5
X186.309Y-174.117
X186.5Y-195.5
X186.69Y-164.973
X187.5Y-150.5
X187.5Y-159.5
X187.5Y-204.5
X187.96Y-179.07
X188.5Y-49.5
X188.5Y-207.5
X189.738Y-176.022
X190.5Y-186.5
X190.5Y-203.5
X191.5Y-229.5
X191.5Y-241.5
X192.5Y-52.5
X192.5Y-199.5
X193.04Y-178.435
X193.5Y-161.5
X193.548Y-184.023
X195.326Y-179.75
X196.5Y-197.5
X196.5Y-207.5
X197.5Y-197.5
X197.5Y-239.5
X198.374Y-185.547
X200.251Y-179.74
X200.5Y-172.5
X200.5Y-180.5
X200.5Y-183.5
X200.5Y-197.5
X201.5Y-199.5
X202.5Y-173.5
X203.327Y-159.131
X203.5Y-230.5
X204.5Y-184.5
X207.19Y-88.265
X207.391Y-106.807
X209.5Y-61.5
X209.5Y-183.5
X209.5Y-195.5
X209.5Y-206.7
X210.5Y-136.5
X210.947Y-202.311
X211.5Y-208.5
X212.535Y-95.465
X214.63Y-153.543
X215.5Y-77.5
X215.5Y-107.5
X215.5Y-121.5
X215.5Y-183.5
X216.5Y-44.5
X216.5Y-121.5
X217.5Y-37.5
X217.5Y-173.5
X217.5Y-203.5
X218.186Y-204.851
X219.583Y-132.334
X220.5Y-175.5
X220.5Y-182.5
X221.5Y-128.5
X221.5Y-136.5
X222.5Y-61.5
X224.5Y-173.5
X224.5Y-219.5
X224.79Y-65.786
X225.5Y-30.5
X225.5Y-119.5
X225.5Y-162.5
X225.5Y-178.5
X225.552Y-133.096
X226.5Y-132.5
X226.5Y-187.5
X226.5Y-201.5
X227.5Y-27.5
X227.5Y-44.5
X227.5Y-162.5
X228.346Y-205.232
X228.5Y-181.5
X228.5Y-201.5
X228.5Y-223.5
X229.5Y-34.5
X229.907Y-102.907
X230.5Y-12.5
X230.5Y-14.5
X230.5Y-220.5
X231.5Y-40.5
X231.5Y-43.5
X231.5Y-99.5
X231.5Y-118.5
X231.5Y-181.5
X231.5Y-200.5
X231.5Y-202.5
X231.5Y-205.5
X233.5Y-27.5
X233.5Y-30.5
X234.938Y-148.465
X235.5Y-70.5
X238.5Y-101.5
X238.5Y-121.5
X238.5Y-135.5
X240.5Y-97.5
X240.5Y-180.5
X241.5Y-125.5
X242.5Y-70.5
X244.5Y-173.5
X246.5Y-72.5
X246.5Y-184.5
X248.5Y-106.5
X249.5Y-130.5
X249.5Y-204.5
X250.5Y-221.5
X251.5Y-200.5
X251.5Y-209.5
X253.5Y-185.5
X261.5Y-200.5
X265.5Y-131.5
X268.478Y-171.196
X271.5Y-130.5
X271.653Y-150.368
X273.5Y-99.5
X275.5Y-124.5
X277.5Y-104.5
X277.5Y-196.5
X279.5Y-108.5
X280.5Y-126.5
X281.432Y-217.17
X282.5Y-80.5
X285.5Y-98.5
X285.5Y-178.5
X288.544Y-168.91
X291.338Y-152.654
X306.5Y-102.5
X307.5Y-163.5
X310.5Y-99.5
X310.5Y-102.5
X310.5Y-177.5
T2
X17.141Y-170.431
X18.411Y-170.431
X19.681Y-170.431
X33.581Y-170.431
X34.851Y-170.431
X36.121Y-170.431
X232.433Y-142.244
X233.703Y-142.244
X234.973Y-142.244
X248.493Y-142.244
X249.763Y-142.244
X251.033Y-142.244
X264.552Y-142.244
X265.822Y-142.244
X267.092Y-142.244
X280.993Y-142.244
X282.263Y-142.244
X283.533Y-142.244
X297.433Y-142.244
X298.703Y-142.244
X299.973Y-142.244
T3
X16.075Y-57.105
X16.075Y-85.301
X16.075Y-191.287
X16.075Y-211.724
X21.075Y-57.105
X21.075Y-85.301
X26.235Y-191.287
X26.235Y-211.724
X33.225Y-56.855
X33.225Y-85.301
X35.725Y-56.855
X38.225Y-85.301
X38.385Y-191.287
X38.385Y-211.724
X47.875Y-56.855
X48.545Y-191.287
X48.545Y-211.724
X48.956Y-169.241
X50.375Y-56.855
X59.116Y-169.241
X60.695Y-191.287
X60.695Y-211.724
X62.525Y-56.855
X65.025Y-56.855
X70.855Y-191.287
X70.855Y-211.724
X71.266Y-169.241
X77.175Y-57.105
X78.765Y-84.921
X81.426Y-169.241
X82.175Y-57.105
X83.005Y-191.287
X83.005Y-211.724
X86.385Y-84.921
X93.165Y-191.287
X93.165Y-211.724
X93.576Y-169.241
X94.325Y-56.855
X96.825Y-56.855
X98.535Y-84.921
X103.736Y-169.241
X105.315Y-191.287
X106.155Y-84.921
X108.975Y-56.855
X111.475Y-56.855
X115.475Y-191.287
X115.886Y-169.241
X118.305Y-84.921
X123.625Y-56.855
X125.925Y-84.921
X126.046Y-169.241
X126.125Y-56.855
X127.625Y-191.287
X136.555Y-18.348
X137.785Y-191.287
X138.196Y-169.241
X138.275Y-57.105
X141.555Y-18.348
X143.275Y-57.105
X148.356Y-169.241
X149.935Y-191.287
X153.705Y-18.098
X155.425Y-57.105
X156.205Y-18.098
X160.095Y-191.287
X160.425Y-57.105
X160.506Y-169.241
X168.355Y-18.098
X170.666Y-169.241
X170.855Y-18.098
X172.245Y-191.287
X172.575Y-56.855
X175.075Y-56.855
X182.405Y-191.287
X182.816Y-169.241
X183.005Y-18.348
X187.225Y-56.855
X188.005Y-18.348
X189.725Y-56.855
X192.976Y-169.241
X194.555Y-191.287
X200.155Y-18.348
X201.875Y-56.855
X204.375Y-56.855
X204.715Y-191.287
X205.126Y-169.241
X205.155Y-18.348
X209.302Y-209.581
X209.302Y-217.2
X211.842Y-209.581
X211.842Y-217.2
X214.382Y-209.581
X214.382Y-217.2
X215.286Y-169.241
X216.525Y-56.855
X216.865Y-191.287
X216.922Y-209.581
X216.922Y-217.2
X218.95Y-21.098
X219.025Y-56.855
X222.45Y-21.098
X227.025Y-191.287
X227.436Y-169.241
X231.175Y-56.855
X233.675Y-56.855
X237.596Y-169.241
X237.694Y-21.098
X239.175Y-191.287
X241.194Y-21.098
X249.335Y-191.287
X249.746Y-169.241
X254.794Y-18.098
X257.294Y-18.098
X259.906Y-169.241
X261.485Y-191.287
X266.64Y-57.105
X269.444Y-18.348
X271.64Y-57.105
X271.645Y-191.287
X272.056Y-169.241
X274.444Y-18.348
X282.216Y-169.241
X283.79Y-57.105
X283.795Y-191.287
X286.594Y-18.098
X288.79Y-57.105
X289.094Y-18.098
X293.955Y-191.287
X294.366Y-169.241
X300.94Y-56.855
X301.244Y-18.348
X303.44Y-56.855
X304.526Y-169.241
X306.244Y-18.348
T4
X215.235Y-114.048
X217.735Y-114.048
X220.235Y-114.048
T5
X18.228Y-254.457
X20.768Y-254.457
X23.308Y-254.457
X25.848Y-254.457
X28.388Y-254.457
X30.928Y-254.457
X33.468Y-254.457
X45.118Y-143.151
X47.658Y-143.151
X49.925Y-255.267
X50.198Y-143.151
X52.465Y-255.267
X52.738Y-143.151
X55.005Y-255.267
X57.545Y-255.267
X69.195Y-144.699
X71.735Y-144.699
X74.001Y-258.672
X74.275Y-144.699
X76.541Y-258.672
X76.815Y-144.699
X79.081Y-258.672
X93.271Y-143.294
X95.538Y-260.576
X95.811Y-143.294
X98.078Y-260.576
X98.351Y-143.294
X100.618Y-260.576
X100.891Y-143.294
X103.158Y-260.576
X115.405Y-23.048
X117.348Y-143.104
X119.614Y-255.005
X119.888Y-143.104
X122.154Y-255.005
X122.428Y-143.104
X123.005Y-23.048
X124.694Y-255.005
X124.968Y-143.104
X141.151Y-254.267
X143.691Y-254.267
X146.231Y-254.267
X148.538Y-228.055
X148.771Y-254.267
X151.078Y-228.055
X153.618Y-228.055
X156.158Y-228.055
X158.698Y-228.055
X161.238Y-228.055
X163.778Y-228.055
X165.227Y-255.386
X166.318Y-228.055
X167.767Y-255.386
X168.795Y-140.286
X168.795Y-142.826
X168.858Y-228.055
X170.307Y-255.386
X171.335Y-140.286
X171.335Y-142.826
X171.398Y-228.055
X172.847Y-255.386
X173.875Y-140.286
X173.875Y-142.826
X175.387Y-255.386
X176.415Y-140.286
X176.415Y-142.826
X177.927Y-255.386
X178.955Y-140.286
X178.955Y-142.826
X180.467Y-255.386
X181.495Y-140.286
X181.495Y-142.826
X183.007Y-255.386
X184.035Y-140.286
X184.035Y-142.826
X184.948Y-213.854
X185.547Y-255.386
X186.575Y-140.286
X186.575Y-142.826
X187.488Y-213.854
X189.115Y-140.286
X189.115Y-142.826
X191.655Y-140.286
X191.655Y-142.826
X192.568Y-213.854
X194.195Y-140.286
X194.195Y-142.826
X195.108Y-213.854
X196.735Y-140.286
X196.735Y-142.826
X199.275Y-140.286
X199.275Y-142.826
X201.815Y-140.286
X201.815Y-142.826
X204.355Y-140.286
X204.355Y-142.826
X206.895Y-140.286
X206.895Y-142.826
X209.435Y-140.286
X209.435Y-142.826
X211.975Y-140.286
X211.975Y-142.826
X214.515Y-140.286
X214.515Y-142.826
X217.055Y-140.286
X217.055Y-142.826
X236.438Y-113.798
X238.978Y-113.798
X241.518Y-113.798
X244.058Y-113.798
X247.79Y-60.855
X252.79Y-60.855
T6
X138.375Y-85.271
X148.535Y-85.271
T7
X105.715Y-212.274
X120.955Y-212.274
T8
X50.875Y-86.571
X66.115Y-86.571
X161.485Y-86.571
X176.725Y-86.571
X189.875Y-86.571
X205.115Y-86.571
X249.515Y-88.801
X272.015Y-88.801
X285.565Y-88.801
X308.065Y-88.801
T9
X19.125Y-113.298
X19.125Y-115.798
X22.625Y-113.298
X22.625Y-115.798
X28.425Y-113.298
X28.425Y-115.798
X31.925Y-113.298
X31.925Y-115.798
X220.815Y-85.601
X220.815Y-88.101
X224.315Y-85.601
X224.315Y-88.101
X230.115Y-85.601
X230.115Y-88.101
X233.615Y-85.601
X233.615Y-88.101
T10
X18.065Y-144.704
X23.145Y-144.704
X28.225Y-144.704
X144.815Y-116.518
X149.895Y-116.518
X166.625Y-116.518
X171.705Y-116.518
X176.785Y-116.518
X193.515Y-116.518
X198.595Y-116.518
X231.975Y-213.074
X247.215Y-213.074
X260.351Y-116.518
X260.965Y-213.074
X265.431Y-116.518
X270.512Y-116.518
X276.205Y-213.074
X287.241Y-116.518
X289.955Y-213.074
X292.322Y-116.518
X297.401Y-116.518
X305.195Y-213.074
T11
X22.835Y-19.378
T12
X25.525Y-114.548
X227.215Y-86.851
T13
X49.025Y-114.148
X64.975Y-114.148
X80.925Y-114.148
X96.875Y-114.148
X112.825Y-114.148
X128.775Y-114.148
X260.765Y-88.801
X296.815Y-88.801
T14
X31.345Y-35.378
X86.585Y-19.378
M30
